<?xml version="1.0" standalone="no"?>
<!DOCTYPE svg PUBLIC "-//W3C//DTD SVG 20010904//EN"
 "http://www.w3.org/TR/2001/REC-SVG-20010904/DTD/svg10.dtd">
<svg version="1.0" xmlns="http://www.w3.org/2000/svg"
 width="4730.000000pt" height="4873.000000pt" viewBox="0 0 4730.000000 4873.000000"
 preserveAspectRatio="xMidYMid meet">
<metadata>
Created by potrace 1.16, written by Peter Selinger 2001-2019
</metadata>
<g transform="translate(0.000000,4873.000000) scale(0.100000,-0.100000)"
fill="#000000" stroke="none">
<path d="M27985 48018 c-194 -17 -390 -53 -570 -105 -269 -77 -667 -271 -882
-430 -28 -21 -87 -64 -131 -95 -43 -31 -137 -107 -208 -168 -83 -71 -160 -127
-214 -156 -158 -84 -301 -188 -415 -301 -72 -72 -110 -103 -112 -93 -4 16 33
128 127 390 56 155 68 200 53 200 -20 0 -128 -41 -202 -76 -117 -56 -246 -149
-352 -254 -126 -124 -194 -228 -273 -417 -18 -43 -40 -79 -48 -81 -9 -2 -67
61 -149 163 -73 92 -135 162 -137 156 -2 -6 15 -70 39 -143 53 -168 94 -301
110 -356 16 -57 2 -72 -37 -39 -102 86 -318 197 -479 247 -55 17 -114 35 -131
40 -17 6 -39 10 -49 10 -10 0 -27 7 -37 16 -27 25 -304 32 -818 23 -521 -10
-680 -22 -975 -70 -268 -44 -540 -116 -765 -202 -88 -34 -147 -54 -195 -66
-317 -78 -717 -261 -1005 -459 -197 -136 -421 -337 -620 -557 -26 -28 -73 -65
-110 -84 -159 -84 -458 -268 -591 -363 -25 -18 -74 -53 -110 -77 -236 -163
-567 -431 -759 -615 -52 -50 -126 -121 -165 -157 -94 -88 -349 -351 -406 -419
-26 -30 -75 -89 -110 -130 -285 -335 -275 -323 -568 -725 -182 -250 -410 -508
-671 -759 -58 -56 -123 -119 -145 -141 -23 -22 -74 -69 -115 -105 -41 -36
-108 -97 -149 -136 -175 -163 -219 -204 -282 -260 -321 -286 -623 -584 -819
-809 -58 -66 -111 -126 -118 -133 -32 -34 -148 -191 -239 -322 -161 -233 -249
-385 -434 -750 -35 -69 -73 -145 -83 -170 -20 -47 -47 -111 -72 -169 -8 -18
-33 -84 -55 -145 -22 -61 -44 -120 -49 -131 -5 -11 -23 -63 -40 -115 -17 -52
-35 -103 -40 -112 -6 -10 -10 -25 -10 -33 0 -8 -4 -23 -9 -33 -5 -9 -14 -35
-20 -57 -14 -47 -41 -112 -87 -210 -42 -91 -63 -139 -114 -260 -23 -55 -57
-134 -75 -175 -49 -110 -106 -272 -214 -605 -16 -48 -77 -277 -93 -345 -5 -25
-14 -63 -20 -85 -14 -61 -44 -214 -57 -300 -28 -174 -44 -314 -56 -485 -3 -47
-10 -103 -15 -125 -5 -22 -16 -69 -24 -105 -8 -36 -17 -78 -20 -95 -3 -16 -16
-91 -29 -165 -14 -74 -27 -155 -30 -180 -3 -25 -8 -61 -11 -80 -7 -44 -14
-106 -26 -240 -5 -58 -11 -130 -14 -160 -9 -93 -16 -179 -26 -330 -5 -80 -12
-154 -14 -165 -3 -11 -13 -108 -21 -215 -36 -441 -74 -715 -109 -775 -24 -40
-35 -60 -96 -170 -18 -33 -51 -88 -72 -123 -21 -34 -38 -64 -38 -67 0 -18
-284 -447 -389 -588 -45 -59 -81 -110 -81 -113 0 -17 -265 -340 -449 -549
-176 -199 -231 -254 -291 -292 -77 -49 -265 -185 -326 -236 -157 -130 -229
-195 -319 -288 -122 -126 -253 -273 -335 -377 -34 -42 -70 -86 -79 -97 -58
-69 -206 -285 -355 -520 -32 -49 -94 -138 -139 -197 -45 -58 -115 -155 -156
-215 -41 -59 -82 -117 -92 -128 -62 -71 -296 -505 -359 -664 -11 -30 -29 -73
-39 -95 -11 -23 -34 -85 -52 -140 l-33 -98 -85 -56 c-47 -31 -99 -63 -116 -72
-43 -24 -163 -98 -212 -131 -23 -16 -44 -29 -47 -29 -2 0 -37 -22 -78 -48 -40
-27 -135 -88 -211 -138 -248 -161 -428 -290 -778 -560 -238 -183 -623 -557
-835 -809 -144 -171 -324 -437 -446 -660 -62 -112 -168 -334 -168 -350 0 -3
-8 -24 -19 -48 -33 -74 -81 -202 -81 -215 0 -7 -4 -20 -9 -30 -5 -9 -15 -37
-21 -62 -7 -25 -16 -54 -20 -65 -5 -11 -11 -33 -15 -50 -3 -16 -10 -46 -14
-65 -10 -38 -27 -117 -42 -190 -6 -25 -14 -76 -19 -115 -5 -38 -13 -90 -17
-115 -4 -25 -7 -166 -8 -315 0 -254 7 -343 35 -480 5 -22 14 -67 20 -100 7
-33 16 -71 20 -85 4 -14 18 -59 30 -100 28 -91 43 -130 51 -130 3 0 11 35 17
78 26 181 112 399 214 542 134 186 154 187 94 6 -19 -57 -44 -143 -56 -192
-11 -49 -25 -105 -30 -124 -25 -94 -45 -292 -45 -440 0 -89 14 -299 20 -310 2
-3 6 -26 10 -50 9 -61 57 -238 90 -330 78 -218 183 -436 350 -725 178 -309
165 -276 165 -412 0 -172 -28 -468 -60 -633 -6 -30 -13 -68 -16 -85 -16 -94
-94 -356 -148 -497 -81 -213 -251 -507 -395 -683 -184 -226 -439 -451 -665
-589 -69 -42 -257 -135 -343 -169 -285 -113 -637 -160 -940 -123 -365 44 -673
164 -948 370 -115 86 -300 276 -368 378 -33 49 -62 88 -65 88 -3 0 -1 -5 6
-12 7 -7 12 -18 12 -25 0 -25 69 -158 127 -245 74 -111 235 -277 340 -351 165
-116 497 -265 683 -307 19 -5 61 -15 93 -24 32 -9 68 -16 81 -16 26 0 51 -24
41 -40 -3 -5 -18 -10 -32 -10 -14 0 -42 -4 -62 -9 -20 -5 -58 -14 -86 -20 -27
-5 -126 -27 -218 -47 l-168 -36 -46 17 c-44 17 -179 85 -268 135 -164 92 -466
320 -602 454 -46 44 -83 77 -83 72 0 -34 277 -309 435 -432 95 -74 295 -205
380 -249 11 -6 21 -17 23 -26 2 -12 -28 -25 -125 -54 -326 -99 -610 -227 -838
-378 -242 -160 -457 -387 -557 -587 -50 -100 -101 -238 -122 -330 -10 -41 -42
-124 -71 -185 -110 -227 -196 -496 -270 -847 -29 -140 -66 -448 -79 -668 -5
-78 6 -72 24 15 23 110 40 160 130 385 53 132 110 237 205 380 115 172 273
355 400 460 124 104 241 188 344 250 95 55 94 39 -1 -89 -40 -53 -75 -98 -78
-101 -3 -3 -17 -21 -30 -40 -13 -19 -27 -37 -30 -40 -7 -5 -56 -75 -155 -220
-33 -49 -83 -121 -111 -162 -225 -325 -370 -660 -414 -954 -29 -193 -15 -531
31 -736 7 -32 8 -63 0 -100 -5 -29 -13 -80 -16 -113 -4 -32 -8 -62 -10 -65 -1
-3 -6 -43 -10 -90 -3 -46 -8 -87 -10 -90 -1 -3 -6 -75 -9 -160 -3 -85 -9 -220
-13 -300 -12 -215 -8 -669 6 -795 51 -451 164 -879 324 -1218 27 -59 52 -105
54 -103 2 2 -14 54 -36 117 -96 274 -188 645 -221 894 -7 50 -15 110 -19 135
-10 62 -8 119 4 121 6 1 31 -63 57 -142 64 -194 100 -282 174 -425 73 -143 95
-177 194 -308 41 -54 85 -112 98 -130 66 -92 295 -286 437 -372 56 -33 179
-94 192 -94 4 0 21 -21 37 -48 118 -191 148 -236 204 -307 76 -96 214 -238
300 -308 34 -28 62 -53 62 -56 0 -3 -16 -29 -36 -56 -61 -86 -138 -260 -174
-395 -6 -25 -16 -59 -21 -76 -5 -17 -9 -44 -9 -62 0 -17 -4 -33 -9 -36 -15
-10 -25 -157 -25 -371 -1 -194 6 -276 35 -425 5 -30 13 -72 16 -93 3 -20 9
-40 14 -43 5 -3 9 -16 9 -30 0 -13 4 -32 9 -42 5 -9 15 -37 22 -62 7 -25 15
-49 19 -55 3 -5 12 -28 19 -50 43 -127 141 -310 250 -470 30 -44 57 -82 60
-85 4 -3 20 -23 36 -45 90 -121 352 -358 522 -473 238 -161 587 -311 937 -401
117 -31 424 -95 501 -105 22 -3 65 -8 95 -12 61 -8 97 -22 84 -34 -16 -15
-171 -47 -314 -66 -208 -27 -380 -20 -660 27 -174 29 -282 58 -469 124 -40 14
-75 24 -78 22 -7 -8 345 -257 482 -341 344 -210 470 -285 595 -353 94 -52 422
-216 490 -246 63 -28 80 -35 135 -57 61 -24 81 -33 97 -41 10 -5 26 -9 36 -9
10 0 22 -4 27 -8 6 -5 30 -15 55 -22 25 -8 50 -17 55 -20 6 -4 21 -10 35 -13
14 -3 57 -15 95 -27 148 -46 380 -97 520 -116 33 -4 62 -9 65 -9 37 -9 226
-19 379 -19 242 -2 346 6 541 40 80 13 104 18 218 45 62 15 172 49 194 60 10
5 25 9 33 9 8 0 25 5 38 12 44 23 57 28 67 28 13 0 70 26 265 120 253 122 449
263 671 485 258 258 496 619 648 988 20 48 45 106 56 130 58 125 188 551 249
817 12 52 26 113 31 135 9 41 21 135 40 325 33 330 78 529 138 609 65 87 177
76 366 -37 123 -74 161 -85 309 -90 198 -6 276 18 551 176 294 169 521 365
765 662 118 144 167 208 184 237 5 7 -29 41 -90 89 -271 215 -633 574 -579
574 2 0 36 -18 77 -41 224 -123 425 -195 639 -230 111 -19 348 -31 426 -22
l79 8 -75 49 c-120 78 -228 167 -337 278 -122 124 -152 159 -203 235 -44 65
-40 85 12 60 270 -127 680 -158 1023 -77 478 113 908 419 1190 849 281 427
429 901 476 1526 10 143 7 538 -5 615 -2 14 -7 63 -11 110 -31 402 -138 966
-385 2040 -29 124 -65 281 -81 350 -15 69 -48 213 -74 320 -48 203 -143 620
-171 750 -9 41 -20 93 -25 115 -5 22 -14 65 -20 95 -23 117 -27 137 -39 190
-12 54 -17 77 -40 195 -7 33 -16 80 -21 105 -14 63 -25 124 -39 200 -6 36 -15
89 -20 118 -6 28 -14 76 -19 105 -26 143 -130 483 -201 652 -4 11 -27 70 -50
130 -23 61 -51 130 -62 155 -31 68 -34 77 -68 180 -17 52 -35 105 -41 118 -24
57 -28 70 -40 107 -7 22 -17 44 -21 49 -4 6 -8 19 -8 31 0 12 -4 25 -8 31 -5
5 -15 29 -22 54 -8 25 -17 50 -20 55 -4 6 -17 44 -29 85 -13 41 -31 100 -41
130 -86 255 -132 459 -134 587 0 51 -4 93 -8 93 -3 0 -24 -15 -46 -33 -129
-108 -345 -142 -527 -82 -116 38 -240 109 -349 201 -88 74 -229 262 -305 409
-46 88 -46 87 59 99 111 12 323 71 485 134 187 74 422 209 552 318 28 24 56
44 62 44 14 0 14 -42 0 -77 -7 -15 -17 -41 -24 -58 -7 -16 -16 -41 -20 -55
-21 -70 -81 -166 -147 -235 l-71 -75 40 0 c22 0 85 12 139 26 196 51 240 58
299 45 114 -26 200 -116 299 -315 64 -130 98 -225 156 -441 25 -90 39 -133
155 -470 53 -154 101 -293 105 -310 14 -53 80 -249 90 -267 6 -10 10 -25 10
-33 0 -8 4 -23 9 -33 5 -9 32 -89 61 -177 29 -88 63 -183 76 -210 12 -28 32
-75 44 -105 12 -30 44 -102 71 -158 27 -57 49 -105 49 -106 0 -16 129 -222
195 -310 109 -147 231 -256 165 -148 -11 18 -67 146 -124 285 -168 410 -222
572 -295 882 -101 435 -128 704 -108 1078 6 111 30 353 42 427 2 14 11 77 20
142 9 64 36 230 60 370 24 139 41 255 38 258 -16 17 -193 -256 -269 -416 -35
-73 -69 -136 -76 -140 -8 -5 -9 34 -2 162 13 257 11 1115 -4 1384 -18 321 -37
608 -62 950 -46 631 -65 977 -76 1445 -7 273 -8 279 -23 235 -36 -102 -92
-171 -185 -232 -53 -34 -106 -50 -106 -31 0 9 199 403 216 428 8 11 14 28 14
39 0 17 -7 14 -42 -20 -107 -102 -391 -285 -417 -270 -15 10 -21 170 -11 331
15 244 42 429 100 690 5 25 14 64 19 88 6 23 13 56 16 72 4 17 10 39 15 50 4
11 13 45 20 75 14 63 21 89 48 180 10 36 25 85 32 110 7 25 16 56 20 70 4 14
13 45 20 70 7 25 19 65 27 90 16 50 109 410 116 450 3 14 12 57 21 95 27 113
35 148 41 185 3 19 10 58 15 85 47 246 78 451 100 675 5 58 15 125 21 150 34
146 49 294 79 780 5 85 12 184 14 220 3 36 8 124 11 195 3 72 8 157 10 190 2
33 7 119 10 190 3 72 8 166 10 210 3 44 10 175 15 290 17 352 45 850 55 985 3
41 7 111 10 154 15 223 26 360 35 427 5 41 16 151 25 244 8 94 17 181 20 195
2 14 7 54 10 90 33 352 140 1039 220 1415 99 470 292 1149 390 1375 13 30 49
120 80 200 67 171 88 221 165 395 37 84 216 438 266 527 102 182 337 543 443
683 135 179 304 382 416 500 17 17 47 51 68 76 21 24 197 205 390 403 504 513
622 638 761 801 146 173 164 190 227 224 128 67 214 114 224 121 6 4 46 26 90
50 44 24 92 51 107 61 14 11 28 19 31 19 3 0 43 23 89 52 46 28 92 56 103 62
94 52 324 218 522 378 114 91 393 359 473 454 19 22 89 101 156 175 144 160
232 265 432 516 83 103 161 194 174 202 27 17 294 163 418 229 307 163 885
452 905 452 3 0 34 14 70 30 36 17 68 30 70 30 2 0 30 12 62 26 32 14 73 32
91 40 17 8 47 20 65 28 17 8 57 24 87 36 30 12 69 28 85 35 44 19 228 88 320
120 44 15 89 31 100 35 51 21 239 85 410 139 107 34 415 117 560 151 156 37
168 39 275 60 58 11 128 25 155 30 57 11 126 23 238 41 42 6 75 14 73 17 -3 2
-48 8 -100 13 -53 5 -138 13 -188 19 -215 22 -308 32 -395 39 -100 8 -116 14
-85 30 20 11 55 17 157 26 33 3 105 10 160 16 55 5 145 14 200 19 55 6 143 14
195 20 52 5 145 14 205 20 61 6 151 15 200 20 50 5 122 12 160 16 39 3 84 7
100 10 17 2 64 7 105 10 100 8 112 12 80 29 -14 8 -50 21 -80 30 -30 9 -68 22
-85 29 -16 8 -37 16 -45 18 -34 11 71 6 145 -7 90 -16 262 -41 345 -49 30 -4
73 -8 95 -11 22 -2 67 -7 100 -9 33 -3 120 -10 194 -17 180 -15 576 -7 696 16
65 12 115 30 180 63 307 156 259 144 540 141 305 -3 461 -17 438 -40 -5 -5
-74 -27 -154 -48 -152 -42 -370 -114 -404 -135 -11 -7 -47 -23 -80 -36 -84
-33 -367 -178 -385 -197 -13 -14 -12 -15 10 -10 207 47 636 101 915 116 138 8
760 5 773 -3 4 -2 54 -7 112 -11 58 -3 114 -8 126 -10 11 -3 45 -7 75 -10 30
-3 68 -8 84 -10 17 -3 64 -9 105 -15 41 -5 89 -12 105 -15 340 -63 344 -64
427 -106 113 -57 230 -149 463 -362 178 -163 440 -435 586 -607 35 -41 69 -79
75 -85 13 -11 491 -556 544 -619 129 -154 675 -672 810 -767 295 -208 340
-238 489 -315 67 -35 87 -53 145 -125 53 -65 125 -149 167 -194 50 -52 63 -77
309 -560 158 -310 217 -424 229 -440 8 -10 31 -53 136 -250 172 -323 411 -707
567 -910 80 -104 250 -319 258 -325 3 -3 48 -54 99 -115 51 -60 150 -171 220
-245 266 -283 409 -457 559 -683 63 -94 82 -125 150 -242 105 -182 259 -568
327 -820 32 -116 56 -210 66 -260 13 -58 27 -124 40 -180 5 -22 13 -65 19 -95
5 -30 14 -82 20 -115 6 -33 16 -89 21 -125 6 -36 15 -92 20 -125 24 -151 64
-462 75 -585 3 -36 7 -70 9 -77 5 -15 -8 -24 -21 -15 -12 9 -78 113 -132 207
-21 39 -86 146 -143 238 -57 92 -110 179 -117 193 -25 47 -24 16 1 -63 79
-244 152 -545 197 -805 31 -179 45 -270 60 -385 23 -188 30 -240 34 -288 3
-27 7 -70 10 -95 3 -25 10 -97 16 -160 6 -63 13 -135 15 -160 3 -25 7 -81 10
-125 4 -44 8 -96 10 -115 5 -34 25 -284 26 -325 1 -11 -4 -65 -10 -120 -6 -55
-15 -143 -21 -195 -5 -52 -12 -111 -14 -130 -2 -19 -9 -100 -16 -180 -6 -80
-15 -183 -19 -230 -11 -114 -10 -541 1 -660 15 -165 29 -293 38 -350 5 -30 14
-89 20 -130 51 -336 178 -771 342 -1165 54 -128 188 -408 236 -490 16 -27 53
-90 82 -140 83 -141 80 -132 70 -205 -9 -70 -6 -426 5 -550 3 -41 13 -140 20
-220 8 -80 17 -170 20 -200 3 -30 10 -73 15 -95 5 -22 14 -89 20 -150 6 -60
15 -141 20 -180 21 -160 25 -282 25 -715 0 -423 -9 -848 -20 -965 -3 -27 -10
-124 -15 -215 -14 -222 -19 -284 -30 -355 -5 -33 -14 -107 -20 -165 -35 -337
-82 -669 -146 -1020 -28 -153 -117 -602 -139 -700 -151 -665 -278 -1191 -389
-1610 -14 -52 -27 -106 -30 -120 -2 -14 -23 -101 -46 -195 -23 -93 -45 -188
-49 -210 -62 -297 -78 -398 -90 -565 -12 -151 -6 -254 26 -502 6 -46 0 -47
-67 -13 -52 26 -139 44 -141 29 0 -5 -3 -22 -5 -39 -3 -16 -21 -138 -40 -270
-19 -132 -39 -244 -44 -249 -7 -7 -21 1 -42 20 -40 37 -73 51 -135 60 -51 6
-61 -2 -76 -61 -10 -38 -64 -185 -70 -192 -4 -3 -7 -16 -7 -28 0 -11 -4 -25
-8 -31 -4 -5 -14 -27 -21 -49 -7 -22 -16 -49 -21 -60 -5 -11 -24 -67 -44 -125
-69 -208 -137 -405 -146 -425 -5 -11 -14 -38 -21 -60 -7 -22 -17 -44 -21 -49
-4 -6 -8 -20 -8 -31 0 -12 -3 -25 -7 -28 -6 -7 -35 -88 -93 -257 -46 -138 -81
-233 -96 -267 -8 -18 -23 -58 -34 -90 -10 -32 -37 -110 -60 -173 -42 -118
-121 -346 -192 -552 -53 -151 -68 -151 -68 3 0 60 -4 109 -8 109 -5 0 -30 -42
-57 -93 -26 -50 -60 -114 -75 -142 -15 -27 -46 -84 -68 -125 -50 -94 -87 -158
-137 -238 -22 -35 -101 -161 -175 -280 -206 -330 -289 -452 -522 -758 -37 -49
-96 -126 -130 -172 -35 -46 -71 -94 -81 -108 -43 -56 9 -15 177 141 396 367
596 566 890 885 100 108 277 319 362 430 27 35 53 69 57 75 83 108 261 375
340 507 81 138 257 489 257 513 0 3 9 27 21 53 12 26 25 58 31 72 33 82 48 92
61 38 4 -18 13 -51 18 -73 26 -101 46 -231 57 -370 l7 -90 28 172 c15 94 29
180 31 190 2 10 11 59 20 108 21 116 40 201 91 420 24 102 47 124 60 58 9 -49
52 -176 77 -231 31 -66 33 -59 -58 -268 -44 -102 -145 -372 -221 -594 -21 -62
-32 -82 -44 -75 -5 4 -9 -15 -9 -44 0 -28 -4 -60 -9 -73 -10 -27 -39 -117 -53
-168 -5 -19 -13 -48 -18 -65 -29 -100 -127 -486 -158 -625 -28 -123 -59 -274
-91 -442 -6 -32 -16 -84 -22 -115 -13 -69 -23 -126 -38 -210 -6 -35 -16 -91
-22 -125 -6 -35 -15 -85 -19 -113 -5 -27 -14 -81 -20 -120 -31 -188 -30 -182
-61 -387 -6 -40 -13 -91 -15 -113 -3 -22 -9 -50 -15 -62 -17 -43 -27 -68 -39
-103 -7 -19 -16 -44 -20 -55 -4 -11 -13 -36 -20 -55 -7 -19 -21 -54 -31 -77
-11 -24 -19 -49 -19 -57 0 -8 -4 -18 -10 -21 -5 -3 -10 -17 -10 -30 0 -13 -4
-27 -10 -30 -6 -3 -10 -15 -10 -26 0 -10 -4 -27 -10 -37 -16 -28 -126 -375
-192 -607 -33 -116 -36 -126 -63 -240 -15 -60 -31 -119 -35 -130 -4 -11 -13
-47 -20 -80 -7 -33 -16 -73 -20 -90 -7 -27 -12 -53 -35 -170 -3 -16 -10 -50
-15 -75 -40 -191 -78 -450 -107 -740 -29 -289 -22 -956 13 -1185 2 -16 9 -61
14 -100 15 -112 36 -237 55 -330 18 -90 64 -281 75 -315 4 -14 13 -45 20 -70
25 -90 93 -288 142 -414 57 -145 57 -147 18 -366 -31 -170 -56 -335 -90 -585
-6 -44 -15 -107 -20 -140 -25 -179 -42 -337 -62 -570 -14 -166 -17 -652 -5
-785 10 -116 39 -317 57 -395 24 -109 52 -222 59 -240 5 -11 14 -38 21 -60 37
-121 115 -301 176 -404 48 -83 62 -101 191 -247 65 -74 218 -180 313 -218 70
-28 74 -34 44 -69 -59 -70 -140 -273 -201 -506 -23 -86 -26 -115 -26 -286 0
-108 4 -212 11 -240 6 -27 16 -77 23 -110 54 -270 146 -509 312 -805 128 -230
443 -624 643 -804 383 -347 820 -593 1229 -694 232 -57 364 -61 715 -18 133
16 291 29 365 30 l130 1 53 -80 c42 -65 169 -310 266 -515 53 -112 188 -359
229 -420 203 -299 377 -435 667 -519 303 -87 551 -90 1101 -13 47 7 91 6 155
-4 172 -26 319 -14 494 42 185 58 365 179 498 336 58 67 69 76 140 103 161 60
346 163 492 273 104 79 212 173 206 179 -2 2 -51 -25 -108 -60 -242 -150 -521
-288 -540 -269 -5 5 63 75 155 161 141 130 265 256 418 426 20 22 68 76 108
119 81 90 95 122 24 56 -103 -97 -243 -229 -323 -306 -110 -105 -249 -224
-261 -224 -5 0 -9 4 -9 10 0 24 34 109 58 145 31 47 217 300 476 648 65 87
116 161 113 164 -3 3 -18 -4 -34 -15 -15 -10 -59 -35 -98 -55 -251 -127 -395
-162 -665 -160 -162 0 -280 16 -332 44 -36 19 -3 26 162 34 174 7 362 35 500
74 110 31 300 95 300 101 0 4 -41 10 -92 14 -125 9 -235 40 -348 97 -223 113
-368 273 -466 513 -49 119 -65 201 -69 346 -6 230 42 397 168 585 41 62 162
211 206 255 31 31 44 48 121 165 33 49 60 94 60 101 0 6 9 19 20 29 19 18 21
16 62 -76 104 -233 249 -507 323 -613 22 -30 19 -18 -16 65 -46 112 -124 353
-159 489 -4 19 -13 54 -19 76 -15 57 -14 84 4 84 8 0 15 -4 15 -10 0 -33 126
-258 203 -360 75 -100 318 -333 332 -318 3 2 -7 20 -21 39 -47 63 -171 263
-219 354 -26 50 -51 95 -55 100 -16 23 -79 195 -93 255 -29 120 -40 206 -31
234 l9 27 16 -33 c9 -18 22 -51 29 -73 55 -180 260 -477 427 -621 264 -227
590 -364 903 -379 l105 -5 -55 16 c-141 42 -242 79 -321 119 -196 98 -383 259
-498 429 -68 101 -151 261 -151 289 0 9 -4 19 -10 22 -5 3 -10 15 -10 26 0 10
-4 27 -9 37 -5 9 -14 44 -21 77 -6 33 -16 76 -21 96 -12 47 -12 381 0 428 5
20 15 61 21 91 13 60 46 162 64 197 6 12 54 59 106 105 95 84 228 227 304 328
47 63 86 119 86 124 0 2 18 34 40 70 22 36 40 68 40 71 0 2 14 33 31 67 30 61
85 211 107 293 12 42 24 101 41 201 14 78 14 327 0 396 -6 29 -15 78 -21 108
-17 92 -87 290 -136 385 -56 111 -163 272 -228 345 -80 90 -86 98 -80 108 3 5
51 -6 108 -26 57 -19 118 -38 136 -43 17 -5 49 -14 70 -20 35 -10 78 -20 167
-40 185 -41 524 -79 600 -68 22 3 38 7 35 8 -3 0 -59 10 -125 22 -171 30 -201
36 -285 58 -41 11 -86 23 -100 26 -184 49 -335 115 -414 182 -74 63 -106 109
-106 154 0 31 7 43 41 72 22 19 52 38 67 41 15 4 47 12 72 18 25 6 226 14 455
18 241 5 433 12 465 19 30 7 70 14 88 18 18 3 35 9 38 14 3 5 16 9 29 9 13 0
27 5 30 10 3 6 14 10 23 10 51 0 336 174 443 270 19 17 71 61 117 97 45 36 80
68 77 71 -2 2 -39 -12 -81 -33 -92 -44 -98 -46 -239 -97 -111 -40 -175 -58
-275 -76 -147 -28 -191 -34 -207 -27 -16 6 -15 8 7 25 14 11 29 20 33 20 5 0
32 15 60 33 29 19 70 45 92 58 22 13 47 29 56 34 278 169 640 538 838 857 70
112 191 342 191 364 0 8 -39 -26 -87 -74 -49 -48 -133 -126 -188 -173 -97 -83
-265 -209 -278 -209 -18 0 -2 37 53 122 79 123 168 276 213 365 20 40 41 80
46 90 5 10 19 41 31 68 13 28 34 75 48 105 97 211 188 535 223 790 14 105 23
428 11 415 -5 -5 -23 -50 -41 -100 -18 -49 -36 -97 -42 -105 -5 -8 -12 -23
-15 -32 -15 -45 -21 -3 -27 190 -6 218 -22 330 -72 507 -26 90 -34 111 -83
215 -33 69 -107 180 -162 243 -61 69 -208 162 -302 192 -179 56 -385 53 -653
-9 -33 -8 -143 -17 -244 -20 -101 -4 -187 -9 -192 -11 -16 -10 -406 -6 -474 4
-96 15 -245 50 -270 63 -40 22 -194 159 -280 250 -196 208 -334 424 -473 738
-21 48 -69 185 -82 235 -5 17 -15 55 -23 85 -8 30 -20 84 -26 120 -7 36 -14
74 -17 85 -14 64 -34 288 -34 395 0 108 20 354 34 415 3 11 10 49 17 85 11 62
19 95 54 228 34 126 64 211 114 324 12 26 21 51 21 55 0 17 233 284 346 397
107 108 376 349 430 386 30 21 172 149 283 255 167 160 337 373 431 540 39 69
88 200 116 312 24 91 28 129 28 243 1 154 -16 247 -68 370 -80 189 -278 428
-481 580 -33 25 -62 47 -65 50 -3 3 -35 29 -72 59 -38 29 -68 57 -68 62 0 12
41 28 104 40 166 31 440 150 606 263 173 117 309 260 443 463 162 247 236 458
297 847 24 150 10 577 -24 731 -3 11 -10 63 -16 115 -14 113 -46 308 -60 368
-6 23 -14 61 -20 85 -41 187 -94 376 -121 433 -10 23 -19 45 -19 49 0 29 -203
566 -266 703 -19 41 -34 75 -34 77 0 5 -110 237 -159 336 -56 111 -123 235
-162 299 -42 69 -163 269 -174 288 -58 99 -70 117 -271 422 -93 140 -177 268
-187 285 -11 16 -36 53 -56 80 -37 49 -110 154 -239 345 -36 52 -84 123 -108
156 -24 34 -44 64 -44 68 0 4 -31 53 -68 109 -97 144 -276 426 -335 527 -137
234 -191 331 -260 462 -87 166 -192 391 -248 531 -21 53 -43 105 -48 115 -17
31 -59 145 -82 225 l-22 77 36 163 c20 89 43 200 52 247 8 47 19 110 24 140
29 154 35 514 13 710 -11 91 -50 281 -82 396 -11 39 -23 117 -26 173 -13 255
-117 461 -354 706 -53 55 -117 127 -142 160 -26 33 -83 101 -128 150 -76 84
-207 265 -361 500 -36 55 -106 161 -155 235 -171 259 -340 526 -416 660 -11
19 -29 47 -39 62 -11 14 -19 28 -19 31 0 9 -65 112 -72 115 -5 2 -8 8 -8 13 0
5 -18 38 -40 74 -22 36 -40 67 -40 69 0 5 -74 134 -159 281 -29 50 -70 122
-91 160 -20 39 -52 97 -70 130 -87 155 -417 810 -623 1234 -23 47 -11 236 28
421 22 108 72 307 110 440 52 181 66 255 91 460 16 141 17 477 1 607 -9 76 -8
89 21 200 70 263 95 437 96 653 1 167 -2 202 -23 332 -28 168 -135 495 -183
557 -10 13 -18 28 -18 33 0 12 -126 244 -160 293 -16 22 -43 90 -60 150 -79
264 -254 705 -375 940 -56 110 -67 131 -177 323 -49 85 -88 156 -88 159 0 19
-318 486 -415 609 -218 278 -309 380 -574 644 -237 237 -344 330 -631 553 -96
75 -202 158 -235 185 -121 99 -575 432 -588 432 -4 0 -33 17 -66 38 -32 22
-74 45 -91 52 l-32 13 8 56 c16 107 8 249 -20 344 -46 156 -166 362 -309 531
-68 79 -423 448 -882 916 -441 449 -918 939 -924 949 -13 20 -773 781 -856
858 -174 158 -343 288 -529 406 -50 31 -98 62 -106 67 -34 23 -120 66 -190 97
-101 45 -97 44 -245 104 -71 29 -168 73 -215 97 -175 91 -386 260 -447 360
-218 353 -276 438 -387 572 -232 279 -448 416 -741 472 -74 14 -438 17 -531 5
-43 -6 -65 -2 -135 24 -303 111 -485 155 -724 174 -131 11 -248 12 -350 3z
m330 -43 c111 -8 281 -37 390 -66 22 -6 50 -13 62 -16 63 -15 218 -72 221 -81
1 -5 -5 -13 -15 -18 -10 -4 -184 -9 -388 -10 -203 0 -379 -4 -390 -7 -11 -2
-51 -8 -90 -12 -66 -6 -211 -26 -335 -45 -87 -14 -158 -28 -260 -51 -52 -11
-113 -25 -135 -30 -22 -5 -58 -14 -80 -20 -22 -5 -56 -14 -75 -19 -316 -80
-562 -161 -675 -225 -22 -12 -85 -51 -140 -87 -94 -62 -133 -77 -103 -40 7 9
67 56 133 104 66 49 127 95 136 102 21 17 137 92 214 138 81 48 264 139 350
173 39 15 84 33 100 41 43 18 202 69 295 93 135 36 328 68 459 76 46 3 85 6
87 7 3 4 146 0 239 -7z m1309 -196 c50 -6 107 -14 126 -19 19 -5 58 -14 85
-21 69 -16 202 -79 288 -136 128 -84 328 -301 475 -515 38 -56 56 -98 41 -98
-5 0 -49 37 -98 83 -48 46 -125 112 -172 148 -116 88 -366 244 -469 291 -119
56 -380 149 -460 165 -43 8 -171 75 -167 87 8 24 200 33 351 15z m-6809 -1289
c3 -5 -4 -12 -17 -14 -69 -15 -165 -39 -258 -67 -58 -17 -118 -34 -135 -39
-16 -4 -61 -19 -100 -32 -65 -23 -89 -25 -355 -32 -157 -4 -306 -9 -332 -12
-37 -3 -46 -1 -42 10 6 16 3 15 184 62 144 37 427 88 550 100 41 3 77 8 80 9
3 2 57 6 120 10 63 4 117 9 119 11 10 9 180 3 186 -6z m-810 -229 l30 -1 -25
-20 c-14 -11 -31 -20 -38 -20 -7 0 -20 -4 -30 -9 -9 -5 -44 -19 -77 -31 -33
-12 -68 -26 -77 -31 -10 -5 -24 -9 -33 -9 -8 0 -29 -8 -47 -18 -18 -9 -51 -23
-73 -30 -39 -13 -55 -19 -105 -40 -14 -5 -52 -20 -85 -32 -33 -12 -68 -26 -77
-31 -10 -5 -22 -9 -28 -9 -6 0 -29 -8 -53 -19 -23 -10 -69 -29 -102 -41 -33
-12 -69 -26 -80 -30 -11 -4 -47 -18 -80 -31 -77 -29 -268 -106 -322 -130 -24
-10 -45 -19 -48 -19 -3 0 -27 -10 -53 -21 -26 -12 -63 -28 -82 -36 -19 -8 -48
-21 -64 -29 -16 -8 -33 -14 -37 -14 -5 0 -33 -11 -64 -25 -30 -14 -80 -36
-111 -51 -32 -14 -71 -28 -88 -30 l-31 -6 34 29 c44 36 112 83 334 234 279
188 420 272 622 371 44 21 88 43 97 48 20 11 203 44 333 59 168 21 310 27 460
22z m-1128 -201 c-14 -12 -37 -26 -49 -33 -33 -17 -290 -179 -368 -233 -99
-67 -474 -337 -565 -405 -70 -54 -208 -129 -236 -129 -24 0 0 31 99 127 285
276 605 487 957 633 138 57 142 58 169 59 16 1 15 -2 -7 -19z m8952 -2542 c35
-18 76 -44 91 -58 15 -14 83 -74 151 -135 130 -115 163 -144 264 -235 34 -30
99 -89 146 -130 46 -41 129 -118 183 -170 130 -124 127 -121 312 -290 208
-190 317 -295 609 -585 292 -289 305 -304 492 -560 110 -150 137 -195 119
-195 -18 0 -100 47 -169 96 -26 19 -49 34 -52 34 -3 0 -26 16 -52 36 -27 20
-61 45 -77 57 -39 29 -106 84 -234 191 -101 84 -445 422 -577 566 -79 86 -203
225 -246 275 -19 22 -37 42 -40 45 -3 3 -81 93 -174 200 -92 107 -171 197
-175 200 -4 3 -28 30 -55 60 -130 149 -566 594 -591 604 -17 7 -19 26 -1 26 6
0 41 -14 76 -32z m585 -353 c99 -53 379 -252 581 -414 482 -386 891 -846 1183
-1331 41 -69 83 -137 93 -151 10 -14 16 -29 12 -32 -9 -9 -39 26 -108 128 -96
139 -195 268 -292 378 -94 105 -455 467 -578 579 -38 35 -106 97 -151 138 -44
41 -114 104 -154 140 -41 36 -117 106 -170 155 -52 50 -165 152 -250 227 -85
75 -173 153 -195 172 -47 42 -36 46 29 11z m-10664 -1169 c0 -16 -290 -313
-380 -388 -36 -30 -94 -76 -130 -103 -36 -27 -71 -55 -78 -62 -17 -16 -99 -73
-106 -73 -2 0 -39 -22 -80 -50 -42 -27 -78 -50 -81 -50 -3 0 -22 -11 -43 -23
-34 -22 -142 -83 -200 -113 -14 -7 -30 -10 -35 -7 -11 6 119 137 223 224 36
29 67 56 70 59 57 63 404 322 650 487 182 121 190 126 190 99z m-146 -333
c-35 -47 -63 -78 -190 -217 -206 -225 -404 -399 -690 -607 -122 -90 -335 -229
-349 -229 -4 0 -26 -13 -50 -30 -24 -16 -47 -30 -50 -30 -4 0 -19 -8 -33 -19
-15 -10 -63 -37 -107 -61 -44 -24 -101 -56 -127 -71 -28 -17 -50 -24 -54 -18
-7 12 8 32 181 241 229 277 198 248 378 338 197 98 292 149 463 251 215 127
308 196 498 364 80 72 146 125 154 125 2 0 -8 -17 -24 -37z m18927 -3821 c9
-15 50 -79 91 -142 41 -63 89 -142 108 -175 72 -128 224 -436 271 -550 28 -66
54 -129 59 -140 5 -11 15 -33 22 -50 11 -29 12 -30 16 -6 2 13 -3 63 -12 110
-8 47 -22 138 -31 201 -9 63 -32 195 -51 294 -20 98 -33 181 -29 184 11 11 33
-23 64 -98 17 -41 40 -93 50 -115 23 -48 54 -141 70 -210 7 -27 16 -66 21 -85
36 -141 48 -506 21 -655 -33 -189 -52 -278 -61 -288 -8 -9 -40 75 -40 104 0
10 -6 33 -14 51 -8 18 -29 80 -46 138 -31 103 -87 261 -117 330 -9 19 -22 51
-31 70 -43 100 -150 304 -202 385 -40 63 -48 84 -80 215 -31 132 -54 212 -103
375 -14 44 -23 83 -20 87 7 12 27 -1 44 -30z m-25349 -202 c-6 -11 -12 -30
-12 -42 0 -13 -7 -55 -15 -93 -8 -39 -27 -137 -41 -220 -38 -219 -39 -224 -69
-295 -15 -36 -47 -121 -70 -190 -24 -69 -62 -177 -84 -240 -72 -201 -111 -319
-111 -334 0 -7 -7 -16 -15 -20 -23 -8 -19 51 11 201 59 292 201 796 267 944 8
19 20 50 27 69 21 61 45 121 61 152 5 10 9 25 9 33 0 9 7 18 15 21 8 4 12 10
9 16 -3 5 -3 16 0 25 5 13 9 14 19 4 9 -9 9 -16 -1 -31z m25609 -775 c126
-272 218 -553 267 -815 26 -139 27 -133 -42 -336 -98 -288 -120 -347 -132
-351 -8 -3 -13 46 -18 154 -4 87 -9 187 -12 223 -8 118 -15 224 -19 265 -2 22
-6 74 -10 115 -5 65 -37 338 -50 425 -30 207 -38 262 -52 332 -19 101 -12 133
19 82 11 -19 33 -61 49 -94z m-25786 -319 c-4 -44 -9 -88 -10 -96 -2 -8 -6
-58 -10 -110 -4 -52 -8 -106 -10 -119 -3 -14 -7 -74 -10 -135 -3 -61 -7 -142
-10 -181 -3 -38 -6 -236 -7 -440 -2 -530 -18 -713 -78 -910 -27 -86 -40 -132
-47 -165 -3 -14 -9 -29 -13 -35 -4 -5 -10 -23 -14 -40 -7 -28 -9 -29 -21 -12
-7 10 -16 51 -19 90 -11 130 -17 200 -26 307 -6 58 -15 168 -20 245 -6 77 -13
156 -15 175 -2 19 -5 154 -5 300 -1 209 2 277 14 320 31 114 55 197 75 263 12
37 29 95 40 130 65 216 172 508 184 500 5 -3 6 -40 2 -87z m26105 -1062 c0
-104 -4 -211 -10 -239 -5 -27 -19 -108 -31 -178 -20 -124 -160 -701 -174 -715
-3 -3 -10 -1 -14 6 -12 20 -20 450 -11 607 7 134 10 146 59 285 29 80 71 199
93 265 48 143 66 181 79 168 5 -5 10 -93 9 -199z m-26490 -251 c0 -10 7 -106
15 -213 14 -185 24 -301 46 -540 5 -58 12 -178 15 -267 7 -185 16 -150 -104
-433 -87 -206 -140 -312 -153 -304 -6 4 -8 30 -5 68 4 33 11 108 16 166 11
111 24 275 40 505 12 180 19 266 25 340 3 33 8 87 11 120 14 178 49 458 70
553 5 26 24 30 24 5z m26579 -2036 c195 -381 323 -624 411 -777 35 -62 50 -87
115 -205 15 -27 33 -57 40 -65 7 -8 22 -33 32 -55 11 -22 40 -74 65 -115 53
-89 154 -259 184 -309 12 -20 45 -74 74 -121 29 -47 61 -99 71 -117 10 -18 31
-52 46 -75 14 -24 42 -68 61 -98 19 -30 91 -139 160 -242 68 -103 122 -193
119 -200 -5 -14 -293 267 -338 330 -15 20 -56 78 -91 127 -67 92 -228 342
-334 517 -32 54 -72 119 -88 145 -51 84 -290 563 -353 708 -34 77 -92 217
-128 310 -37 94 -70 179 -75 190 -4 11 -13 36 -20 55 -7 19 -15 44 -20 55 -19
53 -27 84 -22 90 10 9 18 -5 91 -148z m-3500 -1024 c5 -21 14 -87 21 -148 13
-123 15 -137 30 -209 5 -28 28 -157 51 -286 22 -129 51 -278 64 -330 20 -79
24 -121 24 -250 1 -85 3 -182 6 -215 2 -33 7 -95 10 -137 25 -353 112 -722
263 -1113 59 -153 82 -205 170 -384 62 -126 75 -172 56 -202 -12 -20 -44 16
-93 103 -54 95 -205 395 -231 458 -8 19 -27 67 -43 105 -103 246 -181 483
-241 730 -20 83 -43 170 -50 195 -8 25 -17 63 -21 85 -21 121 -27 155 -34 210
-5 33 -14 105 -20 160 -6 55 -12 109 -15 120 -6 28 -19 405 -18 495 1 41 4
118 7 170 3 52 7 132 10 178 2 46 7 86 9 91 3 4 6 45 7 91 2 92 7 120 20 120
4 0 12 -17 18 -37z m-25060 -1200 c-14 -18 -38 -45 -130 -149 -30 -33 -70 -79
-89 -101 -155 -177 -525 -543 -550 -543 -28 0 181 257 361 444 171 179 382
366 412 366 5 0 3 -8 -4 -17z m25384 -323 c27 -80 77 -209 107 -275 10 -22 28
-62 40 -90 99 -220 244 -706 289 -970 6 -38 16 -95 22 -125 15 -79 9 -124 -17
-128 -30 -4 -70 64 -161 278 -195 456 -287 802 -328 1239 -8 84 -12 158 -9
163 11 17 31 -15 57 -92z m-26173 -635 c-7 -8 -10 -15 -6 -15 6 0 -37 -71
-106 -173 -40 -59 -145 -259 -185 -352 -97 -224 -170 -455 -213 -667 -14 -69
-47 -120 -137 -210 -76 -78 -267 -213 -288 -204 -11 4 -10 15 6 63 11 32 24
67 29 78 4 11 23 58 41 105 17 47 49 121 69 165 21 44 57 123 81 175 51 115
244 494 270 532 11 14 19 29 19 32 0 13 76 114 154 206 77 91 261 280 273 280
3 0 0 -7 -7 -15z m-764 -992 c-8 -21 -23 -56 -34 -78 -11 -22 -28 -58 -37 -80
-10 -22 -23 -53 -31 -69 -8 -16 -14 -35 -14 -43 0 -7 -4 -21 -10 -31 -11 -20
-68 -175 -105 -287 -15 -44 -33 -90 -40 -101 -15 -23 -66 -58 -102 -69 -31 -9
-30 3 11 105 126 316 324 690 366 690 5 0 3 -17 -4 -37z m32579 -125 c26 -142
33 -272 30 -513 -2 -143 -5 -271 -8 -285 -3 -14 -11 -63 -17 -110 -6 -47 -20
-130 -31 -185 -32 -164 -51 -156 -80 31 -29 188 -33 407 -9 525 20 106 25 141
40 284 20 198 36 285 55 285 8 0 17 -14 20 -32z m-29097 -3387 c54 -4 -80
-126 -231 -210 -81 -45 -85 -23 -18 121 l40 87 83 3 c46 2 90 2 98 1 8 -1 21
-2 28 -2z m425 -214 c-11 -12 -121 -135 -244 -273 -123 -137 -237 -266 -253
-285 -17 -19 -82 -90 -146 -159 -64 -69 -132 -143 -151 -164 -19 -22 -55 -62
-80 -90 -25 -28 -62 -69 -82 -91 -57 -64 -62 -42 -27 126 17 79 35 162 39 184
50 244 153 603 175 610 6 2 38 6 71 9 196 19 262 28 365 54 64 16 167 50 230
75 114 45 140 46 103 4z m-360 -889 c-303 -306 -496 -660 -573 -1053 -25 -128
-38 -315 -22 -315 6 0 91 60 189 133 98 73 216 160 263 194 47 33 94 70 104
82 11 12 23 21 28 21 5 0 17 7 26 16 10 11 17 13 20 5 5 -16 -71 -100 -191
-211 -122 -114 -262 -258 -256 -264 5 -5 60 25 497 266 143 79 259 137 267
134 18 -6 19 -48 5 -149 -44 -303 -209 -620 -442 -843 -107 -104 -284 -225
-431 -295 -34 -17 -70 -34 -80 -40 -28 -15 -42 2 -76 97 -54 147 -80 252 -116
459 -29 168 -26 555 6 819 27 227 100 640 118 675 6 10 30 28 53 39 24 11 120
57 213 102 460 221 456 220 475 220 8 0 -27 -42 -77 -92z m24249 -278 c10 -19
56 -114 104 -210 47 -96 91 -182 98 -190 6 -8 18 -28 26 -45 8 -16 28 -52 44
-80 16 -27 55 -101 88 -163 32 -63 82 -155 110 -205 78 -141 222 -432 258
-522 17 -44 38 -93 45 -110 23 -52 46 -117 85 -235 60 -183 92 -330 119 -545
13 -105 11 -486 -4 -605 -7 -58 -16 -130 -20 -160 -9 -72 -50 -274 -76 -375
-19 -76 -26 -101 -48 -177 -6 -18 -14 -49 -19 -68 -17 -64 -83 -254 -103 -297
-10 -24 -19 -48 -19 -54 0 -13 -99 -217 -136 -279 -90 -152 -237 -289 -370
-345 -110 -46 -153 -55 -266 -55 -91 0 -122 4 -156 20 -43 19 -50 37 -21 51 8
3 43 20 79 35 95 43 224 131 313 214 43 40 76 74 74 77 -2 2 -47 -18 -98 -45
-102 -53 -148 -70 -306 -112 -90 -24 -193 -40 -261 -40 -59 0 -82 5 -122 26
-32 17 -50 33 -50 44 0 32 139 119 305 191 40 17 176 49 210 49 56 0 40 20
-17 21 -29 1 -62 3 -73 4 -11 2 -60 6 -110 10 -112 8 -155 14 -155 23 0 15 63
49 231 126 103 46 324 96 433 96 59 0 84 11 64 27 -7 6 -44 27 -83 48 -138 74
-345 125 -507 125 -58 0 -78 3 -78 13 0 8 46 50 103 95 322 255 576 608 707
984 22 63 40 125 40 136 0 11 5 24 10 27 13 8 13 28 0 23 -5 -1 -55 -48 -112
-104 -57 -55 -119 -111 -138 -124 -19 -13 -37 -27 -40 -30 -10 -12 -146 -107
-195 -136 -131 -78 -338 -172 -454 -205 -114 -33 -117 -25 -28 81 34 41 92
113 128 160 58 75 469 604 652 838 130 168 158 205 153 209 -2 3 -33 -17 -68
-44 -78 -59 -184 -133 -192 -133 -18 0 0 31 40 70 91 89 253 294 241 306 -3 3
-22 -5 -44 -18 -39 -25 -224 -117 -325 -162 -32 -14 -83 -37 -113 -51 -31 -14
-58 -25 -60 -25 -3 0 -24 -8 -48 -19 -119 -53 -201 -81 -211 -71 -5 5 -8 11
-5 13 278 217 413 358 576 602 71 107 140 232 131 240 -3 3 -22 -4 -42 -16
-85 -50 -225 -19 -314 68 -82 81 -123 188 -147 383 -17 132 -5 603 16 643 9
15 21 17 72 15 60 -3 63 -4 79 -38z m-30891 -132 c1 -7 0 -17 -1 -23 -10 -37
-21 -97 -26 -135 -3 -25 -9 -59 -14 -77 -12 -48 -12 -333 0 -426 17 -131 30
-219 40 -262 4 -22 14 -67 21 -100 11 -53 88 -362 109 -440 87 -317 150 -614
177 -835 23 -185 14 -193 -63 -58 -32 57 -69 121 -82 143 -30 53 -183 360
-204 410 -66 158 -127 348 -147 460 -5 33 -15 89 -22 125 -15 86 -15 439 0
526 33 185 47 259 61 304 4 14 13 45 20 70 28 100 56 179 91 257 10 24 19 50
19 58 0 18 19 20 21 3z m38339 -4160 c0 -18 -82 -141 -147 -221 -72 -88 -208
-213 -306 -281 -121 -84 -380 -206 -393 -185 -3 6 -4 11 -3 13 2 1 74 49 159
106 222 148 466 352 610 508 66 71 80 82 80 60z m-490 -328 c0 -29 -366 -276
-638 -431 -48 -28 -67 -24 -101 23 -25 34 -31 52 -31 93 0 45 4 55 33 82 37
37 122 83 187 102 25 7 56 17 70 21 14 5 50 14 80 21 30 6 66 15 80 20 14 4
57 15 95 23 39 9 102 25 140 35 84 24 85 24 85 11z m-8319 -852 c10 -13 18
-26 19 -29 0 -4 18 -38 40 -75 22 -38 40 -76 40 -85 0 -8 -12 -41 -27 -72 -33
-67 -50 -65 -64 9 -38 194 -47 274 -33 274 3 0 14 -10 25 -22z m-31208 -455
c4 -2 7 -11 7 -18 0 -22 -264 -146 -426 -201 l-141 -48 -74 17 c-131 31 -284
84 -287 99 -4 19 84 42 388 104 124 26 241 50 260 54 34 8 257 2 273 -7z
m-1001 -222 c52 -21 119 -46 149 -56 64 -21 77 -31 62 -46 -10 -10 -205 -61
-453 -119 -330 -77 -681 -194 -855 -285 -193 -101 -359 -221 -510 -367 -98
-95 -118 -95 -64 -1 58 101 217 273 359 388 244 197 604 368 1027 485 76 22
150 39 164 39 14 1 68 -16 121 -38z m-796 -1262 c3 -6 3 -14 -2 -18 -5 -3 -33
-35 -63 -71 -30 -36 -61 -72 -70 -80 -23 -22 -177 -229 -253 -340 -67 -100
-140 -218 -191 -310 -16 -30 -38 -66 -47 -80 -9 -14 -52 -95 -95 -180 -43 -85
-81 -159 -85 -165 -9 -13 -66 -146 -129 -305 -62 -159 -121 -336 -171 -518
-43 -155 -47 -165 -61 -157 -12 8 -12 336 1 411 42 246 125 474 257 702 63
108 380 573 487 712 252 329 289 371 357 395 45 17 56 17 65 4z m39603 -1379
c-4 -27 -10 -54 -13 -58 -7 -12 -54 -250 -61 -312 -17 -153 -21 -228 -19 -380
1 -146 5 -211 19 -300 18 -116 40 -225 61 -307 14 -54 28 -108 31 -121 3 -12
9 -25 14 -28 5 -3 9 -14 9 -25 0 -10 4 -27 9 -37 5 -9 24 -55 42 -102 44 -114
161 -341 212 -413 126 -175 193 -260 261 -330 109 -112 103 -121 -32 -44 -266
151 -480 377 -614 647 -77 155 -118 273 -155 450 -24 115 -26 145 -27 370 0
267 7 325 66 555 31 120 96 303 138 386 22 42 58 99 64 99 2 0 -1 -22 -5 -50z
m-7662 -1342 c-6 -63 -19 -145 -37 -248 -6 -30 -14 -86 -20 -125 -5 -38 -11
-81 -14 -95 -3 -14 -10 -61 -16 -105 -6 -44 -15 -105 -20 -135 -5 -30 -13 -86
-19 -125 -6 -38 -20 -126 -30 -195 -11 -69 -22 -145 -26 -169 -19 -141 -45
-344 -50 -396 -3 -33 -8 -69 -10 -80 -2 -11 -7 -59 -10 -106 -3 -47 -7 -95
-10 -107 -2 -12 -5 -55 -6 -97 -1 -42 -6 -95 -10 -118 -7 -37 -17 -108 -34
-257 -8 -66 -22 -223 -37 -410 -16 -203 -15 -910 2 -1095 15 -175 17 -225 6
-225 -10 -1 -41 85 -56 155 -4 22 -18 83 -29 135 -37 165 -46 214 -71 390 -30
209 -53 535 -53 745 0 84 14 449 18 465 1 3 5 43 9 90 39 454 169 1104 315
1585 10 33 28 94 41 135 26 87 102 318 123 376 8 21 18 47 21 57 3 9 11 17 17
17 8 0 10 -18 6 -62z m-31542 -50 c-4 -13 -25 -59 -46 -103 -131 -274 -267
-647 -328 -900 -12 -49 -26 -106 -31 -125 -16 -63 -35 -192 -51 -345 -24 -222
-10 -460 40 -695 31 -146 113 -338 205 -478 50 -76 181 -227 258 -299 63 -58
341 -272 462 -355 56 -38 101 -76 101 -85 0 -9 -51 -44 -124 -87 -68 -40 -151
-94 -184 -120 -33 -26 -65 -50 -72 -52 -28 -11 -234 184 -361 341 -108 133
-262 397 -324 555 -12 30 -27 69 -35 85 -7 17 -18 46 -25 65 -7 19 -16 44 -20
55 -14 32 -46 132 -79 245 -17 58 -35 119 -40 135 -8 27 -57 226 -81 330 -11
48 -46 228 -60 305 -10 58 -22 135 -40 261 l-11 77 60 123 c53 111 90 181 159
302 58 101 216 328 327 468 104 131 280 319 300 319 3 0 3 -10 0 -22z m41815
-1304 c39 -7 102 -25 138 -40 231 -92 404 -319 491 -641 31 -116 31 -119 60
-321 14 -96 13 -399 -2 -485 -22 -123 -32 -83 -33 128 -1 140 -6 226 -18 285
-21 111 -42 200 -66 285 -6 22 -14 50 -17 63 -3 12 -9 25 -14 28 -5 3 -9 12
-9 20 0 21 -56 137 -98 204 -103 163 -366 349 -602 426 -96 31 -112 41 -91 54
22 13 180 10 261 -6z m-42696 -111 c11 -71 23 -141 35 -203 5 -30 13 -68 16
-85 21 -113 53 -254 90 -400 43 -171 59 -224 120 -410 50 -150 64 -184 151
-370 14 -30 24 -59 22 -66 -2 -6 -33 22 -69 62 -255 289 -406 601 -449 929
-18 135 -9 437 15 505 21 59 44 97 55 90 4 -2 10 -26 14 -52z m32169 -1260 c3
-10 8 -40 12 -68 11 -83 17 -120 20 -126 4 -5 7 -47 20 -269 8 -123 29 -298
56 -458 18 -109 20 -149 14 -282 -4 -85 -8 -157 -10 -161 -2 -3 -7 -46 -11
-95 -3 -49 -8 -92 -10 -95 -2 -3 -6 -34 -10 -70 -3 -35 -8 -66 -11 -69 -22
-24 -64 209 -92 515 -31 333 -39 651 -21 899 11 157 19 277 20 289 0 14 19 7
23 -10z m8438 -3085 c104 -55 305 -249 450 -434 121 -154 233 -386 278 -576 6
-27 16 -69 23 -95 26 -103 13 -456 -22 -563 -4 -14 -23 -72 -41 -130 -65 -205
-234 -496 -367 -632 -46 -48 -62 -57 -62 -37 0 10 69 128 120 204 14 22 34 57
43 77 10 20 22 40 27 43 11 7 102 193 126 257 9 24 19 52 24 63 4 11 13 38 19
60 50 182 56 362 20 555 -17 91 -65 251 -94 315 -36 79 -96 202 -107 220 -7
11 -25 38 -39 60 -14 22 -28 47 -31 55 -11 30 -156 221 -300 398 -82 100 -148
183 -148 186 0 12 22 5 81 -26z"/>
<path d="M19330 38715 c-199 -47 -365 -148 -536 -328 -88 -92 -204 -229 -204
-240 0 -4 29 12 64 34 65 41 142 72 209 84 30 6 37 4 37 -9 0 -9 -4 -16 -8
-16 -5 0 -42 -42 -83 -92 -40 -51 -83 -101 -94 -111 -11 -10 -58 -51 -105 -92
-89 -77 -612 -614 -670 -687 -23 -30 -50 -37 -50 -13 0 26 38 158 60 209 11
26 20 53 20 59 0 15 -36 -24 -78 -83 -17 -25 -56 -74 -86 -110 -76 -89 -272
-349 -333 -440 -182 -274 -315 -569 -358 -799 -8 -42 -17 -87 -20 -101 -2 -14
-9 -45 -14 -70 -16 -74 -46 -370 -38 -370 4 0 27 34 92 135 68 105 182 248
297 370 25 28 57 64 69 80 13 17 26 32 29 35 3 3 49 59 102 126 101 126 252
278 287 287 36 9 45 -15 31 -90 -12 -66 -15 -77 -39 -136 -22 -54 -10 -48 82
45 50 52 162 151 247 222 208 172 189 155 335 295 72 68 167 152 211 187 110
86 211 133 228 105 6 -9 -65 -151 -143 -284 -28 -49 -51 -93 -51 -98 0 -6 12
-2 28 9 47 34 148 81 229 107 43 14 87 30 98 34 24 10 203 65 260 80 46 12
111 25 210 42 85 15 451 15 526 0 30 -5 88 -15 129 -21 144 -21 259 -43 331
-61 20 -5 49 -9 65 -9 28 0 27 1 -21 36 -28 20 -88 62 -135 95 -126 87 -128
88 -110 99 8 5 30 7 50 5 19 -2 71 -7 115 -11 44 -4 82 -8 85 -9 3 -1 34 -5
70 -10 36 -5 67 -9 70 -10 3 -1 25 -5 50 -9 194 -34 510 -125 647 -187 24 -10
45 -19 48 -19 24 0 355 -167 432 -219 34 -22 67 -41 73 -41 11 0 -9 44 -62
130 -32 53 -46 74 -132 190 -63 83 -219 243 -336 342 -130 110 -123 105 -193
152 -41 26 -56 41 -48 49 7 7 19 7 38 0 39 -15 97 -29 168 -43 33 -6 78 -15
100 -20 40 -8 135 -24 213 -36 23 -3 42 -3 42 0 0 6 -230 206 -446 386 -396
331 -694 528 -977 645 -201 82 -395 141 -617 184 -139 27 -407 36 -490 16z"/>
<path d="M31946 38213 c-3 -3 -44 -7 -93 -9 -568 -25 -1214 -306 -1648 -717
-34 -32 -40 -31 55 -8 94 24 170 31 323 31 91 0 168 -4 171 -8 2 -4 -20 -39
-51 -77 -114 -142 -253 -371 -253 -417 0 -18 22 -18 95 2 114 30 483 41 492
14 2 -6 -20 -29 -49 -51 -29 -21 -113 -83 -185 -138 -73 -54 -133 -102 -133
-106 0 -5 37 8 83 27 112 48 176 71 282 98 84 22 125 30 296 56 86 13 373 13
474 -1 162 -21 284 -49 284 -64 0 -5 -46 -22 -102 -37 -268 -69 -535 -205
-659 -335 l-27 -28 122 1 c67 1 149 -2 182 -6 33 -5 84 -11 113 -14 259 -30
514 -78 667 -126 16 -5 62 -19 100 -31 133 -41 311 -117 524 -223 224 -112
451 -241 451 -257 0 -11 8 -10 -150 -10 -81 0 -136 -4 -155 -12 l-29 -13 49
-13 c274 -73 541 -238 730 -452 99 -112 164 -207 232 -339 78 -152 131 -331
148 -503 13 -118 21 -98 56 133 15 96 15 451 0 555 -44 311 -109 530 -236 799
-15 31 -25 60 -22 62 3 3 36 -10 74 -30 54 -28 180 -76 200 -76 19 0 -111 230
-219 387 -39 56 -68 108 -65 116 8 21 177 68 243 68 l59 1 -27 23 c-39 33
-200 132 -288 175 -244 122 -329 157 -480 200 -25 7 -56 16 -70 20 -14 5 -50
14 -80 20 -88 18 -131 33 -127 44 2 6 12 12 23 14 10 2 28 7 39 12 31 13 76
27 127 40 47 12 210 9 301 -6 38 -6 39 -6 27 16 -24 44 -209 217 -297 277
-267 183 -515 261 -823 257 -63 0 -147 -4 -186 -9 -47 -5 -74 -4 -78 3 -7 12
148 159 240 227 32 25 98 68 147 96 48 28 87 55 87 60 0 5 -2 9 -5 9 -2 0 -48
11 -102 25 -247 62 -404 79 -673 71 -118 -3 -233 -7 -255 -8 -25 -2 -40 1 -40
9 0 10 114 100 188 148 15 10 26 20 23 22 -6 7 -94 11 -100 6z"/>
<path d="M29855 37928 c-22 -24 -60 -68 -85 -98 -25 -30 -47 -57 -50 -60 -3
-3 -33 -45 -67 -95 -59 -88 -142 -239 -175 -320 -44 -109 -76 -235 -60 -235 4
0 48 41 97 90 50 50 124 116 165 148 71 54 169 131 180 142 14 14 158 128 259
204 106 80 121 102 54 75 -15 -6 -37 -15 -48 -19 -26 -10 -86 -36 -132 -57
-21 -9 -67 -34 -102 -55 -66 -40 -76 -43 -85 -30 -7 12 27 144 64 248 17 48
29 91 28 96 -2 5 -21 -10 -43 -34z"/>
<path d="M22045 37209 c16 -49 329 -541 388 -609 63 -71 262 -261 265 -252 9
28 -165 388 -241 497 -79 114 -246 285 -331 339 -82 52 -90 55 -81 25z"/>
<path d="M20175 35768 c-120 -23 -313 -79 -390 -113 -16 -7 -46 -18 -65 -26
-19 -7 -109 -49 -200 -94 -150 -74 -214 -107 -350 -183 -25 -14 -70 -39 -100
-55 -155 -85 -394 -268 -476 -363 -109 -126 -204 -291 -241 -419 -80 -276 -88
-354 -42 -404 40 -42 80 -26 184 74 237 227 400 357 671 536 88 58 165 108
170 110 26 11 125 72 130 80 14 24 -172 -39 -269 -90 -124 -66 -178 -100 -272
-171 -49 -37 -112 -81 -140 -97 -69 -40 -175 -86 -182 -79 -20 20 86 179 195
291 142 145 289 237 617 385 88 40 203 93 255 117 126 60 278 129 315 143 11
5 36 13 55 20 19 7 44 16 55 20 11 5 61 19 110 31 76 19 118 23 270 23 111 0
201 -4 235 -12 30 -7 75 -18 100 -23 25 -6 54 -14 65 -19 11 -4 54 -18 95 -31
41 -12 79 -26 85 -31 5 -4 16 -8 25 -8 8 0 69 -28 135 -61 174 -89 172 -88
185 -104 7 -8 18 -15 24 -15 6 0 37 -19 68 -43 89 -66 194 -136 303 -203 120
-74 189 -123 236 -167 30 -28 281 -237 332 -276 39 -31 24 0 -30 61 -32 35
-83 93 -113 128 -141 164 -194 222 -242 264 -29 25 -93 79 -143 122 -98 83
-185 158 -249 215 -176 154 -403 292 -595 361 -31 10 -65 23 -76 28 -41 18
-176 53 -275 71 -76 14 -404 19 -465 7z"/>
<path d="M20405 35169 c-44 -4 -102 -13 -130 -18 -27 -6 -67 -14 -88 -17 -21
-4 -40 -11 -43 -15 -3 -5 -13 -9 -23 -9 -10 0 -46 -12 -82 -26 -198 -80 -400
-198 -554 -325 -38 -32 -109 -88 -157 -126 -211 -168 -568 -502 -625 -586 -42
-61 -41 -64 27 -70 47 -4 76 -14 118 -40 133 -81 300 -140 435 -153 76 -7 88
4 30 31 -91 43 -199 133 -245 204 -23 38 -28 55 -28 111 0 56 6 78 33 131 32
63 34 66 222 192 202 137 403 265 445 283 14 6 43 23 64 38 58 39 210 110 291
136 39 13 79 26 90 30 88 33 267 53 425 47 172 -6 245 -17 380 -56 19 -5 46
-13 60 -16 14 -4 34 -10 45 -15 11 -4 47 -18 80 -31 338 -127 839 -508 1010
-767 40 -61 65 -92 65 -80 0 10 -45 119 -69 167 -69 135 -294 394 -486 557
-180 153 -472 311 -675 366 -225 61 -407 78 -615 57z"/>
<path d="M30270 34860 c-78 -11 -131 -20 -160 -30 -14 -4 -45 -14 -70 -21 -45
-13 -58 -19 -205 -99 -120 -66 -216 -137 -425 -315 -148 -126 -256 -211 -326
-256 -35 -23 -64 -45 -64 -50 0 -10 46 -2 85 16 16 7 71 31 120 53 87 39 314
162 435 237 65 40 274 142 336 163 118 41 195 53 334 54 74 0 164 -3 200 -7
71 -8 247 -41 295 -55 213 -63 338 -102 420 -134 22 -8 81 -29 130 -47 50 -17
118 -45 153 -60 34 -16 64 -29 67 -29 21 0 277 -133 358 -186 210 -138 324
-238 450 -397 105 -132 114 -149 108 -214 -1 -14 -31 -18 -31 -5 0 4 -15 23
-33 42 -18 19 -96 112 -174 205 -145 175 -166 197 -230 239 -47 31 -121 58
-128 47 -2 -5 17 -26 43 -47 145 -118 329 -357 448 -584 16 -30 49 -86 75
-125 43 -65 68 -128 99 -247 16 -60 17 -187 2 -215 -7 -12 -12 -27 -12 -33 0
-19 52 -2 83 28 40 38 53 70 86 215 13 57 15 285 2 336 -5 20 -15 61 -21 91
-78 358 -331 692 -716 944 -140 91 -288 166 -489 246 -132 53 -418 152 -453
157 -18 3 -35 9 -38 14 -3 5 -20 9 -39 9 -19 0 -36 4 -39 9 -3 5 -23 11 -43
14 -21 3 -63 11 -93 16 -153 29 -407 39 -540 21z"/>
<path d="M22926 34668 c4 -7 42 -58 85 -113 83 -108 124 -180 183 -320 73
-172 127 -271 194 -360 235 -310 214 -273 253 -445 6 -30 20 -74 30 -98 21
-48 24 -109 9 -156 -5 -17 -19 -71 -30 -121 -25 -107 -40 -163 -50 -190 -4
-11 -14 -40 -21 -65 -7 -25 -16 -49 -21 -54 -4 -6 -8 -16 -8 -23 0 -7 -12 -38
-27 -70 -33 -68 -34 -99 -19 -481 7 -186 11 -229 21 -215 7 10 15 29 18 43 3
14 14 59 25 100 30 114 36 130 95 251 26 52 75 133 109 180 66 89 158 225 158
234 0 3 9 24 19 48 30 66 33 77 45 157 8 56 8 95 -1 155 -16 116 -25 155 -34
161 -5 3 -9 14 -9 25 0 10 -4 27 -9 37 -5 9 -21 48 -37 86 -56 139 -186 329
-342 498 -67 73 -131 152 -151 188 -52 90 -169 273 -202 316 -50 65 -126 137
-208 197 -63 47 -89 59 -75 35z"/>
<path d="M20447 34604 c-256 -43 -453 -170 -593 -381 -29 -45 -63 -108 -75
-140 -12 -32 -31 -78 -42 -103 -13 -30 -21 -68 -21 -112 -1 -61 2 -69 29 -98
53 -56 53 -56 460 -140 451 -93 734 -130 1011 -130 55 0 125 -4 155 -9 30 -6
77 -12 104 -16 28 -3 68 -8 90 -10 22 -3 67 -7 100 -10 33 -2 94 -9 135 -15
122 -16 254 -30 289 -30 29 0 32 2 21 15 -40 48 -266 115 -440 131 -89 9 -103
17 -94 57 22 97 9 318 -25 426 -20 66 -87 184 -138 246 -205 249 -603 381
-966 319z m344 -384 c123 -45 179 -114 179 -221 1 -56 4 -68 30 -99 37 -43 38
-79 4 -120 -51 -60 -152 -81 -242 -51 -61 21 -88 43 -111 90 -13 28 -25 37
-61 46 -100 26 -193 93 -209 152 -45 163 194 282 410 203z"/>
<path d="M30120 34334 c-141 -15 -199 -26 -315 -61 -113 -34 -241 -97 -323
-157 -97 -72 -274 -246 -250 -246 2 0 46 32 98 70 174 128 387 221 570 247 69
10 458 10 525 1 321 -47 641 -177 935 -381 77 -54 207 -154 237 -182 6 -7 52
-47 102 -90 85 -74 141 -138 141 -161 0 -6 30 -46 66 -90 116 -138 184 -262
192 -351 4 -43 0 -60 -21 -95 -34 -57 -57 -78 -152 -133 -77 -44 -78 -46 -40
-41 22 2 63 9 90 15 145 31 267 50 363 57 56 5 82 11 82 19 0 26 -97 235 -153
330 -16 28 -39 66 -49 85 -33 59 -178 261 -243 340 -174 209 -435 422 -715
581 -340 194 -760 284 -1140 243z"/>
<path d="M17555 34298 c-64 -21 -111 -47 -139 -77 -17 -17 -26 -31 -20 -32 5
-1 52 -1 104 -1 145 1 260 -30 345 -91 45 -32 60 -53 45 -62 -5 -3 -81 -28
-167 -55 -216 -67 -379 -126 -375 -136 3 -10 87 -7 207 6 195 23 262 31 285
36 14 3 153 8 310 11 157 3 289 9 294 13 5 5 -9 16 -30 25 -43 18 -193 118
-299 200 -87 67 -231 141 -310 160 -69 16 -206 18 -250 3z"/>
<path d="M22334 33764 c4 -15 15 -39 25 -53 9 -14 22 -37 28 -51 5 -14 16 -36
22 -50 19 -40 20 -63 4 -88 -8 -13 -12 -26 -9 -29 3 -3 41 -9 84 -13 105 -11
147 -23 213 -63 31 -19 63 -36 71 -40 24 -9 58 21 58 51 0 71 -95 141 -245
183 -91 25 -139 54 -209 129 -43 46 -48 49 -42 24z"/>
<path d="M30350 33678 c-221 -32 -381 -115 -527 -273 -119 -128 -183 -269
-183 -405 0 -72 -8 -83 -51 -75 -86 16 -184 22 -303 19 -71 -3 -132 -6 -135
-9 -4 -2 -30 -7 -57 -10 -93 -13 -304 -68 -304 -81 0 -2 141 -2 313 0 399 5
441 1 727 -86 19 -6 87 -14 150 -18 63 -5 147 -14 185 -20 170 -28 277 -42
435 -61 47 -5 207 -12 355 -15 322 -7 378 0 452 56 l48 36 -2 64 c-5 134 -74
324 -167 460 -49 73 -164 192 -230 239 -115 82 -297 156 -437 176 -71 10 -208
12 -269 3z m292 -339 c29 -5 67 -15 83 -22 53 -19 135 -79 155 -112 27 -43 26
-105 -1 -140 -19 -24 -21 -32 -12 -70 40 -176 -252 -215 -311 -41 -12 34 -20
41 -57 52 -97 28 -124 41 -165 81 -39 37 -44 47 -44 86 0 34 6 50 26 71 35 34
122 76 192 92 74 16 72 16 134 3z"/>
<path d="M28862 33337 c-104 -98 -146 -132 -230 -181 -61 -35 -227 -96 -262
-96 -9 0 -46 -9 -81 -21 -87 -28 -134 -73 -123 -116 10 -38 91 -55 160 -34 16
5 56 14 89 20 180 35 289 67 246 72 -6 1 -14 2 -18 3 -5 1 -27 6 -50 10 -77
14 -67 38 32 76 108 42 129 61 236 205 57 77 101 145 93 145 -3 0 -45 -37 -92
-83z"/>
<path d="M33555 33146 c-77 -21 -191 -84 -313 -172 -142 -103 -242 -167 -292
-190 -66 -29 -16 -36 243 -32 231 3 277 0 532 -33 39 -5 129 -11 200 -14 136
-6 144 -1 49 30 -27 9 -58 20 -69 25 -33 15 -260 86 -382 121 -24 7 -43 18
-43 26 0 21 118 91 195 115 57 18 93 22 192 22 114 -1 121 1 112 17 -12 23
-84 71 -130 87 -44 15 -238 14 -294 -2z"/>
<path d="M18510 32906 c0 -30 81 -179 135 -246 84 -105 166 -173 340 -281 34
-21 79 -41 230 -99 29 -11 83 -26 135 -38 142 -33 184 -37 410 -37 221 0 268
4 440 36 124 24 328 69 355 79 11 4 39 13 63 19 116 30 229 63 277 81 58 21
404 119 545 155 143 36 190 45 363 77 59 10 65 13 45 21 -45 19 -438 12 -553
-9 -16 -3 -59 -10 -95 -15 -129 -18 -291 -49 -420 -79 -25 -6 -64 -15 -87 -21
-24 -5 -62 -13 -85 -18 -24 -6 -63 -15 -88 -20 -25 -6 -70 -16 -100 -22 -30
-6 -75 -15 -100 -20 -234 -47 -414 -69 -610 -74 -345 -10 -661 75 -917 247
-74 49 -202 172 -254 242 -18 24 -29 33 -29 22z"/>
<path d="M29320 31992 c0 -14 152 -156 270 -252 30 -25 57 -48 60 -51 3 -4 97
-69 210 -145 331 -222 562 -322 935 -404 134 -29 472 -38 605 -15 310 52 543
159 708 326 63 63 143 167 155 202 7 20 3 18 -48 -17 -127 -89 -362 -193 -544
-242 -634 -170 -1162 -70 -1966 371 -58 32 -325 194 -357 217 -16 11 -28 15
-28 10z"/>
<path d="M21969 30292 c-78 -80 -141 -156 -193 -234 -60 -89 -71 -96 -276
-191 -61 -28 -140 -77 -220 -137 -69 -52 -127 -97 -130 -100 -3 -4 -32 -28
-65 -54 -137 -110 -587 -572 -781 -803 -73 -86 -110 -129 -267 -311 -149 -172
-144 -175 43 -33 96 73 387 315 410 341 22 25 206 178 296 247 241 183 486
317 681 373 58 17 62 17 77 1 9 -10 16 -29 16 -44 0 -14 5 -29 10 -32 6 -3 10
-13 10 -21 0 -34 85 -184 136 -239 27 -29 91 -71 213 -140 59 -34 107 -67 109
-77 5 -25 -54 -33 -155 -19 -48 6 -88 9 -90 7 -5 -4 160 -84 209 -102 21 -7
57 -16 80 -19 23 -4 45 -8 48 -10 6 -4 146 -16 225 -20 80 -3 203 11 294 36
71 19 145 52 269 120 115 64 142 81 137 89 -3 4 -71 8 -152 9 -167 1 -249 11
-498 61 -145 30 -362 124 -462 202 -63 48 -153 144 -173 185 -8 15 -21 39 -30
53 -32 50 -43 105 -43 205 0 101 7 139 45 230 71 174 155 316 251 428 27 32
48 60 45 62 -2 2 -33 -26 -69 -63z"/>
<path d="M28469 29756 c84 -122 129 -282 129 -462 0 -234 -72 -416 -227 -573
-155 -156 -376 -269 -562 -286 -83 -8 -105 -21 -95 -59 12 -48 170 -153 317
-210 113 -44 163 -68 248 -118 35 -21 66 -36 68 -34 6 6 -44 96 -99 180 -22
32 -38 66 -36 75 2 8 17 22 33 31 123 62 226 131 291 193 111 105 164 213 194
395 l12 74 52 -7 c87 -11 128 -25 223 -77 109 -58 166 -101 287 -218 137 -132
298 -347 403 -539 20 -36 53 -93 73 -126 21 -33 66 -109 100 -170 62 -108 218
-359 289 -463 20 -29 43 -63 51 -76 38 -60 93 -137 101 -141 9 -6 -48 104 -85
163 -12 20 -53 96 -91 167 -37 72 -80 153 -95 180 -15 28 -93 181 -174 340
-374 742 -444 856 -643 1046 -49 47 -158 132 -242 190 -249 170 -267 184 -280
220 -22 57 -34 82 -70 139 -34 55 -177 210 -193 210 -5 0 5 -20 21 -44z"/>
<path d="M23120 29639 c-208 -21 -350 -130 -350 -269 0 -66 73 -159 138 -174
64 -16 122 -27 197 -36 168 -20 300 -41 385 -60 148 -34 360 -46 453 -27 35 8
39 5 85 -40 48 -48 54 -62 76 -183 19 -104 60 -187 133 -268 114 -128 302
-214 553 -252 81 -12 340 -15 417 -5 27 3 62 8 78 10 358 48 644 230 792 502
21 38 30 73 19 73 -3 0 -41 -18 -85 -40 -44 -22 -85 -40 -91 -40 -7 0 -26 -6
-43 -14 -82 -36 -269 -107 -337 -126 -131 -39 -224 -49 -395 -46 -227 5 -430
52 -560 129 -11 7 -45 27 -76 44 -64 38 -149 123 -172 173 -42 96 -46 140 -17
188 28 46 25 73 -15 119 -45 52 -234 164 -362 214 -13 5 -33 13 -45 18 -13 5
-41 15 -63 22 -22 6 -49 15 -60 20 -11 4 -33 10 -50 14 -16 3 -48 10 -70 16
-22 5 -67 14 -100 19 -33 5 -69 11 -80 14 -31 9 -282 12 -355 5z"/>
<path d="M26765 29273 c-196 -25 -422 -105 -553 -195 -146 -100 -54 -181 212
-187 48 -1 97 -5 109 -7 12 -3 67 -8 122 -10 143 -6 221 -13 295 -25 90 -15
470 -16 545 -2 101 20 137 34 167 63 47 48 33 123 -34 173 -168 127 -422 198
-692 196 -78 -1 -154 -4 -171 -6z"/>
<path d="M23214 28636 c-61 -19 -168 -93 -269 -186 -150 -138 -270 -208 -515
-298 -74 -28 -153 -58 -175 -67 -48 -21 -231 -86 -335 -121 -41 -13 -83 -29
-92 -34 -10 -6 -26 -10 -37 -10 -10 0 -23 -6 -29 -13 -9 -11 9 -16 96 -26 59
-8 113 -16 119 -18 23 -9 14 -32 -14 -39 -16 -3 -39 -9 -53 -14 -79 -25 -218
-42 -445 -55 -211 -11 -276 -17 -382 -35 -121 -22 -226 -55 -313 -101 -65 -35
-118 -75 -109 -84 4 -3 49 -2 100 4 52 5 97 7 102 4 18 -11 4 -45 -35 -87 -57
-58 -159 -104 -293 -131 -37 -7 -116 -24 -175 -36 -59 -13 -122 -26 -187 -38
-83 -15 -91 -26 -43 -54 17 -10 30 -21 30 -25 0 -4 -21 -18 -47 -32 -27 -13
-160 -99 -298 -190 -267 -178 -269 -179 -389 -210 -44 -12 -98 -29 -120 -40
-51 -23 -230 -134 -311 -192 -86 -62 -233 -211 -293 -297 -53 -75 -67 -107
-34 -79 23 21 99 55 141 63 30 7 33 5 26 -11 -4 -11 -10 -29 -12 -42 -3 -12
-9 -25 -14 -28 -5 -3 -9 -12 -9 -20 0 -36 -170 -357 -283 -534 -33 -52 -79
-124 -102 -160 -93 -145 -121 -223 -154 -415 -28 -161 -45 -220 -97 -331 -82
-176 -92 -198 -114 -254 -12 -30 -28 -75 -36 -100 -8 -25 -19 -54 -24 -65 -4
-11 -11 -31 -15 -45 -3 -14 -15 -59 -26 -100 -34 -126 -54 -225 -73 -370 -15
-113 -19 -301 -7 -350 l8 -35 7 30 c53 231 111 374 208 518 56 83 72 76 44
-19 -69 -235 -63 -451 24 -934 58 -320 65 -382 65 -580 0 -166 -9 -252 -35
-353 -10 -39 -17 -73 -16 -75 2 -1 40 51 85 118 45 66 85 120 90 120 15 0 21
-13 11 -25 -5 -6 -12 -76 -16 -156 -4 -99 -13 -177 -30 -249 -32 -137 -41
-175 -54 -235 -17 -83 -58 -288 -65 -325 -3 -19 -26 -118 -51 -220 -69 -281
-131 -458 -226 -645 -33 -66 -150 -248 -179 -280 -27 -30 -176 -219 -240 -305
-224 -300 -305 -573 -244 -814 19 -71 20 -74 45 -58 47 29 112 -4 130 -66 31
-113 -6 -395 -82 -617 -52 -154 -215 -492 -269 -560 -18 -22 -109 -173 -109
-180 0 -3 -40 -69 -89 -147 -206 -333 -349 -602 -420 -793 -13 -33 -31 -82
-42 -109 -10 -27 -19 -57 -19 -67 0 -10 -4 -20 -9 -23 -5 -3 -11 -23 -14 -43
-3 -21 -11 -63 -17 -93 -15 -74 -33 -251 -26 -257 3 -3 60 47 127 111 67 64
128 116 135 116 19 0 22 -19 18 -128 -6 -163 -5 -161 -145 -362 -104 -150
-200 -335 -320 -620 -114 -273 -191 -403 -308 -524 -63 -65 -173 -146 -219
-160 -31 -10 -27 -24 6 -19 114 17 335 92 464 157 89 45 280 164 298 185 3 3
24 19 48 35 74 51 70 36 -54 -194 -26 -47 -106 -203 -179 -346 -74 -144 -162
-315 -196 -380 -133 -255 -217 -420 -224 -444 -5 -18 17 -2 82 60 49 47 110
101 136 120 26 19 53 40 60 46 7 5 54 39 106 73 66 45 96 60 104 52 8 -8 7
-17 -1 -33 -6 -13 -31 -81 -56 -153 -24 -71 -67 -184 -94 -250 -27 -66 -51
-132 -55 -145 -16 -68 -40 -169 -47 -200 -33 -131 -33 -620 0 -620 3 0 14 17
24 38 28 58 154 268 190 315 17 23 50 69 73 102 47 69 258 312 300 344 16 13
29 18 31 12 2 -6 -21 -65 -52 -131 -31 -66 -56 -124 -56 -128 0 -4 -6 -18 -13
-32 -7 -14 -32 -86 -56 -160 -23 -74 -46 -144 -51 -155 -5 -11 -11 -33 -15
-50 -3 -16 -11 -50 -16 -75 -31 -138 -47 -258 -58 -430 -11 -155 -5 -410 10
-499 5 -30 9 -76 9 -102 0 -26 5 -51 10 -54 6 -3 10 -20 10 -37 0 -31 15 -87
31 -120 5 -10 9 -26 9 -36 0 -10 4 -22 8 -27 5 -6 23 -57 41 -115 51 -163 53
-166 62 -100 4 30 9 83 12 117 11 111 72 306 99 311 15 3 64 -126 168 -438 22
-69 45 -134 50 -145 5 -11 16 -44 25 -72 9 -29 20 -53 24 -53 4 0 21 24 36 53
16 28 40 70 54 92 15 22 32 51 39 65 24 45 239 321 322 411 45 49 89 89 99 89
14 0 22 -18 39 -87 81 -333 65 -704 -44 -1017 -13 -38 -24 -71 -24 -74 0 -6
20 0 120 38 47 17 105 38 130 46 25 8 54 19 65 23 50 22 472 149 595 180 47
12 101 26 120 31 59 16 166 40 174 40 9 0 -2 -75 -14 -100 -4 -8 -13 -28 -20
-45 -57 -137 -136 -257 -244 -372 -47 -50 -86 -93 -86 -95 0 -2 53 7 118 20
141 28 347 95 457 149 198 97 335 113 495 59 141 -48 210 -110 210 -190 0 -54
-24 -87 -145 -200 -59 -54 -123 -122 -144 -150 -42 -57 -85 -135 -78 -143 3
-2 20 2 38 9 108 44 448 90 653 87 81 0 155 -3 166 -6 35 -9 22 -30 -47 -76
-117 -77 -231 -119 -385 -142 -21 -3 -38 -9 -38 -14 0 -7 35 -12 265 -40 95
-12 366 -12 407 -1 77 23 192 31 237 18 67 -20 102 -69 102 -142 0 -39 -5 -64
-19 -83 -36 -53 -37 -56 -11 -51 176 38 267 52 469 68 184 14 314 29 380 41
80 16 223 51 240 60 53 26 116 46 124 39 10 -10 -31 -102 -73 -161 -18 -24
-55 -68 -83 -97 -28 -29 -49 -54 -47 -56 4 -4 143 49 194 73 11 6 73 35 137
65 130 61 256 133 428 245 126 82 226 131 265 131 85 0 87 -140 4 -306 -41
-80 -94 -142 -168 -197 -111 -80 -170 -164 -171 -239 0 -21 3 -38 8 -38 4 0
30 13 57 28 28 16 77 43 110 61 71 40 230 144 452 298 90 62 169 113 176 113
10 0 13 -23 11 -107 -4 -182 31 -334 118 -508 36 -73 101 -169 132 -194 10 -8
11 3 8 50 -4 47 1 75 23 134 33 92 70 144 131 186 65 45 116 62 287 99 260 55
465 150 557 259 19 22 38 38 42 35 15 -10 -52 -154 -106 -227 -69 -93 -127
-143 -272 -234 -16 -10 -14 -10 11 -3 17 5 50 14 75 21 94 25 106 28 145 38
82 21 222 63 295 88 114 39 432 200 667 339 17 10 35 16 38 12 7 -7 -82 -145
-120 -188 -25 -28 -185 -257 -185 -265 0 -3 28 15 63 41 130 96 312 169 517
209 176 35 287 102 380 229 33 45 68 92 80 106 l20 25 -6 -80 c-9 -124 -43
-241 -103 -355 -143 -272 -189 -353 -237 -415 -37 -49 -29 -49 51 -2 28 17 73
42 100 57 28 15 67 37 88 48 20 12 54 31 75 43 20 12 42 25 47 29 6 4 28 18
50 30 22 12 111 63 198 114 139 80 420 243 516 298 25 14 37 16 45 8 16 -16
14 -285 -3 -341 -7 -24 -17 -60 -23 -79 -5 -19 -18 -54 -29 -77 -10 -24 -19
-47 -19 -51 0 -5 -18 -37 -41 -72 -22 -34 -38 -65 -35 -67 3 -3 27 10 53 30
150 109 325 214 490 292 133 63 180 81 189 72 11 -11 -27 -87 -78 -154 -50
-67 -40 -71 32 -14 153 121 311 311 404 486 15 28 35 64 45 80 9 17 26 52 36
78 10 27 24 51 32 54 17 6 100 -61 219 -177 138 -135 196 -201 286 -326 45
-63 86 -114 91 -114 6 0 8 124 4 328 -3 186 -2 335 4 343 6 10 13 11 23 4 7
-5 63 -46 124 -89 174 -126 373 -242 542 -319 30 -14 72 -33 93 -42 21 -10 40
-15 42 -13 5 4 -23 43 -72 102 -49 59 -136 207 -163 278 -53 138 -43 307 25
424 27 46 103 114 127 114 14 0 108 -154 195 -320 16 -30 69 -127 118 -215
l90 -160 6 45 c7 52 29 118 70 207 66 145 75 213 55 425 -14 143 1 185 129
348 138 176 147 189 171 249 13 31 27 57 33 59 12 4 34 -39 96 -188 26 -63 61
-143 76 -177 16 -34 29 -66 29 -71 0 -10 16 -43 35 -72 6 -11 14 14 27 85 9
55 21 121 27 146 11 52 58 177 75 199 7 8 25 40 40 71 16 30 65 108 111 172
138 195 143 211 149 542 3 132 10 260 16 285 36 144 89 155 174 36 56 -77 149
-270 166 -343 6 -29 15 -53 20 -53 24 0 157 173 192 250 57 126 62 140 89 240
28 105 47 238 55 395 9 170 24 316 44 420 10 55 21 125 24 155 13 116 -30 249
-124 390 -31 47 -90 148 -130 225 -40 77 -84 157 -97 177 -22 36 -30 68 -16
68 14 0 117 -86 160 -134 l46 -51 -8 40 c-12 67 -15 317 -4 365 6 25 11 115
11 200 1 175 -13 239 -71 325 -35 52 -33 65 10 65 50 0 140 -51 202 -113 l57
-58 -5 118 c-8 176 -14 230 -36 313 -24 90 -76 248 -89 272 -6 10 -10 25 -10
33 0 8 -4 23 -9 33 -4 9 -19 51 -32 92 -13 41 -35 104 -49 140 -122 303 -163
510 -101 510 21 0 83 -38 99 -61 26 -38 35 -25 56 85 24 123 28 147 40 291 18
199 10 430 -24 735 -5 47 -12 141 -15 210 -9 213 -37 349 -93 450 -30 56 -106
155 -212 280 -164 193 -181 243 -178 550 2 224 2 225 -26 305 -27 75 -95 212
-175 355 -41 72 -100 215 -124 300 -41 144 -51 232 -51 445 0 294 29 477 168
1047 35 145 75 314 87 377 15 72 29 116 38 119 16 6 55 -36 107 -116 19 -29
38 -51 43 -48 5 3 4 27 -2 53 -5 27 -10 147 -10 268 -1 187 3 238 22 340 43
232 71 313 203 585 61 124 119 248 130 275 37 90 68 180 68 193 0 8 31 59 68
115 144 215 314 607 363 837 56 261 74 413 74 645 -1 170 -12 320 -36 445 -5
30 -13 75 -17 100 -6 39 -19 57 -23 33 -1 -5 -7 -28 -14 -53 -7 -25 -18 -72
-24 -105 -18 -85 -33 -135 -42 -135 -5 0 -11 17 -14 38 -26 160 -94 379 -157
506 -139 278 -347 515 -583 665 -60 38 -74 39 -40 4 79 -83 173 -271 144 -288
-17 -11 -132 104 -346 345 -365 411 -523 550 -737 650 -104 49 -131 52 -94 13
43 -48 65 -86 82 -142 20 -67 20 -71 1 -71 -30 0 -402 157 -535 226 -79 40
-247 147 -260 164 -18 24 -220 156 -295 193 -106 53 -260 107 -302 107 -42 0
-148 43 -198 81 -28 21 -55 39 -58 39 -3 0 -3 -22 0 -49 5 -45 3 -50 -21 -66
-25 -17 -28 -16 -84 11 -40 20 -93 63 -182 151 -69 68 -138 140 -153 161 -83
110 -424 456 -532 539 -44 34 -102 83 -130 108 l-50 46 73 -5 c39 -3 72 -2 72
2 0 12 -164 178 -195 197 -16 11 -54 37 -83 58 -127 92 -246 129 -407 126
-114 -2 -220 -25 -312 -69 -91 -42 -217 -171 -266 -270 -38 -78 -67 -181 -67
-238 0 -40 -38 -82 -73 -82 -13 0 -51 14 -83 30 -74 38 -126 52 -157 45 -21
-6 -25 -14 -29 -56 -7 -68 -30 -92 -83 -85 -106 16 -248 24 -317 19 -77 -6
-165 6 -245 32 -86 29 -150 72 -240 162 -133 132 -150 138 -213 74 -42 -43
-61 -46 -126 -15 -50 24 -149 119 -215 205 -62 81 -67 106 -20 93 14 -3 43
-10 63 -14 32 -6 36 -5 28 9 -4 9 -98 104 -207 211 -245 242 -390 343 -548
385 -71 18 -224 19 -281 1z m1081 -1806 c3 -6 2 -25 -4 -43 -27 -87 -34 -118
-29 -122 3 -3 32 6 64 20 80 36 228 89 287 103 59 15 184 16 192 2 4 -6 -7
-26 -24 -45 -38 -44 -66 -95 -51 -95 6 0 23 6 38 14 98 50 260 19 405 -79 28
-19 55 -35 58 -35 4 0 -1 21 -11 48 -18 49 -17 72 5 72 10 0 144 -60 270 -121
11 -6 34 -31 50 -57 48 -76 150 -177 255 -252 107 -77 155 -104 168 -96 5 3
11 64 14 137 4 80 10 135 18 142 12 13 36 -10 96 -95 17 -23 53 -74 80 -112
27 -38 62 -83 77 -100 l28 -31 -7 95 c-10 139 -10 163 2 167 6 2 53 -36 104
-84 l93 -87 -7 64 c-18 180 -19 200 -3 200 8 0 39 -24 68 -52 44 -43 68 -81
123 -193 38 -77 96 -189 130 -248 l61 -109 3 71 c2 52 7 71 17 71 24 0 122
-98 196 -198 40 -53 90 -120 112 -149 41 -55 121 -133 135 -133 5 0 12 18 16
41 12 76 83 191 125 202 37 9 58 -20 96 -134 19 -61 49 -131 65 -154 35 -50
130 -136 142 -129 5 3 6 21 2 40 -7 36 12 181 26 204 16 25 38 1 65 -71 47
-121 145 -284 271 -449 91 -119 274 -310 281 -292 4 11 -20 212 -34 285 -4 18
-1 27 7 27 14 0 74 -61 123 -127 18 -23 35 -43 40 -43 4 0 7 36 7 80 0 64 3
80 15 80 8 0 22 -17 30 -37 24 -56 91 -159 165 -253 66 -82 178 -185 270 -247
61 -40 162 -95 167 -90 5 6 -43 88 -102 174 -39 56 -55 93 -41 93 2 0 46 -20
97 -43 52 -24 121 -54 154 -66 33 -13 68 -27 77 -32 10 -5 22 -9 28 -9 6 0 29
-8 53 -19 23 -10 58 -24 77 -31 127 -47 382 -191 525 -298 44 -34 81 -59 83
-57 8 8 -72 142 -130 217 -18 22 -24 39 -18 43 11 7 48 -18 212 -147 58 -45
205 -159 326 -253 120 -93 230 -186 244 -205 33 -45 56 -113 68 -203 21 -154
31 -163 48 -50 13 79 22 100 40 89 32 -20 167 -304 178 -377 4 -20 -1 -52 -11
-79 -86 -232 -285 -1030 -345 -1385 -22 -132 -34 -137 -44 -18 -13 145 -68
387 -96 416 -4 5 -10 -58 -13 -140 -4 -107 -12 -177 -30 -253 -25 -105 -138
-442 -155 -463 -35 -43 -176 -456 -201 -587 -6 -30 -15 -79 -21 -108 -5 -29
-10 -113 -10 -186 0 -140 -5 -164 -50 -261 -16 -33 -56 -130 -90 -215 -134
-336 -221 -473 -365 -579 -140 -102 -276 -139 -385 -107 -29 9 -56 14 -58 11
-3 -3 7 -35 21 -72 29 -74 75 -210 88 -258 24 -92 30 -114 40 -160 33 -150 47
-227 55 -307 9 -78 -6 -75 -79 15 -134 168 -346 385 -365 373 -8 -4 -3 -59 13
-156 25 -155 112 -439 181 -598 8 -17 21 -49 30 -70 26 -60 83 -169 130 -249
61 -104 59 -118 -14 -87 -20 8 -64 24 -97 36 -73 24 -161 86 -243 169 -41 42
-62 58 -62 46 0 -35 63 -155 154 -292 93 -141 118 -190 156 -320 11 -38 25
-84 30 -101 6 -17 10 -40 10 -52 0 -11 4 -23 9 -26 5 -3 12 -22 15 -41 3 -19
9 -51 12 -70 9 -50 -8 -46 -137 33 -158 96 -325 222 -468 353 l-123 113 7 -65
c10 -78 9 -319 -1 -489 -23 -363 -1 -577 76 -744 17 -35 30 -67 30 -70 0 -22
-69 11 -149 71 -122 91 -220 192 -482 495 -28 32 -59 62 -69 68 -17 9 -18 8
-8 -23 59 -186 69 -354 33 -587 -14 -99 -37 -182 -52 -187 -8 -3 -30 9 -51 29
-20 19 -73 60 -117 91 -90 62 -117 89 -169 167 -20 30 -36 49 -36 42 0 -11 44
-136 70 -197 4 -11 16 -40 25 -65 29 -77 85 -197 195 -415 122 -241 189 -358
306 -538 80 -122 102 -168 70 -150 -18 10 -115 101 -340 316 -98 95 -197 189
-220 211 -23 21 -108 102 -191 181 -187 179 -236 219 -305 254 -74 38 -141 51
-262 51 -108 0 -205 13 -277 36 -264 87 -510 322 -717 687 -37 65 -73 126 -80
135 -24 32 62 -205 121 -333 7 -17 22 -50 33 -75 86 -200 197 -426 340 -693
44 -82 19 -77 -128 29 -149 106 -264 206 -403 348 -149 153 -248 272 -346 419
-67 100 -91 129 -91 110 0 -23 21 -282 24 -308 5 -38 34 -265 42 -325 6 -50
32 -246 40 -300 2 -19 11 -78 19 -130 7 -52 17 -133 20 -180 4 -47 9 -94 11
-105 8 -38 17 -641 10 -668 -8 -33 -19 -34 -34 -4 -6 12 -31 65 -56 117 -56
117 -82 161 -157 270 -117 170 -304 385 -528 604 -55 55 -101 106 -101 113 0
10 21 13 80 13 44 0 80 3 80 8 0 4 -13 23 -28 42 -57 71 -182 306 -182 343 0
7 -4 17 -8 23 -5 5 -13 32 -19 59 -11 47 -16 80 -43 285 -17 122 4 447 30 474
9 9 14 4 91 -99 138 -184 343 -394 387 -395 10 0 8 10 -6 38 -31 59 -39 81
-73 187 -17 55 -35 109 -39 120 -4 11 -13 38 -19 60 -6 22 -20 72 -31 110 -12
39 -25 86 -30 105 -20 80 -32 127 -41 156 -5 17 -9 41 -9 54 0 12 -4 39 -10
59 -14 53 -40 199 -54 301 -4 25 -9 59 -11 75 -24 159 -37 367 -42 662 -5 327
-3 393 16 393 4 0 15 -19 23 -42 72 -207 128 -485 128 -644 1 -79 1 -79 16
-45 22 51 28 276 13 481 -19 264 -22 459 -9 505 27 90 88 111 146 50 82 -88
109 -210 124 -560 10 -251 27 -369 65 -472 61 -161 173 -309 320 -420 43 -33
144 -87 151 -81 2 3 -18 33 -45 69 -121 161 -203 331 -246 512 -17 74 -3 83
55 37 59 -47 175 -89 265 -97 44 -3 75 -2 75 3 0 5 -30 39 -67 74 -144 140
-287 367 -347 553 -48 151 -61 232 -61 397 0 153 0 156 32 222 37 79 67 102
132 101 55 -1 93 -18 174 -79 31 -24 61 -44 66 -44 5 0 58 -49 118 -108 72
-72 135 -147 188 -226 110 -161 116 -169 127 -158 11 11 0 93 -33 257 -5 28
-14 73 -19 100 -5 28 -14 77 -20 110 -33 176 -46 320 -32 329 13 8 202 -115
351 -227 52 -40 162 -137 244 -217 168 -162 163 -163 111 5 -91 293 -237 554
-436 777 -102 114 -102 113 122 112 146 0 198 -4 245 -18 140 -41 210 -76 298
-149 47 -39 47 -39 37 -11 -33 88 -110 203 -185 279 -138 138 -285 190 -553
194 -58 1 -108 4 -111 5 -3 2 -46 7 -96 10 -181 14 -383 70 -545 151 -106 53
-223 133 -307 209 -70 65 -101 82 -89 50 15 -38 28 -217 22 -304 -9 -146 -50
-280 -85 -280 -37 0 -154 150 -206 265 -15 31 -28 55 -30 53 -1 -1 -5 -25 -9
-53 -15 -129 -79 -285 -159 -391 -54 -70 -151 -164 -235 -226 -209 -154 -254
-189 -316 -248 -37 -36 -82 -85 -98 -108 -50 -72 -46 -106 -67 515 -12 338
-10 425 15 538 l7 30 -33 -30 c-17 -16 -43 -52 -57 -80 -14 -27 -43 -81 -65
-118 -46 -78 -53 -78 -92 7 -68 149 -91 264 -91 468 0 93 -2 168 -5 168 -3 0
-31 -38 -63 -83 -116 -168 -258 -310 -417 -416 -150 -100 -174 -104 -159 -29
4 24 8 99 9 168 0 69 5 142 11 163 5 20 7 41 4 47 -8 13 -226 -70 -360 -137
-91 -45 -295 -152 -367 -192 -43 -24 -84 -41 -90 -38 -19 7 192 213 402 391
14 12 62 50 108 85 45 35 80 66 78 68 -6 7 -194 -23 -341 -53 -484 -100 -769
-236 -1006 -481 -126 -130 -232 -294 -311 -478 -64 -151 -85 -202 -119 -300
-21 -60 -36 -111 -33 -114 2 -2 5 -2 7 0 1 2 33 51 71 108 150 229 394 435
632 535 86 36 118 43 128 28 4 -7 -56 -103 -89 -142 -22 -26 -118 -200 -173
-315 -29 -60 -57 -118 -63 -127 -23 -43 -2 -33 99 48 173 140 503 351 673 431
84 40 342 143 357 143 26 0 21 -26 -19 -93 -232 -386 -605 -742 -1232 -1175
-53 -37 -93 -68 -88 -70 13 -4 236 97 411 186 214 110 278 147 516 298 88 56
175 109 192 118 81 42 620 408 757 514 92 70 98 69 90 -15 -7 -80 -7 -78 -73
-213 -134 -273 -427 -572 -836 -853 -66 -45 -143 -98 -171 -117 -28 -19 -69
-48 -90 -64 -22 -17 -65 -48 -95 -70 -112 -83 -362 -314 -451 -417 -11 -13
-35 -40 -53 -59 -74 -81 -194 -256 -183 -267 4 -3 35 8 69 25 35 17 102 47
148 67 47 20 104 45 127 56 24 10 45 19 48 19 3 0 27 10 53 21 26 12 61 27 77
34 17 7 50 22 75 33 25 11 153 66 285 122 132 56 255 108 272 116 58 26 113
43 113 35 0 -16 -58 -87 -136 -167 -44 -44 -122 -127 -174 -184 -52 -57 -100
-108 -105 -114 -6 -6 -23 -27 -39 -46 -15 -19 -47 -55 -70 -80 -22 -25 -90
-99 -151 -165 -60 -66 -154 -166 -208 -223 -161 -168 -137 -154 213 121 69 54
132 104 141 111 106 87 327 264 387 310 179 138 300 246 437 389 151 158 311
307 330 307 11 0 5 -55 -15 -140 -5 -19 -14 -57 -20 -85 -17 -69 -49 -180 -70
-240 -31 -86 -139 -364 -159 -408 -11 -23 -35 -78 -54 -122 -19 -44 -46 -105
-59 -135 -198 -439 -263 -622 -275 -777 -3 -46 -3 -83 0 -83 3 0 27 33 54 72
59 88 185 217 274 281 72 51 89 57 89 29 0 -19 -55 -183 -115 -347 -21 -55
-43 -116 -50 -135 -8 -19 -38 -96 -68 -170 -49 -120 -79 -188 -214 -483 -20
-42 -33 -81 -29 -84 4 -4 26 3 48 16 23 13 44 19 49 14 22 -22 -74 -175 -182
-290 -30 -33 -89 -99 -132 -149 -188 -218 -388 -360 -658 -468 -164 -65 -182
-61 -106 22 86 95 165 188 193 228 16 22 51 69 77 105 90 118 165 257 236 438
20 52 27 91 15 91 -3 0 -29 -20 -57 -43 -29 -24 -88 -68 -131 -97 -150 -100
-469 -238 -486 -209 -4 6 5 43 21 82 16 38 29 74 29 78 0 5 9 31 21 57 26 58
28 64 74 182 107 278 183 445 416 914 65 132 117 241 115 244 -3 2 -37 -44
-76 -103 -239 -357 -506 -638 -773 -818 -62 -41 -268 -148 -347 -179 -14 -6
-33 -14 -42 -19 -10 -5 -22 -9 -28 -9 -5 0 -38 -13 -72 -28 -35 -16 -79 -34
-98 -41 -38 -14 -67 -25 -102 -40 -13 -6 -45 -17 -72 -26 -120 -39 -370 -147
-586 -252 -261 -128 -310 -149 -310 -130 0 11 101 109 180 173 62 51 344 296
360 313 8 9 49 45 90 81 41 36 77 67 80 71 3 3 68 59 145 125 419 357 1111
1022 1034 992 -9 -3 -68 -40 -132 -82 -63 -42 -119 -76 -123 -76 -4 0 -15 -6
-23 -14 -17 -15 -284 -151 -411 -209 -194 -90 -556 -215 -572 -199 -4 4 16 26
45 47 230 172 357 284 488 431 134 151 189 228 370 512 44 68 73 131 65 139
-12 12 -256 -99 -328 -149 -14 -10 -28 -18 -31 -18 -2 0 -69 -35 -148 -77 -80
-43 -160 -86 -179 -95 -19 -9 -109 -52 -200 -96 -145 -70 -443 -202 -457 -202
-4 0 -40 -14 -190 -72 -93 -36 -94 -19 -3 56 116 97 153 134 215 218 141 191
220 415 224 637 1 55 -1 101 -6 101 -4 0 -33 -45 -63 -100 -69 -127 -149 -222
-272 -326 -97 -81 -200 -145 -214 -132 -4 4 4 22 18 40 62 81 123 214 159 348
43 156 57 542 29 775 -24 193 -33 562 -16 658 4 28 4 47 -2 47 -5 0 -30 -29
-56 -64 -58 -79 -172 -189 -255 -245 -125 -86 -201 -101 -271 -55 -35 23 -39
31 -46 80 -10 82 5 239 32 334 30 104 40 130 102 261 27 57 52 113 56 123 6
17 5 17 -11 5 -9 -8 -36 -34 -59 -59 -40 -43 -159 -131 -196 -145 -23 -9 -23
3 2 98 45 172 70 232 135 332 131 201 236 443 274 630 32 159 41 265 21 265
-5 0 -12 -17 -16 -37 -21 -117 -138 -293 -329 -493 -162 -170 -249 -273 -310
-368 -22 -34 -44 -60 -50 -59 -34 11 -70 417 -61 684 3 94 9 178 12 187 9 24
23 19 30 -11 3 -16 10 -39 15 -53 10 -27 6 14 -12 120 -18 110 -30 292 -39
615 -6 182 -10 335 -11 340 -1 30 18 109 27 112 13 4 36 -30 83 -124 39 -76
64 -155 81 -251 15 -84 24 -79 46 27 23 109 17 239 -16 381 -14 60 -32 124
-40 145 -4 11 -13 36 -20 55 -16 47 -30 83 -59 153 -20 48 -30 71 -66 152 -66
145 -135 332 -164 445 -25 95 -30 121 -37 190 -19 184 2 323 67 452 33 65 40
60 53 -37 14 -99 19 -126 27 -131 5 -3 9 -13 9 -23 0 -9 9 -35 19 -57 l19 -39
5 215 c3 118 10 247 16 285 16 105 29 175 41 230 6 28 14 65 17 83 3 18 9 35
14 38 5 3 9 15 9 26 0 20 12 65 30 113 5 11 14 36 21 55 17 46 104 162 173
229 l55 54 11 -27 c6 -16 14 -60 19 -100 5 -39 19 -107 31 -151 12 -44 25 -93
29 -110 9 -32 62 -169 88 -222 18 -39 33 -34 33 10 0 60 53 279 91 375 5 12
13 32 18 45 25 66 133 270 177 334 68 100 184 239 211 254 43 24 42 10 -15
-168 -11 -35 -17 -63 -12 -63 4 0 38 43 75 94 63 90 232 266 255 266 17 0 11
-25 -20 -88 -31 -62 -37 -86 -21 -80 5 2 108 85 228 184 628 523 716 594 729
594 8 0 14 -8 14 -18 0 -48 -83 -220 -142 -294 -41 -53 -19 -50 95 11 218 116
286 157 421 255 44 31 83 53 88 48 8 -8 -22 -77 -78 -186 -14 -26 -23 -51 -20
-54 15 -14 391 213 541 326 33 25 81 64 106 86 25 23 56 50 70 60 13 11 48 41
77 68 79 71 90 63 48 -39 -42 -102 -106 -268 -106 -275 0 -15 57 15 170 88 63
42 120 81 125 87 6 7 44 37 85 69 41 31 86 68 99 82 27 28 47 33 54 14 5 -18
-20 -122 -38 -158 -32 -61 -13 -65 65 -14 135 90 489 258 770 365 220 85 272
101 283 90 11 -11 2 -22 -155 -200 -60 -66 -108 -123 -108 -126 0 -9 54 16
115 52 134 81 263 196 369 331 31 40 62 70 67 66 6 -3 10 -46 9 -97 -1 -51 -1
-99 -1 -107 1 -8 14 11 30 41 16 31 45 79 65 108 20 28 36 53 36 56 0 3 24 38
54 78 68 92 113 126 131 97z"/>
<path d="M22955 25359 c-211 -8 -336 -19 -600 -54 -51 -7 -148 -24 -200 -35
-22 -5 -67 -14 -100 -20 -149 -29 -370 -84 -572 -141 -162 -46 -544 -168 -588
-189 -11 -5 -56 -21 -100 -36 -87 -29 -196 -71 -290 -111 -75 -32 -91 -38
-135 -53 -19 -7 -44 -16 -55 -20 -11 -5 -67 -24 -125 -43 -240 -80 -363 -148
-459 -252 -69 -74 -86 -123 -85 -235 1 -112 25 -186 104 -313 91 -150 182
-249 330 -361 125 -94 129 -96 320 -210 94 -56 258 -168 380 -260 118 -89 242
-179 275 -200 33 -21 78 -51 100 -65 145 -99 398 -159 1045 -251 41 -6 100
-15 130 -20 30 -5 91 -14 135 -20 44 -6 105 -15 135 -20 30 -5 87 -14 125 -20
39 -6 84 -13 100 -16 17 -3 55 -9 85 -14 30 -5 96 -16 145 -24 50 -8 122 -20
160 -27 39 -6 90 -15 115 -19 25 -5 79 -14 120 -20 41 -7 95 -16 120 -20 44
-9 74 -14 275 -45 55 -9 111 -18 125 -20 421 -68 596 -97 645 -106 70 -13 135
-24 225 -39 36 -6 88 -15 115 -20 28 -5 84 -14 125 -20 41 -6 84 -14 95 -16
11 -3 49 -10 85 -15 36 -6 88 -14 115 -19 50 -8 143 -24 245 -41 56 -9 146
-23 255 -40 86 -13 206 -28 305 -38 47 -5 103 -12 125 -15 142 -21 737 -21
880 0 22 3 81 10 130 15 130 12 260 30 430 58 33 6 78 13 100 16 22 3 56 10
75 15 19 5 62 14 95 20 71 14 136 28 185 40 19 5 55 13 80 19 86 19 145 33
170 41 14 4 43 13 65 19 90 24 376 115 465 148 170 61 229 87 415 179 366 181
619 367 827 606 96 111 205 288 238 388 49 148 63 322 35 418 -29 96 -87 140
-257 196 -57 19 -132 48 -168 64 -59 27 -136 49 -230 67 -34 6 -121 16 -330
35 -246 23 -481 63 -700 120 -19 5 -53 13 -75 19 -22 5 -57 14 -77 20 -65 19
-107 31 -140 40 -18 6 -49 14 -68 19 -51 14 -430 141 -610 205 -85 30 -164 58
-175 62 -11 4 -29 10 -40 15 -11 4 -47 18 -80 30 -33 12 -75 28 -92 36 -31 13
-189 72 -258 96 -16 5 -39 14 -50 19 -38 16 -441 148 -560 182 -110 33 -311
85 -410 107 -105 23 -134 29 -185 39 -30 6 -68 13 -85 16 -154 32 -456 71
-735 95 -443 39 -1656 61 -2215 39z m1579 -84 c110 -18 197 -40 236 -60 33
-17 80 -61 80 -75 0 -20 42 -120 51 -120 5 0 17 17 28 38 58 114 178 160 416
160 146 0 266 -14 465 -55 257 -53 313 -75 377 -147 27 -31 47 -68 62 -116 13
-39 26 -70 29 -68 195 94 339 126 498 108 80 -8 148 -37 185 -77 37 -40 45
-58 59 -140 14 -84 12 -83 110 -53 82 25 228 36 301 22 97 -18 167 -58 249
-142 81 -82 110 -131 135 -225 18 -70 21 -216 5 -276 -6 -23 -8 -45 -3 -50 5
-5 29 5 53 22 25 16 75 46 112 65 92 47 143 47 207 -1 60 -43 127 -138 155
-218 31 -90 27 -86 109 -80 138 11 260 -47 309 -147 24 -49 27 -67 28 -157 0
-123 7 -128 75 -48 27 32 55 55 66 55 45 0 195 -102 243 -165 59 -77 81 -192
55 -289 -43 -159 -176 -314 -319 -370 -81 -32 -150 -46 -228 -46 -77 0 -160
21 -174 43 -4 7 -8 54 -8 105 0 91 0 93 -27 103 -15 6 -69 8 -121 6 -102 -5
-180 7 -274 43 -42 16 -58 27 -58 40 0 10 4 21 9 24 10 7 65 116 60 121 -2 1
-31 6 -64 9 -77 9 -195 40 -248 67 -50 25 -112 82 -135 124 -13 23 -16 54 -15
134 l2 103 -32 -6 c-122 -26 -215 -8 -366 69 -201 102 -255 132 -298 165 -69
52 -86 81 -94 156 -4 36 -11 70 -17 76 -6 6 -34 2 -82 -12 -82 -24 -227 -29
-300 -10 -114 29 -163 55 -241 126 l-78 72 -203 5 c-200 6 -353 16 -558 38
-100 10 -131 14 -315 38 -135 17 -205 47 -227 97 -11 24 -15 25 -53 18 -75
-15 -541 -8 -750 12 -27 2 -90 7 -140 10 -49 2 -112 7 -140 9 -27 3 -95 7
-150 10 -55 4 -122 10 -148 16 -26 5 -72 9 -102 9 -30 0 -76 4 -102 9 -26 5
-100 12 -163 16 -63 3 -144 8 -180 11 -36 3 -94 1 -129 -3 l-65 -8 -14 -55
c-30 -122 -124 -171 -512 -266 -58 -14 -114 -31 -125 -36 -45 -24 -75 -71 -75
-120 0 -18 -4 -38 -8 -43 -4 -6 -52 -21 -107 -34 -55 -13 -116 -28 -135 -34
-19 -6 -85 -10 -146 -9 l-112 2 -15 -32 c-8 -18 -25 -56 -37 -84 -19 -47 -31
-57 -130 -123 -130 -84 -162 -90 -223 -40 -21 17 -43 29 -50 26 -7 -2 -18 -26
-26 -53 -40 -144 -47 -161 -75 -168 -38 -10 -116 -6 -149 8 -63 26 -128 124
-155 236 -13 53 -35 257 -29 268 3 4 8 49 12 100 12 162 60 303 114 332 11 5
38 10 61 10 35 0 47 -6 85 -44 l44 -44 7 46 c17 125 81 242 170 315 32 26 65
47 73 47 39 0 142 -158 181 -279 13 -41 15 -43 21 -20 4 13 7 42 8 63 1 22 5
53 10 70 5 17 15 51 21 76 7 25 16 53 21 62 5 10 9 24 9 31 0 7 16 32 35 54
83 97 161 71 260 -87 32 -50 60 -88 63 -85 3 3 7 49 9 101 8 256 140 429 361
474 143 29 321 -30 390 -130 15 -22 32 -39 37 -40 6 0 17 17 24 38 45 123 179
181 422 182 184 0 324 -39 463 -130 78 -51 86 -51 86 6 0 39 40 112 77 143 41
34 76 44 228 66 248 36 489 39 669 10z"/>
<path d="M20815 22134 c37 -32 141 -104 151 -104 4 0 15 -6 23 -14 34 -30 308
-169 491 -249 54 -24 244 -91 345 -122 50 -15 101 -31 115 -35 32 -11 163 -48
215 -62 22 -5 50 -14 63 -19 13 -5 36 -9 52 -9 16 0 32 -4 35 -10 3 -5 18 -10
32 -10 15 0 40 -4 57 -9 17 -6 58 -15 91 -21 33 -6 76 -15 95 -20 58 -14 221
-48 283 -59 127 -24 165 -31 227 -41 36 -6 88 -15 115 -20 65 -12 144 -25 225
-40 61 -10 87 -15 223 -40 178 -32 624 -124 822 -169 22 -5 60 -14 85 -20 25
-5 65 -14 90 -20 39 -8 122 -24 325 -61 147 -26 430 -62 615 -77 150 -12 769
-9 940 5 299 25 575 60 795 103 33 6 80 15 105 19 42 8 86 17 315 69 251 56
681 191 829 260 84 39 211 119 203 127 -4 4 -34 -7 -112 -41 -63 -27 -112 -43
-180 -59 -262 -62 -552 -113 -945 -165 -156 -21 -439 -48 -585 -57 -60 -3
-114 -8 -118 -11 -4 -3 -178 -6 -385 -7 -350 -2 -565 3 -737 18 -144 13 -282
27 -355 37 -160 22 -217 30 -267 40 -210 37 -263 48 -395 79 -24 5 -124 26
-223 45 -99 20 -205 42 -235 50 -104 26 -255 51 -535 90 -90 13 -418 48 -710
76 -362 35 -634 67 -820 98 -180 30 -408 80 -550 121 -22 6 -52 14 -68 17 -15
3 -30 9 -33 14 -3 5 -15 9 -28 9 -12 0 -26 4 -31 8 -6 4 -28 14 -50 21 -22 7
-49 16 -60 21 -11 4 -51 20 -90 35 -147 56 -354 159 -437 216 -40 28 -48 23
-13 -7z"/>
<path d="M18778 27092 c-66 -79 -340 -360 -413 -423 -22 -18 -70 -59 -105 -90
-157 -136 -363 -291 -550 -415 -285 -189 -393 -274 -486 -383 -81 -94 -156
-242 -188 -373 -82 -330 -80 -908 4 -1427 42 -257 183 -811 207 -811 3 0 3 6
0 14 -6 15 -43 213 -52 276 -28 206 -33 606 -10 795 39 311 104 562 222 858
54 134 192 416 219 448 8 8 14 19 14 22 0 8 77 126 112 172 13 16 62 82 110
145 141 186 213 271 408 478 267 284 375 413 447 532 36 60 133 253 129 257
-2 2 -33 -31 -68 -75z"/>
<path d="M32739 24801 c12 -16 21 -32 21 -35 0 -3 9 -25 20 -49 47 -102 164
-450 199 -592 5 -22 15 -58 21 -80 19 -73 40 -227 40 -299 0 -70 -21 -260 -39
-366 -19 -110 -32 -161 -121 -515 -50 -198 -122 -486 -161 -640 -38 -154 -74
-296 -79 -315 -6 -19 -50 -195 -99 -390 -49 -195 -97 -382 -106 -415 -39 -140
-36 -176 5 -63 12 35 34 88 47 118 101 225 142 313 268 575 59 122 74 154 126
273 40 90 47 107 74 177 14 39 31 81 37 95 6 14 25 68 44 120 18 52 45 126 59
163 51 137 130 487 151 667 3 30 8 59 11 63 9 15 11 424 2 505 -20 188 -77
403 -144 542 -25 52 -42 82 -131 225 -82 131 -208 265 -249 265 -14 0 -14 -3
4 -29z"/>
</g>
</svg>
