<?xml version="1.0" encoding="utf-8"?>
<!-- Generator: Adobe Illustrator 17.0.0, SVG Export Plug-In . SVG Version: 6.00 Build 0)  -->
<!DOCTYPE svg PUBLIC "-//W3C//DTD SVG 1.1//EN" "http://www.w3.org/Graphics/SVG/1.1/DTD/svg11.dtd">
<svg version="1.1" id="Livello_1" xmlns="http://www.w3.org/2000/svg" xmlns:xlink="http://www.w3.org/1999/xlink" x="0px" y="0px"
	 width="648px" height="637px" viewBox="0 0 648 637" enable-background="new 0 0 648 637" xml:space="preserve">
<g>
	<path fill="#FFFFFF" stroke="#1D1D1B" stroke-width="2.1079" stroke-miterlimit="10" d="M169.762,441.506
		c0,0-57.964,16.862-100.12,42.156c-42.156,25.294-52.695,31.617-52.695,31.617s3.162,49.533,7.377,96.959
		c4.216,47.425,11.593,66.396,28.455,75.881c16.862,9.485,29.509,24.24,29.509,24.24h512.194c0,0,4.216,1.054,24.24-17.916
		s36.886-48.479,33.725-93.797s3.162-61.126-12.647-81.15s-37.94-50.587-60.072-61.126s-79.042-36.886-100.12-36.886
		c-21.078,0-52.695-8.431-52.695-8.431l3.792-20.085l-4.216-102.584h-11.945l-33.726,43.563l-85.019,35.132l-33.726-25.295
		l-37.24-40.753l-12.647,2.811l-11.945,56.211L169.762,441.506z"/>
	<path fill="#1D1D1B" d="M188.999,444.961c0,0-29.042,8.432-41.69-16.395c0,0-22.016,0.468-27.168-6.089
		c0,0,11.242,6.089,21.079,0.937c0,0-4.216-3.279-6.089-8.432c0,0-9.368,1.874-10.774-8.9c0,0-1.874-3.279-5.153-6.089
		c-3.279-2.811-12.647-12.179-12.647-29.511c0,0-7.026-16.863-0.468-27.168c6.558-10.305,19.205-11.711,23.89-14.053
		c0,0-18.737-2.811-18.268-19.205c0,0,9.837,23.421,24.826,13.584c14.99-9.837,13.116-16.863,7.026-36.069
		c-6.089-19.205-2.342-28.574-2.342-28.574s-6.558-13.116,4.684-29.511c11.242-16.395,19.205-21.079,45.905-30.916
		c0,0,1.405-6.089,7.026-31.853s8.9-31.853,8.9-31.853s-5.153-6.558,4.216-21.547c9.368-14.99,12.179-24.826,16.863-30.916
		c4.684-6.089,14.053-12.179,20.611-15.458c6.558-3.279,8.9-5.621,20.142-10.305s18.737-5.621,18.737-5.621s6.09-5.621,17.332-8.432
		c11.242-2.811,22.953-3.747,31.384,1.874s25.763,8.432,30.916,14.521s6.558,8.432,15.926,17.332s24.826,16.863,31.853,28.105
		c7.026,11.242,9.837,22.953,11.711,36.537s2.811,19.674,13.116,27.637c10.305,7.963,22.484,15.458,22.484,26.7
		c0,11.242,2.811,14.053,7.495,24.358c4.684,10.305,14.521,20.142,22.016,28.574c7.495,8.432,0.468,13.584-1.405,19.674
		s-2.342,1.874,3.279,13.584c5.621,11.711,5.153,7.963,0.468,12.179c-4.684,4.216-16.863,19.674-15.458,22.484
		c1.405,2.811,7.026,14.521,14.053,14.521s3.747,5.621,13.116,6.558c9.368,0.937,8.9-5.153,12.179,1.874
		c3.279,7.026,3.279,4.216,7.495,14.99c4.216,10.774-10.305,23.421-23.89,23.421c0,0,13.584,25.763,7.495,32.79
		c-6.089,7.026-15.926,8.432-20.142,10.774c-4.216,2.342-4.684,7.495-3.279,9.368c1.405,1.874,6.09,2.342,7.963-0.937
		s4.684,14.99-11.242,14.99c-15.926,0-27.637-6.558-32.321-8.9c-4.684-2.342-12.179-1.874-13.116-3.747
		c-0.937-1.874-19.205,3.279-24.826-8.9c0,0-5.621,2.811-5.621,15.926s-0.937,16.395-3.279,20.611
		c-2.342,4.216-8.432,1.405-9.368-8.9c-0.937-10.305-3.747-20.142,1.405-30.916c5.153-10.774,5.153-11.242,7.495-21.547
		c2.342-10.305,4.216-7.963,5.153-22.953c0.937-14.99,2.342-16.395,1.405-26.7c-0.937-10.305-1.405-14.99-1.405-14.99
		s1.405-9.368,1.874-17.8c0.468-8.432,2.811-17.332,2.811-17.332s-12.647,18.268-17.8,31.853
		c-5.153,13.584-13.116,40.753-27.637,54.337c-14.521,13.584-24.358,15.458-43.563,15.458c-19.205,0-31.853-4.684-42.158-11.711
		s-14.99-1.405-21.547-11.242c-6.558-9.837-7.026-4.216-10.305-19.205c-3.279-14.99,0-6.558-3.279-17.8
		c-3.279-11.242-18.268-26.7-18.268-26.7l-3.747-2.811c0,0,7.026,21.079,10.305,35.132c3.279,14.053,2.811,21.547,2.811,21.547
		s-8.432,6.089-13.116,14.053c-4.684,7.963-15.458,15.926-20.142,21.547c-4.684,5.621-11.711,22.016-12.179,28.574
		C192.278,437.934,188.999,444.961,188.999,444.961z"/>
	<path fill="#FFFFFF" stroke="#BA182C" stroke-width="0.1757" stroke-miterlimit="10" d="M261.136,266.023
		c0,0-2.342,4.216,2.342,15.926c4.684,11.711,8.432,15.458,15.926,28.105s15.458,12.179,16.395,4.684
		c0.937-7.495,2.811-11.242,0.937-14.053s-9.837-1.874-9.837-6.089c0-4.216,1.874-9.837,5.153-9.837s6.09,0.468,17.8-0.468
		c11.711-0.937,21.547-0.937,26.232-0.937c4.684,0,7.963,2.811,4.684,8.9c-3.279,6.09-12.647,4.216-12.647,10.305
		s0.937,10.774,1.405,14.99c0.468,4.216,4.684,7.026,15.458-1.405c10.774-8.432,13.116-8.432,16.395-17.8
		c3.279-9.368,8.432-14.053,9.368-26.232c0.937-12.179,0-18.268,0-20.142s0.468-5.153-10.774-8.432s-13.116-5.153-22.016-8.432
		c-8.9-3.279-6.558-7.495-14.99-5.621c-8.432,1.874-7.026-0.468-13.584,1.874c-6.558,2.342-8.432-0.468-18.737,5.621
		c-10.305,6.089-18.737,7.495-22.484,14.521S261.604,262.744,261.136,266.023z"/>
	<path fill="#1D1D1B" d="M273.881,255.13c0,0,11.222-9.789,19.188-12.907c7.966-3.119,11.479-3.465,19.274-3.205
		c7.795,0.26,14.991,0.52,18.503,0.52s6.682,1.386,10.365,2.859c3.683,1.473,10.194,4.764,11.564,5.891
		c1.371,1.126,2.827,3.898,3.169,6.324c0.343,2.426-0.428,5.457-0.428,5.457s-4.968,4.158-9.508,5.804
		c-4.54,1.646-28.782,3.292-28.782,3.292l-28.44-0.52c0,0-10.365-0.606-12.164-2.252c-1.799-1.646-2.655-5.977-2.998-7.623
		S272.768,256.343,273.881,255.13z"/>
	<path fill="#1D1D1B" d="M289.827,267.897c0,0,43.915,3.864,55.859-3.162c11.945-7.026,2.459-4.567,2.459-4.567l-14.053-13.701
		l-41.807,1.054l-7.378,9.486L289.827,267.897z"/>
	<path fill="#FFFFFF" d="M224.599,286.166c0,0,4.216,15.458,10.774,23.89c6.558,8.432,6.558,11.711,14.521,11.242
		c7.963-0.468,11.711-0.468,11.711-7.026c0-6.558-7.026-15.458-6.558-25.295c0.468-9.837-2.811-8.9-3.279-24.358
		c-0.468-15.458,0.468-16.395,7.495-23.89c7.026-7.495,6.09-8.9,18.737-15.926c12.647-7.026,15.458-10.774,20.611-10.774
		s2.811,4.684,14.053,2.342c11.242-2.342,13.584-6.089,21.079-1.874s13.116,10.774,18.268,11.711
		c5.153,0.937,18.737,4.216,22.953,9.368c4.216,5.153,6.089,16.863,6.089,22.016c0,5.153,0,13.116,0,19.674s8.9-19.674,8.9-22.016
		c0-2.342-3.747,12.647-7.026,29.511c-3.279,16.863-0.468,15.926,0,20.611c0.468,4.684,7.026,10.774,12.179,4.216
		s8.432-9.837,13.116-19.205c4.684-9.368,6.09-18.737,7.495-36.068c1.405-17.332,4.216-18.268,0-41.221
		c-4.216-22.953-0.468-20.142-9.837-39.347s-14.053-29.511-14.053-30.916c0-1.405,10.774,18.737,10.774,17.332
		s0.937-5.621-0.468-14.053c-1.405-8.432-9.837-19.674-21.547-32.79c-11.711-13.116-27.168-26.7-35.132-32.321
		c-7.963-5.621-20.611-11.711-33.258-10.305s-33.258,5.621-51.995,20.142s-22.484,14.99-27.168,23.421
		c-4.684,8.432-8.9,12.179-8.9,12.179s-2.811-3.279-6.089,7.495s-11.711,17.332-11.711,24.358s0,6.089,0,13.116
		c0,7.026,3.279,6.089,5.153-1.874c1.874-7.963,3.279-5.153,3.279-3.279s3.279,0.937,3.747-0.937c0.468-1.874,1.405-2.811,0,9.837
		c-1.405,12.647-3.747,20.611-3.747,21.547s-1.874-7.963-1.874-12.647c0-4.684-1.874,2.811-1.874,9.837s-2.811,14.053-2.811,23.89
		c0,9.837,0.468,13.584,0.468,15.926c0,2.342,2.811,1.874,3.279-8.9c0.468-10.774,2.342-5.621,2.811,5.153
		c0.468,10.774,1.405,10.305,2.342,18.268c0.937,7.963,0.937-3.279,1.405-15.926c0.468-12.647,2.342-18.268,3.279-24.358
		c0.937-6.089,3.279-3.747,2.342,8.432s-0.468,15.458-0.468,36.537S224.131,279.139,224.599,286.166z"/>
	<path fill="#FFFFFF" d="M276.477,264.384c0,0-2.108-4.918-2.108-7.729c0-2.811,16.863-15.107,27.051-16.161
		c10.188-1.054,17.917-0.351,27.754-0.351s20.376,7.378,23.538,9.486c3.162,2.108,2.108,10.188,2.108,10.188
		s-6.675,5.621-9.134,4.918c-2.459-0.703-11.593-14.755-11.593-14.755s-20.025-3.162-37.591,1.054l-6.675,16.863
		C289.827,267.897,279.639,268.6,276.477,264.384z"/>
	<path fill="#1D1D1B" d="M273.315,207.471c0,0-7.026,9.486-10.891,15.809c-3.865,6.324-7.026,12.296-11.242,18.62
		s-4.216,9.837-4.216,9.837s6.324-9.837,9.134-15.107c2.811-5.27,9.486-16.512,11.593-18.971S275.072,208.525,273.315,207.471z"/>
	<path fill="#1D1D1B" d="M238.535,252.439c0,0,6.675,19.674,10.188,28.808c3.513,9.134,4.216,8.783,4.216,10.539
		s-3.513-1.054-8.432-14.755C239.589,263.33,238.886,256.304,238.535,252.439z"/>
	<path fill="#1D1D1B" d="M226.941,187.797c0,0,2.459-23.538,3.513-25.997C231.508,159.34,229.049,195.526,226.941,187.797z"/>
	<path fill="#1D1D1B" d="M233.265,150.557c0,0,7.378-8.432,14.053-15.458c6.675-7.026,8.432-9.837,15.458-5.27
		c7.026,4.567,5.27,3.864,8.432,7.729c3.162,3.864,2.811,4.216-2.459,2.811c-5.27-1.405-6.324-4.216-18.971,4.567
		S227.995,159.34,233.265,150.557z"/>
	<path fill="#1D1D1B" d="M338.309,124.56c0,0,12.647-9.486,21.079-7.378c8.432,2.108,16.863,9.837,19.674,11.242
		c2.811,1.405,6.675,12.296,10.539,27.051c3.865,14.755,0.703,7.729,7.026,27.051s16.161,46.725,16.161,53.049
		s-2.108,1.757-4.216-6.324c-2.108-8.08-13.35-39.347-16.512-50.941c-3.162-11.593-10.539-34.429-11.593-36.537
		c-1.054-2.108-9.837-9.837-20.728-11.945S333.39,129.83,338.309,124.56z"/>
	<path fill="#1D1D1B" d="M281.747,200.913c0,0-2.342,11.711,7.729,7.495c0,0-1.171,6.558-6.324,4.918
		C277.999,211.686,277.531,203.957,281.747,200.913z"/>
	<path fill="#1D1D1B" d="M291.349,205.831c0,0,1.639-3.747,7.261-3.045s7.026,1.405,8.666,5.153
		c1.639,3.747,6.324,3.513,6.324,3.513s-4.918,1.171-7.261-1.171c-2.342-2.342-2.108-3.279-5.387-2.576
		C297.673,208.407,291.818,208.642,291.349,205.831z"/>
	<path fill="#1D1D1B" d="M317.347,208.642c0,0,1.405-4.216,7.729-6.089s7.495-0.468,9.837,2.342
		c2.342,2.811,11.242,0.468,6.558-7.026c0,0,5.621,5.153,0,9.134c-5.621,3.982-6.089-1.171-9.603-1.405
		c-3.513-0.234-6.089,0.234-9.134,1.639S317.112,210.281,317.347,208.642z"/>
	<path fill="#1D1D1B" d="M300.249,191.778c0,0-2.576-3.747-0.703-6.792c1.874-3.045,3.045-9.368,3.045-9.368
		s-3.982,5.153-5.621,9.837C295.331,190.139,293.457,194.121,300.249,191.778z"/>
	<path fill="#1D1D1B" d="M275.423,190.607c0,0,16.863-7.729,17.097-13.818c0.234-6.089-1.874-10.071-1.874-10.071
		s-4.45-0.468-7.261-1.171s-5.387-1.874-5.387-1.874s-1.874-0.468,2.108,2.342c3.982,2.811,4.45,3.045,6.792,3.513
		c2.342,0.468,3.045,1.639-0.468,1.639c-3.513,0-5.621-0.234-5.621-0.234s-5.855-11.242-15.692-11.242
		c-9.837,0-15.458,10.071-15.458,10.071s2.342,2.108,3.747,2.108s1.405,0,1.405,0l-8.432-0.234c0,0,3.513-8.9,10.774-12.647
		c0,0-9.134,5.153-11.242,7.261c0,0,7.495-11.711,18.034-11.711c10.539,0,18.503,7.729,20.142,9.134
		c1.639,1.405,4.45,1.874,4.45,1.874s-0.468-3.982-3.747-6.324s-6.324-5.621-1.405-3.513s8.197,9.368,8.197,9.368
		s4.216,5.855,4.216,0.234s-7.261-11.008-10.774-13.35c-3.513-2.342-7.261-4.918-2.811-3.982s13.818,4.216,16.161,10.071
		c2.342,5.855,0.468,7.026-1.171,12.647C295.565,176.321,294.16,185.455,275.423,190.607z"/>
	<path fill="#1D1D1B" d="M256.1,171.988c0,0,0.586-8.549,8.549-8.549c7.963,0,8.314,8.08,8.314,8.08h-0.937
		c0,0-0.351-7.261-7.495-7.261c-7.143,0-7.261,7.612-7.261,7.612L256.1,171.988z"/>
	<path fill="#1D1D1B" d="M260.668,171.519c0,0-0.117-3.513,3.982-3.513s4.333,3.63,4.333,3.63S261.604,172.105,260.668,171.519z"/>
	<circle fill="#FFFFFF" cx="265.118" cy="169.763" r="1.874"/>
	<path fill="#1D1D1B" d="M326.012,162.034c0,0,20.142-18.971,25.763-21.782s-10.305,8.9-13.584,12.413s-7.026,4.684-7.026,7.026
		c0,2.342,2.342,1.639,2.342,1.639s11.242-12.413,19.674-12.413c8.432,0,14.521,5.855,16.629,8.666c0,0-4.918-4.918-13.35-4.918
		c0,0,11.008,5.387,14.287,11.008v1.874h-1.171c0,0-8.197-10.071-16.863-10.071c-8.666,0-10.539,4.918-13.116,7.963
		c-2.576,3.045-4.684,3.279-4.684,3.279s-0.234-1.171,1.405-2.108c1.639-0.937,5.855-6.558,5.855-6.558s-3.982,1.874-5.387,3.045
		c-1.405,1.171-4.45,5.621-4.918,6.089c-0.468,0.468,0.468-2.108-0.468-3.279s-2.108-0.468-3.513,0.937
		C326.481,166.249,326.481,164.61,326.012,162.034z"/>
	<path fill="#1D1D1B" d="M320.157,160.863c0,0,3.279,10.305,3.279,12.179s-1.171,5.855-0.234,11.476
		c0.937,5.621,6.324,10.774,6.324,10.774s0.234,2.108-1.874-3.982c-2.108-6.089-2.108-8.432-2.108-9.603s2.576-1.639,8.9,1.171
		s11.008,6.089,20.142,5.855c9.134-0.234,20.845-9.603,20.845-9.603s-15.926,9.134-30.447,3.045
		c-14.521-6.089-17.332-7.495-17.566-11.242c-0.234-3.747-2.108-7.729-1.405-8.9c0.703-1.171,7.261-6.324,7.261-6.324
		s1.874-4.216,3.045-6.792c1.171-2.576,0.703-0.937-5.153,1.874C325.31,153.602,319.923,156.881,320.157,160.863z"/>
	<path fill="#1D1D1B" d="M345.569,168.357"/>
	<path fill="#1D1D1B" d="M345.92,168.006c0,0-0.703-8.432,7.143-9.017s9.837,7.261,9.837,7.261h-1.23c0,0-1.932-6.734-8.168-6.47
		c-6.236,0.263-6.675,8.168-6.675,8.168L345.92,168.006z"/>
	<path fill="#1D1D1B" d="M349.463,167.86c0,0-0.878-4.391,3.864-4.391s4.567,3.074,4.567,3.074S357.016,167.86,349.463,167.86z"/>
	<circle fill="#FFFFFF" cx="353.591" cy="165.664" r="1.757"/>
	<path fill="#1D1D1B" d="M225.067,310.523c0,0,15.458,67.921,17.332,82.442s-0.468,25.295,2.342,42.626
		c2.811,17.332,9.368,38.879,16.395,52.463c7.026,13.584,22.484,35.132,33.258,49.653c10.774,14.521,38.879,51.058,43.095,67.921
		c0,0,34.195-90.405,51.058-117.106c16.863-26.7,18.737-38.879,18.737-41.221s8.432-29.511,8.432-29.511l-7.495-3.747l-4.684,35.132
		c0,0-13.116,30.916-26.232,56.211c-13.116,25.295-40.284,96.027-40.284,96.027s-31.853-56.679-56.211-88.063
		c-24.358-31.384-31.853-69.795-32.79-88.532C247.083,406.082,235.841,339.566,225.067,310.523z"/>
	<path fill="#1D1D1B" d="M189.936,440.276l-3.747,34.663c0,0,9.837,11.242,24.826,11.711c14.99,0.468,39.816,0.937,39.816,0.937
		l5.153,10.305c0,0-1.874,9.368-4.216,19.205c-2.342,9.837,0.468,15.458,10.774,19.674c10.305,4.216,59.49,30.916,70.263,69.326
		c0,0-49.184-38.411-61.832-44.032c-12.647-5.621-13.584-17.8-15.458-23.89c-1.874-6.089-8.9-13.584-6.558-21.547
		c2.342-7.963,2.342-11.242,2.342-11.242s-25.763,12.647-44.032,8.432c-18.268-4.216-16.395-22.484-14.99-26.232
		c1.405-3.747-8.432-10.305-8.432-10.305S184.783,444.492,189.936,440.276z"/>
	<path fill="#1D1D1B" d="M465.836,439.34l25.295,54.337c0,0-12.179,18.268-63.237,13.116c0,0,2.811,7.963,9.368,17.332
		c6.558,9.368,4.684,11.242,4.684,11.242s-12.179,15.458-31.384,25.295c-19.205,9.837-56.211,19.674-75.884,62.3
		c0,0-1.874-12.179,34.195-32.321s68.39-29.979,68.39-29.979l-2.811-12.647l11.242-11.711l-10.774-21.079
		c0,0,50.59-4.216,55.742-5.621s0-8.432,0-8.432l3.279-4.216C493.942,496.956,470.052,441.682,465.836,439.34z"/>
	<rect x="-44.275" y="473.066" fill="#FFFFFF" width="129.285" height="275.432"/>
	<rect x="607.768" y="473.066" fill="#FFFFFF" width="129.285" height="275.432"/>
	<rect x="34.42" y="652.94" fill="#FFFFFF" width="664.691" height="74.479"/>
</g>
</svg>
