<?xml version="1.0" standalone="no"?>
<!DOCTYPE svg PUBLIC "-//W3C//DTD SVG 20010904//EN"
 "http://www.w3.org/TR/2001/REC-SVG-20010904/DTD/svg10.dtd">
<svg version="1.0" xmlns="http://www.w3.org/2000/svg"
 width="1280.000000pt" height="1259.000000pt" viewBox="0 0 1280.000000 1259.000000"
 preserveAspectRatio="xMidYMid meet">
<metadata>
Created by potrace 1.15, written by Peter Selinger 2001-2017
</metadata>
<g transform="translate(0.000000,1259.000000) scale(0.100000,-0.100000)"
fill="#000000" stroke="none">
<path d="M2441 12453 c-31 -60 -175 -747 -485 -2328 -71 -360 -210 -1097 -256
-1350 -117 -658 -151 -837 -256 -1380 -249 -1283 -488 -2448 -526 -2560 -48
-141 -109 -225 -162 -225 -104 0 -249 301 -301 623 -8 49 -36 50 -81 2 -71
-76 -160 -462 -240 -1038 -16 -119 -16 -129 -1 -145 34 -34 46 1 82 249 40
271 76 470 111 619 28 121 63 230 72 230 4 0 17 -44 30 -98 47 -201 159 -423
242 -479 113 -74 214 -9 289 185 36 93 101 386 250 1117 199 982 403 2035 502
2590 33 187 61 345 63 350 1 6 6 -150 9 -345 19 -1138 289 -2899 558 -3642 67
-186 118 -338 113 -338 -3 0 -14 5 -26 11 -37 20 -66 3 -96 -58 -44 -90 -107
-121 -206 -102 -103 19 -131 64 -175 283 -30 148 -46 186 -81 186 -42 0 -55
-38 -109 -320 -16 -86 -41 -190 -54 -233 -22 -68 -23 -79 -10 -92 29 -30 43
-16 72 75 19 57 67 277 86 398 4 23 10 42 13 42 4 0 17 -50 29 -111 13 -68 33
-136 52 -174 28 -57 38 -67 89 -92 125 -61 260 -33 329 69 17 26 33 53 35 60
3 8 19 2 48 -18 34 -23 47 -39 58 -74 7 -25 80 -279 163 -565 296 -1028 438
-1382 732 -1825 220 -332 408 -511 551 -527 120 -14 216 107 233 293 7 81 -15
147 -60 174 -55 34 -93 -10 -41 -47 32 -24 44 -75 32 -149 -11 -76 -60 -176
-93 -194 -114 -61 -320 114 -564 478 -291 435 -438 802 -716 1777 -52 182
-110 384 -130 450 -19 66 -35 122 -35 126 0 13 99 -28 130 -55 64 -53 102 -66
200 -66 122 0 164 24 222 127 l24 41 -4 -256 c-4 -287 0 -315 45 -310 26 3 31
12 74 133 98 276 241 615 259 615 14 0 27 -25 69 -132 71 -177 117 -231 220
-258 80 -21 208 6 288 61 23 16 45 29 48 29 4 0 25 -16 48 -35 50 -43 105 -62
135 -46 11 6 23 11 25 11 2 0 7 -183 10 -407 8 -594 46 -940 143 -1312 121
-466 338 -783 598 -873 73 -25 165 -23 224 4 176 82 385 439 563 963 31 94 60
163 63 155 13 -39 31 -575 30 -925 0 -428 -9 -544 -65 -878 -77 -459 -175
-707 -289 -732 -25 -5 -37 -2 -55 15 -47 44 -55 165 -34 525 15 238 8 300 -31
300 -25 0 -25 -1 -27 -90 -1 -49 -7 -194 -14 -320 -8 -174 -8 -249 0 -305 22
-142 69 -197 158 -187 163 18 265 245 357 797 57 340 61 400 61 915 0 346 -5
552 -19 781 l-19 311 61 234 c85 323 208 890 244 1123 2 15 25 26 98 48 292
90 538 207 734 351 66 49 69 50 82 32 8 -11 17 -36 20 -56 10 -59 16 -64 60
-40 72 38 98 69 130 153 l23 63 1 -40 c1 -64 28 -175 56 -234 37 -75 102 -141
140 -141 37 1 59 19 123 108 60 82 84 100 108 80 9 -7 54 -64 99 -125 115
-156 185 -203 280 -188 51 7 101 46 135 103 29 49 60 82 75 82 7 0 55 -84 108
-187 144 -282 223 -373 323 -373 159 0 266 159 408 603 117 370 248 859 640
2387 267 1042 320 1259 389 1595 36 171 65 303 65 295 1 -8 -10 -112 -23 -230
-41 -360 -49 -550 -43 -960 3 -206 11 -442 16 -525 88 -1279 260 -2205 557
-3003 185 -496 370 -862 576 -1136 171 -228 315 -369 457 -444 98 -53 174 -72
281 -72 108 0 181 18 295 74 109 54 159 94 150 118 -10 26 -41 22 -91 -13
-106 -73 -244 -119 -354 -119 -217 1 -408 136 -677 480 -264 339 -574 1033
-767 1721 -178 632 -313 1551 -367 2504 -19 319 -16 891 4 1115 33 356 93 810
188 1427 12 78 19 149 16 157 -4 9 -18 16 -31 16 -32 0 -26 21 -131 -495 -48
-231 -111 -541 -141 -690 -101 -497 -125 -597 -305 -1305 -726 -2841 -837
-3217 -1000 -3382 -76 -77 -132 -74 -210 9 -49 51 -71 88 -174 291 -50 99 -98
181 -113 193 -43 33 -103 9 -150 -63 -15 -23 -41 -56 -58 -74 -27 -29 -39 -34
-76 -34 -64 0 -110 38 -202 164 -92 125 -125 156 -170 156 -42 0 -75 -26 -130
-104 -25 -34 -53 -70 -64 -79 -19 -17 -21 -17 -47 15 -71 84 -105 215 -105
405 0 46 -5 91 -11 101 -8 14 -2 31 30 87 194 331 325 1089 292 1682 -21 353
-62 580 -157 863 -103 307 -219 515 -367 657 -68 65 -104 91 -179 127 -51 25
-110 48 -130 52 -33 5 -38 10 -38 35 0 35 67 665 120 1124 103 894 121 1084
123 1300 1 222 -26 320 -99 365 -71 44 -209 15 -342 -73 -471 -314 -784 -1387
-912 -3122 -5 -77 -10 -147 -10 -155 0 -9 -45 -65 -101 -125 -319 -347 -609
-774 -810 -1190 -292 -605 -480 -1338 -545 -2116 -23 -287 -54 -336 -157 -250
-70 58 -78 59 -156 12 -82 -50 -117 -61 -194 -61 -108 0 -162 46 -212 183 -52
141 -84 197 -122 215 l-35 17 -33 -38 c-37 -43 -121 -230 -205 -454 -31 -84
-60 -156 -65 -161 -9 -8 1 292 16 488 8 104 20 167 50 275 76 268 181 784 418
2055 98 526 107 621 58 652 -21 14 -64 8 -80 -10 -74 -82 -198 -592 -316
-1307 -77 -466 -136 -934 -180 -1435 -13 -150 -87 -345 -154 -408 -35 -33
-163 -40 -216 -12 -67 36 -67 36 -46 60 29 32 33 152 7 200 -27 49 -63 65
-100 46 -44 -23 -66 -77 -59 -148 l5 -59 -31 20 c-18 11 -35 26 -39 33 -26 46
-211 594 -252 748 -261 973 -503 2952 -447 3640 34 405 170 1154 526 2885 101
492 139 712 129 739 -8 21 -51 20 -63 -1z m4651 -1208 c43 -43 53 -101 53
-310 -1 -225 -3 -256 -105 -1160 -44 -385 -91 -810 -105 -945 -14 -135 -27
-263 -30 -286 l-6 -41 -87 -6 c-248 -17 -497 -144 -799 -407 -84 -73 -93 -79
-93 -56 0 13 7 109 15 213 135 1685 461 2726 930 2970 112 58 188 68 227 28z
m-202 -2832 c0 -41 -76 -782 -105 -1033 -55 -465 -100 -743 -225 -1400 -97
-509 -134 -711 -205 -1135 -68 -406 -81 -475 -92 -485 -10 -10 -222 -57 -295
-66 l-54 -6 -12 162 c-30 391 -36 685 -37 1615 0 922 5 1153 36 1670 l10 170
72 70 c289 281 616 457 865 464 40 1 42 -1 42 -26z m177 -15 c117 -43 250
-161 346 -306 138 -207 280 -615 326 -940 85 -588 35 -1224 -136 -1757 -65
-202 -142 -333 -282 -478 -79 -82 -86 -87 -117 -81 -41 7 -53 1 -178 -101
-103 -83 -163 -125 -180 -125 -13 0 -2 66 29 164 24 77 26 90 13 102 -26 26
-47 5 -72 -75 -38 -121 -51 -198 -37 -227 6 -14 11 -26 11 -28 0 -17 -433
-177 -444 -165 -8 9 161 975 273 1564 163 855 213 1205 296 2050 45 466 40
436 73 429 15 -4 51 -15 79 -26z m-1236 -775 c-27 -485 -35 -827 -35 -1533 0
-762 13 -1267 40 -1614 8 -104 12 -191 9 -195 -14 -13 -192 -4 -250 13 -53 16
-70 28 -161 121 -113 113 -164 143 -228 131 -57 -11 -88 -60 -146 -229 -28
-82 -60 -163 -71 -178 -30 -43 -73 -39 -186 16 -104 51 -194 128 -270 231 -26
35 -55 66 -65 70 -16 5 -18 13 -14 47 3 23 8 74 11 112 30 359 123 847 230
1210 220 743 538 1322 1044 1898 51 59 96 105 98 103 3 -2 0 -94 -6 -203z
m-2114 -307 c-4 -46 -25 -184 -47 -307 -73 -402 -299 -1580 -340 -1769 -22
-101 -40 -189 -40 -194 0 -5 -3 -7 -6 -4 -8 9 31 353 77 673 101 707 229 1349
320 1598 17 48 33 87 36 87 3 0 3 -38 0 -84z m3688 -2448 c-12 -71 -61 -168
-85 -168 -4 0 -14 18 -23 41 l-16 40 62 63 c34 35 64 64 65 65 2 0 1 -18 -3
-41z m-4686 -359 c15 -43 14 -91 -2 -113 -13 -17 -15 -16 -30 17 -20 41 -21
67 -5 102 15 33 24 32 37 -6z m2573 -52 c20 -12 66 -55 103 -95 37 -40 86 -84
109 -97 60 -35 165 -57 265 -54 l86 2 22 -289 c12 -159 34 -447 48 -640 l25
-352 -39 -128 c-93 -300 -170 -504 -271 -709 -144 -295 -286 -454 -407 -455
-47 0 -147 34 -203 70 -72 46 -198 184 -253 279 -201 340 -306 831 -339 1591
-12 280 -3 769 15 787 5 4 18 -6 30 -22 42 -59 143 -158 202 -198 70 -48 207
-107 250 -107 43 0 90 32 119 82 13 24 43 99 65 168 64 197 88 220 173 167z
m932 -349 c-69 -357 -210 -976 -220 -965 -5 5 -85 1070 -80 1074 1 2 43 10 92
18 49 9 114 22 144 29 107 27 102 41 64 -156z"/>
</g>
</svg>
