<?xml version="1.0" standalone="no"?>
<!DOCTYPE svg PUBLIC "-//W3C//DTD SVG 20010904//EN"
 "http://www.w3.org/TR/2001/REC-SVG-20010904/DTD/svg10.dtd">
<svg version="1.0" xmlns="http://www.w3.org/2000/svg"
 width="794.000000pt" height="830.000000pt" viewBox="0 0 794.000000 830.000000"
 preserveAspectRatio="xMidYMid meet">
<metadata>
Created by potrace 1.16, written by Peter Selinger 2001-2019
</metadata>
<g transform="translate(0.000000,830.000000) scale(0.100000,-0.100000)"
fill="#000000" stroke="none">
<path d="M515 8289 c-198 -25 -343 -110 -412 -240 -27 -52 -28 -59 -28 -199 0
-179 15 -234 86 -322 27 -34 52 -73 56 -87 3 -13 2 -92 -3 -175 -15 -266 -12
-334 16 -386 22 -40 33 -48 97 -72 118 -46 762 -228 804 -228 31 0 -10 15
-108 40 -132 34 -253 78 -493 183 -232 101 -256 116 -283 175 -20 43 -21 59
-17 182 9 286 7 309 -33 391 -30 61 -38 92 -46 179 -21 204 26 336 156 440
109 86 259 129 349 100 70 -23 204 -103 264 -157 77 -70 135 -159 162 -246 18
-60 20 -85 15 -172 l-7 -102 83 -41 c102 -50 178 -123 254 -240 107 -169 201
-241 325 -250 36 -2 79 -2 94 2 26 7 27 8 21 71 -4 45 -3 65 6 68 18 7 0 23
-125 107 -61 41 -113 80 -115 86 -2 6 6 23 17 37 20 26 26 27 110 27 67 0 120
-8 222 -34 201 -51 312 -107 359 -183 20 -32 22 -33 39 -18 18 16 19 14 27
-32 4 -26 8 -102 8 -169 0 -112 -2 -123 -25 -157 -14 -20 -27 -37 -30 -37 -3
0 -5 48 -5 108 0 174 -38 221 -185 230 -91 5 -142 -8 -160 -43 -12 -23 -11
-29 17 -63 16 -20 51 -53 78 -72 83 -60 151 -128 179 -181 16 -27 26 -52 24
-54 -6 -7 -94 42 -173 95 -136 92 -181 107 -370 130 -107 13 -188 35 -231 61
-18 11 -67 61 -110 112 -105 124 -233 256 -264 272 -14 7 -45 16 -70 20 -67
10 -148 52 -165 85 -12 23 -13 58 -8 187 4 109 2 172 -6 201 -22 79 -135 178
-245 215 -114 39 -303 0 -373 -75 -24 -26 -57 -97 -49 -105 3 -3 32 19 64 49
87 80 167 102 282 77 103 -22 208 -156 230 -295 20 -126 -26 -231 -145 -327
-71 -57 -183 -113 -243 -121 -40 -6 -46 -4 -79 29 -19 19 -37 35 -39 35 -2 0
-11 -25 -20 -56 -12 -42 -15 -85 -12 -165 3 -101 5 -110 33 -150 17 -24 45
-52 64 -63 56 -32 205 -66 293 -66 l81 0 -7 33 c-25 117 -19 190 20 236 38 45
72 47 218 11 156 -38 209 -57 270 -100 52 -35 76 -78 76 -135 0 -107 -84 -148
-255 -126 -48 7 -89 10 -92 7 -3 -2 54 -23 126 -46 92 -29 131 -45 131 -56 0
-18 -54 -42 -132 -58 -31 -6 -59 -14 -63 -17 -3 -3 23 -14 57 -23 35 -10 79
-26 98 -37 l35 -19 -37 6 c-22 4 -38 2 -38 -4 0 -5 21 -12 46 -16 106 -14 243
-117 293 -218 l32 -63 -2 -245 c-1 -137 2 -266 8 -292 6 -27 8 -48 5 -48 -12
0 -164 88 -230 133 -147 101 -242 215 -289 347 l-23 65 3 -100 c4 -115 16
-150 84 -225 57 -63 192 -163 313 -230 52 -29 131 -78 175 -110 111 -78 141
-95 212 -119 78 -26 162 -27 284 -2 52 11 163 32 247 46 151 27 154 27 200 10
68 -26 120 -61 183 -124 58 -59 129 -157 129 -179 0 -16 -96 -62 -130 -62 -56
-1 -57 -14 -7 -89 61 -91 66 -113 34 -145 -13 -13 -42 -29 -63 -35 -159 -45
-498 -62 -562 -28 -66 35 -109 135 -138 317 -10 60 -22 110 -26 110 -4 0 -29
-30 -56 -67 -104 -148 -126 -163 -257 -178 -33 -4 -102 -15 -154 -26 -120 -24
-167 -24 -238 2 -107 40 -196 146 -266 317 -49 116 -93 167 -167 191 l-55 19
2 43 c2 46 21 69 132 157 50 40 96 118 111 186 6 27 9 51 7 53 -2 2 -18 -26
-36 -61 -36 -73 -80 -116 -205 -199 -96 -64 -122 -104 -112 -168 3 -21 29 -96
58 -166 49 -121 52 -133 51 -213 -1 -47 -11 -166 -23 -264 -12 -99 -20 -213
-18 -254 3 -65 7 -77 28 -94 157 -123 169 -146 177 -350 7 -165 14 -179 111
-242 41 -26 103 -82 157 -141 177 -193 347 -312 480 -336 194 -36 501 34 773
177 142 74 207 121 279 197 92 99 137 242 99 315 -20 39 -40 50 -108 60 l-53
7 46 32 c73 50 149 141 191 227 21 44 38 86 38 94 0 7 6 12 13 9 26 -9 -11
-143 -52 -189 l-29 -32 132 -136 c237 -246 240 -253 240 -655 0 -401 -28 -570
-114 -704 -125 -193 -344 -304 -600 -304 -139 0 -164 10 -397 169 -103 70
-241 163 -306 207 -106 72 -138 101 -237 217 l-21 25 6 -109 c17 -300 130
-628 312 -901 33 -51 36 -61 34 -123 -2 -107 -22 -415 -35 -549 -6 -68 -9
-123 -5 -123 3 0 9 24 13 53 11 86 87 471 95 479 4 5 7 -45 8 -110 1 -143 22
-239 74 -349 44 -92 125 -184 183 -208 19 -8 65 -15 102 -15 184 0 372 105
472 263 77 123 231 491 342 817 29 85 57 159 61 164 4 4 10 -25 13 -65 3 -41
15 -180 26 -309 51 -580 66 -796 58 -807 -5 -6 -5 -14 0 -17 6 -3 13 -23 18
-43 11 -49 17 83 33 702 7 259 16 486 20 505 l7 35 25 -65 24 -65 6 45 c4 25
12 205 18 400 11 326 20 504 37 776 11 172 -20 334 -92 477 -96 192 -204 314
-409 464 -42 30 -23 46 52 44 42 0 61 -5 68 -17 6 -9 66 -91 133 -183 118
-158 188 -239 198 -228 11 10 -90 193 -172 313 -47 69 -84 128 -82 130 2 2 29
-13 58 -32 58 -38 105 -64 115 -64 4 0 -14 23 -39 51 -27 30 -48 64 -52 84
-10 53 28 118 118 208 43 43 78 80 78 82 0 3 -12 5 -26 5 -17 0 -54 -25 -117
-80 l-92 -80 -64 0 -63 0 -70 -70 c-59 -59 -72 -68 -82 -55 -17 23 -56 -2 -86
-55 -41 -75 -106 -131 -240 -203 -222 -120 -390 -160 -670 -161 -189 -1 -282
12 -427 60 -107 35 -332 146 -483 237 -68 42 -126 75 -128 73 -2 -2 13 -36 33
-75 56 -113 93 -146 230 -212 326 -154 557 -206 843 -188 147 9 240 26 417 74
70 19 142 35 161 35 41 0 136 -19 147 -30 12 -11 -25 -79 -60 -111 -62 -59
-386 -200 -512 -223 -105 -20 -278 -20 -371 -1 -165 35 -391 135 -568 252 -86
57 -98 62 -107 47 -33 -57 -68 -67 -115 -34 -41 29 -67 94 -90 224 -29 164
-46 195 -134 243 -58 32 -71 43 -69 61 2 12 -2 22 -7 22 -15 0 -12 33 19 195
16 83 35 202 41 265 7 63 13 116 13 117 1 1 26 -11 56 -25 30 -15 104 -70 165
-124 165 -145 328 -234 521 -288 119 -33 169 -60 175 -96 7 -34 7 -34 135 3
l90 26 155 -13 c236 -19 450 -24 527 -11 134 23 183 66 238 204 28 69 35 74
80 57 25 -9 25 -11 10 -40 -18 -35 -10 -39 21 -9 l22 20 17 -46 c10 -25 19
-73 19 -106 0 -32 2 -59 3 -59 1 0 26 33 56 74 105 145 179 332 193 493 4 43
4 76 1 73 -3 -3 -15 -30 -27 -60 -44 -112 -127 -193 -236 -231 -55 -19 -55
-19 -83 1 -21 14 -30 31 -35 63 -4 24 -20 71 -35 104 l-29 60 49 -18 c117 -45
228 -13 343 99 l66 63 -25 96 c-31 118 -64 180 -138 260 -97 103 -212 147
-287 108 -34 -18 -105 -113 -75 -102 84 33 192 33 260 1 91 -43 193 -190 202
-292 4 -41 1 -53 -26 -89 -17 -24 -37 -43 -44 -43 -6 0 -31 20 -55 45 -61 63
-206 150 -319 190 -165 59 -178 86 -177 350 0 189 13 268 51 313 29 33 127 49
215 34 243 -42 403 -244 439 -555 l13 -108 77 -73 c74 -70 77 -76 92 -142 9
-38 24 -121 34 -184 16 -101 18 -109 21 -65 2 27 -6 109 -18 183 -18 109 -19
142 -10 184 12 58 10 64 -18 49 -43 -23 -78 -13 -116 31 -42 48 -45 63 -13 53
12 -4 46 -10 75 -12 l52 -5 0 36 c0 36 0 36 -44 36 -30 0 -46 -5 -50 -15 -3
-9 -18 -15 -39 -15 -33 0 -34 2 -41 46 -9 70 -9 71 32 78 49 7 89 49 108 111
19 64 18 89 -1 81 -9 -3 -24 -1 -34 6 -15 9 -24 7 -50 -11 -36 -26 -52 -52
-61 -101 l-7 -35 -11 41 c-29 101 -29 102 22 123 38 17 46 25 46 46 0 56 -38
98 -108 119 -19 6 -24 3 -34 -24 l-11 -32 -23 43 c-14 23 -22 44 -20 47 3 2
24 8 46 12 79 14 201 -38 270 -117 45 -51 52 -97 55 -343 3 -244 12 -303 62
-407 43 -87 114 -144 287 -228 330 -161 602 -228 931 -229 l141 -1 69 35 c53
27 97 62 181 145 132 130 168 192 167 284 -1 124 -72 301 -183 456 -31 44 -76
116 -100 160 -68 126 -90 155 -115 155 -16 0 -26 -8 -32 -27 -8 -24 -6 -29 21
-43 33 -17 93 -86 83 -96 -3 -4 -35 14 -69 39 -61 43 -65 44 -92 30 -38 -20
-69 -10 -120 37 -24 22 -49 40 -57 40 -35 0 -92 -24 -134 -55 -25 -19 -49 -35
-55 -35 -14 0 -33 75 -26 103 7 29 86 67 154 75 23 2 42 8 42 11 0 16 -34 52
-61 66 -34 18 -35 26 -9 80 21 44 26 128 10 170 -9 23 -7 27 17 36 45 17 79
-5 120 -80 65 -120 117 -195 178 -257 87 -88 138 -114 235 -123 73 -6 80 -5
80 11 0 10 17 34 38 52 76 69 122 196 122 341 0 92 -14 138 -56 185 -43 47
-110 77 -209 91 -63 10 -148 7 -508 -16 -480 -30 -525 -37 -613 -103 -82 -62
-117 -129 -149 -284 -5 -24 -10 -27 -63 -33 -31 -3 -110 -14 -174 -24 l-118
-17 -21 55 c-83 219 -101 469 -42 585 25 51 145 205 222 288 113 121 117 122
416 128 l250 5 87 44 c148 74 235 58 343 -61 71 -79 155 -194 231 -318 37 -61
69 -108 72 -106 5 6 -117 240 -163 312 -50 78 -70 122 -90 197 -19 70 -27 82
-60 88 -10 2 -30 20 -43 39 -14 21 -34 37 -50 40 -23 4 -27 11 -30 43 -4 43
-8 45 -37 17 -12 -12 -37 -23 -56 -26 -29 -5 -39 -1 -67 29 l-34 35 -61 -25
-62 -25 -26 31 c-16 20 -35 31 -52 31 -14 0 -29 5 -32 10 -12 19 -24 10 -51
-40 -15 -27 -30 -50 -33 -50 -3 0 -19 20 -34 45 -16 25 -32 43 -36 40 -5 -2
-14 -32 -21 -66 -11 -49 -18 -62 -37 -70 -13 -5 -26 -9 -28 -9 -2 0 -9 27 -16
60 -14 70 -29 79 -30 18 0 -24 -4 -51 -7 -61 -7 -16 -11 -15 -47 12 -22 17
-43 31 -48 31 -4 0 17 -37 48 -82 30 -46 55 -88 55 -95 0 -14 -56 -32 -125
-39 -45 -5 -56 -2 -105 30 -30 19 -56 33 -57 32 -2 -2 4 -19 12 -39 8 -20 15
-38 15 -40 0 -3 -19 -1 -42 4 -66 13 -74 11 -86 -17 -11 -24 -16 -25 -67 -21
-30 3 -55 1 -55 -3 0 -5 19 -23 41 -41 23 -18 38 -34 33 -36 -5 -2 -50 6 -99
16 -49 11 -91 18 -94 15 -2 -2 5 -22 17 -43 12 -21 22 -41 22 -45 0 -3 -32 -6
-71 -6 l-72 0 7 -38 c5 -35 4 -39 -26 -50 -30 -11 -31 -13 -15 -30 23 -26 21
-37 -8 -50 -36 -16 -35 -17 -35 33 0 31 5 47 17 54 14 7 15 12 4 24 -10 13 -9
18 9 27 17 9 20 19 18 58 l-3 46 61 31 c33 16 80 45 104 63 32 23 55 32 84 32
41 0 113 14 122 23 3 3 0 14 -7 26 -7 11 -10 23 -6 27 3 4 48 10 98 15 118 11
129 15 129 45 0 28 7 30 38 8 35 -24 37 -11 6 41 l-27 47 22 21 22 22 24 -28
24 -27 20 44 c25 57 61 83 90 64 17 -10 29 -9 72 6 50 18 53 18 65 1 13 -17
14 -17 34 6 14 16 23 20 26 12 4 -9 17 -4 45 14 46 31 82 27 135 -14 29 -22
37 -24 44 -13 6 10 22 13 46 11 21 -1 40 2 44 9 5 8 16 0 34 -26 25 -37 27
-38 32 -16 7 26 8 26 34 10 15 -10 22 -9 39 6 27 24 35 17 56 -50 16 -52 75
-134 95 -134 5 0 10 10 12 23 4 21 5 21 18 -6 10 -21 20 -27 39 -25 22 3 28
-3 43 -44 10 -27 14 -48 10 -48 -33 -1 -31 -20 11 -111 24 -52 52 -115 62
-142 10 -26 20 -46 22 -43 2 2 -1 43 -7 91 -8 60 -19 101 -35 130 -30 51 -31
59 -5 95 16 23 19 38 14 72 -9 60 -26 83 -78 104 -32 13 -49 27 -55 47 -6 15
-21 31 -33 36 -13 5 -30 16 -37 25 -7 9 -20 16 -27 16 -7 0 -60 15 -116 34
-72 24 -129 36 -191 40 -85 5 -88 4 -82 -15 6 -17 3 -20 -12 -16 -10 4 -52 11
-94 16 -96 13 -154 4 -289 -46 -88 -32 -105 -42 -110 -63 -6 -23 -10 -25 -52
-22 -42 3 -47 1 -50 -20 -2 -16 -17 -30 -53 -47 -27 -13 -86 -45 -130 -71 -44
-26 -123 -69 -175 -96 -62 -32 -114 -68 -151 -104 -52 -51 -58 -63 -92 -167
-20 -62 -39 -129 -43 -148 l-6 -35 56 0 57 0 -36 -55 c-19 -31 -35 -60 -35
-65 0 -6 18 1 41 16 22 14 42 24 44 22 2 -2 -13 -25 -33 -53 -33 -44 -37 -47
-40 -26 -2 14 -9 21 -17 18 -7 -3 -18 0 -25 6 -10 10 -11 7 -7 -13 16 -66 26
-169 32 -310 7 -165 18 -208 71 -277 14 -18 23 -37 19 -42 -12 -20 -65 -23
-97 -5 -18 9 -49 25 -69 36 -80 41 -156 44 -341 11 -27 -5 -28 -4 -21 28 3 19
16 58 29 87 l23 53 -36 40 -36 40 13 57 c10 40 13 119 12 271 -3 247 -6 256
-96 296 -59 26 -343 175 -466 245 -47 26 -148 83 -225 125 -77 43 -318 180
-535 305 -732 421 -724 418 -875 399z m2160 -1504 c-9 -71 -21 -145 -27 -163
-9 -32 -8 -36 23 -62 40 -33 34 -47 -12 -31 -46 16 -82 14 -141 -9 -29 -11
-56 -20 -59 -20 -11 0 -31 85 -27 116 3 26 7 29 45 32 27 2 60 -4 89 -18 26
-11 48 -19 49 -18 4 6 35 102 35 109 0 5 -17 11 -37 14 -81 14 -86 24 -61 110
l11 40 10 -35 c10 -34 11 -33 23 43 16 101 22 114 23 50 2 -89 14 -95 27 -13
7 41 13 94 13 117 1 23 7 54 14 70 20 45 21 -175 2 -332z m-1070 94 c39 -10
115 -36 170 -58 l100 -38 1 -64 c2 -48 5 -63 15 -61 82 21 250 54 254 50 3 -3
-1 -77 -10 -164 -22 -236 -25 -220 37 -234 29 -6 62 -13 74 -16 20 -5 21 -1
27 73 5 71 9 80 37 106 16 15 34 27 38 27 5 0 23 -20 41 -45 18 -25 35 -45 38
-45 2 0 23 15 45 34 107 92 200 87 129 -7 -45 -60 -59 -94 -67 -162 -5 -50 -8
-56 -15 -36 -12 31 -14 126 -4 170 l7 35 -28 -19 c-79 -51 -68 -50 -126 -11
-29 20 -56 36 -60 36 -8 0 -15 -40 -21 -118 l-4 -53 46 -31 c25 -17 90 -74
144 -127 l97 -95 -6 75 c-4 45 -2 104 5 145 14 77 94 259 111 249 18 -11 11
-36 -35 -135 -55 -117 -65 -167 -58 -289 l6 -96 -99 95 c-114 109 -177 149
-301 193 -79 28 -100 31 -205 32 -103 0 -120 -2 -145 -21 -35 -26 -69 -87 -77
-139 -6 -37 -5 -39 9 -21 14 18 15 14 15 -52 0 -60 -3 -72 -16 -72 -14 0 -16
-8 -10 -61 13 -109 54 -250 84 -289 19 -24 63 -53 137 -90 l109 -55 -49 -9
c-91 -17 -261 28 -392 104 -97 56 -116 135 -111 475 3 216 3 221 -21 269 -25
50 -82 113 -156 174 l-40 32 40 -17 c62 -26 145 -85 177 -124 19 -24 33 -59
44 -109 8 -40 22 -86 31 -100 16 -27 87 -80 108 -80 5 0 18 26 27 59 10 32 33
82 53 111 20 29 34 54 33 55 -2 2 -35 14 -75 28 -142 50 -134 59 23 26 80 -16
118 -19 197 -14 53 4 97 8 97 9 14 54 30 178 30 229 l0 69 -32 -7 c-67 -14
-158 -63 -158 -85 0 -3 23 -17 50 -29 59 -27 65 -53 22 -95 -55 -52 -140 -47
-174 9 -23 41 -47 44 -96 15 l-33 -20 -67 66 c-64 64 -127 103 -164 104 -14 0
-18 8 -18 33 l0 34 -78 -5 c-63 -3 -80 -1 -91 12 -12 14 -8 16 37 16 27 0 54
6 60 13 5 6 19 44 31 84 14 47 27 73 39 76 25 7 87 -2 167 -24z m3226 -125
c-24 -25 -49 -61 -57 -80 -14 -34 -15 -34 -77 -34 -59 0 -64 2 -80 30 -10 16
-39 46 -64 67 l-46 38 159 11 c87 6 170 12 183 12 22 2 20 -1 -18 -44z m-928
-448 c7 -73 48 -156 103 -206 37 -34 43 -44 33 -56 -11 -13 -9 -14 14 -3 21
10 37 9 85 -5 32 -9 72 -16 88 -16 32 0 141 48 181 80 14 11 29 20 33 20 9 0
-1 -49 -35 -166 -14 -48 -25 -93 -25 -102 0 -9 26 26 58 78 54 90 59 95 88 92
22 -2 41 5 62 23 33 27 62 31 112 14 l33 -12 -47 -18 c-45 -17 -151 -94 -229
-168 -78 -73 -113 -182 -104 -325 3 -50 8 -99 12 -108 14 -36 -111 -133 -225
-173 -40 -14 -70 -5 -241 69 -97 42 -146 78 -188 140 -51 73 -63 138 -66 345
-2 171 -5 196 -34 308 -17 67 -34 142 -37 167 l-6 44 73 12 c74 13 239 28 250
23 3 -1 9 -27 12 -57z m-1650 -111 c31 -8 77 -24 103 -36 64 -30 154 -116 189
-181 28 -50 29 -60 29 -168 1 -125 -8 -152 -61 -201 -67 -63 -114 -71 -239
-39 -133 33 -156 66 -137 197 9 60 17 82 43 115 24 29 27 37 13 29 -41 -21
-119 -119 -156 -194 -44 -88 -46 -88 -115 -13 -56 60 -74 107 -74 191 -1 76
19 136 67 199 79 104 194 139 338 101z m2861 -387 c32 -23 86 -78 122 -121 59
-73 63 -80 47 -92 -17 -13 -17 -14 1 -34 17 -19 20 -20 31 -4 11 15 13 15 19
-5 21 -64 -9 -245 -44 -277 -14 -12 -27 -15 -50 -10 -33 7 -184 116 -193 139
-7 18 12 36 39 36 35 0 37 17 6 40 -16 12 -40 44 -53 72 -20 42 -32 54 -79 78
-97 48 -97 48 -105 -12 -11 -85 -22 -119 -51 -150 l-28 -28 69 0 68 0 -6 -87
c-3 -49 -9 -96 -12 -105 -4 -10 -25 -23 -46 -30 -35 -10 -43 -9 -67 9 -15 11
-43 43 -63 71 -43 60 -37 64 -104 -66 -34 -66 -55 -96 -73 -103 -14 -5 -27 -7
-30 -4 -5 5 24 118 43 168 6 15 1 17 -39 17 -25 0 -46 3 -46 8 0 4 7 29 15 56
21 71 20 107 -6 113 -16 5 -19 11 -14 34 4 16 3 29 -2 29 -4 0 -14 4 -22 9
-11 7 -4 25 34 87 102 169 124 184 269 184 98 0 133 -13 68 -25 -66 -12 -164
-66 -218 -120 -47 -46 -91 -111 -82 -120 2 -2 26 14 53 36 108 87 244 133 390
133 78 0 98 -3 147 -27 31 -15 79 -48 106 -72 44 -40 62 -47 62 -24 0 19 -94
119 -142 153 -50 34 -92 46 -193 57 -24 2 54 28 86 29 28 0 50 -10 93 -42z"/>
<path d="M395 7961 c-34 -20 -61 -56 -70 -94 -5 -20 -2 -27 14 -32 28 -9 74
-63 112 -136 41 -76 98 -139 127 -139 36 0 72 22 94 59 18 29 23 55 26 132 5
124 -12 164 -90 203 -66 33 -166 36 -213 7z"/>
<path d="M2162 7501 c32 -5 57 -16 77 -35 l28 -27 19 25 19 26 85 -11 c46 -5
85 -11 86 -12 6 -7 7 -124 1 -134 -4 -7 5 -21 25 -36 60 -44 105 -62 75 -29
-9 10 -25 55 -36 101 -10 46 -26 90 -34 99 -10 9 -50 18 -111 25 -86 9 -98 8
-115 -7 -19 -17 -20 -17 -31 3 -9 18 -19 21 -73 20 l-62 -2 47 -6z"/>
<path d="M4234 7160 c-74 -11 -119 -27 -211 -75 -144 -76 -272 -190 -378 -339
-59 -83 -53 -100 7 -20 61 82 192 218 263 271 119 91 288 152 427 154 50 1 57
3 33 9 -38 10 -76 10 -141 0z"/>
<path d="M4571 7120 c-1 -14 6 -50 14 -80 26 -92 34 -85 -95 -85 l-115 0 -107
-52 c-60 -28 -108 -54 -108 -56 0 -2 27 0 60 5 35 4 89 4 128 -2 37 -5 128
-10 202 -10 110 0 158 5 263 27 70 15 127 31 127 35 0 5 -22 8 -50 8 -27 0
-50 4 -50 9 0 5 29 19 65 31 36 12 65 26 65 30 0 12 -66 30 -107 30 -29 0
-120 -15 -152 -26 -10 -3 -11 -8 -2 -18 9 -11 7 -15 -11 -20 -57 -15 -65 -9
-87 57 -11 34 -25 80 -30 102 -6 29 -9 33 -10 15z"/>
<path d="M3519 4978 c-21 -59 -47 -109 -73 -141 -74 -90 -117 -151 -122 -173
-7 -29 28 -81 162 -237 l103 -120 3 -79 3 -80 75 -27 c96 -34 154 -68 224
-132 75 -68 141 -157 187 -254 40 -82 61 -113 54 -79 -7 29 -53 276 -58 306
-2 15 -1 26 2 24 4 -3 42 -88 86 -190 44 -103 81 -182 83 -176 2 5 -10 78 -28
161 -17 83 -29 153 -28 155 6 5 310 -344 333 -383 28 -45 415 -883 551 -1190
253 -572 432 -1024 510 -1290 3 -10 161 -13 749 -13 l745 0 0 433 c-1 493 9
430 -105 681 l-68 149 -7 126 c-6 114 -12 139 -53 258 -25 72 -51 142 -58 155
-12 22 -219 272 -411 497 -81 94 -102 125 -117 175 -10 34 -17 63 -15 65 3 3
87 -77 187 -177 263 -261 261 -254 -22 108 -109 140 -197 257 -196 259 2 1 54
-12 115 -29 61 -18 113 -30 116 -28 2 3 -5 30 -16 61 -54 143 -236 327 -490
494 -63 42 -133 88 -155 102 -21 14 -75 60 -120 101 -159 148 -467 425 -481
433 -12 7 -14 -22 -14 -183 0 -125 3 -189 10 -185 6 3 10 23 10 43 0 67 12 67
73 5 173 -177 290 -422 318 -664 13 -123 -1 -480 -26 -614 -15 -87 -56 -235
-80 -292 l-15 -36 -58 84 c-72 106 -170 234 -242 319 -31 36 -65 76 -76 88
-45 56 -217 200 -311 261 -101 67 -104 70 -364 382 -144 173 -282 336 -306
363 -24 27 -42 51 -39 53 9 10 375 -96 400 -116 6 -5 26 -11 45 -13 30 -4 32
-3 16 8 -9 7 -60 31 -112 54 -52 23 -185 86 -296 140 -214 104 -220 108 -362
260 -66 71 -191 190 -200 190 -2 0 -18 -41 -36 -92z"/>
<path d="M5702 4505 c4 -5 205 -64 455 -135 35 -9 76 -28 93 -41 72 -57 434
-560 587 -814 120 -200 212 -407 228 -518 7 -43 11 -48 60 -76 104 -59 148
-122 149 -216 1 -57 0 -60 -21 -57 -22 3 -22 1 12 -70 35 -75 92 -271 141
-490 20 -88 28 -151 28 -224 l1 -101 -53 -58 c-44 -48 -52 -62 -47 -83 3 -14
26 -139 51 -276 25 -138 47 -259 50 -268 4 -13 16 -18 40 -18 19 0 34 2 34 3
0 2 -18 64 -39 138 -21 74 -58 201 -81 283 l-41 149 22 23 c12 13 39 35 61 50
22 15 46 40 54 56 22 42 28 142 15 243 -12 89 -25 143 -95 399 -28 102 -38
159 -46 276 -10 156 -18 191 -53 229 -29 31 -94 61 -135 61 -42 0 -52 25 -52
133 0 45 -3 127 -7 181 l-6 100 -66 80 c-36 45 -198 245 -360 446 -360 447
-384 475 -418 488 -28 11 -528 112 -553 112 -7 0 -11 -2 -8 -5z"/>
<path d="M4910 4475 c0 -14 -5 -25 -10 -25 -7 0 -7 -6 0 -20 9 -17 4 -27 -35
-69 -53 -57 -98 -81 -149 -81 -20 0 -36 -4 -36 -9 0 -5 26 -33 58 -63 69 -63
147 -97 241 -105 63 -6 63 -6 56 18 -5 13 -20 69 -35 124 -51 186 -73 255 -82
255 -4 0 -8 -11 -8 -25z"/>
<path d="M3741 3907 c-2 -99 89 -280 206 -410 72 -80 157 -207 138 -207 -4 0
-28 23 -54 50 -26 28 -52 50 -59 50 -26 0 -11 -66 34 -149 54 -99 108 -180
224 -336 l82 -110 -7 65 c-9 88 -34 288 -41 325 -4 22 -20 41 -60 69 -59 43
-51 24 -115 249 -22 78 -46 119 -121 214 -45 54 -55 62 -96 68 -52 8 -97 46
-107 91 -4 16 -10 38 -15 49 -7 16 -9 12 -9 -18z"/>
<path d="M6820 2963 c1 -5 36 -53 80 -108 44 -55 80 -103 80 -107 0 -5 -14 -8
-31 -8 l-31 0 7 -62 c7 -61 11 -69 58 -101 17 -12 67 -117 204 -437 84 -196
102 -234 109 -227 2 2 -14 55 -37 118 -37 103 -179 520 -179 526 0 2 12 3 27
3 33 0 23 12 -43 51 l-47 27 59 7 c61 8 79 16 95 46 7 15 0 23 -45 48 -72 42
-95 66 -141 155 l-40 76 -62 0 c-35 0 -63 -3 -63 -7z"/>
<path d="M3615 2785 c-16 -7 -41 -23 -54 -33 l-25 -20 46 -50 c47 -53 102
-151 134 -237 35 -97 99 -154 223 -195 62 -20 71 -21 255 -11 105 6 230 14
277 17 82 6 87 6 98 -15 19 -34 31 -25 31 23 0 55 -23 85 -72 93 -58 9 -100
-4 -174 -52 -63 -42 -73 -45 -134 -45 -147 0 -360 76 -360 128 0 8 22 56 49
106 27 50 52 105 56 123 15 73 -47 121 -197 154 -51 11 -100 22 -108 24 -8 2
-28 -2 -45 -10z"/>
<path d="M4075 2703 c154 -144 154 -143 99 -58 l-16 25 55 0 c146 0 371 -64
499 -142 44 -27 82 -47 84 -45 24 24 -185 147 -298 176 -126 32 -446 66 -423
44z"/>
<path d="M3530 2333 c0 -5 -7 -75 -15 -158 -23 -217 -21 -517 4 -680 11 -71
24 -141 30 -155 l10 -25 0 30 c0 17 -4 64 -10 105 -6 42 -10 256 -10 483 0
224 -2 407 -4 407 -3 0 -5 -3 -5 -7z"/>
<path d="M4861 2142 c-1 -13 10 -97 24 -185 14 -89 38 -254 55 -366 16 -112
32 -206 35 -209 11 -11 4 178 -10 303 -23 189 -102 537 -104 457z"/>
<path d="M3816 1898 c-3 -13 -6 -38 -6 -57 0 -65 -51 -284 -100 -434 -28 -83
-48 -152 -47 -154 2 -1 16 10 32 27 l28 29 45 -39 c42 -37 115 -78 172 -95
l25 -8 -28 34 c-107 131 -112 141 -110 188 0 25 12 75 26 111 79 209 87 233
87 280 0 54 -29 98 -81 125 -36 19 -36 19 -43 -7z"/>
<path d="M2906 1585 c-97 -177 -234 -316 -367 -374 l-44 -19 30 -7 c77 -18
128 -39 180 -76 32 -22 59 -39 60 -37 8 9 187 570 182 574 -2 3 -21 -25 -41
-61z"/>
<path d="M3490 1136 l0 -76 207 0 c113 0 204 3 201 6 -3 3 -49 14 -101 25
-126 25 -230 61 -272 94 l-35 26 0 -75z"/>
<path d="M7348 901 c-162 -52 -282 -194 -308 -364 -31 -202 71 -392 258 -480
64 -30 73 -32 187 -32 114 0 123 1 188 32 91 43 177 130 220 220 27 59 32 81
35 170 4 85 1 112 -18 168 -44 132 -158 245 -288 285 -82 25 -196 26 -274 1z
m206 -310 c43 -29 66 -70 66 -121 0 -85 -57 -140 -143 -140 -35 0 -51 6 -82
33 -34 29 -39 39 -43 88 -5 67 14 111 61 139 41 25 104 25 141 1z"/>
<path d="M1234 873 c-120 -285 -316 -815 -305 -826 4 -4 41 -7 81 -5 l72 3 29
80 c15 43 36 85 45 92 13 9 62 13 171 13 179 0 178 1 213 -104 12 -37 27 -69
34 -71 29 -9 156 -13 156 -5 0 5 -61 166 -136 357 -75 191 -149 383 -166 426
l-30 77 -74 0 -74 0 -16 -37z m129 -265 c20 -51 48 -125 61 -165 l25 -72 -34
-7 c-43 -8 -201 -2 -211 9 -4 4 1 33 10 65 28 88 98 262 106 262 3 0 23 -42
43 -92z"/>
<path d="M4826 888 c-3 -13 -10 -59 -16 -103 -6 -44 -14 -95 -17 -112 l-5 -33
78 0 c44 0 96 -3 116 -6 l38 -7 -32 -56 c-18 -31 -71 -116 -118 -188 l-87
-133 13 -62 c8 -35 14 -80 14 -100 0 -36 1 -37 43 -42 23 -3 153 -7 289 -10
207 -4 247 -3 252 9 3 8 8 74 12 146 l7 132 -64 -7 c-126 -12 -184 -10 -181 5
2 8 55 91 118 184 l114 171 -1 74 c-1 41 -4 89 -8 105 l-6 30 -212 6 c-116 4
-241 10 -277 13 -63 7 -65 7 -70 -16z"/>
<path d="M30 893 l-25 -4 0 -424 0 -425 75 3 75 2 -2 243 c-1 133 2 242 6 242
9 0 51 -90 146 -315 37 -88 72 -166 78 -173 6 -8 27 -12 56 -10 l46 3 48 120
c104 260 140 346 154 363 12 15 13 -17 11 -226 l-3 -244 77 -3 76 -3 0 423 0
423 -21 6 c-12 3 -45 6 -73 6 l-51 0 -68 -177 c-83 -219 -150 -384 -179 -441
l-22 -43 -79 188 c-43 103 -109 252 -146 331 l-68 142 -43 -1 c-24 -1 -54 -4
-68 -6z"/>
<path d="M1830 893 l-25 -4 0 -423 -1 -423 78 0 78 -1 0 149 0 149 94 0 c110
0 100 9 165 -150 64 -157 56 -149 151 -147 44 1 80 5 80 10 0 5 -32 79 -71
164 l-70 155 54 57 c47 49 57 66 67 116 32 153 -20 269 -145 327 -46 21 -64
23 -240 24 -104 1 -201 0 -215 -3z m396 -148 c37 -24 58 -73 58 -136 1 -61
-17 -97 -60 -126 -29 -19 -176 -30 -239 -19 l-35 7 0 112 c0 62 3 129 6 149 6
37 7 37 58 40 77 5 185 -9 212 -27z"/>
<path d="M2544 473 l0 -428 76 2 75 2 0 178 0 178 46 5 c83 10 88 6 161 -132
37 -70 83 -152 102 -183 l36 -56 83 3 c75 3 82 5 81 23 0 11 -36 69 -78 130
-77 109 -146 236 -146 269 0 10 23 43 51 74 28 32 68 93 89 137 41 84 78 201
67 211 -10 10 -93 17 -120 10 -20 -5 -30 -20 -52 -83 -64 -182 -107 -244 -188
-268 -76 -22 -124 -20 -133 7 -3 12 -3 93 1 180 l7 158 -65 0 c-36 0 -72 2
-79 5 -12 5 -14 -62 -14 -422z"/>
<path d="M3592 469 l0 -425 77 -1 78 0 -1 424 -1 424 -76 2 -77 2 0 -426z"/>
<path d="M3847 888 c-3 -8 -8 -41 -12 -73 l-8 -58 116 8 115 7 8 -47 c3 -26 3
-190 -1 -364 l-7 -317 82 0 83 1 -6 275 c-3 151 -3 315 0 364 l6 88 111 -3
c84 -3 111 -1 110 9 -1 6 -2 37 -2 68 l-2 56 -87 -7 c-105 -9 -353 -9 -439 0
-48 6 -62 4 -67 -7z"/>
<path d="M5484 469 l0 -426 255 1 c141 0 281 -3 312 -7 l56 -8 21 124 c12 68
22 129 22 136 0 9 -27 11 -117 6 -147 -7 -218 2 -218 29 0 30 52 39 164 28 53
-6 99 -8 102 -6 3 2 9 41 13 86 3 46 9 100 12 120 l7 38 -129 -2 c-132 -2
-174 7 -174 37 0 22 80 29 204 18 61 -6 113 -9 115 -7 7 7 -19 238 -28 247 -4
4 -144 9 -312 10 l-304 2 -1 -426z"/>
<path d="M6215 473 l0 -428 173 -1 c154 -1 172 0 168 15 -8 26 -19 251 -13
251 5 0 33 -68 87 -214 l20 -51 175 -2 c96 -1 175 1 175 4 0 3 -35 78 -77 165
l-77 160 43 36 c122 101 124 326 4 418 -83 63 -112 68 -408 72 l-270 3 0 -428z"/>
</g>
</svg>
