<?xml version="1.0" encoding="utf-8"?><!DOCTYPE svg PUBLIC "-//W3C//DTD SVG 1.1//EN" "http://www.w3.org/Graphics/SVG/1.1/DTD/svg11.dtd"><svg xmlns="http://www.w3.org/2000/svg" width="648" height="637" viewBox="0 0 648 637"><path fill="#FFF" stroke="#1D1D1B" stroke-width="2.108" stroke-miterlimit="10" d="M169.762 441.506s-57.964 16.862-100.12 42.156l-52.695 31.617s3.162 49.533 7.377 96.959c4.216 47.425 11.593 66.396 28.455 75.881s29.509 24.24 29.509 24.24h512.194s4.216 1.054 24.24-17.916 36.886-48.479 33.725-93.797 3.162-61.126-12.647-81.15-37.94-50.587-60.072-61.126-79.042-36.886-100.12-36.886c-21.078 0-52.695-8.431-52.695-8.431l3.792-20.085-4.216-102.584h-11.945l-33.726 43.563-85.019 35.132-33.726-25.295-37.24-40.753-12.647 2.811-11.945 56.211-30.479 79.453z"/><path fill="#1D1D1B" d="M188.999 444.961s-29.042 8.432-41.69-16.395c0 0-22.016.468-27.168-6.089 0 0 11.242 6.089 21.079.937 0 0-4.216-3.279-6.089-8.432 0 0-9.368 1.874-10.774-8.9 0 0-1.874-3.279-5.153-6.089-3.279-2.811-12.647-12.179-12.647-29.511 0 0-7.026-16.863-.468-27.168s19.205-11.711 23.89-14.053c0 0-18.737-2.811-18.268-19.205 0 0 9.837 23.421 24.826 13.584 14.99-9.837 13.116-16.863 7.026-36.069-6.089-19.205-2.342-28.574-2.342-28.574s-6.558-13.116 4.684-29.511 19.205-21.079 45.905-30.916c0 0 1.405-6.089 7.026-31.853s8.9-31.853 8.9-31.853-5.153-6.558 4.216-21.547c9.368-14.99 12.179-24.826 16.863-30.916 4.684-6.089 14.053-12.179 20.611-15.458s8.9-5.621 20.142-10.305 18.737-5.621 18.737-5.621 6.09-5.621 17.332-8.432 22.953-3.747 31.384 1.874 25.763 8.432 30.916 14.521 6.558 8.432 15.926 17.332 24.826 16.863 31.853 28.105c7.026 11.242 9.837 22.953 11.711 36.537s2.811 19.674 13.116 27.637c10.305 7.963 22.484 15.458 22.484 26.7 0 11.242 2.811 14.053 7.495 24.358s14.521 20.142 22.016 28.574c7.495 8.432.468 13.584-1.405 19.674s-2.342 1.874 3.279 13.584c5.621 11.711 5.153 7.963.468 12.179-4.684 4.216-16.863 19.674-15.458 22.484 1.405 2.811 7.026 14.521 14.053 14.521s3.747 5.621 13.116 6.558c9.368.937 8.9-5.153 12.179 1.874 3.279 7.026 3.279 4.216 7.495 14.99 4.216 10.774-10.305 23.421-23.89 23.421 0 0 13.584 25.763 7.495 32.79-6.089 7.026-15.926 8.432-20.142 10.774-4.216 2.342-4.684 7.495-3.279 9.368 1.405 1.874 6.09 2.342 7.963-.937s4.684 14.99-11.242 14.99c-15.926 0-27.637-6.558-32.321-8.9-4.684-2.342-12.179-1.874-13.116-3.747-.937-1.874-19.205 3.279-24.826-8.9 0 0-5.621 2.811-5.621 15.926s-.937 16.395-3.279 20.611c-2.342 4.216-8.432 1.405-9.368-8.9-.937-10.305-3.747-20.142 1.405-30.916 5.153-10.774 5.153-11.242 7.495-21.547 2.342-10.305 4.216-7.963 5.153-22.953.937-14.99 2.342-16.395 1.405-26.7s-1.405-14.99-1.405-14.99 1.405-9.368 1.874-17.8c.468-8.432 2.811-17.332 2.811-17.332s-12.647 18.268-17.8 31.853c-5.153 13.584-13.116 40.753-27.637 54.337-14.521 13.584-24.358 15.458-43.563 15.458-19.205 0-31.853-4.684-42.158-11.711s-14.99-1.405-21.547-11.242c-6.558-9.837-7.026-4.216-10.305-19.205-3.279-14.99 0-6.558-3.279-17.8s-18.268-26.7-18.268-26.7l-3.747-2.811s7.026 21.079 10.305 35.132c3.279 14.053 2.811 21.547 2.811 21.547s-8.432 6.089-13.116 14.053c-4.684 7.963-15.458 15.926-20.142 21.547-4.684 5.621-11.711 22.016-12.179 28.574-.474 6.557-3.753 13.584-3.753 13.584z"/><path fill="#FFF" stroke="#BA182C" stroke-width=".176" stroke-miterlimit="10" d="M261.136 266.023s-2.342 4.216 2.342 15.926c4.684 11.711 8.432 15.458 15.926 28.105s15.458 12.179 16.395 4.684c.937-7.495 2.811-11.242.937-14.053s-9.837-1.874-9.837-6.089c0-4.216 1.874-9.837 5.153-9.837s6.09.468 17.8-.468c11.711-.937 21.547-.937 26.232-.937 4.684 0 7.963 2.811 4.684 8.9-3.279 6.09-12.647 4.216-12.647 10.305s.937 10.774 1.405 14.99c.468 4.216 4.684 7.026 15.458-1.405 10.774-8.432 13.116-8.432 16.395-17.8s8.432-14.053 9.368-26.232c.937-12.179 0-18.268 0-20.142s.468-5.153-10.774-8.432-13.116-5.153-22.016-8.432c-8.9-3.279-6.558-7.495-14.99-5.621-8.432 1.874-7.026-.468-13.584 1.874s-8.432-.468-18.737 5.621c-10.305 6.089-18.737 7.495-22.484 14.521s-6.558 11.243-7.026 14.522z"/><path fill="#1D1D1B" d="M273.881 255.13s11.222-9.789 19.188-12.907c7.966-3.119 11.479-3.465 19.274-3.205 7.795.26 14.991.52 18.503.52s6.682 1.386 10.365 2.859 10.194 4.764 11.564 5.891c1.371 1.126 2.827 3.898 3.169 6.324.343 2.426-.428 5.457-.428 5.457s-4.968 4.158-9.508 5.804c-4.54 1.646-28.782 3.292-28.782 3.292l-28.44-.52s-10.365-.606-12.164-2.252c-1.799-1.646-2.655-5.977-2.998-7.623s-.856-2.427.257-3.64z"/><path fill="#1D1D1B" d="M289.827 267.897s43.915 3.864 55.859-3.162c11.945-7.026 2.459-4.567 2.459-4.567l-14.053-13.701-41.807 1.054-7.378 9.486 4.92 10.89z"/><path fill="#FFF" d="M224.599 286.166s4.216 15.458 10.774 23.89c6.558 8.432 6.558 11.711 14.521 11.242 7.963-.468 11.711-.468 11.711-7.026s-7.026-15.458-6.558-25.295c.468-9.837-2.811-8.9-3.279-24.358-.468-15.458.468-16.395 7.495-23.89 7.026-7.495 6.09-8.9 18.737-15.926 12.647-7.026 15.458-10.774 20.611-10.774s2.811 4.684 14.053 2.342 13.584-6.089 21.079-1.874 13.116 10.774 18.268 11.711c5.153.937 18.737 4.216 22.953 9.368 4.216 5.153 6.089 16.863 6.089 22.016v19.674c0 6.558 8.9-19.674 8.9-22.016 0-2.342-3.747 12.647-7.026 29.511-3.279 16.863-.468 15.926 0 20.611.468 4.684 7.026 10.774 12.179 4.216s8.432-9.837 13.116-19.205c4.684-9.368 6.09-18.737 7.495-36.068 1.405-17.332 4.216-18.268 0-41.221-4.216-22.953-.468-20.142-9.837-39.347s-14.053-29.511-14.053-30.916c0-1.405 10.774 18.737 10.774 17.332s.937-5.621-.468-14.053-9.837-19.674-21.547-32.79c-11.711-13.116-27.168-26.7-35.132-32.321-7.963-5.621-20.611-11.711-33.258-10.305s-33.258 5.621-51.995 20.142-22.484 14.99-27.168 23.421c-4.684 8.432-8.9 12.179-8.9 12.179s-2.811-3.279-6.089 7.495-11.711 17.332-11.711 24.358v13.116c0 7.026 3.279 6.089 5.153-1.874 1.874-7.963 3.279-5.153 3.279-3.279s3.279.937 3.747-.937c.468-1.874 1.405-2.811 0 9.837-1.405 12.647-3.747 20.611-3.747 21.547s-1.874-7.963-1.874-12.647-1.874 2.811-1.874 9.837-2.811 14.053-2.811 23.89.468 13.584.468 15.926c0 2.342 2.811 1.874 3.279-8.9.468-10.774 2.342-5.621 2.811 5.153.468 10.774 1.405 10.305 2.342 18.268.937 7.963.937-3.279 1.405-15.926.468-12.647 2.342-18.268 3.279-24.358.937-6.089 3.279-3.747 2.342 8.432s-.468 15.458-.468 36.537.467 26.228.935 33.255z"/><path fill="#FFF" d="M276.477 264.384s-2.108-4.918-2.108-7.729 16.863-15.107 27.051-16.161c10.188-1.054 17.917-.351 27.754-.351s20.376 7.378 23.538 9.486c3.162 2.108 2.108 10.188 2.108 10.188s-6.675 5.621-9.134 4.918c-2.459-.703-11.593-14.755-11.593-14.755s-20.025-3.162-37.591 1.054l-6.675 16.863s-10.188.703-13.35-3.513z"/><path fill="#1D1D1B" d="M273.315 207.471s-7.026 9.486-10.891 15.809c-3.865 6.324-7.026 12.296-11.242 18.62s-4.216 9.837-4.216 9.837 6.324-9.837 9.134-15.107c2.811-5.27 9.486-16.512 11.593-18.971s7.379-9.134 5.622-10.188zM238.535 252.439s6.675 19.674 10.188 28.808c3.513 9.134 4.216 8.783 4.216 10.539s-3.513-1.054-8.432-14.755c-4.918-13.701-5.621-20.727-5.972-24.592zM226.941 187.797s2.459-23.538 3.513-25.997c1.054-2.46-1.405 33.726-3.513 25.997zM233.265 150.557s7.378-8.432 14.053-15.458c6.675-7.026 8.432-9.837 15.458-5.27s5.27 3.864 8.432 7.729c3.162 3.864 2.811 4.216-2.459 2.811-5.27-1.405-6.324-4.216-18.971 4.567s-21.783 14.404-16.513 5.621zM338.309 124.56s12.647-9.486 21.079-7.378c8.432 2.108 16.863 9.837 19.674 11.242 2.811 1.405 6.675 12.296 10.539 27.051 3.865 14.755.703 7.729 7.026 27.051s16.161 46.725 16.161 53.049-2.108 1.757-4.216-6.324c-2.108-8.08-13.35-39.347-16.512-50.941-3.162-11.593-10.539-34.429-11.593-36.537-1.054-2.108-9.837-9.837-20.728-11.945s-26.349.002-21.43-5.268zM281.747 200.913s-2.342 11.711 7.729 7.495c0 0-1.171 6.558-6.324 4.918-5.153-1.64-5.621-9.369-1.405-12.413zM291.349 205.831s1.639-3.747 7.261-3.045 7.026 1.405 8.666 5.153c1.639 3.747 6.324 3.513 6.324 3.513s-4.918 1.171-7.261-1.171c-2.342-2.342-2.108-3.279-5.387-2.576-3.279.702-9.134.937-9.603-1.874zM317.347 208.642s1.405-4.216 7.729-6.089 7.495-.468 9.837 2.342c2.342 2.811 11.242.468 6.558-7.026 0 0 5.621 5.153 0 9.134-5.621 3.982-6.089-1.171-9.603-1.405-3.513-.234-6.089.234-9.134 1.639s-5.622 3.044-5.387 1.405zM300.249 191.778s-2.576-3.747-.703-6.792c1.874-3.045 3.045-9.368 3.045-9.368s-3.982 5.153-5.621 9.837c-1.639 4.684-3.513 8.666 3.279 6.323zM275.423 190.607s16.863-7.729 17.097-13.818c.234-6.089-1.874-10.071-1.874-10.071s-4.45-.468-7.261-1.171-5.387-1.874-5.387-1.874-1.874-.468 2.108 2.342c3.982 2.811 4.45 3.045 6.792 3.513 2.342.468 3.045 1.639-.468 1.639s-5.621-.234-5.621-.234-5.855-11.242-15.692-11.242-15.458 10.071-15.458 10.071 2.342 2.108 3.747 2.108h1.405l-8.432-.234s3.513-8.9 10.774-12.647c0 0-9.134 5.153-11.242 7.261 0 0 7.495-11.711 18.034-11.711 10.539 0 18.503 7.729 20.142 9.134 1.639 1.405 4.45 1.874 4.45 1.874s-.468-3.982-3.747-6.324-6.324-5.621-1.405-3.513 8.197 9.368 8.197 9.368 4.216 5.855 4.216.234-7.261-11.008-10.774-13.35c-3.513-2.342-7.261-4.918-2.811-3.982s13.818 4.216 16.161 10.071c2.342 5.855.468 7.026-1.171 12.647-1.638 5.623-3.043 14.757-21.78 19.909z"/><path fill="#1D1D1B" d="M256.1 171.988s.586-8.549 8.549-8.549c7.963 0 8.314 8.08 8.314 8.08h-.937s-.351-7.261-7.495-7.261c-7.143 0-7.261 7.612-7.261 7.612l-1.17.118z"/><path fill="#1D1D1B" d="M260.668 171.519s-.117-3.513 3.982-3.513 4.333 3.63 4.333 3.63-7.379.469-8.315-.117z"/><circle fill="#FFF" cx="265.118" cy="169.763" r="1.874"/><path fill="#1D1D1B" d="M326.012 162.034s20.142-18.971 25.763-21.782-10.305 8.9-13.584 12.413-7.026 4.684-7.026 7.026c0 2.342 2.342 1.639 2.342 1.639s11.242-12.413 19.674-12.413c8.432 0 14.521 5.855 16.629 8.666 0 0-4.918-4.918-13.35-4.918 0 0 11.008 5.387 14.287 11.008v1.874h-1.171s-8.197-10.071-16.863-10.071-10.539 4.918-13.116 7.963c-2.576 3.045-4.684 3.279-4.684 3.279s-.234-1.171 1.405-2.108 5.855-6.558 5.855-6.558-3.982 1.874-5.387 3.045c-1.405 1.171-4.45 5.621-4.918 6.089-.468.468.468-2.108-.468-3.279s-2.108-.468-3.513.937c-1.406 1.405-1.406-.234-1.875-2.81z"/><path fill="#1D1D1B" d="M320.157 160.863s3.279 10.305 3.279 12.179-1.171 5.855-.234 11.476 6.324 10.774 6.324 10.774.234 2.108-1.874-3.982c-2.108-6.089-2.108-8.432-2.108-9.603s2.576-1.639 8.9 1.171 11.008 6.089 20.142 5.855c9.134-.234 20.845-9.603 20.845-9.603s-15.926 9.134-30.447 3.045c-14.521-6.089-17.332-7.495-17.566-11.242-.234-3.747-2.108-7.729-1.405-8.9.703-1.171 7.261-6.324 7.261-6.324s1.874-4.216 3.045-6.792c1.171-2.576.703-.937-5.153 1.874s-11.243 6.09-11.009 10.072z"/><path fill="#1D1D1B" d="M345.92 168.006s-.703-8.432 7.143-9.017 9.837 7.261 9.837 7.261h-1.23s-1.932-6.734-8.168-6.47c-6.236.263-6.675 8.168-6.675 8.168l-.907.058z"/><path fill="#1D1D1B" d="M349.463 167.86s-.878-4.391 3.864-4.391 4.567 3.074 4.567 3.074-.878 1.317-8.431 1.317z"/><circle fill="#FFF" cx="353.591" cy="165.664" r="1.757"/><path fill="#1D1D1B" d="M225.067 310.523s15.458 67.921 17.332 82.442-.468 25.295 2.342 42.626c2.811 17.332 9.368 38.879 16.395 52.463 7.026 13.584 22.484 35.132 33.258 49.653 10.774 14.521 38.879 51.058 43.095 67.921 0 0 34.195-90.405 51.058-117.106 16.863-26.7 18.737-38.879 18.737-41.221s8.432-29.511 8.432-29.511l-7.495-3.747-4.684 35.132s-13.116 30.916-26.232 56.211c-13.116 25.295-40.284 96.027-40.284 96.027s-31.853-56.679-56.211-88.063c-24.358-31.384-31.853-69.795-32.79-88.532-.937-18.736-12.179-85.252-22.953-114.295z"/><path fill="#1D1D1B" d="M189.936 440.276l-3.747 34.663s9.837 11.242 24.826 11.711c14.99.468 39.816.937 39.816.937l5.153 10.305s-1.874 9.368-4.216 19.205c-2.342 9.837.468 15.458 10.774 19.674 10.305 4.216 59.49 30.916 70.263 69.326 0 0-49.184-38.411-61.832-44.032-12.647-5.621-13.584-17.8-15.458-23.89-1.874-6.089-8.9-13.584-6.558-21.547 2.342-7.963 2.342-11.242 2.342-11.242s-25.763 12.647-44.032 8.432c-18.268-4.216-16.395-22.484-14.99-26.232 1.405-3.747-8.432-10.305-8.432-10.305s.938-32.789 6.091-37.005zM465.836 439.34l25.295 54.337s-12.179 18.268-63.237 13.116c0 0 2.811 7.963 9.368 17.332 6.558 9.368 4.684 11.242 4.684 11.242s-12.179 15.458-31.384 25.295c-19.205 9.837-56.211 19.674-75.884 62.3 0 0-1.874-12.179 34.195-32.321s68.39-29.979 68.39-29.979l-2.811-12.647 11.242-11.711-10.774-21.079s50.59-4.216 55.742-5.621 0-8.432 0-8.432l3.279-4.216c.001 0-23.889-55.274-28.105-57.616z"/><path fill="#FFF" d="M-44.275 473.066H85.01v275.432H-44.275zM607.768 473.066h129.285v275.432H607.768z"/><path fill="#FFF" d="M34.42 652.94h664.691v74.479H34.42z"/></svg>