<?xml version="1.0" standalone="no"?><svg version="1.0" xmlns="http://www.w3.org/2000/svg" width="1941.31" height="2000" viewBox="0 0 4730 4873"><path d="M2798.5 71.2c-19.4 1.7-39 5.3-57 10.5-26.9 7.7-66.7 27.1-88.2 43-2.8 2.1-8.7 6.4-13.1 9.5-4.3 3.1-13.7 10.7-20.8 16.8-8.3 7.1-16 12.7-21.4 15.6-15.8 8.4-30.1 18.8-41.5 30.1-7.2 7.2-11 10.3-11.2 9.3-.4-1.6 3.3-12.8 12.7-39 5.6-15.5 6.8-20 5.3-20-2 0-12.8 4.1-20.2 7.6-11.7 5.6-24.6 14.9-35.2 25.4-12.6 12.4-19.4 22.8-27.3 41.7-1.8 4.3-4 7.9-4.8 8.1-.9.2-6.7-6.1-14.9-16.3-7.3-9.2-13.5-16.2-13.7-15.6-.2.6 1.5 7 3.9 14.3 5.3 16.8 9.4 30.1 11 35.6 1.6 5.7.2 7.2-3.7 3.9-10.2-8.6-31.8-19.7-47.9-24.7-5.5-1.7-11.4-3.5-13.1-4-1.7-.6-3.9-1-4.9-1-1 0-2.7-.7-3.7-1.6-2.7-2.5-30.4-3.2-81.8-2.3-52.1 1-68 2.2-97.5 7-26.8 4.4-54 11.6-76.5 20.2-8.8 3.4-14.7 5.4-19.5 6.6-31.7 7.8-71.7 26.1-100.5 45.9-19.7 13.6-42.1 33.7-62 55.7-2.6 2.8-7.3 6.5-11 8.4-15.9 8.4-45.8 26.8-59.1 36.3-2.5 1.8-7.4 5.3-11 7.7-23.6 16.3-56.7 43.1-75.9 61.5-5.2 5-12.6 12.1-16.5 15.7-9.4 8.8-34.9 35.1-40.6 41.9-2.6 3-7.5 8.9-11 13-28.5 33.5-27.5 32.3-56.8 72.5-18.2 25-41 50.8-67.1 75.9-5.8 5.6-12.3 11.9-14.5 14.1-2.3 2.2-7.4 6.9-11.5 10.5-4.1 3.6-10.8 9.7-14.9 13.6-17.5 16.3-21.9 20.4-28.2 26-32.1 28.6-62.3 58.4-81.9 80.9-5.8 6.6-11.1 12.6-11.8 13.3-3.2 3.4-14.8 19.1-23.9 32.2-16.1 23.3-24.9 38.5-43.4 75-3.5 6.9-7.3 14.5-8.3 17-2 4.7-4.7 11.1-7.2 16.9-.8 1.8-3.3 8.4-5.5 14.5s-4.4 12-4.9 13.1c-.5 1.1-2.3 6.3-4 11.5-1.7 5.2-3.5 10.3-4 11.2-.6 1-1 2.5-1 3.3 0 .8-.4 2.3-.9 3.3-.5.9-1.4 3.5-2 5.7-1.4 4.7-4.1 11.2-8.7 21-4.2 9.1-6.3 13.9-11.4 26-2.3 5.5-5.7 13.4-7.5 17.5-4.9 11-10.6 27.2-21.4 60.5-1.6 4.8-7.7 27.7-9.3 34.5-.5 2.5-1.4 6.3-2 8.5-1.4 6.1-4.4 21.4-5.7 30-2.8 17.4-4.4 31.4-5.6 48.5-.3 4.7-1 10.3-1.5 12.5-.5 2.2-1.6 6.9-2.4 10.5-.8 3.6-1.7 7.8-2 9.5-.3 1.6-1.6 9.1-2.9 16.5-1.4 7.4-2.7 15.5-3 18-.3 2.5-.8 6.1-1.1 8-.7 4.4-1.4 10.6-2.6 24-.5 5.8-1.1 13-1.4 16-.9 9.3-1.6 17.9-2.6 33-.5 8-1.2 15.4-1.4 16.5-.3 1.1-1.3 10.8-2.1 21.5-3.6 44.1-7.4 71.5-10.9 77.5-2.4 4-3.5 6-9.6 17-1.8 3.3-5.1 8.8-7.2 12.3-2.1 3.4-3.8 6.4-3.8 6.7 0 1.8-28.4 44.7-38.9 58.8-4.5 5.9-8.1 11-8.1 11.3 0 1.7-26.5 34-44.9 54.9-17.6 19.9-23.1 25.4-29.1 29.2-7.7 4.9-26.5 18.5-32.6 23.6-15.7 13-22.9 19.5-31.9 28.8-12.2 12.6-25.3 27.3-33.5 37.7-3.4 4.2-7 8.6-7.9 9.7-5.8 6.9-20.6 28.5-35.5 52-3.2 4.9-9.4 13.8-13.9 19.7-4.5 5.8-11.5 15.5-15.6 21.5-4.1 5.9-8.2 11.7-9.2 12.8-6.2 7.1-29.6 50.5-35.9 66.4-1.1 3-2.9 7.3-3.9 9.5-1.1 2.3-3.4 8.5-5.2 14l-3.3 9.8-8.5 5.6c-4.7 3.1-9.9 6.3-11.6 7.2-4.3 2.4-16.3 9.8-21.2 13.1-2.3 1.6-4.4 2.9-4.7 2.9-.2 0-3.7 2.2-7.8 4.8-4 2.7-13.5 8.8-21.1 13.8-24.8 16.1-42.8 29-77.8 56-23.8 18.3-62.3 55.7-83.5 80.9-14.4 17.1-32.4 43.7-44.6 66-6.2 11.2-16.8 33.4-16.8 35 0 .3-.8 2.4-1.9 4.8-3.3 7.4-8.1 20.2-8.1 21.5 0 .7-.4 2-.9 3-.5.9-1.5 3.7-2.1 6.2-.7 2.5-1.6 5.4-2 6.5-.5 1.1-1.1 3.3-1.5 5-.3 1.6-1 4.6-1.4 6.5-1 3.8-2.7 11.7-4.2 19-.6 2.5-1.4 7.6-1.9 11.5-.5 3.8-1.3 9-1.7 11.5-.4 2.5-.7 16.6-.8 31.5 0 25.4.7 34.3 3.5 48 .5 2.2 1.4 6.7 2 10 .7 3.3 1.6 7.1 2 8.5.4 1.4 1.8 5.9 3 10 2.8 9.1 4.3 13 5.1 13 .3 0 1.1-3.5 1.7-7.8 2.6-18.1 11.2-39.9 21.4-54.2 13.4-18.6 15.4-18.7 9.4-.6-1.9 5.7-4.4 14.3-5.6 19.2-1.1 4.9-2.5 10.5-3 12.4-2.5 9.4-4.5 29.2-4.5 44 0 8.9 1.4 29.9 2 31 .2.3.6 2.6 1 5 .9 6.1 5.7 23.8 9 33 7.8 21.8 18.3 43.6 35 72.5 17.8 30.9 16.5 27.6 16.5 41.2 0 17.2-2.8 46.8-6 63.3-.6 3-1.3 6.8-1.6 8.5-1.6 9.4-9.4 35.6-14.8 49.7-8.1 21.3-25.1 50.7-39.5 68.3-18.4 22.6-43.9 45.1-66.5 58.9-6.9 4.2-25.7 13.5-34.3 16.9-28.5 11.3-63.7 16-94 12.3-36.5-4.4-67.3-16.4-94.8-37-11.5-8.6-30-27.6-36.8-37.8-3.3-4.9-6.2-8.8-6.5-8.8-.3 0-.1.5.6 1.2s1.2 1.8 1.2 2.5c0 2.5 6.9 15.8 12.7 24.5 7.4 11.1 23.5 27.7 34 35.1 16.5 11.6 49.7 26.5 68.3 30.7 1.9.5 6.1 1.5 9.3 2.4 3.2.9 6.8 1.6 8.1 1.6 2.6 0 5.1 2.4 4.1 4-.3.5-1.8 1-3.2 1-1.4 0-4.2.4-6.2.9s-5.8 1.4-8.6 2c-2.7.5-12.6 2.7-21.8 4.7l-16.8 3.6-4.6-1.7c-4.4-1.7-17.9-8.5-26.8-13.5-16.4-9.2-46.6-32-60.2-45.4-4.6-4.4-8.3-7.7-8.3-7.2 0 3.4 27.7 30.9 43.5 43.2 9.5 7.4 29.5 20.5 38 24.9 1.1.6 2.1 1.7 2.3 2.6.2 1.2-2.8 2.5-12.5 5.4-32.6 9.9-61 22.7-83.8 37.8-24.2 16-45.7 38.7-55.7 58.7-5 10-10.1 23.8-12.2 33-1 4.1-4.2 12.4-7.1 18.5-11 22.7-19.6 49.6-27 84.7-2.9 14-6.6 44.8-7.9 66.8-.5 7.8.6 7.2 2.4-1.5 2.3-11 4-16 13-38.5 5.3-13.2 11-23.7 20.5-38 11.5-17.2 27.3-35.5 40-46 12.4-10.4 24.1-18.8 34.4-25 9.5-5.5 9.4-3.9-.1 8.9-4 5.3-7.5 9.8-7.8 10.1-.3.3-1.7 2.1-3 4s-2.7 3.7-3 4c-.7.5-5.6 7.5-15.5 22-3.3 4.9-8.3 12.1-11.1 16.2-22.5 32.5-37 66-41.4 95.4-2.9 19.3-1.5 53.1 3.1 73.6.7 3.2.8 6.3 0 10-.5 2.9-1.3 8-1.6 11.3-.4 3.2-.8 6.2-1 6.5-.1.3-.6 4.3-1 9-.3 4.6-.8 8.7-1 9-.1.3-.6 7.5-.9 16-.3 8.5-.9 22-1.3 30-1.2 21.5-.8 66.9.6 79.5 5.1 45.1 16.4 87.9 32.4 121.8 2.7 5.9 5.2 10.5 5.4 10.3.2-.2-1.4-5.4-3.6-11.7-9.6-27.4-18.8-64.5-22.1-89.4-.7-5-1.5-11-1.9-13.5-1-6.2-.8-11.9.4-12.1.6-.1 3.1 6.3 5.7 14.2 6.4 19.4 10 28.2 17.4 42.5 7.3 14.3 9.5 17.7 19.4 30.8 4.1 5.4 8.5 11.2 9.8 13 6.6 9.2 29.5 28.6 43.7 37.2 5.6 3.3 17.9 9.4 19.2 9.4.4 0 2.1 2.1 3.7 4.8 11.8 19.1 14.8 23.6 20.4 30.7 7.6 9.6 21.4 23.8 30 30.8 3.4 2.8 6.2 5.3 6.2 5.6 0 .3-1.6 2.9-3.6 5.6-6.1 8.6-13.8 26-17.4 39.5-.6 2.5-1.6 5.9-2.1 7.6-.5 1.7-.9 4.4-.9 6.2 0 1.7-.4 3.3-.9 3.6-1.5 1-2.5 15.7-2.5 37.1-.1 19.4.6 27.6 3.5 42.5.5 3 1.3 7.2 1.6 9.3.3 2 .9 4 1.4 4.3.5.3.9 1.6.9 3 0 1.3.4 3.2.9 4.2.5.9 1.5 3.7 2.2 6.2.7 2.5 1.5 4.9 1.9 5.5.3.5 1.2 2.8 1.9 5 4.3 12.7 14.1 31 25 47 3 4.4 5.7 8.2 6 8.5.4.3 2 2.3 3.6 4.5 9 12.1 35.2 35.8 52.2 47.3 23.8 16.1 58.7 31.1 93.7 40.1 11.7 3.1 42.4 9.5 50.1 10.5 2.2.3 6.5.8 9.5 1.2 6.1.8 9.7 2.2 8.4 3.4-1.6 1.5-17.1 4.7-31.4 6.6-20.8 2.7-38 2-66-2.7-17.4-2.9-28.2-5.8-46.9-12.4-4-1.4-7.5-2.4-7.8-2.2-.7.8 34.5 25.7 48.2 34.1 34.4 21 47 28.5 59.5 35.3 9.4 5.2 42.2 21.6 49 24.6 6.3 2.8 8 3.5 13.5 5.7 6.1 2.4 8.1 3.3 9.7 4.1 1 .5 2.6.9 3.6.9s2.2.4 2.7.8c.6.5 3 1.5 5.5 2.2 2.5.8 5 1.7 5.5 2 .6.4 2.1 1 3.5 1.3 1.4.3 5.7 1.5 9.5 2.7 14.8 4.6 38 9.7 52 11.6 3.3.4 6.2.9 6.5.9 3.7.9 22.6 1.9 37.9 1.9 24.2.2 34.6-.6 54.1-4 8-1.3 10.4-1.8 21.8-4.5 6.2-1.5 17.2-4.9 19.4-6 1-.5 2.5-.9 3.3-.9.8 0 2.5-.5 3.8-1.2 4.4-2.3 5.7-2.8 6.7-2.8 1.3 0 7-2.6 26.5-12 25.3-12.2 44.9-26.3 67.1-48.5 25.8-25.8 49.6-61.9 64.8-98.8 2-4.8 4.5-10.6 5.6-13 5.8-12.5 18.8-55.1 24.9-81.7 1.2-5.2 2.6-11.3 3.1-13.5.9-4.1 2.1-13.5 4-32.5 3.3-33 7.8-52.9 13.8-60.9 6.5-8.7 17.7-7.6 36.6 3.7 12.3 7.4 16.1 8.5 30.9 9 19.8.6 27.6-1.8 55.1-17.6 29.4-16.9 52.1-36.5 76.5-66.2 11.8-14.4 16.7-20.8 18.4-23.7.5-.7-2.9-4.1-9-8.9-27.1-21.5-63.3-57.4-57.9-57.4.2 0 3.6 1.8 7.7 4.1 22.4 12.3 42.5 19.5 63.9 23 11.1 1.9 34.8 3.1 42.6 2.2l7.9-.8-7.5-4.9c-12-7.8-22.8-16.7-33.7-27.8-12.2-12.4-15.2-15.9-20.3-23.5-4.4-6.5-4-8.5 1.2-6 27 12.7 68 15.8 102.3 7.7 47.8-11.3 90.8-41.9 119-84.9 28.1-42.7 42.9-90.1 47.6-152.6 1-14.3.7-53.8-.5-61.5-.2-1.4-.7-6.3-1.1-11-3.1-40.2-13.8-96.6-38.5-204-2.9-12.4-6.5-28.1-8.1-35-1.5-6.9-4.8-21.3-7.4-32-4.8-20.3-14.3-62-17.1-75-.9-4.1-2-9.3-2.5-11.5-.5-2.2-1.4-6.5-2-9.5-2.3-11.7-2.7-13.7-3.9-19-1.2-5.4-1.7-7.7-4-19.5-.7-3.3-1.6-8-2.1-10.5-1.4-6.3-2.5-12.4-3.9-20-.6-3.6-1.5-8.9-2-11.8-.6-2.8-1.4-7.6-1.9-10.5-2.6-14.3-13-48.3-20.1-65.2-.4-1.1-2.7-7-5-13-2.3-6.1-5.1-13-6.2-15.5-3.1-6.8-3.4-7.7-6.8-18-1.7-5.2-3.5-10.5-4.1-11.8-2.4-5.7-2.8-7-4-10.7-.7-2.2-1.7-4.4-2.1-4.9-.4-.6-.8-1.9-.8-3.1 0-1.2-.4-2.5-.8-3.1-.5-.5-1.5-2.9-2.2-5.4-.8-2.5-1.7-5-2-5.5-.4-.6-1.7-4.4-2.9-8.5-1.3-4.1-3.1-10-4.1-13-8.6-25.5-13.2-45.9-13.4-58.7 0-5.1-.4-9.3-.8-9.3-.3 0-2.4 1.5-4.6 3.3-12.9 10.8-34.5 14.2-52.7 8.2-11.6-3.8-24-10.9-34.9-20.1-8.8-7.4-22.9-26.2-30.5-40.9-4.6-8.8-4.6-8.7 5.9-9.9 11.1-1.2 32.3-7.1 48.5-13.4 18.7-7.4 42.2-20.9 55.2-31.8 2.8-2.4 5.6-4.4 6.2-4.4 1.4 0 1.4 4.2 0 7.7-.7 1.5-1.7 4.1-2.4 5.8-.7 1.6-1.6 4.1-2 5.5-2.1 7-8.1 16.6-14.7 23.5l-7.1 7.5h4c2.2 0 8.5-1.2 13.9-2.6 19.6-5.1 24-5.8 29.9-4.5 11.4 2.6 20 11.6 29.9 31.5 6.4 13 9.8 22.5 15.6 44.1 2.5 9 3.9 13.3 15.5 47 5.3 15.4 10.1 29.3 10.5 31 1.4 5.3 8 24.9 9 26.7.6 1 1 2.5 1 3.3 0 .8.4 2.3.9 3.3.5.9 3.2 8.9 6.1 17.7 2.9 8.8 6.3 18.3 7.6 21 1.2 2.8 3.2 7.5 4.4 10.5 1.2 3 4.4 10.2 7.1 15.8 2.7 5.7 4.9 10.5 4.9 10.6 0 1.6 12.9 22.2 19.5 31 10.9 14.7 23.1 25.6 16.5 14.8-1.1-1.8-6.7-14.6-12.4-28.5-16.8-41-22.2-57.2-29.5-88.2-10.1-43.5-12.8-70.4-10.8-107.8.6-11.1 3-35.3 4.2-42.7.2-1.4 1.1-7.7 2-14.2.9-6.4 3.6-23 6-37 2.4-13.9 4.1-25.5 3.8-25.8-1.6-1.7-19.3 25.6-26.9 41.6-3.5 7.3-6.9 13.6-7.6 14-.8.5-.9-3.4-.2-16.2 1.3-25.7 1.1-111.5-.4-138.4-1.8-32.1-3.7-60.8-6.2-95-4.6-63.1-6.5-97.7-7.6-144.5-.7-27.3-.8-27.9-2.3-23.5-3.6 10.2-9.2 17.1-18.5 23.2-5.3 3.4-10.6 5-10.6 3.1 0-.9 19.9-40.3 21.6-42.8.8-1.1 1.4-2.8 1.4-3.9 0-1.7-.7-1.4-4.2 2-10.7 10.2-39.1 28.5-41.7 27-1.5-1-2.1-17-1.1-33.1 1.5-24.4 4.2-42.9 10-69 .5-2.5 1.4-6.4 1.9-8.8.6-2.3 1.3-5.6 1.6-7.2.4-1.7 1-3.9 1.5-5 .4-1.1 1.3-4.5 2-7.5 1.4-6.3 2.1-8.9 4.8-18 1-3.6 2.5-8.5 3.2-11 .7-2.5 1.6-5.6 2-7 .4-1.4 1.3-4.5 2-7s1.9-6.5 2.7-9c1.6-5 10.9-41 11.6-45 .3-1.4 1.2-5.7 2.1-9.5 2.7-11.3 3.5-14.8 4.1-18.5.3-1.9 1-5.8 1.5-8.5 4.7-24.6 7.8-45.1 10-67.5.5-5.8 1.5-12.5 2.1-15 3.4-14.6 4.9-29.4 7.9-78 .5-8.5 1.2-18.4 1.4-22 .3-3.6.8-12.4 1.1-19.5.3-7.2.8-15.7 1-19 .2-3.3.7-11.9 1-19 .3-7.2.8-16.6 1-21 .3-4.4 1-17.5 1.5-29 1.7-35.2 4.5-85 5.5-98.5.3-4.1.7-11.1 1-15.4 1.5-22.3 2.6-36 3.5-42.7.5-4.1 1.6-15.1 2.5-24.4.8-9.4 1.7-18.1 2-19.5.2-1.4.7-5.4 1-9 3.3-35.2 14-103.9 22-141.5 9.9-47 29.2-114.9 39-137.5 1.3-3 4.9-12 8-20 6.7-17.1 8.8-22.1 16.5-39.5 3.7-8.4 21.6-43.8 26.6-52.7 10.2-18.2 33.7-54.3 44.3-68.3 13.5-17.9 30.4-38.2 41.6-50 1.7-1.7 4.7-5.1 6.8-7.6 2.1-2.4 19.7-20.5 39-40.3 50.4-51.3 62.2-63.8 76.1-80.1 14.6-17.3 16.4-19 22.7-22.4 12.8-6.7 21.4-11.4 22.4-12.1.6-.4 4.6-2.6 9-5s9.2-5.1 10.7-6.1c1.4-1.1 2.8-1.9 3.1-1.9.3 0 4.3-2.3 8.9-5.2 4.6-2.8 9.2-5.6 10.3-6.2 9.4-5.2 32.4-21.8 52.2-37.8 11.4-9.1 39.3-35.9 47.3-45.4 1.9-2.2 8.9-10.1 15.6-17.5 14.4-16 23.2-26.5 43.2-51.6 8.3-10.3 16.1-19.4 17.4-20.2 2.7-1.7 29.4-16.3 41.8-22.9 30.7-16.3 88.5-45.2 90.5-45.2.3 0 3.4-1.4 7-3 3.6-1.7 6.8-3 7-3 .2 0 3-1.2 6.2-2.6 3.2-1.4 7.3-3.2 9.1-4 1.7-.8 4.7-2 6.5-2.8 1.7-.8 5.7-2.4 8.7-3.6 3-1.2 6.9-2.8 8.5-3.5 4.4-1.9 22.8-8.8 32-12 4.4-1.5 8.9-3.1 10-3.5 5.1-2.1 23.9-8.5 41-13.9 10.7-3.4 41.5-11.7 56-15.1 15.6-3.7 16.8-3.9 27.5-6 5.8-1.1 12.8-2.5 15.5-3 5.7-1.1 12.6-2.3 23.8-4.1 4.2-.6 7.5-1.4 7.3-1.7-.3-.2-4.8-.8-10-1.3-5.3-.5-13.8-1.3-18.8-1.9-21.5-2.2-30.8-3.2-39.5-3.9-10-.8-11.6-1.4-8.5-3 2-1.1 5.5-1.7 15.7-2.6 3.3-.3 10.5-1 16-1.6 5.5-.5 14.5-1.4 20-1.9 5.5-.6 14.3-1.4 19.5-2 5.2-.5 14.5-1.4 20.5-2 6.1-.6 15.1-1.5 20-2 5-.5 12.2-1.2 16-1.6 3.9-.3 8.4-.7 10-1 1.7-.2 6.4-.7 10.5-1 10-.8 11.2-1.2 8-2.9-1.4-.8-5-2.1-8-3-3-.9-6.8-2.2-8.5-2.9-1.6-.8-3.7-1.6-4.5-1.8-3.4-1.1 7.1-.6 14.5.7 9 1.6 26.2 4.1 34.5 4.9 3 .4 7.3.8 9.5 1.1 2.2.2 6.7.7 10 .9 3.3.3 12 1 19.4 1.7 18 1.5 57.6.7 69.6-1.6 6.5-1.2 11.5-3 18-6.3 30.7-15.6 25.9-14.4 54-14.1 30.5.3 46.1 1.7 43.8 4-.5.5-7.4 2.7-15.4 4.8-15.2 4.2-37 11.4-40.4 13.5-1.1.7-4.7 2.3-8 3.6-8.4 3.3-36.7 17.8-38.5 19.7-1.3 1.4-1.2 1.5 1 1 20.7-4.7 63.6-10.1 91.5-11.6 13.8-.8 76-.5 77.3.3.4.2 5.4.7 11.2 1.1 5.8.3 11.4.8 12.6 1 1.1.3 4.5.7 7.5 1 3 .3 6.8.8 8.4 1 1.7.3 6.4.9 10.5 1.5 4.1.5 8.9 1.2 10.5 1.5 34 6.3 34.4 6.4 42.7 10.6 11.3 5.7 23 14.9 46.3 36.2 17.8 16.3 44 43.5 58.6 60.7 3.5 4.1 6.9 7.9 7.5 8.5 1.3 1.1 49.1 55.6 54.4 61.9 12.9 15.4 67.5 67.2 81 76.7 29.5 20.8 34 23.8 48.9 31.5 6.7 3.5 8.7 5.3 14.5 12.5 5.3 6.5 12.5 14.9 16.7 19.4 5 5.2 6.3 7.7 30.9 56 15.8 31 21.7 42.4 22.9 44 .8 1 3.1 5.3 13.6 25 17.2 32.3 41.1 70.7 56.7 91 8 10.4 25 31.9 25.8 32.5.3.3 4.8 5.4 9.9 11.5 5.1 6 15 17.1 22 24.5 26.6 28.3 40.9 45.7 55.9 68.3 6.3 9.4 8.2 12.5 15 24.2 10.5 18.2 25.9 56.8 32.7 82 3.2 11.6 5.6 21 6.6 26 1.3 5.8 2.7 12.4 4 18 .5 2.2 1.3 6.5 1.9 9.5.5 3 1.4 8.2 2 11.5.6 3.3 1.6 8.9 2.1 12.5.6 3.6 1.5 9.2 2 12.5 2.4 15.1 6.4 46.2 7.5 58.5.3 3.6.7 7 .9 7.7.5 1.5-.8 2.4-2.1 1.5-1.2-.9-7.8-11.3-13.2-20.7-2.1-3.9-8.6-14.6-14.3-23.8-5.7-9.2-11-17.9-11.7-19.3-2.5-4.7-2.4-1.6.1 6.3 7.9 24.4 15.2 54.5 19.7 80.5 3.1 17.9 4.5 27 6 38.5 2.3 18.8 3 24 3.4 28.8.3 2.7.7 7 1 9.5.3 2.5 1 9.7 1.6 16 .6 6.3 1.3 13.5 1.5 16 .3 2.5.7 8.1 1 12.5.4 4.4.8 9.6 1 11.5.5 3.4 2.5 28.4 2.6 32.5.1 1.1-.4 6.5-1 12s-1.5 14.3-2.1 19.5c-.5 5.2-1.2 11.1-1.4 13-.2 1.9-.9 10-1.6 18-.6 8-1.5 18.3-1.9 23-1.1 11.4-1 54.1.1 66 1.5 16.5 2.9 29.3 3.8 35 .5 3 1.4 8.9 2 13 5.1 33.6 17.8 77.1 34.2 116.5 5.4 12.8 18.8 40.8 23.6 49 1.6 2.7 5.3 9 8.2 14 8.3 14.1 8 13.2 7 20.5-.9 7-.6 42.6.5 55 .3 4.1 1.3 14 2 22l2 20c.3 3 1 7.3 1.5 9.5s1.4 8.9 2 15c.6 6 1.5 14.1 2 18 2.1 16 2.5 28.2 2.5 71.5 0 42.3-.9 84.8-2 96.5-.3 2.7-1 12.4-1.5 21.5-1.4 22.2-1.9 28.4-3 35.5-.5 3.3-1.4 10.7-2 16.5-3.5 33.7-8.2 66.9-14.6 102-2.8 15.3-11.7 60.2-13.9 70-15.1 66.5-27.8 119.1-38.9 161-1.4 5.2-2.7 10.6-3 12-.2 1.4-2.3 10.1-4.6 19.5-2.3 9.3-4.5 18.8-4.9 21-6.2 29.7-7.8 39.8-9 56.5-1.2 15.1-.6 25.4 2.6 50.2.6 4.6 0 4.7-6.7 1.3-5.2-2.6-13.9-4.4-14.1-2.9 0 .5-.3 2.2-.5 3.9-.3 1.6-2.1 13.8-4 27s-3.9 24.4-4.4 24.9c-.7.7-2.1-.1-4.2-2-4-3.7-7.3-5.1-13.5-6-5.1-.6-6.1.2-7.6 6.1-1 3.8-6.4 18.5-7 19.2-.4.3-.7 1.6-.7 2.8 0 1.1-.4 2.5-.8 3.1-.4.5-1.4 2.7-2.1 4.9-.7 2.2-1.6 4.9-2.1 6-.5 1.1-2.4 6.7-4.4 12.5-6.9 20.8-13.7 40.5-14.6 42.5-.5 1.1-1.4 3.8-2.1 6-.7 2.2-1.7 4.4-2.1 4.9-.4.6-.8 2-.8 3.1 0 1.2-.3 2.5-.7 2.8-.6.7-3.5 8.8-9.3 25.7-4.6 13.8-8.1 23.3-9.6 26.7-.8 1.8-2.3 5.8-3.4 9-1 3.2-3.7 11-6 17.3-4.2 11.8-12.1 34.6-19.2 55.2-5.3 15.1-6.8 15.1-6.8-.3 0-6-.4-10.9-.8-10.9-.5 0-3 4.2-5.7 9.3-2.6 5-6 11.4-7.5 14.2-1.5 2.7-4.6 8.4-6.8 12.5-5 9.4-8.7 15.8-13.7 23.8-2.2 3.5-10.1 16.1-17.5 28-20.6 33-28.9 45.2-52.2 75.8-3.7 4.9-9.6 12.6-13 17.2-3.5 4.6-7.1 9.4-8.1 10.8-4.3 5.6.9 1.5 17.7-14.1 39.6-36.7 59.6-56.6 89-88.5 10-10.8 27.7-31.9 36.2-43 2.7-3.5 5.3-6.9 5.7-7.5 8.3-10.8 26.1-37.5 34-50.7 8.1-13.8 25.7-48.9 25.7-51.3 0-.3.9-2.7 2.1-5.3 1.2-2.6 2.5-5.8 3.1-7.2 3.3-8.2 4.8-9.2 6.1-3.8.4 1.8 1.3 5.1 1.8 7.3 2.6 10.1 4.6 23.1 5.7 37l.7 9 2.8-17.2c1.5-9.4 2.9-18 3.1-19 .2-1 1.1-5.9 2-10.8 2.1-11.6 4-20.1 9.1-42 2.4-10.2 4.7-12.4 6-5.8.9 4.9 5.2 17.6 7.7 23.1 3.1 6.6 3.3 5.9-5.8 26.8-4.4 10.2-14.5 37.2-22.1 59.4-2.1 6.2-3.2 8.2-4.4 7.5-.5-.4-.9 1.5-.9 4.4 0 2.8-.4 6-.9 7.3-1 2.7-3.9 11.7-5.3 16.8-.5 1.9-1.3 4.8-1.8 6.5-2.9 10-12.7 48.6-15.8 62.5-2.8 12.3-5.9 27.4-9.1 44.2-.6 3.2-1.6 8.4-2.2 11.5-1.3 6.9-2.3 12.6-3.8 21-.6 3.5-1.6 9.1-2.2 12.5-.6 3.5-1.5 8.5-1.9 11.3-.5 2.7-1.4 8.1-2 12-3.1 18.8-3 18.2-6.1 38.7-.6 4-1.3 9.1-1.5 11.3-.3 2.2-.9 5-1.5 6.2-1.7 4.3-2.7 6.8-3.9 10.3-.7 1.9-1.6 4.4-2 5.5-.4 1.1-1.3 3.6-2 5.5s-2.1 5.4-3.1 7.7c-1.1 2.4-1.9 4.9-1.9 5.7 0 .8-.4 1.8-1 2.1-.5.3-1 1.7-1 3s-.4 2.7-1 3c-.6.3-1 1.5-1 2.6 0 1-.4 2.7-1 3.7-1.6 2.8-12.6 37.5-19.2 60.7-3.3 11.6-3.6 12.6-6.3 24-1.5 6-3.1 11.9-3.5 13-.4 1.1-1.3 4.7-2 8s-1.6 7.3-2 9c-.7 2.7-1.2 5.3-3.5 17-.3 1.6-1 5-1.5 7.5-4 19.1-7.8 45-10.7 74-2.9 28.9-2.2 95.6 1.3 118.5.2 1.6.9 6.1 1.4 10 1.5 11.2 3.6 23.7 5.5 33 1.8 9 6.4 28.1 7.5 31.5.4 1.4 1.3 4.5 2 7 2.5 9 9.3 28.8 14.2 41.4 5.7 14.5 5.7 14.7 1.8 36.6-3.1 17-5.6 33.5-9 58.5-.6 4.4-1.5 10.7-2 14-2.5 17.9-4.2 33.7-6.2 57-1.4 16.6-1.7 65.2-.5 78.5 1 11.6 3.9 31.7 5.7 39.5 2.4 10.9 5.2 22.2 5.9 24 .5 1.1 1.4 3.8 2.1 6 3.7 12.1 11.5 30.1 17.6 40.4 4.8 8.3 6.2 10.1 19.1 24.7 6.5 7.4 21.8 18 31.3 21.8 7 2.8 7.4 3.4 4.4 6.9-5.9 7-14 27.3-20.1 50.6-2.3 8.6-2.6 11.5-2.6 28.6 0 10.8.4 21.2 1.1 24 .6 2.7 1.6 7.7 2.3 11 5.4 27 14.6 50.9 31.2 80.5 12.8 23 44.3 62.4 64.3 80.4 38.3 34.7 82 59.3 122.9 69.4 23.2 5.7 36.4 6.1 71.5 1.8 13.3-1.6 29.1-2.9 36.5-3l13-.1 5.3 8c4.2 6.5 16.9 31 26.6 51.5 5.3 11.2 18.8 35.9 22.9 42 20.3 29.9 37.7 43.5 66.7 51.9 30.3 8.7 55.1 9 110.1 1.3 4.7-.7 9.1-.6 15.5.4 17.2 2.6 31.9 1.4 49.4-4.2 18.5-5.8 36.5-17.9 49.8-33.6 5.8-6.7 6.9-7.6 14-10.3 16.1-6 34.6-16.3 49.2-27.3 10.4-7.9 21.2-17.3 20.6-17.9-.2-.2-5.1 2.5-10.8 6-24.2 15-52.1 28.8-54 26.9-.5-.5 6.3-7.5 15.5-16.1 14.1-13 26.5-25.6 41.8-42.6 2-2.2 6.8-7.6 10.8-11.9 8.1-9 9.5-12.2 2.4-5.6-10.3 9.7-24.3 22.9-32.3 30.6-11 10.5-24.9 22.4-26.1 22.4-.5 0-.9-.4-.9-1 0-2.4 3.4-10.9 5.8-14.5 3.1-4.7 21.7-30 47.6-64.8 6.5-8.7 11.6-16.1 11.3-16.4-.3-.3-1.8.4-3.4 1.5-1.5 1-5.9 3.5-9.8 5.5-25.1 12.7-39.5 16.2-66.5 16-16.2 0-28-1.6-33.2-4.4-3.6-1.9-.3-2.6 16.2-3.4 17.4-.7 36.2-3.5 50-7.4 11-3.1 30-9.5 30-10.1 0-.4-4.1-1-9.2-1.4-12.5-.9-23.5-4-34.8-9.7-22.3-11.3-36.8-27.3-46.6-51.3-4.9-11.9-6.5-20.1-6.9-34.6-.6-23 4.2-39.7 16.8-58.5 4.1-6.2 16.2-21.1 20.6-25.5 3.1-3.1 4.4-4.8 12.1-16.5 3.3-4.9 6-9.4 6-10.1 0-.6.9-1.9 2-2.9 1.9-1.8 2.1-1.6 6.2 7.6 10.4 23.3 24.9 50.7 32.3 61.3 2.2 3 1.9 1.8-1.6-6.5-4.6-11.2-12.4-35.3-15.9-48.9-.4-1.9-1.3-5.4-1.9-7.6-1.5-5.7-1.4-8.4.4-8.4.8 0 1.5.4 1.5 1 0 3.3 12.6 25.8 20.3 36 7.5 10 31.8 33.3 33.2 31.8.3-.2-.7-2-2.1-3.9-4.7-6.3-17.1-26.3-21.9-35.4-2.6-5-5.1-9.5-5.5-10-1.6-2.3-7.9-19.5-9.3-25.5-2.9-12-4-20.6-3.1-23.4l.9-2.7 1.6 3.3c.9 1.8 2.2 5.1 2.9 7.3 5.5 18 26 47.7 42.7 62.1 26.4 22.7 59 36.4 90.3 37.9l10.5.5-5.5-1.6c-14.1-4.2-24.2-7.9-32.1-11.9-19.6-9.8-38.3-25.9-49.8-42.9-6.8-10.1-15.1-26.1-15.1-28.9 0-.9-.4-1.9-1-2.2-.5-.3-1-1.5-1-2.6 0-1-.4-2.7-.9-3.7-.5-.9-1.4-4.4-2.1-7.7-.6-3.3-1.6-7.6-2.1-9.6-1.2-4.7-1.2-38.1 0-42.8.5-2 1.5-6.1 2.1-9.1 1.3-6 4.6-16.2 6.4-19.7.6-1.2 5.4-5.9 10.6-10.5 9.5-8.4 22.8-22.7 30.4-32.8 4.7-6.3 8.6-11.9 8.6-12.4 0-.2 1.8-3.4 4-7s4-6.8 4-7.1c0-.2 1.4-3.3 3.1-6.7 3-6.1 8.5-21.1 10.7-29.3 1.2-4.2 2.4-10.1 4.1-20.1 1.4-7.8 1.4-32.7 0-39.6-.6-2.9-1.5-7.8-2.1-10.8-1.7-9.2-8.7-29-13.6-38.5-5.6-11.1-16.3-27.2-22.8-34.5-8-9-8.6-9.8-8-10.8.3-.5 5.1.6 10.8 2.6 5.7 1.9 11.8 3.8 13.6 4.3 1.7.5 4.9 1.4 7 2 3.5 1 7.8 2 16.7 4 18.5 4.1 52.4 7.9 60 6.8 2.2-.3 3.8-.7 3.5-.8-.3 0-5.9-1-12.5-2.2-17.1-3-20.1-3.6-28.5-5.8-4.1-1.1-8.6-2.3-10-2.6-18.4-4.9-33.5-11.5-41.4-18.2-7.4-6.3-10.6-10.9-10.6-15.4 0-3.1.7-4.3 4.1-7.2 2.2-1.9 5.2-3.8 6.7-4.1 1.5-.4 4.7-1.2 7.2-1.8 2.5-.6 22.6-1.4 45.5-1.8 24.1-.5 43.3-1.2 46.5-1.9 3-.7 7-1.4 8.8-1.8 1.8-.3 3.5-.9 3.8-1.4.3-.5 1.6-.9 2.9-.9 1.3 0 2.7-.5 3-1 .3-.6 1.4-1 2.3-1 5.1 0 33.6-17.4 44.3-27 1.9-1.7 7.1-6.1 11.7-9.7 4.5-3.6 8-6.8 7.7-7.1-.2-.2-3.9 1.2-8.1 3.3-9.2 4.4-9.8 4.6-23.9 9.7-11.1 4-17.5 5.8-27.5 7.6-14.7 2.8-19.1 3.4-20.7 2.7-1.6-.6-1.5-.8.7-2.5 1.4-1.1 2.9-2 3.3-2 .5 0 3.2-1.5 6-3.3 2.9-1.9 7-4.5 9.2-5.8 2.2-1.3 4.7-2.9 5.6-3.4 27.8-16.9 64-53.8 83.8-85.7 7-11.2 19.1-34.2 19.1-36.4 0-.8-3.9 2.6-8.7 7.4-4.9 4.8-13.3 12.6-18.8 17.3-9.7 8.3-26.5 20.9-27.8 20.9-1.8 0-.2-3.7 5.3-12.2 7.9-12.3 16.8-27.6 21.3-36.5 2-4 4.1-8 4.6-9s1.9-4.1 3.1-6.8c1.3-2.8 3.4-7.5 4.8-10.5 9.7-21.1 18.8-53.5 22.3-79 1.4-10.5 2.3-42.8 1.1-41.5-.5.5-2.3 5-4.1 10-1.8 4.9-3.6 9.7-4.2 10.5-.5.8-1.2 2.3-1.5 3.2-1.5 4.5-2.1.3-2.7-19-.6-21.8-2.2-33-7.2-50.7-2.6-9-3.4-11.1-8.3-21.5-3.3-6.9-10.7-18-16.2-24.3-6.1-6.9-20.8-16.2-30.2-19.2-17.9-5.6-38.5-5.3-65.3.9-3.3.8-14.3 1.7-24.4 2-10.1.4-18.7.9-19.2 1.1-1.6 1-40.6.6-47.4-.4-9.6-1.5-24.5-5-27-6.3-4-2.2-19.4-15.9-28-25-19.6-20.8-33.4-42.4-47.3-73.8-2.1-4.8-6.9-18.5-8.2-23.5-.5-1.7-1.5-5.5-2.3-8.5-.8-3-2-8.4-2.6-12-.7-3.6-1.4-7.4-1.7-8.5-1.4-6.4-3.4-28.8-3.4-39.5 0-10.8 2-35.4 3.4-41.5.3-1.1 1-4.9 1.7-8.5 1.1-6.2 1.9-9.5 5.4-22.8 3.4-12.6 6.4-21.1 11.4-32.4 1.2-2.6 2.1-5.1 2.1-5.5 0-1.7 23.3-28.4 34.6-39.7 10.7-10.8 37.6-34.9 43-38.6 3-2.1 17.2-14.9 28.3-25.5 16.7-16 33.7-37.3 43.1-54 3.9-6.9 8.8-20 11.6-31.2 2.4-9.1 2.8-12.9 2.8-24.3.1-15.4-1.6-24.7-6.8-37-8-18.9-27.8-42.8-48.1-58-3.3-2.5-6.2-4.7-6.5-5-.3-.3-3.5-2.9-7.2-5.9-3.8-2.9-6.8-5.7-6.8-6.2 0-1.2 4.1-2.8 10.4-4 16.6-3.1 44-15 60.6-26.3 17.3-11.7 30.9-26 44.3-46.3 16.2-24.7 23.6-45.8 29.7-84.7 2.4-15 1-57.7-2.4-73.1-.3-1.1-1-6.3-1.6-11.5-1.4-11.3-4.6-30.8-6-36.8-.6-2.3-1.4-6.1-2-8.5-4.1-18.7-9.4-37.6-12.1-43.3-1-2.3-1.9-4.5-1.9-4.9 0-2.9-20.3-56.6-26.6-70.3-1.9-4.1-3.4-7.5-3.4-7.7 0-.5-11-23.7-15.9-33.6-5.6-11.1-12.3-23.5-16.2-29.9-4.2-6.9-16.3-26.9-17.4-28.8-5.8-9.9-7-11.7-27.1-42.2-9.3-14-17.7-26.8-18.7-28.5-1.1-1.6-3.6-5.3-5.6-8-3.7-4.9-11-15.4-23.9-34.5-3.6-5.2-8.4-12.3-10.8-15.6-2.4-3.4-4.4-6.4-4.4-6.8 0-.4-3.1-5.3-6.8-10.9-9.7-14.4-27.6-42.6-33.5-52.7-13.7-23.4-19.1-33.1-26-46.2-8.7-16.6-19.2-39.1-24.8-53.1-2.1-5.3-4.3-10.5-4.8-11.5-1.7-3.1-5.9-14.5-8.2-22.5l-2.2-7.7 3.6-16.3c2-8.9 4.3-20 5.2-24.7.8-4.7 1.9-11 2.4-14 2.9-15.4 3.5-51.4 1.3-71-1.1-9.1-5-28.1-8.2-39.6-1.1-3.9-2.3-11.7-2.6-17.3-1.3-25.5-11.7-46.1-35.4-70.6-5.3-5.5-11.7-12.7-14.2-16-2.6-3.3-8.3-10.1-12.8-15-7.6-8.4-20.7-26.5-36.1-50-3.6-5.5-10.6-16.1-15.5-23.5-17.1-25.9-34-52.6-41.6-66-1.1-1.9-2.9-4.7-3.9-6.2-1.1-1.4-1.9-2.8-1.9-3.1 0-.9-6.5-11.2-7.2-11.5-.5-.2-.8-.8-.8-1.3s-1.8-3.8-4-7.4c-2.2-3.6-4-6.7-4-6.9 0-.5-7.4-13.4-15.9-28.1-2.9-5-7-12.2-9.1-16-2-3.9-5.2-9.7-7-13-8.7-15.5-41.7-81-62.3-123.4-2.3-4.7-1.1-23.6 2.8-42.1 2.2-10.8 7.2-30.7 11-44 5.2-18.1 6.6-25.5 9.1-46 1.6-14.1 1.7-47.7.1-60.7-.9-7.6-.8-8.9 2.1-20 7-26.3 9.5-43.7 9.6-65.3.1-16.7-.2-20.2-2.3-33.2-2.8-16.8-13.5-49.5-18.3-55.7-1-1.3-1.8-2.8-1.8-3.3 0-1.2-12.6-24.4-16-29.3-1.6-2.2-4.3-9-6-15-7.9-26.4-25.4-70.5-37.5-94-5.6-11-6.7-13.1-17.7-32.3-4.9-8.5-8.8-15.6-8.8-15.9 0-1.9-31.8-48.6-41.5-60.9-21.8-27.8-30.9-38-57.4-64.4-23.7-23.7-34.4-33-63.1-55.3-9.6-7.5-20.2-15.8-23.5-18.5-12.1-9.9-57.5-43.2-58.8-43.2-.4 0-3.3-1.7-6.6-3.8-3.2-2.2-7.4-4.5-9.1-5.2l-3.2-1.3.8-5.6c1.6-10.7.8-24.9-2-34.4-4.6-15.6-16.6-36.2-30.9-53.1-6.8-7.9-42.3-44.8-88.2-91.6-44.1-44.9-91.8-93.9-92.4-94.9-1.3-2-77.3-78.1-85.6-85.8-17.4-15.8-34.3-28.8-52.9-40.6-5-3.1-9.8-6.2-10.6-6.7-3.4-2.3-12-6.6-19-9.7-10.1-4.5-9.7-4.4-24.5-10.4-7.1-2.9-16.8-7.3-21.5-9.7-17.5-9.1-38.6-26-44.7-36-21.8-35.3-27.6-43.8-38.7-57.2-23.2-27.9-44.8-41.6-74.1-47.2-7.4-1.4-43.8-1.7-53.1-.5-4.3.6-6.5.2-13.5-2.4-30.3-11.1-48.5-15.5-72.4-17.4-13.1-1.1-24.8-1.2-35-.3zm33 4.3c11.1.8 28.1 3.7 39 6.6 2.2.6 5 1.3 6.2 1.6 6.3 1.5 21.8 7.2 22.1 8.1.1.5-.5 1.3-1.5 1.8-1 .4-18.4.9-38.8 1-20.3 0-37.9.4-39 .7-1.1.2-5.1.8-9 1.2-6.6.6-21.1 2.6-33.5 4.5-8.7 1.4-15.8 2.8-26 5.1-5.2 1.1-11.3 2.5-13.5 3-2.2.5-5.8 1.4-8 2-2.2.5-5.6 1.4-7.5 1.9-31.6 8-56.2 16.1-67.5 22.5-2.2 1.2-8.5 5.1-14 8.7-9.4 6.2-13.3 7.7-10.3 4 .7-.9 6.7-5.6 13.3-10.4 6.6-4.9 12.7-9.5 13.6-10.2 2.1-1.7 13.7-9.2 21.4-13.8 8.1-4.8 26.4-13.9 35-17.3 3.9-1.5 8.4-3.3 10-4.1 4.3-1.8 20.2-6.9 29.5-9.3 13.5-3.6 32.8-6.8 45.9-7.6 4.6-.3 8.5-.6 8.7-.7.3-.4 14.6 0 23.9.7zm130.9 19.6c5 .6 10.7 1.4 12.6 1.9 1.9.5 5.8 1.4 8.5 2.1 6.9 1.6 20.2 7.9 28.8 13.6 12.8 8.4 32.8 30.1 47.5 51.5 3.8 5.6 5.6 9.8 4.1 9.8-.5 0-4.9-3.7-9.8-8.3-4.8-4.6-12.5-11.2-17.2-14.8-11.6-8.8-36.6-24.4-46.9-29.1-11.9-5.6-38-14.9-46-16.5-4.3-.8-17.1-7.5-16.7-8.7.8-2.4 20-3.3 35.1-1.5zM2281.5 224c.3.5-.4 1.2-1.7 1.4-6.9 1.5-16.5 3.9-25.8 6.7-5.8 1.7-11.8 3.4-13.5 3.9-1.6.4-6.1 1.9-10 3.2-6.5 2.3-8.9 2.5-35.5 3.2-15.7.4-30.6.9-33.2 1.2-3.7.3-4.6.1-4.2-1 .6-1.6.3-1.5 18.4-6.2 14.4-3.7 42.7-8.8 55-10 4.1-.3 7.7-.8 8-.9.3-.2 5.7-.6 12-1s11.7-.9 11.9-1.1c1-.9 18-.3 18.6.6zm-81 22.9l3 .1-2.5 2c-1.4 1.1-3.1 2-3.8 2-.7 0-2 .4-3 .9-.9.5-4.4 1.9-7.7 3.1-3.3 1.2-6.8 2.6-7.7 3.1-1 .5-2.4.9-3.3.9-.8 0-2.9.8-4.7 1.8-1.8.9-5.1 2.3-7.3 3-3.9 1.3-5.5 1.9-10.5 4-1.4.5-5.2 2-8.5 3.2-3.3 1.2-6.8 2.6-7.7 3.1-1 .5-2.2.9-2.8.9-.6 0-2.9.8-5.3 1.9-2.3 1-6.9 2.9-10.2 4.1-3.3 1.2-6.9 2.6-8 3-1.1.4-4.7 1.8-8 3.1-7.7 2.9-26.8 10.6-32.2 13-2.4 1-4.5 1.9-4.8 1.9-.3 0-2.7 1-5.3 2.1-2.6 1.2-6.3 2.8-8.2 3.6-1.9.8-4.8 2.1-6.4 2.9-1.6.8-3.3 1.4-3.7 1.4-.5 0-3.3 1.1-6.4 2.5-3 1.4-8 3.6-11.1 5.1-3.2 1.4-7.1 2.8-8.8 3l-3.1.6 3.4-2.9c4.4-3.6 11.2-8.3 33.4-23.4 27.9-18.8 42-27.2 62.2-37.1 4.4-2.1 8.8-4.3 9.7-4.8 2-1.1 20.3-4.4 33.3-5.9 16.8-2.1 31-2.7 46-2.2zM2087.7 267c-1.4 1.2-3.7 2.6-4.9 3.3-3.3 1.7-29 17.9-36.8 23.3-9.9 6.7-47.4 33.7-56.5 40.5-7 5.4-20.8 12.9-23.6 12.9-2.4 0 0-3.1 9.9-12.7 28.5-27.6 60.5-48.7 95.7-63.3 13.8-5.7 14.2-5.8 16.9-5.9 1.6-.1 1.5.2-.7 1.9zm895.2 254.2c3.5 1.8 7.6 4.4 9.1 5.8 1.5 1.4 8.3 7.4 15.1 13.5 13 11.5 16.3 14.4 26.4 23.5 3.4 3 9.9 8.9 14.6 13 4.6 4.1 12.9 11.8 18.3 17 13 12.4 12.7 12.1 31.2 29 20.8 19 31.7 29.5 60.9 58.5 29.2 28.9 30.5 30.4 49.2 56 11 15 13.7 19.5 11.9 19.5-1.8 0-10-4.7-16.9-9.6-2.6-1.9-4.9-3.4-5.2-3.4-.3 0-2.6-1.6-5.2-3.6-2.7-2-6.1-4.5-7.7-5.7-3.9-2.9-10.6-8.4-23.4-19.1-10.1-8.4-44.5-42.2-57.7-56.6-7.9-8.6-20.3-22.5-24.6-27.5-1.9-2.2-3.7-4.2-4-4.5-.3-.3-8.1-9.3-17.4-20-9.2-10.7-17.1-19.7-17.5-20-.4-.3-2.8-3-5.5-6-13-14.9-56.6-59.4-59.1-60.4-1.7-.7-1.9-2.6-.1-2.6.6 0 4.1 1.4 7.6 3.2zm58.5 35.3c9.9 5.3 37.9 25.2 58.1 41.4 48.2 38.6 89.1 84.6 118.3 133.1 4.1 6.9 8.3 13.7 9.3 15.1 1 1.4 1.6 2.9 1.2 3.2-.9.9-3.9-2.6-10.8-12.8-9.6-13.9-19.5-26.8-29.2-37.8-9.4-10.5-45.5-46.7-57.8-57.9-3.8-3.5-10.6-9.7-15.1-13.8-4.4-4.1-11.4-10.4-15.4-14-4.1-3.6-11.7-10.6-17-15.5-5.2-5-16.5-15.2-25-22.7s-17.3-15.3-19.5-17.2c-4.7-4.2-3.6-4.6 2.9-1.1zM1975 673.4c0 1.6-29 31.3-38 38.8-3.6 3-9.4 7.6-13 10.3-3.6 2.7-7.1 5.5-7.8 6.2-1.7 1.6-9.9 7.3-10.6 7.3-.2 0-3.9 2.2-8 5-4.2 2.7-7.8 5-8.1 5-.3 0-2.2 1.1-4.3 2.3-3.4 2.2-14.2 8.3-20 11.3-1.4.7-3 1-3.5.7-1.1-.6 11.9-13.7 22.3-22.4 3.6-2.9 6.7-5.6 7-5.9 5.7-6.3 40.4-32.2 65-48.7 18.2-12.1 19-12.6 19-9.9zm-14.6 33.3c-3.5 4.7-6.3 7.8-19 21.7-20.6 22.5-40.4 39.9-69 60.7-12.2 9-33.5 22.9-34.9 22.9-.4 0-2.6 1.3-5 3-2.4 1.6-4.7 3-5 3-.4 0-1.9.8-3.3 1.9-1.5 1-6.3 3.7-10.7 6.1-4.4 2.4-10.1 5.6-12.7 7.1-2.8 1.7-5 2.4-5.4 1.8-.7-1.2.8-3.2 18.1-24.1 22.9-27.7 19.8-24.8 37.8-33.8 19.7-9.8 29.2-14.9 46.3-25.1 21.5-12.7 30.8-19.6 49.8-36.4 8-7.2 14.6-12.5 15.4-12.5.2 0-.8 1.7-2.4 3.7zm1892.7 382.1c.9 1.5 5 7.9 9.1 14.2 4.1 6.3 8.9 14.2 10.8 17.5 7.2 12.8 22.4 43.6 27.1 55 2.8 6.6 5.4 12.9 5.9 14 .5 1.1 1.5 3.3 2.2 5 1.1 2.9 1.2 3 1.6.6.2-1.3-.3-6.3-1.2-11-.8-4.7-2.2-13.8-3.1-20.1-.9-6.3-3.2-19.5-5.1-29.4-2-9.8-3.3-18.1-2.9-18.4 1.1-1.1 3.3 2.3 6.4 9.8 1.7 4.1 4 9.3 5 11.5 2.3 4.8 5.4 14.1 7 21 .7 2.7 1.6 6.6 2.1 8.5 3.6 14.1 4.8 50.6 2.1 65.5-3.3 18.9-5.2 27.8-6.1 28.8-.8.9-4-7.5-4-10.4 0-1-.6-3.3-1.4-5.1-.8-1.8-2.9-8-4.6-13.8-3.1-10.3-8.7-26.1-11.7-33-.9-1.9-2.2-5.1-3.1-7-4.3-10-15-30.4-20.2-38.5-4-6.3-4.8-8.4-8-21.5-3.1-13.2-5.4-21.2-10.3-37.5-1.4-4.4-2.3-8.3-2-8.7.7-1.2 2.7.1 4.4 3zM1318.2 1109c-.6 1.1-1.2 3-1.2 4.2 0 1.3-.7 5.5-1.5 9.3-.8 3.9-2.7 13.7-4.1 22-3.8 21.9-3.9 22.4-6.9 29.5-1.5 3.6-4.7 12.1-7 19-2.4 6.9-6.2 17.7-8.4 24-7.2 20.1-11.1 31.9-11.1 33.4 0 .7-.7 1.6-1.5 2-2.3.8-1.9-5.1 1.1-20.1 5.9-29.2 20.1-79.6 26.7-94.4.8-1.9 2-5 2.7-6.9 2.1-6.1 4.5-12.1 6.1-15.2.5-1 .9-2.5.9-3.3 0-.9.7-1.8 1.5-2.1.8-.4 1.2-1 .9-1.6-.3-.5-.3-1.6 0-2.5.5-1.3.9-1.4 1.9-.4.9.9.9 1.6-.1 3.1zm2560.9 77.5c12.6 27.2 21.8 55.3 26.7 81.5 2.6 13.9 2.7 13.3-4.2 33.6-9.8 28.8-12 34.7-13.2 35.1-.8.3-1.3-4.6-1.8-15.4-.4-8.7-.9-18.7-1.2-22.3-.8-11.8-1.5-22.4-1.9-26.5-.2-2.2-.6-7.4-1-11.5-.5-6.5-3.7-33.8-5-42.5-3-20.7-3.8-26.2-5.2-33.2-1.9-10.1-1.2-13.3 1.9-8.2 1.1 1.9 3.3 6.1 4.9 9.4zm-2578.6 31.9c-.4 4.4-.9 8.8-1 9.6-.2.8-.6 5.8-1 11s-.8 10.6-1 11.9c-.3 1.4-.7 7.4-1 13.5-.3 6.1-.7 14.2-1 18.1-.3 3.8-.6 23.6-.7 44-.2 53-1.8 71.3-7.8 91-2.7 8.6-4 13.2-4.7 16.5-.3 1.4-.9 2.9-1.3 3.5-.4.5-1 2.3-1.4 4-.7 2.8-.9 2.9-2.1 1.2-.7-1-1.6-5.1-1.9-9-1.1-13-1.7-20-2.6-30.7-.6-5.8-1.5-16.8-2-24.5-.6-7.7-1.3-15.6-1.5-17.5-.2-1.9-.5-15.4-.5-30-.1-20.9.2-27.7 1.4-32 3.1-11.4 5.5-19.7 7.5-26.3 1.2-3.7 2.9-9.5 4-13 6.5-21.6 17.2-50.8 18.4-50 .5.3.6 4 .2 8.7zM3911 1324.6c0 10.4-.4 21.1-1 23.9-.5 2.7-1.9 10.8-3.1 17.8-2 12.4-16 70.1-17.4 71.5-.3.3-1 .1-1.4-.6-1.2-2-2-45-1.1-60.7.7-13.4 1-14.6 5.9-28.5 2.9-8 7.1-19.9 9.3-26.5 4.8-14.3 6.6-18.1 7.9-16.8.5.5 1 9.3.9 19.9zm-2649 25.1c0 1 .7 10.6 1.5 21.3 1.4 18.5 2.4 30.1 4.6 54 .5 5.8 1.2 17.8 1.5 26.7.7 18.5 1.6 15-10.4 43.3-8.7 20.6-14 31.2-15.3 30.4-.6-.4-.8-3-.5-6.8.4-3.3 1.1-10.8 1.6-16.6 1.1-11.1 2.4-27.5 4-50.5 1.2-18 1.9-26.6 2.5-34 .3-3.3.8-8.7 1.1-12 1.4-17.8 4.9-45.8 7-55.3.5-2.6 2.4-3 2.4-.5zm2657.9 203.6c19.5 38.1 32.3 62.4 41.1 77.7 3.5 6.2 5 8.7 11.5 20.5 1.5 2.7 3.3 5.7 4 6.5.7.8 2.2 3.3 3.2 5.5 1.1 2.2 4 7.4 6.5 11.5 5.3 8.9 15.4 25.9 18.4 30.9 1.2 2 4.5 7.4 7.4 12.1 2.9 4.7 6.1 9.9 7.1 11.7 1 1.8 3.1 5.2 4.6 7.5 1.4 2.4 4.2 6.8 6.1 9.8 1.9 3 9.1 13.9 16 24.2 6.8 10.3 12.2 19.3 11.9 20-.5 1.4-29.3-26.7-33.8-33-1.5-2-5.6-7.8-9.1-12.7-6.7-9.2-22.8-34.2-33.4-51.7-3.2-5.4-7.2-11.9-8.8-14.5-5.1-8.4-29-56.3-35.3-70.8-3.4-7.7-9.2-21.7-12.8-31-3.7-9.4-7-17.9-7.5-19-.4-1.1-1.3-3.6-2-5.5s-1.5-4.4-2-5.5c-1.9-5.3-2.7-8.4-2.2-9 1-.9 1.8.5 9.1 14.8zm-350 102.4c.5 2.1 1.4 8.7 2.1 14.8 1.3 12.3 1.5 13.7 3 20.9l5.1 28.6c2.2 12.9 5.1 27.8 6.4 33 2 7.9 2.4 12.1 2.4 25 .1 8.5.3 18.2.6 21.5.2 3.3.7 9.5 1 13.7 2.5 35.3 11.2 72.2 26.3 111.3 5.9 15.3 8.2 20.5 17 38.4 6.2 12.6 7.5 17.2 5.6 20.2-1.2 2-4.4-1.6-9.3-10.3-5.4-9.5-20.5-39.5-23.1-45.8-.8-1.9-2.7-6.7-4.3-10.5-10.3-24.6-18.1-48.3-24.1-73-2-8.3-4.3-17-5-19.5-.8-2.5-1.7-6.3-2.1-8.5-2.1-12.1-2.7-15.5-3.4-21-.5-3.3-1.4-10.5-2-16-.6-5.5-1.2-10.9-1.5-12-.6-2.8-1.9-40.5-1.8-49.5.1-4.1.4-11.8.7-17 .3-5.2.7-13.2 1-17.8.2-4.6.7-8.6.9-9.1.3-.4.6-4.5.7-9.1.2-9.2.7-12 2-12 .4 0 1.2 1.7 1.8 3.7zm-2506 120c-1.4 1.8-3.8 4.5-13 14.9-3 3.3-7 7.9-8.9 10.1-15.5 17.7-52.5 54.3-55 54.3-2.8 0 18.1-25.7 36.1-44.4 17.1-17.9 38.2-36.6 41.2-36.6.5 0 .3.8-.4 1.7zm2538.4 32.3c2.7 8 7.7 20.9 10.7 27.5 1 2.2 2.8 6.2 4 9 9.9 22 24.4 70.6 28.9 97 .6 3.8 1.6 9.5 2.2 12.5 1.5 7.9.9 12.4-1.7 12.8-3 .4-7-6.4-16.1-27.8-19.5-45.6-28.7-80.2-32.8-123.9-.8-8.4-1.2-15.8-.9-16.3 1.1-1.7 3.1 1.5 5.7 9.2zM985 1871.5c-.7.8-1 1.5-.6 1.5.6 0-3.7 7.1-10.6 17.3-4 5.9-14.5 25.9-18.5 35.2-9.7 22.4-17 45.5-21.3 66.7-1.4 6.9-4.7 12-13.7 21-7.6 7.8-26.7 21.3-28.8 20.4-1.1-.4-1-1.5.6-6.3 1.1-3.2 2.4-6.7 2.9-7.8.4-1.1 2.3-5.8 4.1-10.5 1.7-4.7 4.9-12.1 6.9-16.5 2.1-4.4 5.7-12.3 8.1-17.5 5.1-11.5 24.4-49.4 27-53.2 1.1-1.4 1.9-2.9 1.9-3.2 0-1.3 7.6-11.4 15.4-20.6 7.7-9.1 26.1-28 27.3-28 .3 0 0 .7-.7 1.5zm-76.4 99.2c-.8 2.1-2.3 5.6-3.4 7.8s-2.8 5.8-3.7 8c-1 2.2-2.3 5.3-3.1 6.9-.8 1.6-1.4 3.5-1.4 4.3 0 .7-.4 2.1-1 3.1-1.1 2-6.8 17.5-10.5 28.7-1.5 4.4-3.3 9-4 10.1-1.5 2.3-6.6 5.8-10.2 6.9-3.1.9-3-.3 1.1-10.5 12.6-31.6 32.4-69 36.6-69 .5 0 .3 1.7-.4 3.7zm3257.9 12.5c2.6 14.2 3.3 27.2 3 51.3-.2 14.3-.5 27.1-.8 28.5-.3 1.4-1.1 6.3-1.7 11-.6 4.7-2 13-3.1 18.5-3.2 16.4-5.1 15.6-8-3.1-2.9-18.8-3.3-40.7-.9-52.5 2-10.6 2.5-14.1 4-28.4 2-19.8 3.6-28.5 5.5-28.5.8 0 1.7 1.4 2 3.2zm-2909.7 338.7c5.4.4-8 12.6-23.1 21-8.1 4.5-8.5 2.3-1.8-12.1l4-8.7 8.3-.3c4.6-.2 9-.2 9.8-.1.8.1 2.1.2 2.8.2zm42.5 21.4c-1.1 1.2-12.1 13.5-24.4 27.3-12.3 13.7-23.7 26.6-25.3 28.5-1.7 1.9-8.2 9-14.6 15.9s-13.2 14.3-15.1 16.4c-1.9 2.2-5.5 6.2-8 9s-6.2 6.9-8.2 9.1c-5.7 6.4-6.2 4.2-2.7-12.6 1.7-7.9 3.5-16.2 3.9-18.4 5-24.4 15.3-60.3 17.5-61 .6-.2 3.8-.6 7.1-.9 19.6-1.9 26.2-2.8 36.5-5.4 6.4-1.6 16.7-5 23-7.5 11.4-4.5 14-4.6 10.3-.4zm-36 88.9c-30.3 30.6-49.6 66-57.3 105.3-2.5 12.8-3.8 31.5-2.2 31.5.6 0 9.1-6 18.9-13.3 9.8-7.3 21.6-16 26.3-19.4 4.7-3.3 9.4-7 10.4-8.2 1.1-1.2 2.3-2.1 2.8-2.1s1.7-.7 2.6-1.6c1-1.1 1.7-1.3 2-.5.5 1.6-7.1 10-19.1 21.1-12.2 11.4-26.2 25.8-25.6 26.4.5.5 6-2.5 49.7-26.6 14.3-7.9 25.9-13.7 26.7-13.4 1.8.6 1.9 4.8.5 14.9-4.4 30.3-20.9 62-44.2 84.3-10.7 10.4-28.4 22.5-43.1 29.5-3.4 1.7-7 3.4-8 4-2.8 1.5-4.2-.2-7.6-9.7-5.4-14.7-8-25.2-11.6-45.9-2.9-16.8-2.6-55.5.6-81.9 2.7-22.7 10-64 11.8-67.5.6-1 3-2.8 5.3-3.9 2.4-1.1 12-5.7 21.3-10.2 46-22.1 45.6-22 47.5-22 .8 0-2.7 4.2-7.7 9.2zm2424.9 27.8c1 1.9 5.6 11.4 10.4 21 4.7 9.6 9.1 18.2 9.8 19 .6.8 1.8 2.8 2.6 4.5.8 1.6 2.8 5.2 4.4 8 1.6 2.7 5.5 10.1 8.8 16.3 3.2 6.3 8.2 15.5 11 20.5 7.8 14.1 22.2 43.2 25.8 52.2 1.7 4.4 3.8 9.3 4.5 11 2.3 5.2 4.6 11.7 8.5 23.5 6 18.3 9.2 33 11.9 54.5 1.3 10.5 1.1 48.6-.4 60.5-.7 5.8-1.6 13-2 16-.9 7.2-5 27.4-7.6 37.5-1.9 7.6-2.6 10.1-4.8 17.7-.6 1.8-1.4 4.9-1.9 6.8-1.7 6.4-8.3 25.4-10.3 29.7-1 2.4-1.9 4.8-1.9 5.4 0 1.3-9.9 21.7-13.6 27.9-9 15.2-23.7 28.9-37 34.5-11 4.6-15.3 5.5-26.6 5.5-9.1 0-12.2-.4-15.6-2-4.3-1.9-5-3.7-2.1-5.1.8-.3 4.3-2 7.9-3.5 9.5-4.3 22.4-13.1 31.3-21.4 4.3-4 7.6-7.4 7.4-7.7-.2-.2-4.7 1.8-9.8 4.5-10.2 5.3-14.8 7-30.6 11.2-9 2.4-19.3 4-26.1 4-5.9 0-8.2-.5-12.2-2.6-3.2-1.7-5-3.3-5-4.4 0-3.2 13.9-11.9 30.5-19.1 4-1.7 17.6-4.9 21-4.9 5.6 0 4-2-1.7-2.1-2.9-.1-6.2-.3-7.3-.4-1.1-.2-6-.6-11-1-11.2-.8-15.5-1.4-15.5-2.3 0-1.5 6.3-4.9 23.1-12.6 10.3-4.6 32.4-9.6 43.3-9.6 5.9 0 8.4-1.1 6.4-2.7-.7-.6-4.4-2.7-8.3-4.8-13.8-7.4-34.5-12.5-50.7-12.5-5.8 0-7.8-.3-7.8-1.3 0-.8 4.6-5 10.3-9.5 32.2-25.5 57.6-60.8 70.7-98.4 2.2-6.3 4-12.5 4-13.6 0-1.1.5-2.4 1-2.7 1.3-.8 1.3-2.8 0-2.3-.5.1-5.5 4.8-11.2 10.4-5.7 5.5-11.9 11.1-13.8 12.4-1.9 1.3-3.7 2.7-4 3-1 1.2-14.6 10.7-19.5 13.6-13.1 7.8-33.8 17.2-45.4 20.5-11.4 3.3-11.7 2.5-2.8-8.1 3.4-4.1 9.2-11.3 12.8-16 5.8-7.5 46.9-60.4 65.2-83.8 13-16.8 15.8-20.5 15.3-20.9-.2-.3-3.3 1.7-6.8 4.4-7.8 5.9-18.4 13.3-19.2 13.3-1.8 0 0-3.1 4-7 9.1-8.9 25.3-29.4 24.1-30.6-.3-.3-2.2.5-4.4 1.8-3.9 2.5-22.4 11.7-32.5 16.2-3.2 1.4-8.3 3.7-11.3 5.1-3.1 1.4-5.8 2.5-6 2.5-.3 0-2.4.8-4.8 1.9-11.9 5.3-20.1 8.1-21.1 7.1-.5-.5-.8-1.1-.5-1.3 27.8-21.7 41.3-35.8 57.6-60.2 7.1-10.7 14-23.2 13.1-24-.3-.3-2.2.4-4.2 1.6-8.5 5-22.5 1.9-31.4-6.8-8.2-8.1-12.3-18.8-14.7-38.3-1.7-13.2-.5-60.3 1.6-64.3.9-1.5 2.1-1.7 7.2-1.5 6 .3 6.3.4 7.9 3.8zm-3089.1 13.2c.1.7 0 1.7-.1 2.3-1 3.7-2.1 9.7-2.6 13.5-.3 2.5-.9 5.9-1.4 7.7-1.2 4.8-1.2 33.3 0 42.6 1.7 13.1 3 21.9 4 26.2.4 2.2 1.4 6.7 2.1 10 1.1 5.3 8.8 36.2 10.9 44 8.7 31.7 15 61.4 17.7 83.5 2.3 18.5 1.4 19.3-6.3 5.8-3.2-5.7-6.9-12.1-8.2-14.3-3-5.3-18.3-36-20.4-41-6.6-15.8-12.7-34.8-14.7-46-.5-3.3-1.5-8.9-2.2-12.5-1.5-8.6-1.5-43.9 0-52.6 3.3-18.5 4.7-25.9 6.1-30.4.4-1.4 1.3-4.5 2-7 2.8-10 5.6-17.9 9.1-25.7 1-2.4 1.9-5 1.9-5.8 0-1.8 1.9-2 2.1-.3zm3833.9 416c0 1.8-8.2 14.1-14.7 22.1-7.2 8.8-20.8 21.3-30.6 28.1-12.1 8.4-38 20.6-39.3 18.5-.3-.6-.4-1.1-.3-1.3.2-.1 7.4-4.9 15.9-10.6 22.2-14.8 46.6-35.2 61-50.8 6.6-7.1 8-8.2 8-6zm-49 32.8c0 2.9-36.6 27.6-63.8 43.1-4.8 2.8-6.7 2.4-10.1-2.3-2.5-3.4-3.1-5.2-3.1-9.3 0-4.5.4-5.5 3.3-8.2 3.7-3.7 12.2-8.3 18.7-10.2 2.5-.7 5.6-1.7 7-2.1 1.4-.5 5-1.4 8-2.1 3-.6 6.6-1.5 8-2 1.4-.4 5.7-1.5 9.5-2.3 3.9-.9 10.2-2.5 14-3.5 8.4-2.4 8.5-2.4 8.5-1.1zm-831.9 85.2c1 1.3 1.8 2.6 1.9 2.9 0 .4 1.8 3.8 4 7.5 2.2 3.8 4 7.6 4 8.5 0 .8-1.2 4.1-2.7 7.2-3.3 6.7-5 6.5-6.4-.9-3.8-19.4-4.7-27.4-3.3-27.4.3 0 1.4 1 2.5 2.2zm-3120.8 45.5c.4.2.7 1.1.7 1.8 0 2.2-26.4 14.6-42.6 20.1l-14.1 4.8-7.4-1.7c-13.1-3.1-28.4-8.4-28.7-9.9-.4-1.9 8.4-4.2 38.8-10.4 12.4-2.6 24.1-5 26-5.4 3.4-.8 25.7-.2 27.3.7zm-100.1 22.2c5.2 2.1 11.9 4.6 14.9 5.6 6.4 2.1 7.7 3.1 6.2 4.6-1 1-20.5 6.1-45.3 11.9-33 7.7-68.1 19.4-85.5 28.5-19.3 10.1-35.9 22.1-51 36.7-9.8 9.5-11.8 9.5-6.4.1 5.8-10.1 21.7-27.3 35.9-38.8 24.4-19.7 60.4-36.8 102.7-48.5 7.6-2.2 15-3.9 16.4-3.9 1.4-.1 6.8 1.6 12.1 3.8zm-79.6 126.2c.3.6.3 1.4-.2 1.8-.5.3-3.3 3.5-6.3 7.1-3 3.6-6.1 7.2-7 8-2.3 2.2-17.7 22.9-25.3 34-6.7 10-14 21.8-19.1 31-1.6 3-3.8 6.6-4.7 8-.9 1.4-5.2 9.5-9.5 18s-8.1 15.9-8.5 16.5c-.9 1.3-6.6 14.6-12.9 30.5-6.2 15.9-12.1 33.6-17.1 51.8-4.3 15.5-4.7 16.5-6.1 15.7-1.2-.8-1.2-33.6.1-41.1 4.2-24.6 12.5-47.4 25.7-70.2 6.3-10.8 38-57.3 48.7-71.2 25.2-32.9 28.9-37.1 35.7-39.5 4.5-1.7 5.6-1.7 6.5-.4zM4211.9 3339c-.4 2.7-1 5.4-1.3 5.8-.7 1.2-5.4 25-6.1 31.2-1.7 15.3-2.1 22.8-1.9 38 .1 14.6.5 21.1 1.9 30 1.8 11.6 4 22.5 6.1 30.7 1.4 5.4 2.8 10.8 3.1 12.1.3 1.2.9 2.5 1.4 2.8.5.3.9 1.4.9 2.5 0 1 .4 2.7.9 3.7.5.9 2.4 5.5 4.2 10.2 4.4 11.4 16.1 34.1 21.2 41.3 12.6 17.5 19.3 26 26.1 33 10.9 11.2 10.3 12.1-3.2 4.4-26.6-15.1-48-37.7-61.4-64.7-7.7-15.5-11.8-27.3-15.5-45-2.4-11.5-2.6-14.5-2.7-37 0-26.7.7-32.5 6.6-55.5 3.1-12 9.6-30.3 13.8-38.6 2.2-4.2 5.8-9.9 6.4-9.9.2 0-.1 2.2-.5 5zm-766.2 134.2c-.6 6.3-1.9 14.5-3.7 24.8-.6 3-1.4 8.6-2 12.5-.5 3.8-1.1 8.1-1.4 9.5-.3 1.4-1 6.1-1.6 10.5-.6 4.4-1.5 10.5-2 13.5s-1.3 8.6-1.9 12.5c-.6 3.8-2 12.6-3 19.5-1.1 6.9-2.2 14.5-2.6 16.9-1.9 14.1-4.5 34.4-5 39.6-.3 3.3-.8 6.9-1 8-.2 1.1-.7 5.9-1 10.6-.3 4.7-.7 9.5-1 10.7-.2 1.2-.5 5.5-.6 9.7-.1 4.2-.6 9.5-1 11.8-.7 3.7-1.7 10.8-3.4 25.7-.8 6.6-2.2 22.3-3.7 41-1.6 20.3-1.5 91 .2 109.5 1.5 17.5 1.7 22.5.6 22.5-1 .1-4.1-8.5-5.6-15.5-.4-2.2-1.8-8.3-2.9-13.5-3.7-16.5-4.6-21.4-7.1-39-3-20.9-5.3-53.5-5.3-74.5 0-8.4 1.4-44.9 1.8-46.5.1-.3.5-4.3.9-9 3.9-45.4 16.9-110.4 31.5-158.5 1-3.3 2.8-9.4 4.1-13.5 2.6-8.7 10.2-31.8 12.3-37.6.8-2.1 1.8-4.7 2.1-5.7.3-.9 1.1-1.7 1.7-1.7.8 0 1 1.8.6 6.2zm-3154.2 5c-.4 1.3-2.5 5.9-4.6 10.3-13.1 27.4-26.7 64.7-32.8 90-1.2 4.9-2.6 10.6-3.1 12.5-1.6 6.3-3.5 19.2-5.1 34.5-2.4 22.2-1 46 4 69.5 3.1 14.6 11.3 33.8 20.5 47.8 5 7.6 18.1 22.7 25.8 29.9 6.3 5.8 34.1 27.2 46.2 35.5 5.6 3.8 10.1 7.6 10.1 8.5 0 .9-5.1 4.4-12.4 8.7-6.8 4-15.1 9.4-18.4 12-3.3 2.6-6.5 5-7.2 5.2-2.8 1.1-23.4-18.4-36.1-34.1-10.8-13.3-26.2-39.7-32.4-55.5-1.2-3-2.7-6.9-3.5-8.5-.7-1.7-1.8-4.6-2.5-6.5-.7-1.9-1.6-4.4-2-5.5-1.4-3.2-4.6-13.2-7.9-24.5-1.7-5.8-3.5-11.9-4-13.5-.8-2.7-5.7-22.6-8.1-33-1.1-4.8-4.6-22.8-6-30.5-1-5.8-2.2-13.5-4-26.1l-1.1-7.7 6-12.3c5.3-11.1 9-18.1 15.9-30.2 5.8-10.1 21.6-32.8 32.7-46.8 10.4-13.1 28-31.9 30-31.9.3 0 .3 1 0 2.2zM4473 3608.6c3.9.7 10.2 2.5 13.8 4 23.1 9.2 40.4 31.9 49.1 64.1 3.1 11.6 3.1 11.9 6 32.1 1.4 9.6 1.3 39.9-.2 48.5-2.2 12.3-3.2 8.3-3.3-12.8-.1-14-.6-22.6-1.8-28.5-2.1-11.1-4.2-20-6.6-28.5-.6-2.2-1.4-5-1.7-6.3-.3-1.2-.9-2.5-1.4-2.8-.5-.3-.9-1.2-.9-2 0-2.1-5.6-13.7-9.8-20.4-10.3-16.3-36.6-34.9-60.2-42.6-9.6-3.1-11.2-4.1-9.1-5.4 2.2-1.3 18-1 26.1.6zm-4269.6 11.1c1.1 7.1 2.3 14.1 3.5 20.3.5 3 1.3 6.8 1.6 8.5 2.1 11.3 5.3 25.4 9 40 4.3 17.1 5.9 22.4 12 41 5 15 6.4 18.4 15.1 37 1.4 3 2.4 5.9 2.2 6.6-.2.6-3.3-2.2-6.9-6.2-25.5-28.9-40.6-60.1-44.9-92.9-1.8-13.5-.9-43.7 1.5-50.5 2.1-5.9 4.4-9.7 5.5-9 .4.2 1 2.6 1.4 5.2zm3216.9 126c.3 1 .8 4 1.2 6.8 1.1 8.3 1.7 12 2 12.6.4.5.7 4.7 2 26.9.8 12.3 2.9 29.8 5.6 45.8 1.8 10.9 2 14.9 1.4 28.2-.4 8.5-.8 15.7-1 16.1-.2.3-.7 4.6-1.1 9.5-.3 4.9-.8 9.2-1 9.5-.2.3-.6 3.4-1 7-.3 3.5-.8 6.6-1.1 6.9-2.2 2.4-6.4-20.9-9.2-51.5-3.1-33.3-3.9-65.1-2.1-89.9 1.1-15.7 1.9-27.7 2-28.9 0-1.4 1.9-.7 2.3 1zm843.8 308.5c10.4 5.5 30.5 24.9 45 43.4 12.1 15.4 23.3 38.6 27.8 57.6.6 2.7 1.6 6.9 2.3 9.5 2.6 10.3 1.3 45.6-2.2 56.3-.4 1.4-2.3 7.2-4.1 13-6.5 20.5-23.4 49.6-36.7 63.2-4.6 4.8-6.2 5.7-6.2 3.7 0-1 6.9-12.8 12-20.4 1.4-2.2 3.4-5.7 4.3-7.7 1-2 2.2-4 2.7-4.3 1.1-.7 10.2-19.3 12.6-25.7.9-2.4 1.9-5.2 2.4-6.3.4-1.1 1.3-3.8 1.9-6 5-18.2 5.6-36.2 2-55.5-1.7-9.1-6.5-25.1-9.4-31.5-3.6-7.9-9.6-20.2-10.7-22-.7-1.1-2.5-3.8-3.9-6s-2.8-4.7-3.1-5.5c-1.1-3-15.6-22.1-30-39.8-8.2-10-14.8-18.3-14.8-18.6 0-1.2 2.2-.5 8.1 2.6z"/><path d="M1933 1001.5c-19.9 4.7-36.5 14.8-53.6 32.8-8.8 9.2-20.4 22.9-20.4 24 0 .4 2.9-1.2 6.4-3.4 6.5-4.1 14.2-7.2 20.9-8.4 3-.6 3.7-.4 3.7.9 0 .9-.4 1.6-.8 1.6-.5 0-4.2 4.2-8.3 9.2-4 5.1-8.3 10.1-9.4 11.1-1.1 1-5.8 5.1-10.5 9.2-8.9 7.7-61.2 61.4-67 68.7-2.3 3-5 3.7-5 1.3 0-2.6 3.8-15.8 6-20.9 1.1-2.6 2-5.3 2-5.9 0-1.5-3.6 2.4-7.8 8.3-1.7 2.5-5.6 7.4-8.6 11-7.6 8.9-27.2 34.9-33.3 44-18.2 27.4-31.5 56.9-35.8 79.9-.8 4.2-1.7 8.7-2 10.1-.2 1.4-.9 4.5-1.4 7-1.6 7.4-4.6 37-3.8 37 .4 0 2.7-3.4 9.2-13.5 6.8-10.5 18.2-24.8 29.7-37 2.5-2.8 5.7-6.4 6.9-8 1.3-1.7 2.6-3.2 2.9-3.5.3-.3 4.9-5.9 10.2-12.6 10.1-12.6 25.2-27.8 28.7-28.7 3.6-.9 4.5 1.5 3.1 9-1.2 6.6-1.5 7.7-3.9 13.6-2.2 5.4-1 4.8 8.2-4.5 5-5.2 16.2-15.1 24.7-22.2 20.8-17.2 18.9-15.5 33.5-29.5 7.2-6.8 16.7-15.2 21.1-18.7 11-8.6 21.1-13.3 22.8-10.5.6.9-6.5 15.1-14.3 28.4-2.8 4.9-5.1 9.3-5.1 9.8 0 .6 1.2.2 2.8-.9 4.7-3.4 14.8-8.1 22.9-10.7 4.3-1.4 8.7-3 9.8-3.4 2.4-1 20.3-6.5 26-8 4.6-1.2 11.1-2.5 21-4.2 8.5-1.5 45.1-1.5 52.6 0 3 .5 8.8 1.5 12.9 2.1 14.4 2.1 25.9 4.3 33.1 6.1 2 .5 4.9.9 6.5.9 2.8 0 2.7-.1-2.1-3.6-2.8-2-8.8-6.2-13.5-9.5-12.6-8.7-12.8-8.8-11-9.9.8-.5 3-.7 5-.5 1.9.2 7.1.7 11.5 1.1 4.4.4 8.2.8 8.5.9.3.1 3.4.5 7 1s6.7.9 7 1c.3.1 2.5.5 5 .9 19.4 3.4 51 12.5 64.7 18.7 2.4 1 4.5 1.9 4.8 1.9 2.4 0 35.5 16.7 43.2 21.9 3.4 2.2 6.7 4.1 7.3 4.1 1.1 0-.9-4.4-6.2-13-3.2-5.3-4.6-7.4-13.2-19-6.3-8.3-21.9-24.3-33.6-34.2-13-11-12.3-10.5-19.3-15.2-4.1-2.6-5.6-4.1-4.8-4.9.7-.7 1.9-.7 3.8 0 3.9 1.5 9.7 2.9 16.8 4.3 3.3.6 7.8 1.5 10 2 4 .8 13.5 2.4 21.3 3.6 2.3.3 4.2.3 4.2 0 0-.6-23-20.6-44.6-38.6-39.6-33.1-69.4-52.8-97.7-64.5-20.1-8.2-39.5-14.1-61.7-18.4-13.9-2.7-40.7-3.6-49-1.6zM3194.6 1051.7c-.3.3-4.4.7-9.3.9-56.8 2.5-121.4 30.6-164.8 71.7-3.4 3.2-4 3.1 5.5.8 9.4-2.4 17-3.1 32.3-3.1 9.1 0 16.8.4 17.1.8.2.4-2 3.9-5.1 7.7-11.4 14.2-25.3 37.1-25.3 41.7 0 1.8 2.2 1.8 9.5-.2 11.4-3 48.3-4.1 49.2-1.4.2.6-2 2.9-4.9 5.1-2.9 2.1-11.3 8.3-18.5 13.8-7.3 5.4-13.3 10.2-13.3 10.6 0 .5 3.7-.8 8.3-2.7 11.2-4.8 17.6-7.1 28.2-9.8 8.4-2.2 12.5-3 29.6-5.6 8.6-1.3 37.3-1.3 47.4.1 16.2 2.1 28.4 4.9 28.4 6.4 0 .5-4.6 2.2-10.2 3.7-26.8 6.9-53.5 20.5-65.9 33.5l-2.7 2.8 12.2-.1c6.7-.1 14.9.2 18.2.6 3.3.5 8.4 1.1 11.3 1.4 25.9 3 51.4 7.8 66.7 12.6 1.6.5 6.2 1.9 10 3.1 13.3 4.1 31.1 11.7 52.4 22.3 22.4 11.2 45.1 24.1 45.1 25.7 0 1.1.8 1-15 1-8.1 0-13.6.4-15.5 1.2l-2.9 1.3 4.9 1.3c27.4 7.3 54.1 23.8 73 45.2 9.9 11.2 16.4 20.7 23.2 33.9 7.8 15.2 13.1 33.1 14.8 50.3 1.3 11.8 2.1 9.8 5.6-13.3 1.5-9.6 1.5-45.1 0-55.5-4.4-31.1-10.9-53-23.6-79.9-1.5-3.1-2.5-6-2.2-6.2.3-.3 3.6 1 7.4 3 5.4 2.8 18 7.6 20 7.6 1.9 0-11.1-23-21.9-38.7-3.9-5.6-6.8-10.8-6.5-11.6.8-2.1 17.7-6.8 24.3-6.8l5.9-.1-2.7-2.3c-3.9-3.3-20-13.2-28.8-17.5-24.4-12.2-32.9-15.7-48-20-2.5-.7-5.6-1.6-7-2-1.4-.5-5-1.4-8-2-8.8-1.8-13.1-3.3-12.7-4.4.2-.6 1.2-1.2 2.3-1.4 1-.2 2.8-.7 3.9-1.2 3.1-1.3 7.6-2.7 12.7-4 4.7-1.2 21-.9 30.1.6 3.8.6 3.9.6 2.7-1.6-2.4-4.4-20.9-21.7-29.7-27.7-26.7-18.3-51.5-26.1-82.3-25.7-6.3 0-14.7.4-18.6.9-4.7.5-7.4.4-7.8-.3-.7-1.2 14.8-15.9 24-22.7 3.2-2.5 9.8-6.8 14.7-9.6 4.8-2.8 8.7-5.5 8.7-6s-.2-.9-.5-.9c-.2 0-4.8-1.1-10.2-2.5-24.7-6.2-40.4-7.9-67.3-7.1-11.8.3-23.3.7-25.5.8-2.5.2-4-.1-4-.9 0-1 11.4-10 18.8-14.8 1.5-1 2.6-2 2.3-2.2-.6-.7-9.4-1.1-10-.6zM2985.5 1080.2c-2.2 2.4-6 6.8-8.5 9.8-2.5 3-4.7 5.7-5 6-.3.3-3.3 4.5-6.7 9.5-5.9 8.8-14.2 23.9-17.5 32-4.4 10.9-7.6 23.5-6 23.5.4 0 4.8-4.1 9.7-9 5-5 12.4-11.6 16.5-14.8 7.1-5.4 16.9-13.1 18-14.2 1.4-1.4 15.8-12.8 25.9-20.4 10.6-8 12.1-10.2 5.4-7.5-1.5.6-3.7 1.5-4.8 1.9-2.6 1-8.6 3.6-13.2 5.7-2.1.9-6.7 3.4-10.2 5.5-6.6 4-7.6 4.3-8.5 3-.7-1.2 2.7-14.4 6.4-24.8 1.7-4.8 2.9-9.1 2.8-9.6-.2-.5-2.1 1-4.3 3.4zM2204.5 1152.1c1.6 4.9 32.9 54.1 38.8 60.9 6.3 7.1 26.2 26.1 26.5 25.2.9-2.8-16.5-38.8-24.1-49.7-7.9-11.4-24.6-28.5-33.1-33.9-8.2-5.2-9-5.5-8.1-2.5zM2017.5 1296.2c-12 2.3-31.3 7.9-39 11.3-1.6.7-4.6 1.8-6.5 2.6-1.9.7-10.9 4.9-20 9.4-15 7.4-21.4 10.7-35 18.3-2.5 1.4-7 3.9-10 5.5-15.5 8.5-39.4 26.8-47.6 36.3-10.9 12.6-20.4 29.1-24.1 41.9-8 27.6-8.8 35.4-4.2 40.4 4 4.2 8 2.6 18.4-7.4 23.7-22.7 40-35.7 67.1-53.6 8.8-5.8 16.5-10.8 17-11 2.6-1.1 12.5-7.2 13-8 1.4-2.4-17.2 3.9-26.9 9-12.4 6.6-17.8 10-27.2 17.1-4.9 3.7-11.2 8.1-14 9.7-6.9 4-17.5 8.6-18.2 7.9-2-2 8.6-17.9 19.5-29.1 14.2-14.5 28.9-23.7 61.7-38.5 8.8-4 20.3-9.3 25.5-11.7 12.6-6 27.8-12.9 31.5-14.3 1.1-.5 3.6-1.3 5.5-2s4.4-1.6 5.5-2c1.1-.5 6.1-1.9 11-3.1 7.6-1.9 11.8-2.3 27-2.3 11.1 0 20.1.4 23.5 1.2 3 .7 7.5 1.8 10 2.3 2.5.6 5.4 1.4 6.5 1.9 1.1.4 5.4 1.8 9.5 3.1 4.1 1.2 7.9 2.6 8.5 3.1.5.4 1.6.8 2.5.8.8 0 6.9 2.8 13.5 6.1 17.4 8.9 17.2 8.8 18.5 10.4.7.8 1.8 1.5 2.4 1.5.6 0 3.7 1.9 6.8 4.3 8.9 6.6 19.4 13.6 30.3 20.3 12 7.4 18.9 12.3 23.6 16.7 3 2.8 28.1 23.7 33.2 27.6 3.9 3.1 2.4 0-3-6.1-3.2-3.5-8.3-9.3-11.3-12.8-14.1-16.4-19.4-22.2-24.2-26.4-2.9-2.5-9.3-7.9-14.3-12.2-9.8-8.3-18.5-15.8-24.9-21.5-17.6-15.4-40.3-29.2-59.5-36.1-3.1-1-6.5-2.3-7.6-2.8-4.1-1.8-17.6-5.3-27.5-7.1-7.6-1.4-40.4-1.9-46.5-.7z"/><path d="M2040.5 1356.1c-4.4.4-10.2 1.3-13 1.8-2.7.6-6.7 1.4-8.8 1.7-2.1.4-4 1.1-4.3 1.5-.3.5-1.3.9-2.3.9-1 0-4.6 1.2-8.2 2.6-19.8 8-40 19.8-55.4 32.5-3.8 3.2-10.9 8.8-15.7 12.6-21.1 16.8-56.8 50.2-62.5 58.6-4.2 6.1-4.1 6.4 2.7 7 4.7.4 7.6 1.4 11.8 4 13.3 8.1 30 14 43.5 15.3 7.6.7 8.8-.4 3-3.1-9.1-4.3-19.9-13.3-24.5-20.4-2.3-3.8-2.8-5.5-2.8-11.1s.6-7.8 3.3-13.1c3.2-6.3 3.4-6.6 22.2-19.2 20.2-13.7 40.3-26.5 44.5-28.3 1.4-.6 4.3-2.3 6.4-3.8 5.8-3.9 21-11 29.1-13.6 3.9-1.3 7.9-2.6 9-3 8.8-3.3 26.7-5.3 42.5-4.7 17.2.6 24.5 1.7 38 5.6 1.9.5 4.6 1.3 6 1.6 1.4.4 3.4 1 4.5 1.5 1.1.4 4.7 1.8 8 3.1 33.8 12.7 83.9 50.8 101 76.7 4 6.1 6.5 9.2 6.5 8 0-1-4.5-11.9-6.9-16.7-6.9-13.5-29.4-39.4-48.6-55.7-18-15.3-47.2-31.1-67.5-36.6-22.5-6.1-40.7-7.8-61.5-5.7zM3027 1387c-7.8 1.1-13.1 2-16 3-1.4.4-4.5 1.4-7 2.1-4.5 1.3-5.8 1.9-20.5 9.9-12 6.6-21.6 13.7-42.5 31.5-14.8 12.6-25.6 21.1-32.6 25.6-3.5 2.3-6.4 4.5-6.4 5 0 1 4.6.2 8.5-1.6 1.6-.7 7.1-3.1 12-5.3 8.7-3.9 31.4-16.2 43.5-23.7 6.5-4 27.4-14.2 33.6-16.3 11.8-4.1 19.5-5.3 33.4-5.4 7.4 0 16.4.3 20 .7 7.1.8 24.7 4.1 29.5 5.5 21.3 6.3 33.8 10.2 42 13.4 2.2.8 8.1 2.9 13 4.7 5 1.7 11.8 4.5 15.3 6 3.4 1.6 6.4 2.9 6.7 2.9 2.1 0 27.7 13.3 35.8 18.6 21 13.8 32.4 23.8 45 39.7 10.5 13.2 11.4 14.9 10.8 21.4-.1 1.4-3.1 1.8-3.1.5 0-.4-1.5-2.3-3.3-4.2-1.8-1.9-9.6-11.2-17.4-20.5-14.5-17.5-16.6-19.7-23-23.9-4.7-3.1-12.1-5.8-12.8-4.7-.2.5 1.7 2.6 4.3 4.7 14.5 11.8 32.9 35.7 44.8 58.4 1.6 3 4.9 8.6 7.5 12.5 4.3 6.5 6.8 12.8 9.9 24.7 1.6 6 1.7 18.7.2 21.5-.7 1.2-1.2 2.7-1.2 3.3 0 1.9 5.2.2 8.3-2.8 4-3.8 5.3-7 8.6-21.5 1.3-5.7 1.5-28.5.2-33.6-.5-2-1.5-6.1-2.1-9.1-7.8-35.8-33.1-69.2-71.6-94.4-14-9.1-28.8-16.6-48.9-24.6-13.2-5.3-41.8-15.2-45.3-15.7-1.8-.3-3.5-.9-3.8-1.4-.3-.5-2-.9-3.9-.9s-3.6-.4-3.9-.9c-.3-.5-2.3-1.1-4.3-1.4-2.1-.3-6.3-1.1-9.3-1.6-15.3-2.9-40.7-3.9-54-2.1zM2292.6 1406.2c.4.7 4.2 5.8 8.5 11.3 8.3 10.8 12.4 18 18.3 32 7.3 17.2 12.7 27.1 19.4 36 23.5 31 21.4 27.3 25.3 44.5.6 3 2 7.4 3 9.8 2.1 4.8 2.4 10.9.9 15.6-.5 1.7-1.9 7.1-3 12.1-2.5 10.7-4 16.3-5 19-.4 1.1-1.4 4-2.1 6.5-.7 2.5-1.6 4.9-2.1 5.4-.4.6-.8 1.6-.8 2.3 0 .7-1.2 3.8-2.7 7-3.3 6.8-3.4 9.9-1.9 48.1.7 18.6 1.1 22.9 2.1 21.5.7-1 1.5-2.9 1.8-4.3.3-1.4 1.4-5.9 2.5-10 3-11.4 3.6-13 9.5-25.1 2.6-5.2 7.5-13.3 10.9-18 6.6-8.9 15.8-22.5 15.8-23.4 0-.3.9-2.4 1.9-4.8 3-6.6 3.3-7.7 4.5-15.7.8-5.6.8-9.5-.1-15.5-1.6-11.6-2.5-15.5-3.4-16.1-.5-.3-.9-1.4-.9-2.5 0-1-.4-2.7-.9-3.7-.5-.9-2.1-4.8-3.7-8.6-5.6-13.9-18.6-32.9-34.2-49.8-6.7-7.3-13.1-15.2-15.1-18.8-5.2-9-16.9-27.3-20.2-31.6-5-6.5-12.6-13.7-20.8-19.7-6.3-4.7-8.9-5.9-7.5-3.5z"/><path d="M2044.7 1412.6c-25.6 4.3-45.3 17-59.3 38.1-2.9 4.5-6.3 10.8-7.5 14-1.2 3.2-3.1 7.8-4.2 10.3-1.3 3-2.1 6.8-2.1 11.2-.1 6.1.2 6.9 2.9 9.8 5.3 5.6 5.3 5.6 46 14 45.1 9.3 73.4 13 101.1 13 5.5 0 12.5.4 15.5.9 3 .6 7.7 1.2 10.4 1.6 2.8.3 6.8.8 9 1 2.2.3 6.7.7 10 1 3.3.2 9.4.9 13.5 1.5 12.2 1.6 25.4 3 28.9 3 2.9 0 3.2-.2 2.1-1.5-4-4.8-26.6-11.5-44-13.1-8.9-.9-10.3-1.7-9.4-5.7 2.2-9.7.9-31.8-2.5-42.6-2-6.6-8.7-18.4-13.8-24.6-20.5-24.9-60.3-38.1-96.6-31.9zm34.4 38.4c12.3 4.5 17.9 11.4 17.9 22.1.1 5.6.4 6.8 3 9.9 3.7 4.3 3.8 7.9.4 12-5.1 6-15.2 8.1-24.2 5.1-6.1-2.1-8.8-4.3-11.1-9-1.3-2.8-2.5-3.7-6.1-4.6-10-2.6-19.3-9.3-20.9-15.2-4.5-16.3 19.4-28.2 41-20.3zM3012 1439.6c-14.1 1.5-19.9 2.6-31.5 6.1-11.3 3.4-24.1 9.7-32.3 15.7-9.7 7.2-27.4 24.6-25 24.6.2 0 4.6-3.2 9.8-7 17.4-12.8 38.7-22.1 57-24.7 6.9-1 45.8-1 52.5-.1 32.1 4.7 64.1 17.7 93.5 38.1 7.7 5.4 20.7 15.4 23.7 18.2.6.7 5.2 4.7 10.2 9 8.5 7.4 14.1 13.8 14.1 16.1 0 .6 3 4.6 6.6 9 11.6 13.8 18.4 26.2 19.2 35.1.4 4.3 0 6-2.1 9.5-3.4 5.7-5.7 7.8-15.2 13.3-7.7 4.4-7.8 4.6-4 4.1 2.2-.2 6.3-.9 9-1.5 14.5-3.1 26.7-5 36.3-5.7 5.6-.5 8.2-1.1 8.2-1.9 0-2.6-9.7-23.5-15.3-33-1.6-2.8-3.9-6.6-4.9-8.5-3.3-5.9-17.8-26.1-24.3-34-17.4-20.9-43.5-42.2-71.5-58.1-34-19.4-76-28.4-114-24.3zM1755.5 1443.2c-6.4 2.1-11.1 4.7-13.9 7.7-1.7 1.7-2.6 3.1-2 3.2.5.1 5.2.1 10.4.1 14.5-.1 26 3 34.5 9.1 4.5 3.2 6 5.3 4.5 6.2-.5.3-8.1 2.8-16.7 5.5-21.6 6.7-37.9 12.6-37.5 13.6.3 1 8.7.7 20.7-.6 19.5-2.3 26.2-3.1 28.5-3.6 1.4-.3 15.3-.8 31-1.1 15.7-.3 28.9-.9 29.4-1.3.5-.5-.9-1.6-3-2.5-4.3-1.8-19.3-11.8-29.9-20-8.7-6.7-23.1-14.1-31-16-6.9-1.6-20.6-1.8-25-.3zM2233.4 1496.6c.4 1.5 1.5 3.9 2.5 5.3.9 1.4 2.2 3.7 2.8 5.1.5 1.4 1.6 3.6 2.2 5 1.9 4 2 6.3.4 8.8-.8 1.3-1.2 2.6-.9 2.9.3.3 4.1.9 8.4 1.3 10.5 1.1 14.7 2.3 21.3 6.3 3.1 1.9 6.3 3.6 7.1 4 2.4.9 5.8-2.1 5.8-5.1 0-7.1-9.5-14.1-24.5-18.3-9.1-2.5-13.9-5.4-20.9-12.9-4.3-4.6-4.8-4.9-4.2-2.4z"/><path d="M3035 1505.2c-22.1 3.2-38.1 11.5-52.7 27.3-11.9 12.8-18.3 26.9-18.3 40.5 0 7.2-.8 8.3-5.1 7.5-8.6-1.6-18.4-2.2-30.3-1.9-7.1.3-13.2.6-13.5.9-.4.2-3 .7-5.7 1-9.3 1.3-30.4 6.8-30.4 8.1 0 .2 14.1.2 31.3 0 39.9-.5 44.1-.1 72.7 8.6 1.9.6 8.7 1.4 15 1.8 6.3.5 14.7 1.4 18.5 2 17 2.8 27.7 4.2 43.5 6.1 4.7.5 20.7 1.2 35.5 1.5 32.2.7 37.8 0 45.2-5.6l4.8-3.6-.2-6.4c-.5-13.4-7.4-32.4-16.7-46-4.9-7.3-16.4-19.2-23-23.9-11.5-8.2-29.7-15.6-43.7-17.6-7.1-1-20.8-1.2-26.9-.3zm29.2 33.9c2.9.5 6.7 1.5 8.3 2.2 5.3 1.9 13.5 7.9 15.5 11.2 2.7 4.3 2.6 10.5-.1 14-1.9 2.4-2.1 3.2-1.2 7 4 17.6-25.2 21.5-31.1 4.1-1.2-3.4-2-4.1-5.7-5.2-9.7-2.8-12.4-4.1-16.5-8.1-3.9-3.7-4.4-4.7-4.4-8.6 0-3.4.6-5 2.6-7.1 3.5-3.4 12.2-7.6 19.2-9.2 7.4-1.6 7.2-1.6 13.4-.3zM2886.2 1539.3c-10.4 9.8-14.6 13.2-23 18.1-6.1 3.5-22.7 9.6-26.2 9.6-.9 0-4.6.9-8.1 2.1-8.7 2.8-13.4 7.3-12.3 11.6 1 3.8 9.1 5.5 16 3.4 1.6-.5 5.6-1.4 8.9-2 18-3.5 28.9-6.7 24.6-7.2-.6-.1-1.4-.2-1.8-.3-.5-.1-2.7-.6-5-1-7.7-1.4-6.7-3.8 3.2-7.6 10.8-4.2 12.9-6.1 23.6-20.5 5.7-7.7 10.1-14.5 9.3-14.5-.3 0-4.5 3.7-9.2 8.3zM3355.5 1558.4c-7.7 2.1-19.1 8.4-31.3 17.2-14.2 10.3-24.2 16.7-29.2 19-6.6 2.9-1.6 3.6 24.3 3.2 23.1-.3 27.7 0 53.2 3.3 3.9.5 12.9 1.1 20 1.4 13.6.6 14.4.1 4.9-3-2.7-.9-5.8-2-6.9-2.5-3.3-1.5-26-8.6-38.2-12.1-2.4-.7-4.3-1.8-4.3-2.6 0-2.1 11.8-9.1 19.5-11.5 5.7-1.8 9.3-2.2 19.2-2.2 11.4.1 12.1-.1 11.2-1.7-1.2-2.3-8.4-7.1-13-8.7-4.4-1.5-23.8-1.4-29.4.2zM1851 1582.4c0 3 8.1 17.9 13.5 24.6 8.4 10.5 16.6 17.3 34 28.1 3.4 2.1 7.9 4.1 23 9.9 2.9 1.1 8.3 2.6 13.5 3.8 14.2 3.3 18.4 3.7 41 3.7 22.1 0 26.8-.4 44-3.6 12.4-2.4 32.8-6.9 35.5-7.9 1.1-.4 3.9-1.3 6.3-1.9 11.6-3 22.9-6.3 27.7-8.1 5.8-2.1 40.4-11.9 54.5-15.5 14.3-3.6 19-4.5 36.3-7.7 5.9-1 6.5-1.3 4.5-2.1-4.5-1.9-43.8-1.2-55.3.9-1.6.3-5.9 1-9.5 1.5-12.9 1.8-29.1 4.9-42 7.9-2.5.6-6.4 1.5-8.7 2.1-2.4.5-6.2 1.3-8.5 1.8-2.4.6-6.3 1.5-8.8 2-2.5.6-7 1.6-10 2.2l-10 2c-23.4 4.7-41.4 6.9-61 7.4-34.5 1-66.1-7.5-91.7-24.7-7.4-4.9-20.2-17.2-25.4-24.2-1.8-2.4-2.9-3.3-2.9-2.2zM2932 1673.8c0 1.4 15.2 15.6 27 25.2 3 2.5 5.7 4.8 6 5.1.3.4 9.7 6.9 21 14.5 33.1 22.2 56.2 32.2 93.5 40.4 13.4 2.9 47.2 3.8 60.5 1.5 31-5.2 54.3-15.9 70.8-32.6 6.3-6.3 14.3-16.7 15.5-20.2.7-2 .3-1.8-4.8 1.7-12.7 8.9-36.2 19.3-54.4 24.2-63.4 17-116.2 7-196.6-37.1-5.8-3.2-32.5-19.4-35.7-21.7-1.6-1.1-2.8-1.5-2.8-1zM2196.9 1843.8c-7.8 8-14.1 15.6-19.3 23.4-6 8.9-7.1 9.6-27.6 19.1-6.1 2.8-14 7.7-22 13.7-6.9 5.2-12.7 9.7-13 10-.3.4-3.2 2.8-6.5 5.4-13.7 11-58.7 57.2-78.1 80.3-7.3 8.6-11 12.9-26.7 31.1-14.9 17.2-14.4 17.5 4.3 3.3 9.6-7.3 38.7-31.5 41-34.1 2.2-2.5 20.6-17.8 29.6-24.7 24.1-18.3 48.6-31.7 68.1-37.3 5.8-1.7 6.2-1.7 7.7-.1.9 1 1.6 2.9 1.6 4.4 0 1.4.5 2.9 1 3.2.6.3 1 1.3 1 2.1 0 3.4 8.5 18.4 13.6 23.9 2.7 2.9 9.1 7.1 21.3 14 5.9 3.4 10.7 6.7 10.9 7.7.5 2.5-5.4 3.3-15.5 1.9-4.8-.6-8.8-.9-9-.7-.5.4 16 8.4 20.9 10.2 2.1.7 5.7 1.6 8 1.9 2.3.4 4.5.8 4.8 1 .6.4 14.6 1.6 22.5 2 8 .3 20.3-1.1 29.4-3.6 7.1-1.9 14.5-5.2 26.9-12 11.5-6.4 14.2-8.1 13.7-8.9-.3-.4-7.1-.8-15.2-.9-16.7-.1-24.9-1.1-49.8-6.1-14.5-3-36.2-12.4-46.2-20.2-6.3-4.8-15.3-14.4-17.3-18.5-.8-1.5-2.1-3.9-3-5.3-3.2-5-4.3-10.5-4.3-20.5 0-10.1.7-13.9 4.5-23 7.1-17.4 15.5-31.6 25.1-42.8 2.7-3.2 4.8-6 4.5-6.2-.2-.2-3.3 2.6-6.9 6.3zM2846.9 1897.4c8.4 12.2 12.9 28.2 12.9 46.2 0 23.4-7.2 41.6-22.7 57.3-15.5 15.6-37.6 26.9-56.2 28.6-8.3.8-10.5 2.1-9.5 5.9 1.2 4.8 17 15.3 31.7 21 11.3 4.4 16.3 6.8 24.8 11.8 3.5 2.1 6.6 3.6 6.8 3.4.6-.6-4.4-9.6-9.9-18-2.2-3.2-3.8-6.6-3.6-7.5.2-.8 1.7-2.2 3.3-3.1 12.3-6.2 22.6-13.1 29.1-19.3 11.1-10.5 16.4-21.3 19.4-39.5l1.2-7.4 5.2.7c8.7 1.1 12.8 2.5 22.3 7.7 10.9 5.8 16.6 10.1 28.7 21.8 13.7 13.2 29.8 34.7 40.3 53.9 2 3.6 5.3 9.3 7.3 12.6 2.1 3.3 6.6 10.9 10 17 6.2 10.8 21.8 35.9 28.9 46.3 2 2.9 4.3 6.3 5.1 7.6 3.8 6 9.3 13.7 10.1 14.1.9.6-4.8-10.4-8.5-16.3-1.2-2-5.3-9.6-9.1-16.7-3.7-7.2-8-15.3-9.5-18-1.5-2.8-9.3-18.1-17.4-34-37.4-74.2-44.4-85.6-64.3-104.6-4.9-4.7-15.8-13.2-24.2-19-24.9-17-26.7-18.4-28-22-2.2-5.7-3.4-8.2-7-13.9-3.4-5.5-17.7-21-19.3-21-.5 0 .5 2 2.1 4.4z"/><path d="M2312 1909.1c-20.8 2.1-35 13-35 26.9 0 6.6 7.3 15.9 13.8 17.4 6.4 1.6 12.2 2.7 19.7 3.6 16.8 2 30 4.1 38.5 6 14.8 3.4 36 4.6 45.3 2.7 3.5-.8 3.9-.5 8.5 4 4.8 4.8 5.4 6.2 7.6 18.3 1.9 10.4 6 18.7 13.3 26.8 11.4 12.8 30.2 21.4 55.3 25.2 8.1 1.2 34 1.5 41.7.5 2.7-.3 6.2-.8 7.8-1 35.8-4.8 64.4-23 79.2-50.2 2.1-3.8 3-7.3 1.9-7.3-.3 0-4.1 1.8-8.5 4s-8.5 4-9.1 4c-.7 0-2.6.6-4.3 1.4-8.2 3.6-26.9 10.7-33.7 12.6-13.1 3.9-22.4 4.9-39.5 4.6-22.7-.5-43-5.2-56-12.9-1.1-.7-4.5-2.7-7.6-4.4-6.4-3.8-14.9-12.3-17.2-17.3-4.2-9.6-4.6-14-1.7-18.8 2.8-4.6 2.5-7.3-1.5-11.9-4.5-5.2-23.4-16.4-36.2-21.4-1.3-.5-3.3-1.3-4.5-1.8-1.3-.5-4.1-1.5-6.3-2.2-2.2-.6-4.9-1.5-6-2-1.1-.4-3.3-1-5-1.4-1.6-.3-4.8-1-7-1.6-2.2-.5-6.7-1.4-10-1.9s-6.9-1.1-8-1.4c-3.1-.9-28.2-1.2-35.5-.5zM2676.5 1945.7c-19.6 2.5-42.2 10.5-55.3 19.5-14.6 10-5.4 18.1 21.2 18.7 4.8.1 9.7.5 10.9.7 1.2.3 6.7.8 12.2 1 14.3.6 22.1 1.3 29.5 2.5 9 1.5 47 1.6 54.5.2 10.1-2 13.7-3.4 16.7-6.3 4.7-4.8 3.3-12.3-3.4-17.3-16.8-12.7-42.2-19.8-69.2-19.6-7.8.1-15.4.4-17.1.6z"/><path d="M2321.4 2009.4c-6.1 1.9-16.8 9.3-26.9 18.6-15 13.8-27 20.8-51.5 29.8-7.4 2.8-15.3 5.8-17.5 6.7-4.8 2.1-23.1 8.6-33.5 12.1-4.1 1.3-8.3 2.9-9.2 3.4-1 .6-2.6 1-3.7 1-1 0-2.3.6-2.9 1.3-.9 1.1.9 1.6 9.6 2.6 5.9.8 11.3 1.6 11.9 1.8 2.3.9 1.4 3.2-1.4 3.9-1.6.3-3.9.9-5.3 1.4-7.9 2.5-21.8 4.2-44.5 5.5-21.1 1.1-27.6 1.7-38.2 3.5-12.1 2.2-22.6 5.5-31.3 10.1-6.5 3.5-11.8 7.5-10.9 8.4.4.3 4.9.2 10-.4 5.2-.5 9.7-.7 10.2-.4 1.8 1.1.4 4.5-3.5 8.7-5.7 5.8-15.9 10.4-29.3 13.1-3.7.7-11.6 2.4-17.5 3.6-5.9 1.3-12.2 2.6-18.7 3.8-8.3 1.5-9.1 2.6-4.3 5.4 1.7 1 3 2.1 3 2.5 0 .4-2.1 1.8-4.7 3.2-2.7 1.3-16 9.9-29.8 19-26.7 17.8-26.9 17.9-38.9 21-4.4 1.2-9.8 2.9-12 4-5.1 2.3-23 13.4-31.1 19.2-8.6 6.2-23.3 21.1-29.3 29.7-5.3 7.5-6.7 10.7-3.4 7.9 2.3-2.1 9.9-5.5 14.1-6.3 3-.7 3.3-.5 2.6 1.1-.4 1.1-1 2.9-1.2 4.2-.3 1.2-.9 2.5-1.4 2.8-.5.3-.9 1.2-.9 2 0 3.6-17 35.7-28.3 53.4-3.3 5.2-7.9 12.4-10.2 16-9.3 14.5-12.1 22.3-15.4 41.5-2.8 16.1-4.5 22-9.7 33.1-8.2 17.6-9.2 19.8-11.4 25.4-1.2 3-2.8 7.5-3.6 10-.8 2.5-1.9 5.4-2.4 6.5-.4 1.1-1.1 3.1-1.5 4.5-.3 1.4-1.5 5.9-2.6 10-3.4 12.6-5.4 22.5-7.3 37-1.5 11.3-1.9 30.1-.7 35l.8 3.5.7-3c5.3-23.1 11.1-37.4 20.8-51.8 5.6-8.3 7.2-7.6 4.4 1.9-6.9 23.5-6.3 45.1 2.4 93.4 5.8 32 6.5 38.2 6.5 58 0 16.6-.9 25.2-3.5 35.3-1 3.9-1.7 7.3-1.6 7.5.2.1 4-5.1 8.5-11.8 4.5-6.6 8.5-12 9-12 1.5 0 2.1 1.3 1.1 2.5-.5.6-1.2 7.6-1.6 15.6-.4 9.9-1.3 17.7-3 24.9-3.2 13.7-4.1 17.5-5.4 23.5-1.7 8.3-5.8 28.8-6.5 32.5-.3 1.9-2.6 11.8-5.1 22-6.9 28.1-13.1 45.8-22.6 64.5-3.3 6.6-15 24.8-17.9 28-2.7 3-17.6 21.9-24 30.5-22.4 30-30.5 57.3-24.4 81.4 1.9 7.1 2 7.4 4.5 5.8 4.7-2.9 11.2.4 13 6.6 3.1 11.3-.6 39.5-8.2 61.7-5.2 15.4-21.5 49.2-26.9 56-1.8 2.2-10.9 17.3-10.9 18 0 .3-4 6.9-8.9 14.7-20.6 33.3-34.9 60.2-42 79.3-1.3 3.3-3.1 8.2-4.2 10.9-1 2.7-1.9 5.7-1.9 6.7s-.4 2-.9 2.3c-.5.3-1.1 2.3-1.4 4.3-.3 2.1-1.1 6.3-1.7 9.3-1.5 7.4-3.3 25.1-2.6 25.7.3.3 6-4.7 12.7-11.1 6.7-6.4 12.8-11.6 13.5-11.6 1.9 0 2.2 1.9 1.8 12.8-.6 16.3-.5 16.1-14.5 36.2-10.4 15-20 33.5-32 62-11.4 27.3-19.1 40.3-30.8 52.4-6.3 6.5-17.3 14.6-21.9 16-3.1 1-2.7 2.4.6 1.9 11.4-1.7 33.5-9.2 46.4-15.7 8.9-4.5 28-16.4 29.8-18.5.3-.3 2.4-1.9 4.8-3.5 7.4-5.1 7-3.6-5.4 19.4-2.6 4.7-10.6 20.3-17.9 34.6-7.4 14.4-16.2 31.5-19.6 38-13.3 25.5-21.7 42-22.4 44.4-.5 1.8 1.7.2 8.2-6 4.9-4.7 11-10.1 13.6-12 2.6-1.9 5.3-4 6-4.6.7-.5 5.4-3.9 10.6-7.3 6.6-4.5 9.6-6 10.4-5.2.8.8.7 1.7-.1 3.3-.6 1.3-3.1 8.1-5.6 15.3-2.4 7.1-6.7 18.4-9.4 25-2.7 6.6-5.1 13.2-5.5 14.5-1.6 6.8-4 16.9-4.7 20-3.3 13.1-3.3 62 0 62 .3 0 1.4-1.7 2.4-3.8 2.8-5.8 15.4-26.8 19-31.5 1.7-2.3 5-6.9 7.3-10.2 4.7-6.9 25.8-31.2 30-34.4 1.6-1.3 2.9-1.8 3.1-1.2.2.6-2.1 6.5-5.2 13.1s-5.6 12.4-5.6 12.8c0 .4-.6 1.8-1.3 3.2-.7 1.4-3.2 8.6-5.6 16-2.3 7.4-4.6 14.4-5.1 15.5-.5 1.1-1.1 3.3-1.5 5-.3 1.6-1.1 5-1.6 7.5-3.1 13.8-4.7 25.8-5.8 43-1.1 15.5-.5 41 1 49.9.5 3 .9 7.6.9 10.2 0 2.6.5 5.1 1 5.4.6.3 1 2 1 3.7 0 3.1 1.5 8.7 3.1 12 .5 1 .9 2.6.9 3.6s.4 2.2.8 2.7c.5.6 2.3 5.7 4.1 11.5 5.1 16.3 5.3 16.6 6.2 10 .4-3 .9-8.3 1.2-11.7 1.1-11.1 7.2-30.6 9.9-31.1 1.5-.3 6.4 12.6 16.8 43.8 2.2 6.9 4.5 13.4 5 14.5.5 1.1 1.6 4.4 2.5 7.2.9 2.9 2 5.3 2.4 5.3.4 0 2.1-2.4 3.6-5.3 1.6-2.8 4-7 5.4-9.2 1.5-2.2 3.2-5.1 3.9-6.5 2.4-4.5 23.9-32.1 32.2-41.1 4.5-4.9 8.9-8.9 9.9-8.9 1.4 0 2.2 1.8 3.9 8.7 8.1 33.3 6.5 70.4-4.4 101.7-1.3 3.8-2.4 7.1-2.4 7.4 0 .6 2 0 12-3.8 4.7-1.7 10.5-3.8 13-4.6 2.5-.8 5.4-1.9 6.5-2.3 5-2.2 47.2-14.9 59.5-18 4.7-1.2 10.1-2.6 12-3.1 5.9-1.6 16.6-4 17.4-4 .9 0-.2 7.5-1.4 10-.4.8-1.3 2.8-2 4.5-5.7 13.7-13.6 25.7-24.4 37.2-4.7 5-8.6 9.3-8.6 9.5 0 .2 5.3-.7 11.8-2 14.1-2.8 34.7-9.5 45.7-14.9 19.8-9.7 33.5-11.3 49.5-5.9 14.1 4.8 21 11 21 19 0 5.4-2.4 8.7-14.5 20-5.9 5.4-12.3 12.2-14.4 15-4.2 5.7-8.5 13.5-7.8 14.3.3.2 2-.2 3.8-.9 10.8-4.4 44.8-9 65.3-8.7 8.1 0 15.5.3 16.6.6 3.5.9 2.2 3-4.7 7.6-11.7 7.7-23.1 11.9-38.5 14.2-2.1.3-3.8.9-3.8 1.4 0 .7 3.5 1.2 26.5 4 9.5 1.2 36.6 1.2 40.7.1 7.7-2.3 19.2-3.1 23.7-1.8 6.7 2 10.2 6.9 10.2 14.2 0 3.9-.5 6.4-1.9 8.3-3.6 5.3-3.7 5.6-1.1 5.1 17.6-3.8 26.7-5.2 46.9-6.8 18.4-1.4 31.4-2.9 38-4.1 8-1.6 22.3-5.1 24-6 5.3-2.6 11.6-4.6 12.4-3.9 1 1-3.1 10.2-7.3 16.1-1.8 2.4-5.5 6.8-8.3 9.7-2.8 2.9-4.9 5.4-4.7 5.6.4.4 14.3-4.9 19.4-7.3 1.1-.6 7.3-3.5 13.7-6.5 13-6.1 25.6-13.3 42.8-24.5 12.6-8.2 22.6-13.1 26.5-13.1 8.5 0 8.7 14 .4 30.6-4.1 8-9.4 14.2-16.8 19.7-11.1 8-17 16.4-17.1 23.9 0 2.1.3 3.8.8 3.8.4 0 3-1.3 5.7-2.8 2.8-1.6 7.7-4.3 11-6.1 7.1-4 23-14.4 45.2-29.8 9-6.2 16.9-11.3 17.6-11.3 1 0 1.3 2.3 1.1 10.7-.4 18.2 3.1 33.4 11.8 50.8 3.6 7.3 10.1 16.9 13.2 19.4 1 .8 1.1-.3.8-5-.4-4.7.1-7.5 2.3-13.4 3.3-9.2 7-14.4 13.1-18.6 6.5-4.5 11.6-6.2 28.7-9.9 26-5.5 46.5-15 55.7-25.9 1.9-2.2 3.8-3.8 4.2-3.5 1.5 1-5.2 15.4-10.6 22.7-6.9 9.3-12.7 14.3-27.2 23.4-1.6 1-1.4 1 1.1.3 1.7-.5 5-1.4 7.5-2.1 9.4-2.5 10.6-2.8 14.5-3.8 8.2-2.1 22.2-6.3 29.5-8.8 11.4-3.9 43.2-20 66.7-33.9 1.7-1 3.5-1.6 3.8-1.2.7.7-8.2 14.5-12 18.8-2.5 2.8-18.5 25.7-18.5 26.5 0 .3 2.8-1.5 6.3-4.1 13-9.6 31.2-16.9 51.7-20.9 17.6-3.5 28.7-10.2 38-22.9 3.3-4.5 6.8-9.2 8-10.6l2-2.5-.6 8c-.9 12.4-4.3 24.1-10.3 35.5-14.3 27.2-18.9 35.3-23.7 41.5-3.7 4.9-2.9 4.9 5.1.2 2.8-1.7 7.3-4.2 10-5.7 2.8-1.5 6.7-3.7 8.8-4.8 2-1.2 5.4-3.1 7.5-4.3 2-1.2 4.2-2.5 4.7-2.9.6-.4 2.8-1.8 5-3s11.1-6.3 19.8-11.4c13.9-8 42-24.3 51.6-29.8 2.5-1.4 3.7-1.6 4.5-.8 1.6 1.6 1.4 28.5-.3 34.1-.7 2.4-1.7 6-2.3 7.9-.5 1.9-1.8 5.4-2.9 7.7-1 2.4-1.9 4.7-1.9 5.1 0 .5-1.8 3.7-4.1 7.2-2.2 3.4-3.8 6.5-3.5 6.7.3.3 2.7-1 5.3-3 15-10.9 32.5-21.4 49-29.2 13.3-6.3 18-8.1 18.9-7.2 1.1 1.1-2.7 8.7-7.8 15.4-5 6.7-4 7.1 3.2 1.4 15.3-12.1 31.1-31.1 40.4-48.6 1.5-2.8 3.5-6.4 4.5-8 .9-1.7 2.6-5.2 3.6-7.8 1-2.7 2.4-5.1 3.2-5.4 1.7-.6 10 6.1 21.9 17.7 13.8 13.5 19.6 20.1 28.6 32.6 4.5 6.3 8.6 11.4 9.1 11.4.6 0 .8-12.4.4-32.8-.3-18.6-.2-33.5.4-34.3.6-1 1.3-1.1 2.3-.4.7.5 6.3 4.6 12.4 8.9 17.4 12.6 37.3 24.2 54.2 31.9 3 1.4 7.2 3.3 9.3 4.2 2.1 1 4 1.5 4.2 1.3.5-.4-2.3-4.3-7.2-10.2-4.9-5.9-13.6-20.7-16.3-27.8-5.3-13.8-4.3-30.7 2.5-42.4 2.7-4.6 10.3-11.4 12.7-11.4 1.4 0 10.8 15.4 19.5 32 1.6 3 6.9 12.7 11.8 21.5l9 16 .6-4.5c.7-5.2 2.9-11.8 7-20.7 6.6-14.5 7.5-21.3 5.5-42.5-1.4-14.3.1-18.5 12.9-34.8 13.8-17.6 14.7-18.9 17.1-24.9 1.3-3.1 2.7-5.7 3.3-5.9 1.2-.4 3.4 3.9 9.6 18.8 2.6 6.3 6.1 14.3 7.6 17.7 1.6 3.4 2.9 6.6 2.9 7.1 0 1 1.6 4.3 3.5 7.2.6 1.1 1.4-1.4 2.7-8.5.9-5.5 2.1-12.1 2.7-14.6 1.1-5.2 5.8-17.7 7.5-19.9.7-.8 2.5-4 4-7.1 1.6-3 6.5-10.8 11.1-17.2 13.8-19.5 14.3-21.1 14.9-54.2.3-13.2 1-26 1.6-28.5 3.6-14.4 8.9-15.5 17.4-3.6 5.6 7.7 14.9 27 16.6 34.3.6 2.9 1.5 5.3 2 5.3 2.4 0 15.7-17.3 19.2-25 5.7-12.6 6.2-14 8.9-24 2.8-10.5 4.7-23.8 5.5-39.5.9-17 2.4-31.6 4.4-42 1-5.5 2.1-12.5 2.4-15.5 1.3-11.6-3-24.9-12.4-39-3.1-4.7-9-14.8-13-22.5-4-7.7-8.4-15.7-9.7-17.7-2.2-3.6-3-6.8-1.6-6.8s11.7 8.6 16 13.4l4.6 5.1-.8-4c-1.2-6.7-1.5-31.7-.4-36.5.6-2.5 1.1-11.5 1.1-20 .1-17.5-1.3-23.9-7.1-32.5-3.5-5.2-3.3-6.5 1-6.5 5 0 14 5.1 20.2 11.3l5.7 5.8-.5-11.8c-.8-17.6-1.4-23-3.6-31.3-2.4-9-7.6-24.8-8.9-27.2-.6-1-1-2.5-1-3.3 0-.8-.4-2.3-.9-3.3-.4-.9-1.9-5.1-3.2-9.2-1.3-4.1-3.5-10.4-4.9-14-12.2-30.3-16.3-51-10.1-51 2.1 0 8.3 3.8 9.9 6.1 2.6 3.8 3.5 2.5 5.6-8.5 2.4-12.3 2.8-14.7 4-29.1 1.8-19.9 1-43-2.4-73.5-.5-4.7-1.2-14.1-1.5-21-.9-21.3-3.7-34.9-9.3-45-3-5.6-10.6-15.5-21.2-28-16.4-19.3-18.1-24.3-17.8-55 .2-22.4.2-22.5-2.6-30.5-2.7-7.5-9.5-21.2-17.5-35.5-4.1-7.2-10-21.5-12.4-30-4.1-14.4-5.1-23.2-5.1-44.5 0-29.4 2.9-47.7 16.8-104.7 3.5-14.5 7.5-31.4 8.7-37.7 1.5-7.2 2.9-11.6 3.8-11.9 1.6-.6 5.5 3.6 10.7 11.6 1.9 2.9 3.8 5.1 4.3 4.8.5-.3.4-2.7-.2-5.3-.5-2.7-1-14.7-1-26.8-.1-18.7.3-23.8 2.2-34 4.3-23.2 7.1-31.3 20.3-58.5 6.1-12.4 11.9-24.8 13-27.5 3.7-9 6.8-18 6.8-19.3 0-.8 3.1-5.9 6.8-11.5 14.4-21.5 31.4-60.7 36.3-83.7 5.6-26.1 7.4-41.3 7.4-64.5-.1-17-1.2-32-3.6-44.5-.5-3-1.3-7.5-1.7-10-.6-3.9-1.9-5.7-2.3-3.3-.1.5-.7 2.8-1.4 5.3s-1.8 7.2-2.4 10.5c-1.8 8.5-3.3 13.5-4.2 13.5-.5 0-1.1-1.7-1.4-3.8-2.6-16-9.4-37.9-15.7-50.6-13.9-27.8-34.7-51.5-58.3-66.5-6-3.8-7.4-3.9-4-.4 7.9 8.3 17.3 27.1 14.4 28.8-1.7 1.1-13.2-10.4-34.6-34.5-36.5-41.1-52.3-55-73.7-65-10.4-4.9-13.1-5.2-9.4-1.3 4.3 4.8 6.5 8.6 8.2 14.2 2 6.7 2 7.1.1 7.1-3 0-40.2-15.7-53.5-22.6-7.9-4-24.7-14.7-26-16.4-1.8-2.4-22-15.6-29.5-19.3-10.6-5.3-26-10.7-30.2-10.7-4.2 0-14.8-4.3-19.8-8.1-2.8-2.1-5.5-3.9-5.8-3.9-.3 0-.3 2.2 0 4.9.5 4.5.3 5-2.1 6.6-2.5 1.7-2.8 1.6-8.4-1.1-4-2-9.3-6.3-18.2-15.1-6.9-6.8-13.8-14-15.3-16.1-8.3-11-42.4-45.6-53.2-53.9-4.4-3.4-10.2-8.3-13-10.8l-5-4.6 7.3.5c3.9.3 7.2.2 7.2-.2 0-1.2-16.4-17.8-19.5-19.7-1.6-1.1-5.4-3.7-8.3-5.8-12.7-9.2-24.6-12.9-40.7-12.6-11.4.2-22 2.5-31.2 6.9-9.1 4.2-21.7 17.1-26.6 27-3.8 7.8-6.7 18.1-6.7 23.8 0 4-3.8 8.2-7.3 8.2-1.3 0-5.1-1.4-8.3-3-7.4-3.8-12.6-5.2-15.7-4.5-2.1.6-2.5 1.4-2.9 5.6-.7 6.8-3 9.2-8.3 8.5-10.6-1.6-24.8-2.4-31.7-1.9-7.7.6-16.5-.6-24.5-3.2-8.6-2.9-15-7.2-24-16.2-13.3-13.2-15-13.8-21.3-7.4-4.2 4.3-6.1 4.6-12.6 1.5-5-2.4-14.9-11.9-21.5-20.5-6.2-8.1-6.7-10.6-2-9.3 1.4.3 4.3 1 6.3 1.4 3.2.6 3.6.5 2.8-.9-.4-.9-9.8-10.4-20.7-21.1-24.5-24.2-39-34.3-54.8-38.5-7.1-1.8-22.4-1.9-28.1-.1zm108.1 180.6c.3.6.2 2.5-.4 4.3-2.7 8.7-3.4 11.8-2.9 12.2.3.3 3.2-.6 6.4-2 8-3.6 22.8-8.9 28.7-10.3 5.9-1.5 18.4-1.6 19.2-.2.4.6-.7 2.6-2.4 4.5-3.8 4.4-6.6 9.5-5.1 9.5.6 0 2.3-.6 3.8-1.4 9.8-5 26-1.9 40.5 7.9 2.8 1.9 5.5 3.5 5.8 3.5.4 0-.1-2.1-1.1-4.8-1.8-4.9-1.7-7.2.5-7.2 1 0 14.4 6 27 12.1 1.1.6 3.4 3.1 5 5.7 4.8 7.6 15 17.7 25.5 25.2 10.7 7.7 15.5 10.4 16.8 9.6.5-.3 1.1-6.4 1.4-13.7.4-8 1-13.5 1.8-14.2 1.2-1.3 3.6 1 9.6 9.5 1.7 2.3 5.3 7.4 8 11.2 2.7 3.8 6.2 8.3 7.7 10l2.8 3.1-.7-9.5c-1-13.9-1-16.3.2-16.7.6-.2 5.3 3.6 10.4 8.4l9.3 8.7-.7-6.4c-1.8-18-1.9-20-.3-20 .8 0 3.9 2.4 6.8 5.2 4.4 4.3 6.8 8.1 12.3 19.3 3.8 7.7 9.6 18.9 13 24.8l6.1 10.9.3-7.1c.2-5.2.7-7.1 1.7-7.1 2.4 0 12.2 9.8 19.6 19.8 4 5.3 9 12 11.2 14.9 4.1 5.5 12.1 13.3 13.5 13.3.5 0 1.2-1.8 1.6-4.1 1.2-7.6 8.3-19.1 12.5-20.2 3.7-.9 5.8 2 9.6 13.4 1.9 6.1 4.9 13.1 6.5 15.4 3.5 5 13 13.6 14.2 12.9.5-.3.6-2.1.2-4-.7-3.6 1.2-18.1 2.6-20.4 1.6-2.5 3.8-.1 6.5 7.1 4.7 12.1 14.5 28.4 27.1 44.9 9.1 11.9 27.4 31 28.1 29.2.4-1.1-2-21.2-3.4-28.5-.4-1.8-.1-2.7.7-2.7 1.4 0 7.4 6.1 12.3 12.7 1.8 2.3 3.5 4.3 4 4.3.4 0 .7-3.6.7-8 0-6.4.3-8 1.5-8 .8 0 2.2 1.7 3 3.7 2.4 5.6 9.1 15.9 16.5 25.3 6.6 8.2 17.8 18.5 27 24.7 6.1 4 16.2 9.5 16.7 9 .5-.6-4.3-8.8-10.2-17.4-3.9-5.6-5.5-9.3-4.1-9.3.2 0 4.6 2 9.7 4.3 5.2 2.4 12.1 5.4 15.4 6.6 3.3 1.3 6.8 2.7 7.7 3.2 1 .5 2.2.9 2.8.9.6 0 2.9.8 5.3 1.9 2.3 1 5.8 2.4 7.7 3.1 12.7 4.7 38.2 19.1 52.5 29.8 4.4 3.4 8.1 5.9 8.3 5.7.8-.8-7.2-14.2-13-21.7-1.8-2.2-2.4-3.9-1.8-4.3 1.1-.7 4.8 1.8 21.2 14.7 5.8 4.5 20.5 15.9 32.6 25.3 12 9.3 23 18.6 24.4 20.5 3.3 4.5 5.6 11.3 6.8 20.3 2.1 15.4 3.1 16.3 4.8 5 1.3-7.9 2.2-10 4-8.9 3.2 2 16.7 30.4 17.8 37.7.4 2-.1 5.2-1.1 7.9-8.6 23.2-28.5 103-34.5 138.5-2.2 13.2-3.4 13.7-4.4 1.8-1.3-14.5-6.8-38.7-9.6-41.6-.4-.5-1 5.8-1.3 14-.4 10.7-1.2 17.7-3 25.3-2.5 10.5-13.8 44.2-15.5 46.3-3.5 4.3-17.6 45.6-20.1 58.7-.6 3-1.5 7.9-2.1 10.8-.5 2.9-1 11.3-1 18.6 0 14-.5 16.4-5 26.1-1.6 3.3-5.6 13-9 21.5-13.4 33.6-22.1 47.3-36.5 57.9-14 10.2-27.6 13.9-38.5 10.7-2.9-.9-5.6-1.4-5.8-1.1-.3.3.7 3.5 2.1 7.2 2.9 7.4 7.5 21 8.8 25.8 2.4 9.2 3 11.4 4 16 3.3 15 4.7 22.7 5.5 30.7.9 7.8-.6 7.5-7.9-1.5-13.4-16.8-34.6-38.5-36.5-37.3-.8.4-.3 5.9 1.3 15.6 2.5 15.5 11.2 43.9 18.1 59.8.8 1.7 2.1 4.9 3 7 2.6 6 8.3 16.9 13 24.9 6.1 10.4 5.9 11.8-1.4 8.7-2-.8-6.4-2.4-9.7-3.6-7.3-2.4-16.1-8.6-24.3-16.9-4.1-4.2-6.2-5.8-6.2-4.6 0 3.5 6.3 15.5 15.4 29.2 9.3 14.1 11.8 19 15.6 32 1.1 3.8 2.5 8.4 3 10.1.6 1.7 1 4 1 5.2 0 1.1.4 2.3.9 2.6.5.3 1.2 2.2 1.5 4.1.3 1.9.9 5.1 1.2 7 .9 5-.8 4.6-13.7-3.3-15.8-9.6-32.5-22.2-46.8-35.3l-12.3-11.3.7 6.5c1 7.8.9 31.9-.1 48.9-2.3 36.3-.1 57.7 7.6 74.4 1.7 3.5 3 6.7 3 7 0 2.2-6.9-1.1-14.9-7.1-12.2-9.1-22-19.2-48.2-49.5-2.8-3.2-5.9-6.2-6.9-6.8-1.7-.9-1.8-.8-.8 2.3 5.9 18.6 6.9 35.4 3.3 58.7-1.4 9.9-3.7 18.2-5.2 18.7-.8.3-3-.9-5.1-2.9-2-1.9-7.3-6-11.7-9.1-9-6.2-11.7-8.9-16.9-16.7-2-3-3.6-4.9-3.6-4.2 0 1.1 4.4 13.6 7 19.7.4 1.1 1.6 4 2.5 6.5 2.9 7.7 8.5 19.7 19.5 41.5 12.2 24.1 18.9 35.8 30.6 53.8 8 12.2 10.2 16.8 7 15-1.8-1-11.5-10.1-34-31.6-9.8-9.5-19.7-18.9-22-21.1-2.3-2.1-10.8-10.2-19.1-18.1-18.7-17.9-23.6-21.9-30.5-25.4-7.4-3.8-14.1-5.1-26.2-5.1-10.8 0-20.5-1.3-27.7-3.6-26.4-8.7-51-32.2-71.7-68.7-3.7-6.5-7.3-12.6-8-13.5-2.4-3.2 6.2 20.5 12.1 33.3.7 1.7 2.2 5 3.3 7.5 8.6 20 19.7 42.6 34 69.3 4.4 8.2 1.9 7.7-12.8-2.9-14.9-10.6-26.4-20.6-40.3-34.8-14.9-15.3-24.8-27.2-34.6-41.9-6.7-10-9.1-12.9-9.1-11 0 2.3 2.1 28.2 2.4 30.8.5 3.8 3.4 26.5 4.2 32.5.6 5 3.2 24.6 4 30 .2 1.9 1.1 7.8 1.9 13 .7 5.2 1.7 13.3 2 18 .4 4.7.9 9.4 1.1 10.5.8 3.8 1.7 64.1 1 66.8-.8 3.3-1.9 3.4-3.4.4-.6-1.2-3.1-6.5-5.6-11.7-5.6-11.7-8.2-16.1-15.7-27-11.7-17-30.4-38.5-52.8-60.4-5.5-5.5-10.1-10.6-10.1-11.3 0-1 2.1-1.3 8-1.3 4.4 0 8-.3 8-.8 0-.4-1.3-2.3-2.8-4.2-5.7-7.1-18.2-30.6-18.2-34.3 0-.7-.4-1.7-.8-2.3-.5-.5-1.3-3.2-1.9-5.9-1.1-4.7-1.6-8-4.3-28.5-1.7-12.2.4-44.7 3-47.4.9-.9 1.4-.4 9.1 9.9 13.8 18.4 34.3 39.4 38.7 39.5 1 0 .8-1-.6-3.8-3.1-5.9-3.9-8.1-7.3-18.7-1.7-5.5-3.5-10.9-3.9-12-.4-1.1-1.3-3.8-1.9-6-.6-2.2-2-7.2-3.1-11-1.2-3.9-2.5-8.6-3-10.5-2-8-3.2-12.7-4.1-15.6-.5-1.7-.9-4.1-.9-5.4 0-1.2-.4-3.9-1-5.9-1.4-5.3-4-19.9-5.4-30.1-.4-2.5-.9-5.9-1.1-7.5-2.4-15.9-3.7-36.7-4.2-66.2-.5-32.7-.3-39.3 1.6-39.3.4 0 1.5 1.9 2.3 4.2 7.2 20.7 12.8 48.5 12.8 64.4.1 7.9.1 7.9 1.6 4.5 2.2-5.1 2.8-27.6 1.3-48.1-1.9-26.4-2.2-45.9-.9-50.5 2.7-9 8.8-11.1 14.6-5 8.2 8.8 10.9 21 12.4 56 1 25.1 2.7 36.9 6.5 47.2 6.1 16.1 17.3 30.9 32 42 4.3 3.3 14.4 8.7 15.1 8.1.2-.3-1.8-3.3-4.5-6.9-12.1-16.1-20.3-33.1-24.6-51.2-1.7-7.4-.3-8.3 5.5-3.7 5.9 4.7 17.5 8.9 26.5 9.7 4.4.3 7.5.2 7.5-.3s-3-3.9-6.7-7.4c-14.4-14-28.7-36.7-34.7-55.3-4.8-15.1-6.1-23.2-6.1-39.7 0-15.3 0-15.6 3.2-22.2 3.7-7.9 6.7-10.2 13.2-10.1 5.5.1 9.3 1.8 17.4 7.9 3.1 2.4 6.1 4.4 6.6 4.4s5.8 4.9 11.8 10.8c7.2 7.2 13.5 14.7 18.8 22.6 11 16.1 11.6 16.9 12.7 15.8 1.1-1.1 0-9.3-3.3-25.7-.5-2.8-1.4-7.3-1.9-10-.5-2.8-1.4-7.7-2-11-3.3-17.6-4.6-32-3.2-32.9 1.3-.8 20.2 11.5 35.1 22.7 5.2 4 16.2 13.7 24.4 21.7 16.8 16.2 16.3 16.3 11.1-.5-9.1-29.3-23.7-55.4-43.6-77.7-10.2-11.4-10.2-11.3 12.2-11.2 14.6 0 19.8.4 24.5 1.8 14 4.1 21 7.6 29.8 14.9 4.7 3.9 4.7 3.9 3.7 1.1-3.3-8.8-11-20.3-18.5-27.9-13.8-13.8-28.5-19-55.3-19.4-5.8-.1-10.8-.4-11.1-.5-.3-.2-4.6-.7-9.6-1-18.1-1.4-38.3-7-54.5-15.1-10.6-5.3-22.3-13.3-30.7-20.9-7-6.5-10.1-8.2-8.9-5 1.5 3.8 2.8 21.7 2.2 30.4-.9 14.6-5 28-8.5 28-3.7 0-15.4-15-20.6-26.5-1.5-3.1-2.8-5.5-3-5.3-.1.1-.5 2.5-.9 5.3-1.5 12.9-7.9 28.5-15.9 39.1-5.4 7-15.1 16.4-23.5 22.6-20.9 15.4-25.4 18.9-31.6 24.8-3.7 3.6-8.2 8.5-9.8 10.8-5 7.2-4.6 10.6-6.7-51.5-1.2-33.8-1-42.5 1.5-53.8l.7-3-3.3 3c-1.7 1.6-4.3 5.2-5.7 8-1.4 2.7-4.3 8.1-6.5 11.8-4.6 7.8-5.3 7.8-9.2-.7-6.8-14.9-9.1-26.4-9.1-46.8 0-9.3-.2-16.8-.5-16.8s-3.1 3.8-6.3 8.3c-11.6 16.8-25.8 31-41.7 41.6-15 10-17.4 10.4-15.9 2.9.4-2.4.8-9.9.9-16.8 0-6.9.5-14.2 1.1-16.3.5-2 .7-4.1.4-4.7-.8-1.3-22.6 7-36 13.7-9.1 4.5-29.5 15.2-36.7 19.2-4.3 2.4-8.4 4.1-9 3.8-1.9-.7 19.2-21.3 40.2-39.1 1.4-1.2 6.2-5 10.8-8.5 4.5-3.5 8-6.6 7.8-6.8-.6-.7-19.4 2.3-34.1 5.3-48.4 10-76.9 23.6-100.6 48.1-12.6 13-23.2 29.4-31.1 47.8-6.4 15.1-8.5 20.2-11.9 30-2.1 6-3.6 11.1-3.3 11.4.2.2.5.2.7 0 .1-.2 3.3-5.1 7.1-10.8 15-22.9 39.4-43.5 63.2-53.5 8.6-3.6 11.8-4.3 12.8-2.8.4.7-5.6 10.3-8.9 14.2-2.2 2.6-11.8 20-17.3 31.5-2.9 6-5.7 11.8-6.3 12.7-2.3 4.3-.2 3.3 9.9-4.8 17.3-14 50.3-35.1 67.3-43.1 8.4-4 34.2-14.3 35.7-14.3 2.6 0 2.1 2.6-1.9 9.3-23.2 38.6-60.5 74.2-123.2 117.5-5.3 3.7-9.3 6.8-8.8 7 1.3.4 23.6-9.7 41.1-18.6 21.4-11 27.8-14.7 51.6-29.8 8.8-5.6 17.5-10.9 19.2-11.8 8.1-4.2 62-40.8 75.7-51.4 9.2-7 9.8-6.9 9 1.5-.7 8-.7 7.8-7.3 21.3-13.4 27.3-42.7 57.2-83.6 85.3-6.6 4.5-14.3 9.8-17.1 11.7-2.8 1.9-6.9 4.8-9 6.4-2.2 1.7-6.5 4.8-9.5 7-11.2 8.3-36.2 31.4-45.1 41.7-1.1 1.3-3.5 4-5.3 5.9-7.4 8.1-19.4 25.6-18.3 26.7.4.3 3.5-.8 6.9-2.5 3.5-1.7 10.2-4.7 14.8-6.7 4.7-2 10.4-4.5 12.7-5.6 2.4-1 4.5-1.9 4.8-1.9.3 0 2.7-1 5.3-2.1 2.6-1.2 6.1-2.7 7.7-3.4 1.7-.7 5-2.2 7.5-3.3 2.5-1.1 15.3-6.6 28.5-12.2s25.5-10.8 27.2-11.6c5.8-2.6 11.3-4.3 11.3-3.5 0 1.6-5.8 8.7-13.6 16.7-4.4 4.4-12.2 12.7-17.4 18.4-5.2 5.7-10 10.8-10.5 11.4-.6.6-2.3 2.7-3.9 4.6-1.5 1.9-4.7 5.5-7 8-2.2 2.5-9 9.9-15.1 16.5-6 6.6-15.4 16.6-20.8 22.3-16.1 16.8-13.7 15.4 21.3-12.1 6.9-5.4 13.2-10.4 14.1-11.1 10.6-8.7 32.7-26.4 38.7-31 17.9-13.8 30-24.6 43.7-38.9 15.1-15.8 31.1-30.7 33-30.7 1.1 0 .5 5.5-1.5 14-.5 1.9-1.4 5.7-2 8.5-1.7 6.9-4.9 18-7 24-3.1 8.6-13.9 36.4-15.9 40.8-1.1 2.3-3.5 7.8-5.4 12.2-1.9 4.4-4.6 10.5-5.9 13.5-19.8 43.9-26.3 62.2-27.5 77.7-.3 4.6-.3 8.3 0 8.3s2.7-3.3 5.4-7.2c5.9-8.8 18.5-21.7 27.4-28.1 7.2-5.1 8.9-5.7 8.9-2.9 0 1.9-5.5 18.3-11.5 34.7-2.1 5.5-4.3 11.6-5 13.5-.8 1.9-3.8 9.6-6.8 17-4.9 12-7.9 18.8-21.4 48.3-2 4.2-3.3 8.1-2.9 8.4.4.4 2.6-.3 4.8-1.6 2.3-1.3 4.4-1.9 4.9-1.4 2.2 2.2-7.4 17.5-18.2 29-3 3.3-8.9 9.9-13.2 14.9-18.8 21.8-38.8 36-65.8 46.8-16.4 6.5-18.2 6.1-10.6-2.2 8.6-9.5 16.5-18.8 19.3-22.8 1.6-2.2 5.1-6.9 7.7-10.5 9-11.8 16.5-25.7 23.6-43.8 2-5.2 2.7-9.1 1.5-9.1-.3 0-2.9 2-5.7 4.3-2.9 2.4-8.8 6.8-13.1 9.7-15 10-46.9 23.8-48.6 20.9-.4-.6.5-4.3 2.1-8.2 1.6-3.8 2.9-7.4 2.9-7.8 0-.5.9-3.1 2.1-5.7 2.6-5.8 2.8-6.4 7.4-18.2 10.7-27.8 18.3-44.5 41.6-91.4 6.5-13.2 11.7-24.1 11.5-24.4-.3-.2-3.7 4.4-7.6 10.3-23.9 35.7-50.6 63.8-77.3 81.8-6.2 4.1-26.8 14.8-34.7 17.9-1.4.6-3.3 1.4-4.2 1.9-1 .5-2.2.9-2.8.9-.5 0-3.8 1.3-7.2 2.8-3.5 1.6-7.9 3.4-9.8 4.1-3.8 1.4-6.7 2.5-10.2 4-1.3.6-4.5 1.7-7.2 2.6-12 3.9-37 14.7-58.6 25.2-26.1 12.8-31 14.9-31 13 0-1.1 10.1-10.9 18-17.3 6.2-5.1 34.4-29.6 36-31.3.8-.9 4.9-4.5 9-8.1 4.1-3.6 7.7-6.7 8-7.1.3-.3 6.8-5.9 14.5-12.5 41.9-35.7 111.1-102.2 103.4-99.2-.9.3-6.8 4-13.2 8.2-6.3 4.2-11.9 7.6-12.3 7.6-.4 0-1.5.6-2.3 1.4-1.7 1.5-28.4 15.1-41.1 20.9-19.4 9-55.6 21.5-57.2 19.9-.4-.4 1.6-2.6 4.5-4.7 23-17.2 35.7-28.4 48.8-43.1 13.4-15.1 18.9-22.8 37-51.2 4.4-6.8 7.3-13.1 6.5-13.9-1.2-1.2-25.6 9.9-32.8 14.9-1.4 1-2.8 1.8-3.1 1.8-.2 0-6.9 3.5-14.8 7.7-8 4.3-16 8.6-17.9 9.5-1.9.9-10.9 5.2-20 9.6-14.5 7-44.3 20.2-45.7 20.2-.4 0-4 1.4-19 7.2-9.3 3.6-9.4 1.9-.3-5.6 11.6-9.7 15.3-13.4 21.5-21.8 14.1-19.1 22-41.5 22.4-63.7.1-5.5-.1-10.1-.6-10.1-.4 0-3.3 4.5-6.3 10-6.9 12.7-14.9 22.2-27.2 32.6-9.7 8.1-20 14.5-21.4 13.2-.4-.4.4-2.2 1.8-4 6.2-8.1 12.3-21.4 15.9-34.8 4.3-15.6 5.7-54.2 2.9-77.5-2.4-19.3-3.3-56.2-1.6-65.8.4-2.8.4-4.7-.2-4.7-.5 0-3 2.9-5.6 6.4-5.8 7.9-17.2 18.9-25.5 24.5-12.5 8.6-20.1 10.1-27.1 5.5-3.5-2.3-3.9-3.1-4.6-8-1-8.2.5-23.9 3.2-33.4 3-10.4 4-13 10.2-26.1 2.7-5.7 5.2-11.3 5.6-12.3.6-1.7.5-1.7-1.1-.5-.9.8-3.6 3.4-5.9 5.9-4 4.3-15.9 13.1-19.6 14.5-2.3.9-2.3-.3.2-9.8 4.5-17.2 7-23.2 13.5-33.2 13.1-20.1 23.6-44.3 27.4-63 3.2-15.9 4.1-26.5 2.1-26.5-.5 0-1.2 1.7-1.6 3.7-2.1 11.7-13.8 29.3-32.9 49.3-16.2 17-24.9 27.3-31 36.8-2.2 3.4-4.4 6-5 5.9-3.4-1.1-7-41.7-6.1-68.4.3-9.4.9-17.8 1.2-18.7.9-2.4 2.3-1.9 3 1.1.3 1.6 1 3.9 1.5 5.3 1 2.7.6-1.4-1.2-12-1.8-11-3-29.2-3.9-61.5-.6-18.2-1-33.5-1.1-34-.1-3 1.8-10.9 2.7-11.2 1.3-.4 3.6 3 8.3 12.4 3.9 7.6 6.4 15.5 8.1 25.1 1.5 8.4 2.4 7.9 4.6-2.7 2.3-10.9 1.7-23.9-1.6-38.1-1.4-6-3.2-12.4-4-14.5-.4-1.1-1.3-3.6-2-5.5-1.6-4.7-3-8.3-5.9-15.3-2-4.8-3-7.1-6.6-15.2-6.6-14.5-13.5-33.2-16.4-44.5-2.5-9.5-3-12.1-3.7-19-1.9-18.4.2-32.3 6.7-45.2 3.3-6.5 4-6 5.3 3.7 1.4 9.9 1.9 12.6 2.7 13.1.5.3.9 1.3.9 2.3 0 .9.9 3.5 1.9 5.7l1.9 3.9.5-21.5c.3-11.8 1-24.7 1.6-28.5 1.6-10.5 2.9-17.5 4.1-23 .6-2.8 1.4-6.5 1.7-8.3.3-1.8.9-3.5 1.4-3.8.5-.3.9-1.5.9-2.6 0-2 1.2-6.5 3-11.3.5-1.1 1.4-3.6 2.1-5.5 1.7-4.6 10.4-16.2 17.3-22.9l5.5-5.4 1.1 2.7c.6 1.6 1.4 6 1.9 10 .5 3.9 1.9 10.7 3.1 15.1 1.2 4.4 2.5 9.3 2.9 11 .9 3.2 6.2 16.9 8.8 22.2 1.8 3.9 3.3 3.4 3.3-1 0-6 5.3-27.9 9.1-37.5.5-1.2 1.3-3.2 1.8-4.5 2.5-6.6 13.3-27 17.7-33.4 6.8-10 18.4-23.9 21.1-25.4 4.3-2.4 4.2-1-1.5 16.8-1.1 3.5-1.7 6.3-1.2 6.3.4 0 3.8-4.3 7.5-9.4 6.3-9 23.2-26.6 25.5-26.6 1.7 0 1.1 2.5-2 8.8-3.1 6.2-3.7 8.6-2.1 8 .5-.2 10.8-8.5 22.8-18.4 62.8-52.3 71.6-59.4 72.9-59.4.8 0 1.4.8 1.4 1.8 0 4.8-8.3 22-14.2 29.4-4.1 5.3-1.9 5 9.5-1.1 21.8-11.6 28.6-15.7 42.1-25.5 4.4-3.1 8.3-5.3 8.8-4.8.8.8-2.2 7.7-7.8 18.6-1.4 2.6-2.3 5.1-2 5.4 1.5 1.4 39.1-21.3 54.1-32.6 3.3-2.5 8.1-6.4 10.6-8.6 2.5-2.3 5.6-5 7-6 1.3-1.1 4.8-4.1 7.7-6.8 7.9-7.1 9-6.3 4.8 3.9s-10.6 26.8-10.6 27.5c0 1.5 5.7-1.5 17-8.8 6.3-4.2 12-8.1 12.5-8.7.6-.7 4.4-3.7 8.5-6.9 4.1-3.1 8.6-6.8 9.9-8.2 2.7-2.8 4.7-3.3 5.4-1.4.5 1.8-2 12.2-3.8 15.8-3.2 6.1-1.3 6.5 6.5 1.4 13.5-9 48.9-25.8 77-36.5 22-8.5 27.2-10.1 28.3-9 1.1 1.1.2 2.2-15.5 20-6 6.6-10.8 12.3-10.8 12.6 0 .9 5.4-1.6 11.5-5.2 13.4-8.1 26.3-19.6 36.9-33.1 3.1-4 6.2-7 6.7-6.6.6.3 1 4.6.9 9.7-.1 5.1-.1 9.9-.1 10.7.1.8 1.4-1.1 3-4.1 1.6-3.1 4.5-7.9 6.5-10.8 2-2.8 3.6-5.3 3.6-5.6 0-.3 2.4-3.8 5.4-7.8 6.8-9.2 11.3-12.6 13.1-9.7z"/><path d="M2295.5 2337.1c-21.1.8-33.6 1.9-60 5.4-5.1.7-14.8 2.4-20 3.5-2.2.5-6.7 1.4-10 2-14.9 2.9-37 8.4-57.2 14.1-16.2 4.6-54.4 16.8-58.8 18.9-1.1.5-5.6 2.1-10 3.6-8.7 2.9-19.6 7.1-29 11.1-7.5 3.2-9.1 3.8-13.5 5.3-1.9.7-4.4 1.6-5.5 2-1.1.5-6.7 2.4-12.5 4.3-24 8-36.3 14.8-45.9 25.2-6.9 7.4-8.6 12.3-8.5 23.5.1 11.2 2.5 18.6 10.4 31.3 9.1 15 18.2 24.9 33 36.1 12.5 9.4 12.9 9.6 32 21 9.4 5.6 25.8 16.8 38 26 11.8 8.9 24.2 17.9 27.5 20 3.3 2.1 7.8 5.1 10 6.5 14.5 9.9 39.8 15.9 104.5 25.1 4.1.6 10 1.5 13 2s9.1 1.4 13.5 2c4.4.6 10.5 1.5 13.5 2s8.7 1.4 12.5 2c3.9.6 8.4 1.3 10 1.6 1.7.3 5.5.9 8.5 1.4 3 .5 9.6 1.6 14.5 2.4 5 .8 12.2 2 16 2.7 3.9.6 9 1.5 11.5 1.9 2.5.5 7.9 1.4 12 2 4.1.7 9.5 1.6 12 2 4.4.9 7.4 1.4 27.5 4.5 5.5.9 11.1 1.8 12.5 2 42.1 6.8 59.6 9.7 64.5 10.6 7 1.3 13.5 2.4 22.5 3.9 3.6.6 8.8 1.5 11.5 2 2.8.5 8.4 1.4 12.5 2 4.1.6 8.4 1.4 9.5 1.6 1.1.3 4.9 1 8.5 1.5 3.6.6 8.8 1.4 11.5 1.9 5 .8 14.3 2.4 24.5 4.1 5.6.9 14.6 2.3 25.5 4 8.6 1.3 20.6 2.8 30.5 3.8 4.7.5 10.3 1.2 12.5 1.5 14.2 2.1 73.7 2.1 88 0 2.2-.3 8.1-1 13-1.5 13-1.2 26-3 43-5.8 3.3-.6 7.8-1.3 10-1.6 2.2-.3 5.6-1 7.5-1.5 1.9-.5 6.2-1.4 9.5-2 7.1-1.4 13.6-2.8 18.5-4 1.9-.5 5.5-1.3 8-1.9 8.6-1.9 14.5-3.3 17-4.1 1.4-.4 4.3-1.3 6.5-1.9 9-2.4 37.6-11.5 46.5-14.8 17-6.1 22.9-8.7 41.5-17.9 36.6-18.1 61.9-36.7 82.7-60.6 9.6-11.1 20.5-28.8 23.8-38.8 4.9-14.8 6.3-32.2 3.5-41.8-2.9-9.6-8.7-14-25.7-19.6-5.7-1.9-13.2-4.8-16.8-6.4-5.9-2.7-13.6-4.9-23-6.7-3.4-.6-12.1-1.6-33-3.5-24.6-2.3-48.1-6.3-70-12-1.9-.5-5.3-1.3-7.5-1.9-2.2-.5-5.7-1.4-7.7-2-6.5-1.9-10.7-3.1-14-4-1.8-.6-4.9-1.4-6.8-1.9-5.1-1.4-43-14.1-61-20.5-8.5-3-16.4-5.8-17.5-6.2-1.1-.4-2.9-1-4-1.5-1.1-.4-4.7-1.8-8-3s-7.5-2.8-9.2-3.6c-3.1-1.3-18.9-7.2-25.8-9.6-1.6-.5-3.9-1.4-5-1.9-3.8-1.6-44.1-14.8-56-18.2-11-3.3-31.1-8.5-41-10.7-10.5-2.3-13.4-2.9-18.5-3.9-3-.6-6.8-1.3-8.5-1.6-15.4-3.2-45.6-7.1-73.5-9.5-44.3-3.9-165.6-6.1-221.5-3.9zm157.9 8.4c11 1.8 19.7 4 23.6 6 3.3 1.7 8 6.1 8 7.5 0 2 4.2 12 5.1 12 .5 0 1.7-1.7 2.8-3.8 5.8-11.4 17.8-16 41.6-16 14.6 0 26.6 1.4 46.5 5.5 25.7 5.3 31.3 7.5 37.7 14.7 2.7 3.1 4.7 6.8 6.2 11.6 1.3 3.9 2.6 7 2.9 6.8 19.5-9.4 33.9-12.6 49.8-10.8 8 .8 14.8 3.7 18.5 7.7 3.7 4 4.5 5.8 5.9 14 1.4 8.4 1.2 8.3 11 5.3 8.2-2.5 22.8-3.6 30.1-2.2 9.7 1.8 16.7 5.8 24.9 14.2 8.1 8.2 11 13.1 13.5 22.5 1.8 7 2.1 21.6.5 27.6-.6 2.3-.8 4.5-.3 5s2.9-.5 5.3-2.2c2.5-1.6 7.5-4.6 11.2-6.5 9.2-4.7 14.3-4.7 20.7.1 6 4.3 12.7 13.8 15.5 21.8 3.1 9 2.7 8.6 10.9 8 13.8-1.1 26 4.7 30.9 14.7 2.4 4.9 2.7 6.7 2.8 15.7 0 12.3.7 12.8 7.5 4.8 2.7-3.2 5.5-5.5 6.6-5.5 4.5 0 19.5 10.2 24.3 16.5 5.9 7.7 8.1 19.2 5.5 28.9-4.3 15.9-17.6 31.4-31.9 37-8.1 3.2-15 4.6-22.8 4.6-7.7 0-16-2.1-17.4-4.3-.4-.7-.8-5.4-.8-10.5 0-9.1 0-9.3-2.7-10.3-1.5-.6-6.9-.8-12.1-.6-10.2.5-18-.7-27.4-4.3-4.2-1.6-5.8-2.7-5.8-4 0-1 .4-2.1.9-2.4 1-.7 6.5-11.6 6-12.1-.2-.1-3.1-.6-6.4-.9-7.7-.9-19.5-4-24.8-6.7-5-2.5-11.2-8.2-13.5-12.4-1.3-2.3-1.6-5.4-1.5-13.4l.2-10.3-3.2.6c-12.2 2.6-21.5.8-36.6-6.9-20.1-10.2-25.5-13.2-29.8-16.5-6.9-5.2-8.6-8.1-9.4-15.6-.4-3.6-1.1-7-1.7-7.6-.6-.6-3.4-.2-8.2 1.2-8.2 2.4-22.7 2.9-30 1-11.4-2.9-16.3-5.5-24.1-12.6l-7.8-7.2-20.3-.5c-20-.6-35.3-1.6-55.8-3.8-10-1-13.1-1.4-31.5-3.8-13.5-1.7-20.5-4.7-22.7-9.7-1.1-2.4-1.5-2.5-5.3-1.8-7.5 1.5-54.1.8-75-1.2-2.7-.2-9-.7-14-1-4.9-.2-11.2-.7-14-.9-2.7-.3-9.5-.7-15-1-5.5-.4-12.2-1-14.8-1.6-2.6-.5-7.2-.9-10.2-.9-3 0-7.6-.4-10.2-.9-2.6-.5-10-1.2-16.3-1.6-6.3-.3-14.4-.8-18-1.1-3.6-.3-9.4-.1-12.9.3l-6.5.8-1.4 5.5c-3 12.2-12.4 17.1-51.2 26.6-5.8 1.4-11.4 3.1-12.5 3.6-4.5 2.4-7.5 7.1-7.5 12 0 1.8-.4 3.8-.8 4.3-.4.6-5.2 2.1-10.7 3.4-5.5 1.3-11.6 2.8-13.5 3.4-1.9.6-8.5 1-14.6.9l-11.2-.2-1.5 3.2c-.8 1.8-2.5 5.6-3.7 8.4-1.9 4.7-3.1 5.7-13 12.3-13 8.4-16.2 9-22.3 4-2.1-1.7-4.3-2.9-5-2.6-.7.2-1.8 2.6-2.6 5.3-4 14.4-4.7 16.1-7.5 16.8-3.8 1-11.6.6-14.9-.8-6.3-2.6-12.8-12.4-15.5-23.6-1.3-5.3-3.5-25.7-2.9-26.8.3-.4.8-4.9 1.2-10 1.2-16.2 6-30.3 11.4-33.2 1.1-.5 3.8-1 6.1-1 3.5 0 4.7.6 8.5 4.4l4.4 4.4.7-4.6c1.7-12.5 8.1-24.2 17-31.5 3.2-2.6 6.5-4.7 7.3-4.7 3.9 0 14.2 15.8 18.1 27.9 1.3 4.1 1.5 4.3 2.1 2 .4-1.3.7-4.2.8-6.3.1-2.2.5-5.3 1-7 .5-1.7 1.5-5.1 2.1-7.6.7-2.5 1.6-5.3 2.1-6.2.5-1 .9-2.4.9-3.1 0-.7 1.6-3.2 3.5-5.4 8.3-9.7 16.1-7.1 26 8.7 3.2 5 6 8.8 6.3 8.5.3-.3.7-4.9.9-10.1.8-25.6 14-42.9 36.1-47.4 14.3-2.9 32.1 3 39 13 1.5 2.2 3.2 3.9 3.7 4 .6 0 1.7-1.7 2.4-3.8 4.5-12.3 17.9-18.1 42.2-18.2 18.4 0 32.4 3.9 46.3 13 7.8 5.1 8.6 5.1 8.6-.6 0-3.9 4-11.2 7.7-14.3 4.1-3.4 7.6-4.4 22.8-6.6 24.8-3.6 48.9-3.9 66.9-1zM2081.5 2659.6c3.7 3.2 14.1 10.4 15.1 10.4.4 0 1.5.6 2.3 1.4 3.4 3 30.8 16.9 49.1 24.9 5.4 2.4 24.4 9.1 34.5 12.2 5 1.5 10.1 3.1 11.5 3.5 3.2 1.1 16.3 4.8 21.5 6.2 2.2.5 5 1.4 6.3 1.9 1.3.5 3.6.9 5.2.9s3.2.4 3.5 1c.3.5 1.8 1 3.2 1 1.5 0 4 .4 5.7.9 1.7.6 5.8 1.5 9.1 2.1 3.3.6 7.6 1.5 9.5 2 5.8 1.4 22.1 4.8 28.3 5.9 12.7 2.4 16.5 3.1 22.7 4.1 3.6.6 8.8 1.5 11.5 2 6.5 1.2 14.4 2.5 22.5 4 6.1 1 8.7 1.5 22.3 4 17.8 3.2 62.4 12.4 82.2 16.9 2.2.5 6 1.4 8.5 2 2.5.5 6.5 1.4 9 2 3.9.8 12.2 2.4 32.5 6.1 14.7 2.6 43 6.2 61.5 7.7 15 1.2 76.9.9 94-.5 29.9-2.5 57.5-6 79.5-10.3 3.3-.6 8-1.5 10.5-1.9 4.2-.8 8.6-1.7 31.5-6.9 25.1-5.6 68.1-19.1 82.9-26 8.4-3.9 21.1-11.9 20.3-12.7-.4-.4-3.4.7-11.2 4.1-6.3 2.7-11.2 4.3-18 5.9-26.2 6.2-55.2 11.3-94.5 16.5-15.6 2.1-43.9 4.8-58.5 5.7-6 .3-11.4.8-11.8 1.1-.4.3-17.8.6-38.5.7-35 .2-56.5-.3-73.7-1.8-14.4-1.3-28.2-2.7-35.5-3.7-16-2.2-21.7-3-26.7-4-21-3.7-26.3-4.8-39.5-7.9-2.4-.5-12.4-2.6-22.3-4.5-9.9-2-20.5-4.2-23.5-5-10.4-2.6-25.5-5.1-53.5-9-9-1.3-41.8-4.8-71-7.6-36.2-3.5-63.4-6.7-82-9.8-18-3-40.8-8-55-12.1-2.2-.6-5.2-1.4-6.8-1.7-1.5-.3-3-.9-3.3-1.4-.3-.5-1.5-.9-2.8-.9-1.2 0-2.6-.4-3.1-.8-.6-.4-2.8-1.4-5-2.1-2.2-.7-4.9-1.6-6-2.1-1.1-.4-5.1-2-9-3.5-14.7-5.6-35.4-15.9-43.7-21.6-4-2.8-4.8-2.3-1.3.7zM1877.8 2163.8c-6.6 7.9-34 36-41.3 42.3-2.2 1.8-7 5.9-10.5 9-15.7 13.6-36.3 29.1-55 41.5-28.5 18.9-39.3 27.4-48.6 38.3-8.1 9.4-15.6 24.2-18.8 37.3-8.2 33-8 90.8.4 142.7 4.2 25.7 18.3 81.1 20.7 81.1.3 0 .3-.6 0-1.4-.6-1.5-4.3-21.3-5.2-27.6-2.8-20.6-3.3-60.6-1-79.5 3.9-31.1 10.4-56.2 22.2-85.8 5.4-13.4 19.2-41.6 21.9-44.8.8-.8 1.4-1.9 1.4-2.2 0-.8 7.7-12.6 11.2-17.2 1.3-1.6 6.2-8.2 11-14.5 14.1-18.6 21.3-27.1 40.8-47.8 26.7-28.4 37.5-41.3 44.7-53.2 3.6-6 13.3-25.3 12.9-25.7-.2-.2-3.3 3.1-6.8 7.5zM3273.9 2392.9c1.2 1.6 2.1 3.2 2.1 3.5 0 .3.9 2.5 2 4.9 4.7 10.2 16.4 45 19.9 59.2.5 2.2 1.5 5.8 2.1 8 1.9 7.3 4 22.7 4 29.9 0 7-2.1 26-3.9 36.6-1.9 11-3.2 16.1-12.1 51.5-5 19.8-12.2 48.6-16.1 64-3.8 15.4-7.4 29.6-7.9 31.5-.6 1.9-5 19.5-9.9 39s-9.7 38.2-10.6 41.5c-3.9 14-3.6 17.6.5 6.3 1.2-3.5 3.4-8.8 4.7-11.8 10.1-22.5 14.2-31.3 26.8-57.5 5.9-12.2 7.4-15.4 12.6-27.3 4-9 4.7-10.7 7.4-17.7 1.4-3.9 3.1-8.1 3.7-9.5.6-1.4 2.5-6.8 4.4-12 1.8-5.2 4.5-12.6 5.9-16.3 5.1-13.7 13-48.7 15.1-66.7.3-3 .8-5.9 1.1-6.3.9-1.5 1.1-42.4.2-50.5-2-18.8-7.7-40.3-14.4-54.2-2.5-5.2-4.2-8.2-13.1-22.5-8.2-13.1-20.8-26.5-24.9-26.5-1.4 0-1.4.3.4 2.9z"/></svg>