<?xml version="1.0" standalone="no"?><svg version="1.0" xmlns="http://www.w3.org/2000/svg" width="1706.667" height="1678.667" viewBox="0 0 1280 1259"><path d="M244.1 13.7c-3.1 6-17.5 74.7-48.5 232.8-7.1 36-21 109.7-25.6 135-11.7 65.8-15.1 83.7-25.6 138-24.9 128.3-48.8 244.8-52.6 256C87 789.6 80.9 798 75.6 798c-10.4 0-24.9-30.1-30.1-62.3-.8-4.9-3.6-5-8.1-.2-7.1 7.6-16 46.2-24 103.8-1.6 11.9-1.6 12.9-.1 14.5 3.4 3.4 4.6-.1 8.2-24.9 4-27.1 7.6-47 11.1-61.9 2.8-12.1 6.3-23 7.2-23 .4 0 1.7 4.4 3 9.8 4.7 20.1 15.9 42.3 24.2 47.9 11.3 7.4 21.4.9 28.9-18.5 3.6-9.3 10.1-38.6 25-111.7 19.9-98.2 40.3-203.5 50.2-259 3.3-18.7 6.1-34.5 6.3-35 .1-.6.6 15 .9 34.5 1.9 113.8 28.9 289.9 55.8 364.2 6.7 18.6 11.8 33.8 11.3 33.8-.3 0-1.4-.5-2.6-1.1-3.7-2-6.6-.3-9.6 5.8-4.4 9-10.7 12.1-20.6 10.2-10.3-1.9-13.1-6.4-17.5-28.3-3-14.8-4.6-18.6-8.1-18.6-4.2 0-5.5 3.8-10.9 32-1.6 8.6-4.1 19-5.4 23.3-2.2 6.8-2.3 7.9-1 9.2 2.9 3 4.3 1.6 7.2-7.5 1.9-5.7 6.7-27.7 8.6-39.8.4-2.3 1-4.2 1.3-4.2.4 0 1.7 5 2.9 11.1 1.3 6.8 3.3 13.6 5.2 17.4 2.8 5.7 3.8 6.7 8.9 9.2 12.5 6.1 26 3.3 32.9-6.9 1.7-2.6 3.3-5.3 3.5-6 .3-.8 1.9-.2 4.8 1.8 3.4 2.3 4.7 3.9 5.8 7.4.7 2.5 8 27.9 16.3 56.5 29.6 102.8 43.8 138.2 73.2 182.5 22 33.2 40.8 51.1 55.1 52.7 12 1.4 21.6-10.7 23.3-29.3.7-8.1-1.5-14.7-6-17.4-5.5-3.4-9.3 1-4.1 4.7 3.2 2.4 4.4 7.5 3.2 14.9-1.1 7.6-6 17.6-9.3 19.4-11.4 6.1-32-11.4-56.4-47.8-29.1-43.5-43.8-80.2-71.6-177.7-5.2-18.2-11-38.4-13-45-1.9-6.6-3.5-12.2-3.5-12.6 0-1.3 9.9 2.8 13 5.5 6.4 5.3 10.2 6.6 20 6.6 12.2 0 16.4-2.4 22.2-12.7l2.4-4.1-.4 25.6c-.4 28.7 0 31.5 4.5 31 2.6-.3 3.1-1.2 7.4-13.3 9.8-27.6 24.1-61.5 25.9-61.5 1.4 0 2.7 2.5 6.9 13.2 7.1 17.7 11.7 23.1 22 25.8 8 2.1 20.8-.6 28.8-6.1 2.3-1.6 4.5-2.9 4.8-2.9.4 0 2.5 1.6 4.8 3.5 5 4.3 10.5 6.2 13.5 4.6 1.1-.6 2.3-1.1 2.5-1.1.2 0 .7 18.3 1 40.7.8 59.4 4.6 94 14.3 131.2 12.1 46.6 33.8 78.3 59.8 87.3 7.3 2.5 16.5 2.3 22.4-.4 17.6-8.2 38.5-43.9 56.3-96.3 3.1-9.4 6-16.3 6.3-15.5 1.3 3.9 3.1 57.5 3 92.5 0 42.8-.9 54.4-6.5 87.8-7.7 45.9-17.5 70.7-28.9 73.2-2.5.5-3.7.2-5.5-1.5-4.7-4.4-5.5-16.5-3.4-52.5 1.5-23.8.8-30-3.1-30-2.5 0-2.5.1-2.7 9-.1 4.9-.7 19.4-1.4 32-.8 17.4-.8 24.9 0 30.5 2.2 14.2 6.9 19.7 15.8 18.7 16.3-1.8 26.5-24.5 35.7-79.7 5.7-34 6.1-40 6.1-91.5 0-34.6-.5-55.2-1.9-78.1l-1.9-31.1 6.1-23.4c8.5-32.3 20.8-89 24.4-112.3.2-1.5 2.5-2.6 9.8-4.8 29.2-9 53.8-20.7 73.4-35.1 6.6-4.9 6.9-5 8.2-3.2.8 1.1 1.7 3.6 2 5.6 1 5.9 1.6 6.4 6 4 7.2-3.8 9.8-6.9 13-15.3l2.3-6.3.1 4c.1 6.4 2.8 17.5 5.6 23.4 3.7 7.5 10.2 14.1 14 14.1 3.7-.1 5.9-1.9 12.3-10.8 6-8.2 8.4-10 10.8-8 .9.7 5.4 6.4 9.9 12.5 11.5 15.6 18.5 20.3 28 18.8 5.1-.7 10.1-4.6 13.5-10.3 2.9-4.9 6-8.2 7.5-8.2.7 0 5.5 8.4 10.8 18.7 14.4 28.2 22.3 37.3 32.3 37.3 15.9 0 26.6-15.9 40.8-60.3 11.7-37 24.8-85.9 64-238.7 26.7-104.2 32-125.9 38.9-159.5 3.6-17.1 6.5-30.3 6.5-29.5.1.8-1 11.2-2.3 23-4.1 36-4.9 55-4.3 96 .3 20.6 1.1 44.2 1.6 52.5 8.8 127.9 26 220.5 55.7 300.3 18.5 49.6 37 86.2 57.6 113.6 17.1 22.8 31.5 36.9 45.7 44.4 9.8 5.3 17.4 7.2 28.1 7.2 10.8 0 18.1-1.8 29.5-7.4 10.9-5.4 15.9-9.4 15-11.8-1-2.6-4.1-2.2-9.1 1.3-10.6 7.3-24.4 11.9-35.4 11.9-21.7-.1-40.8-13.6-67.7-48-26.4-33.9-57.4-103.3-76.7-172.1-17.8-63.2-31.3-155.1-36.7-250.4-1.9-31.9-1.6-89.1.4-111.5 3.3-35.6 9.3-81 18.8-142.7 1.2-7.8 1.9-14.9 1.6-15.7-.4-.9-1.8-1.6-3.1-1.6-3.2 0-2.6-2.1-13.1 49.5-4.8 23.1-11.1 54.1-14.1 69-10.1 49.7-12.5 59.7-30.5 130.5-72.6 284.1-83.7 321.7-100 338.2-7.6 7.7-13.2 7.4-21-.9-4.9-5.1-7.1-8.8-17.4-29.1-5-9.9-9.8-18.1-11.3-19.3-4.3-3.3-10.3-.9-15 6.3-1.5 2.3-4.1 5.6-5.8 7.4-2.7 2.9-3.9 3.4-7.6 3.4-6.4 0-11-3.8-20.2-16.4-9.2-12.5-12.5-15.6-17-15.6-4.2 0-7.5 2.6-13 10.4-2.5 3.4-5.3 7-6.4 7.9-1.9 1.7-2.1 1.7-4.7-1.5-7.1-8.4-10.5-21.5-10.5-40.5 0-4.6-.5-9.1-1.1-10.1-.8-1.4-.2-3.1 3-8.7 19.4-33.1 32.5-108.9 29.2-168.2-2.1-35.3-6.2-58-15.7-86.3-10.3-30.7-21.9-51.5-36.7-65.7-6.8-6.5-10.4-9.1-17.9-12.7-5.1-2.5-11-4.8-13-5.2-3.3-.5-3.8-1-3.8-3.5 0-3.5 6.7-66.5 12-112.4 10.3-89.4 12.1-108.4 12.3-130 .1-22.2-2.6-32-9.9-36.5-7.1-4.4-20.9-1.5-34.2 7.3-47.1 31.4-78.4 138.7-91.2 312.2-.5 7.7-1 14.7-1 15.5 0 .9-4.5 6.5-10.1 12.5-31.9 34.7-60.9 77.4-81 119-29.2 60.5-48 133.8-54.5 211.6-2.3 28.7-5.4 33.6-15.7 25-7-5.8-7.8-5.9-15.6-1.2-8.2 5-11.7 6.1-19.4 6.1-10.8 0-16.2-4.6-21.2-18.3-5.2-14.1-8.4-19.7-12.2-21.5l-3.5-1.7-3.3 3.8c-3.7 4.3-12.1 23-20.5 45.4-3.1 8.4-6 15.6-6.5 16.1-.9.8.1-29.2 1.6-48.8.8-10.4 2-16.7 5-27.5 7.6-26.8 18.1-78.4 41.8-205.5 9.8-52.6 10.7-62.1 5.8-65.2-2.1-1.4-6.4-.8-8 1-7.4 8.2-19.8 59.2-31.6 130.7-7.7 46.6-13.6 93.4-18 143.5-1.3 15-8.7 34.5-15.4 40.8-3.5 3.3-16.3 4-21.6 1.2-6.7-3.6-6.7-3.6-4.6-6 2.9-3.2 3.3-15.2.7-20-2.7-4.9-6.3-6.5-10-4.6-4.4 2.3-6.6 7.7-5.9 14.8l.5 5.9-3.1-2c-1.8-1.1-3.5-2.6-3.9-3.3-2.6-4.6-21.1-59.4-25.2-74.8-26.1-97.3-50.3-295.2-44.7-364 3.4-40.5 17-115.4 52.6-288.5 10.1-49.2 13.9-71.2 12.9-73.9-.8-2.1-5.1-2-6.3.1zm465.1 120.8c4.3 4.3 5.3 10.1 5.3 31-.1 22.5-.3 25.6-10.5 116-4.4 38.5-9.1 81-10.5 94.5-1.4 13.5-2.7 26.3-3 28.6l-.6 4.1-8.7.6c-24.8 1.7-49.7 14.4-79.9 40.7-8.4 7.3-9.3 7.9-9.3 5.6 0-1.3.7-10.9 1.5-21.3 13.5-168.5 46.1-272.6 93-297 11.2-5.8 18.8-6.8 22.7-2.8zM689 417.7c0 4.1-7.6 78.2-10.5 103.3-5.5 46.5-10 74.3-22.5 140-9.7 50.9-13.4 71.1-20.5 113.5-6.8 40.6-8.1 47.5-9.2 48.5-1 1-22.2 5.7-29.5 6.6l-5.4.6-1.2-16.2c-3-39.1-3.6-68.5-3.7-161.5 0-92.2.5-115.3 3.6-167l1-17 7.2-7c28.9-28.1 61.6-45.7 86.5-46.4 4-.1 4.2.1 4.2 2.6zm17.7 1.5c11.7 4.3 25 16.1 34.6 30.6 13.8 20.7 28 61.5 32.6 94 8.5 58.8 3.5 122.4-13.6 175.7-6.5 20.2-14.2 33.3-28.2 47.8-7.9 8.2-8.6 8.7-11.7 8.1-4.1-.7-5.3-.1-17.8 10.1-10.3 8.3-16.3 12.5-18 12.5-1.3 0-.2-6.6 2.9-16.4 2.4-7.7 2.6-9 1.3-10.2-2.6-2.6-4.7-.5-7.2 7.5-3.8 12.1-5.1 19.8-3.7 22.7.6 1.4 1.1 2.6 1.1 2.8 0 1.7-43.3 17.7-44.4 16.5-.8-.9 16.1-97.5 27.3-156.4 16.3-85.5 21.3-120.5 29.6-205 4.5-46.6 4-43.6 7.3-42.9 1.5.4 5.1 1.5 7.9 2.6zm-123.6 77.5c-2.7 48.5-3.5 82.7-3.5 153.3 0 76.2 1.3 126.7 4 161.4.8 10.4 1.2 19.1.9 19.5-1.4 1.3-19.2.4-25-1.3-5.3-1.6-7-2.8-16.1-12.1-11.3-11.3-16.4-14.3-22.8-13.1-5.7 1.1-8.8 6-14.6 22.9-2.8 8.2-6 16.3-7.1 17.8-3 4.3-7.3 3.9-18.6-1.6-10.4-5.1-19.4-12.8-27-23.1-2.6-3.5-5.5-6.6-6.5-7-1.6-.5-1.8-1.3-1.4-4.7.3-2.3.8-7.4 1.1-11.2 3-35.9 12.3-84.7 23-121 22-74.3 53.8-132.2 104.4-189.8 5.1-5.9 9.6-10.5 9.8-10.3.3.2 0 9.4-.6 20.3zm-211.4 30.7c-.4 4.6-2.5 18.4-4.7 30.7-7.3 40.2-29.9 158-34 176.9-2.2 10.1-4 18.9-4 19.4s-.3.7-.6.4c-.8-.9 3.1-35.3 7.7-67.3 10.1-70.7 22.9-134.9 32-159.8 1.7-4.8 3.3-8.7 3.6-8.7.3 0 .3 3.8 0 8.4zm368.8 244.8c-1.2 7.1-6.1 16.8-8.5 16.8-.4 0-1.4-1.8-2.3-4.1l-1.6-4 6.2-6.3c3.4-3.5 6.4-6.4 6.5-6.5.2 0 .1 1.8-.3 4.1zm-468.6 35.9c1.5 4.3 1.4 9.1-.2 11.3-1.3 1.7-1.5 1.6-3-1.7-2-4.1-2.1-6.7-.5-10.2 1.5-3.3 2.4-3.2 3.7.6zm257.3 5.2c2 1.2 6.6 5.5 10.3 9.5 3.7 4 8.6 8.4 10.9 9.7 6 3.5 16.5 5.7 26.5 5.4l8.6-.2 2.2 28.9c1.2 15.9 3.4 44.7 4.8 64l2.5 35.2-3.9 12.8c-9.3 30-17 50.4-27.1 70.9-14.4 29.5-28.6 45.4-40.7 45.5-4.7 0-14.7-3.4-20.3-7-7.2-4.6-19.8-18.4-25.3-27.9-20.1-34-30.6-83.1-33.9-159.1-1.2-28-.3-76.9 1.5-78.7.5-.4 1.8.6 3 2.2 4.2 5.9 14.3 15.8 20.2 19.8 7 4.8 20.7 10.7 25 10.7 4.3 0 9-3.2 11.9-8.2 1.3-2.4 4.3-9.9 6.5-16.8 6.4-19.7 8.8-22 17.3-16.7zm93.2 34.9c-6.9 35.7-21 97.6-22 96.5-.5-.5-8.5-107-8-107.4.1-.2 4.3-1 9.2-1.8 4.9-.9 11.4-2.2 14.4-2.9 10.7-2.7 10.2-4.1 6.4 15.6z"/></svg>