<?xml version="1.0" standalone="no"?><svg version="1.0" xmlns="http://www.w3.org/2000/svg" width="1058.667" height="1106.667" viewBox="0 0 794 830"><path d="M51.5 1.1c-19.8 2.5-34.3 11-41.2 24C7.6 30.3 7.5 31 7.5 45c0 17.9 1.5 23.4 8.6 32.2 2.7 3.4 5.2 7.3 5.6 8.7.3 1.3.2 9.2-.3 17.5-1.5 26.6-1.2 33.4 1.6 38.6 2.2 4 3.3 4.8 9.7 7.2 11.8 4.6 76.2 22.8 80.4 22.8 3.1 0-1-1.5-10.8-4-13.2-3.4-25.3-7.8-49.3-18.3-23.2-10.1-25.6-11.6-28.3-17.5-2-4.3-2.1-5.9-1.7-18.2.9-28.6.7-30.9-3.3-39.1-3-6.1-3.8-9.2-4.6-17.9-2.1-20.4 2.6-33.6 15.6-44C41.6 4.4 56.6.1 65.6 3 72.6 5.3 86 13.3 92 18.7c7.7 7 13.5 15.9 16.2 24.6 1.8 6 2 8.5 1.5 17.2l-.7 10.2 8.3 4.1c10.2 5 17.8 12.3 25.4 24 10.7 16.9 20.1 24.1 32.5 25 3.6.2 7.9.2 9.4-.2 2.6-.7 2.7-.8 2.1-7.1-.4-4.5-.3-6.5.6-6.8 1.8-.7 0-2.3-12.5-10.7-6.1-4.1-11.3-8-11.5-8.6-.2-.6.6-2.3 1.7-3.7 2-2.6 2.6-2.7 11-2.7 6.7 0 12 .8 22.2 3.4 20.1 5.1 31.2 10.7 35.9 18.3 2 3.2 2.2 3.3 3.9 1.8 1.8-1.6 1.9-1.4 2.7 3.2.4 2.6.8 10.2.8 16.9 0 11.2-.2 12.3-2.5 15.7-1.4 2-2.7 3.7-3 3.7-.3 0-.5-4.8-.5-10.8 0-17.4-3.8-22.1-18.5-23-9.1-.5-14.2.8-16 4.3-1.2 2.3-1.1 2.9 1.7 6.3 1.6 2 5.1 5.3 7.8 7.2 8.3 6 15.1 12.8 17.9 18.1 1.6 2.7 2.6 5.2 2.4 5.4-.6.7-9.4-4.2-17.3-9.5-13.6-9.2-18.1-10.7-37-13-10.7-1.3-18.8-3.5-23.1-6.1-1.8-1.1-6.7-6.1-11-11.2-10.5-12.4-23.3-25.6-26.4-27.2-1.4-.7-4.5-1.6-7-2-6.7-1-14.8-5.2-16.5-8.5-1.2-2.3-1.3-5.8-.8-18.7.4-10.9.2-17.2-.6-20.1-2.2-7.9-13.5-17.8-24.5-21.5-11.4-3.9-30.3 0-37.3 7.5-2.4 2.6-5.7 9.7-4.9 10.5.3.3 3.2-1.9 6.4-4.9 8.7-8 16.7-10.2 28.2-7.7 10.3 2.2 20.8 15.6 23 29.5 2 12.6-2.6 23.1-14.5 32.7-7.1 5.7-18.3 11.3-24.3 12.1-4 .6-4.6.4-7.9-2.9-1.9-1.9-3.7-3.5-3.9-3.5-.2 0-1.1 2.5-2 5.6-1.2 4.2-1.5 8.5-1.2 16.5.3 10.1.5 11 3.3 15 1.7 2.4 4.5 5.2 6.4 6.3 5.6 3.2 20.5 6.6 29.3 6.6h8.1l-.7-3.3c-2.5-11.7-1.9-19 2-23.6 3.8-4.5 7.2-4.7 21.8-1.1 15.6 3.8 20.9 5.7 27 10 5.2 3.5 7.6 7.8 7.6 13.5 0 10.7-8.4 14.8-25.5 12.6-4.8-.7-8.9-1-9.2-.7-.3.2 5.4 2.3 12.6 4.6 9.2 2.9 13.1 4.5 13.1 5.6 0 1.8-5.4 4.2-13.2 5.8-3.1.6-5.9 1.4-6.3 1.7-.3.3 2.3 1.4 5.7 2.3 3.5 1 7.9 2.6 9.8 3.7l3.5 1.9-3.7-.6c-2.2-.4-3.8-.2-3.8.4 0 .5 2.1 1.2 4.6 1.6 10.6 1.4 24.3 11.7 29.3 21.8l3.2 6.3-.2 24.5c-.1 13.7.2 26.6.8 29.2.6 2.7.8 4.8.5 4.8-1.2 0-16.4-8.8-23-13.3-14.7-10.1-24.2-21.5-28.9-34.7l-2.3-6.5.3 10c.4 11.5 1.6 15 8.4 22.5 5.7 6.3 19.2 16.3 31.3 23 5.2 2.9 13.1 7.8 17.5 11 11.1 7.8 14.1 9.5 21.2 11.9 7.8 2.6 16.2 2.7 28.4.2 5.2-1.1 16.3-3.2 24.7-4.6 15.1-2.7 15.4-2.7 20-1 6.8 2.6 12 6.1 18.3 12.4 5.8 5.9 12.9 15.7 12.9 17.9 0 1.6-9.6 6.2-13 6.2-5.6.1-5.7 1.4-.7 8.9 6.1 9.1 6.6 11.3 3.4 14.5-1.3 1.3-4.2 2.9-6.3 3.5-15.9 4.5-49.8 6.2-56.2 2.8-6.6-3.5-10.9-13.5-13.8-31.7-1-6-2.2-11-2.6-11-.4 0-2.9 3-5.6 6.7-10.4 14.8-12.6 16.3-25.7 17.8-3.3.4-10.2 1.5-15.4 2.6-12 2.4-16.7 2.4-23.8-.2-10.7-4-19.6-14.6-26.6-31.7-4.9-11.6-9.3-16.7-16.7-19.1l-5.5-1.9.2-4.3c.2-4.6 2.1-6.9 13.2-15.7 5-4 9.6-11.8 11.1-18.6.6-2.7.9-5.1.7-5.3-.2-.2-1.8 2.6-3.6 6.1-3.6 7.3-8 11.6-20.5 19.9-9.6 6.4-12.2 10.4-11.2 16.8.3 2.1 2.9 9.6 5.8 16.6 4.9 12.1 5.2 13.3 5.1 21.3-.1 4.7-1.1 16.6-2.3 26.4-1.2 9.9-2 21.3-1.8 25.4.3 6.5.7 7.7 2.8 9.4 15.7 12.3 16.9 14.6 17.7 35 .7 16.5 1.4 17.9 11.1 24.2 4.1 2.6 10.3 8.2 15.7 14.1 17.7 19.3 34.7 31.2 48 33.6 19.4 3.6 50.1-3.4 77.3-17.7 14.2-7.4 20.7-12.1 27.9-19.7 9.2-9.9 13.7-24.2 9.9-31.5-2-3.9-4-5-10.8-6l-5.3-.7 4.6-3.2c7.3-5 14.9-14.1 19.1-22.7 2.1-4.4 3.8-8.6 3.8-9.4 0-.7.6-1.2 1.3-.9 2.6.9-1.1 14.3-5.2 18.9l-2.9 3.2 13.2 13.6c23.7 24.6 24 25.3 24 65.5 0 40.1-2.8 57-11.4 70.4-12.5 19.3-34.4 30.4-60 30.4-13.9 0-16.4-1-39.7-16.9-10.3-7-24.1-16.3-30.6-20.7-10.6-7.2-13.8-10.1-23.7-21.7l-2.1-2.5.6 10.9c1.7 30 13 62.8 31.2 90.1 3.3 5.1 3.6 6.1 3.4 12.3-.2 10.7-2.2 41.5-3.5 54.9-.6 6.8-.9 12.3-.5 12.3.3 0 .9-2.4 1.3-5.3 1.1-8.6 8.7-47.1 9.5-47.9.4-.5.7 4.5.8 11 .1 14.3 2.2 23.9 7.4 34.9 4.4 9.2 12.5 18.4 18.3 20.8 1.9.8 6.5 1.5 10.2 1.5 18.4 0 37.2-10.5 47.2-26.3 7.7-12.3 23.1-49.1 34.2-81.7 2.9-8.5 5.7-15.9 6.1-16.4.4-.4 1 2.5 1.3 6.5.3 4.1 1.5 18 2.6 30.9 5.1 58 6.6 79.6 5.8 80.7-.5.6-.5 1.4 0 1.7.6.3 1.3 2.3 1.8 4.3 1.1 4.9 1.7-8.3 3.3-70.2.7-25.9 1.6-48.6 2-50.5l.7-3.5 2.5 6.5 2.4 6.5.6-4.5c.4-2.5 1.2-20.5 1.8-40 1.1-32.6 2-50.4 3.7-77.6 1.1-17.2-2-33.4-9.2-47.7-9.6-19.2-20.4-31.4-40.9-46.4-4.2-3-2.3-4.6 5.2-4.4 4.2 0 6.1.5 6.8 1.7.6.9 6.6 9.1 13.3 18.3 11.8 15.8 18.8 23.9 19.8 22.8 1.1-1-9-19.3-17.2-31.3-4.7-6.9-8.4-12.8-8.2-13 .2-.2 2.9 1.3 5.8 3.2 5.8 3.8 10.5 6.4 11.5 6.4.4 0-1.4-2.3-3.9-5.1-2.7-3-4.8-6.4-5.2-8.4-1-5.3 2.8-11.8 11.8-20.8 4.3-4.3 7.8-8 7.8-8.2 0-.3-1.2-.5-2.6-.5-1.7 0-5.4 2.5-11.7 8l-9.2 8h-12.7l-7 7c-5.9 5.9-7.2 6.8-8.2 5.5-1.7-2.3-5.6.2-8.6 5.5-4.1 7.5-10.6 13.1-24 20.3-22.2 12-39 16-67 16.1-18.9.1-28.2-1.2-42.7-6-10.7-3.5-33.2-14.6-48.3-23.7-6.8-4.2-12.6-7.5-12.8-7.3-.2.2 1.3 3.6 3.3 7.5 5.6 11.3 9.3 14.6 23 21.2 32.6 15.4 55.7 20.6 84.3 18.8 14.7-.9 24-2.6 41.7-7.4 7-1.9 14.2-3.5 16.1-3.5 4.1 0 13.6 1.9 14.7 3 1.2 1.1-2.5 7.9-6 11.1-6.2 5.9-38.6 20-51.2 22.3-10.5 2-27.8 2-37.1.1-16.5-3.5-39.1-13.5-56.8-25.2-8.6-5.7-9.8-6.2-10.7-4.7-3.3 5.7-6.8 6.7-11.5 3.4-4.1-2.9-6.7-9.4-9-22.4-2.9-16.4-4.6-19.5-13.4-24.3-5.8-3.2-7.1-4.3-6.9-6.1.2-1.2-.2-2.2-.7-2.2-1.5 0-1.2-3.3 1.9-19.5 1.6-8.3 3.5-20.2 4.1-26.5.7-6.3 1.3-11.6 1.3-11.7.1-.1 2.6 1.1 5.6 2.5 3 1.5 10.4 7 16.5 12.4 16.5 14.5 32.8 23.4 52.1 28.8 11.9 3.3 16.9 6 17.5 9.6.7 3.4.7 3.4 13.5-.3l9-2.6L210 358c23.6 1.9 45 2.4 52.7 1.1 13.4-2.3 18.3-6.6 23.8-20.4 2.8-6.9 3.5-7.4 8-5.7 2.5.9 2.5 1.1 1 4-1.8 3.5-1 3.9 2.1.9l2.2-2 1.7 4.6c1 2.5 1.9 7.3 1.9 10.6 0 3.2.2 5.9.3 5.9.1 0 2.6-3.3 5.6-7.4 10.5-14.5 17.9-33.2 19.3-49.3.4-4.3.4-7.6.1-7.3-.3.3-1.5 3-2.7 6-4.4 11.2-12.7 19.3-23.6 23.1-5.5 1.9-5.5 1.9-8.3-.1-2.1-1.4-3-3.1-3.5-6.3-.4-2.4-2-7.1-3.5-10.4l-2.9-6 4.9 1.8c11.7 4.5 22.8 1.3 34.3-9.9l6.6-6.3-2.5-9.6c-3.1-11.8-6.4-18-13.8-26-9.7-10.3-21.2-14.7-28.7-10.8-3.4 1.8-10.5 11.3-7.5 10.2 8.4-3.3 19.2-3.3 26-.1 9.1 4.3 19.3 19 20.2 29.2.4 4.1.1 5.3-2.6 8.9-1.7 2.4-3.7 4.3-4.4 4.3-.6 0-3.1-2-5.5-4.5-6.1-6.3-20.6-15-31.9-19-16.5-5.9-17.8-8.6-17.7-35 0-18.9 1.3-26.8 5.1-31.3 2.9-3.3 12.7-4.9 21.5-3.4 24.3 4.2 40.3 24.4 43.9 55.5l1.3 10.8 7.7 7.3c7.4 7 7.7 7.6 9.2 14.2.9 3.8 2.4 12.1 3.4 18.4 1.6 10.1 1.8 10.9 2.1 6.5.2-2.7-.6-10.9-1.8-18.3-1.8-10.9-1.9-14.2-1-18.4 1.2-5.8 1-6.4-1.8-4.9-4.3 2.3-7.8 1.3-11.6-3.1-4.2-4.8-4.5-6.3-1.3-5.3 1.2.4 4.6 1 7.5 1.2l5.2.5v-3.6c0-3.6 0-3.6-4.4-3.6-3 0-4.6.5-5 1.5-.3.9-1.8 1.5-3.9 1.5-3.3 0-3.4-.2-4.1-4.6-.9-7-.9-7.1 3.2-7.8 4.9-.7 8.9-4.9 10.8-11.1 1.9-6.4 1.8-8.9-.1-8.1-.9.3-2.4.1-3.4-.6-1.5-.9-2.4-.7-5 1.1-3.6 2.6-5.2 5.2-6.1 10.1l-.7 3.5-1.1-4.1c-2.9-10.1-2.9-10.2 2.2-12.3 3.8-1.7 4.6-2.5 4.6-4.6 0-5.6-3.8-9.8-10.8-11.9-1.9-.6-2.4-.3-3.4 2.4l-1.1 3.2-2.3-4.3c-1.4-2.3-2.2-4.4-2-4.7.3-.2 2.4-.8 4.6-1.2 7.9-1.4 20.1 3.8 27 11.7 4.5 5.1 5.2 9.7 5.5 34.3.3 24.4 1.2 30.3 6.2 40.7 4.3 8.7 11.4 14.4 28.7 22.8 33 16.1 60.2 22.8 93.1 22.9l14.1.1 6.9-3.5c5.3-2.7 9.7-6.2 18.1-14.5 13.2-13 16.8-19.2 16.7-28.4-.1-12.4-7.2-30.1-18.3-45.6-3.1-4.4-7.6-11.6-10-16-6.8-12.6-9-15.5-11.5-15.5-1.6 0-2.6.8-3.2 2.7-.8 2.4-.6 2.9 2.1 4.3 3.3 1.7 9.3 8.6 8.3 9.6-.3.4-3.5-1.4-6.9-3.9-6.1-4.3-6.5-4.4-9.2-3-3.8 2-6.9 1-12-3.7-2.4-2.2-4.9-4-5.7-4-3.5 0-9.2 2.4-13.4 5.5-2.5 1.9-4.9 3.5-5.5 3.5-1.4 0-3.3-7.5-2.6-10.3.7-2.9 8.6-6.7 15.4-7.5 2.3-.2 4.2-.8 4.2-1.1 0-1.6-3.4-5.2-6.1-6.6-3.4-1.8-3.5-2.6-.9-8 2.1-4.4 2.6-12.8 1-17-.9-2.3-.7-2.7 1.7-3.6 4.5-1.7 7.9.5 12 8 6.5 12 11.7 19.5 17.8 25.7 8.7 8.8 13.8 11.4 23.5 12.3 7.3.6 8 .5 8-1.1 0-1 1.7-3.4 3.8-5.2 7.6-6.9 12.2-19.6 12.2-34.1 0-9.2-1.4-13.8-5.6-18.5-4.3-4.7-11-7.7-20.9-9.1-6.3-1-14.8-.7-50.8 1.6-48 3-52.5 3.7-61.3 10.3-8.2 6.2-11.7 12.9-14.9 28.4-.5 2.4-1 2.7-6.3 3.3-3.1.3-11 1.4-17.4 2.4l-11.8 1.7-2.1-5.5c-8.3-21.9-10.1-46.9-4.2-58.5 2.5-5.1 14.5-20.5 22.2-28.8 11.3-12.1 11.7-12.2 41.6-12.8l25-.5 8.7-4.4c14.8-7.4 23.5-5.8 34.3 6.1 7.1 7.9 15.5 19.4 23.1 31.8 3.7 6.1 6.9 10.8 7.2 10.6.5-.6-11.7-24-16.3-31.2-5-7.8-7-12.2-9-19.7-1.9-7-2.7-8.2-6-8.8-1-.2-3-2-4.3-3.9-1.4-2.1-3.4-3.7-5-4-2.3-.4-2.7-1.1-3-4.3-.4-4.3-.8-4.5-3.7-1.7-1.2 1.2-3.7 2.3-5.6 2.6-2.9.5-3.9.1-6.7-2.9l-3.4-3.5-6.1 2.5-6.2 2.5-2.6-3.1c-1.6-2-3.5-3.1-5.2-3.1-1.4 0-2.9-.5-3.2-1-1.2-1.9-2.4-1-5.1 4-1.5 2.7-3 5-3.3 5-.3 0-1.9-2-3.4-4.5-1.6-2.5-3.2-4.3-3.6-4-.5.2-1.4 3.2-2.1 6.6-1.1 4.9-1.8 6.2-3.7 7-1.3.5-2.6.9-2.8.9-.2 0-.9-2.7-1.6-6-1.4-7-2.9-7.9-3-1.8 0 2.4-.4 5.1-.7 6.1-.7 1.6-1.1 1.5-4.7-1.2-2.2-1.7-4.3-3.1-4.8-3.1-.4 0 1.7 3.7 4.8 8.2 3 4.6 5.5 8.8 5.5 9.5 0 1.4-5.6 3.2-12.5 3.9-4.5.5-5.6.2-10.5-3-3-1.9-5.6-3.3-5.7-3.2-.2.2.4 1.9 1.2 3.9.8 2 1.5 3.8 1.5 4 0 .3-1.9.1-4.2-.4-6.6-1.3-7.4-1.1-8.6 1.7-1.1 2.4-1.6 2.5-6.7 2.1-3-.3-5.5-.1-5.5.3 0 .5 1.9 2.3 4.1 4.1 2.3 1.8 3.8 3.4 3.3 3.6-.5.2-5-.6-9.9-1.6-4.9-1.1-9.1-1.8-9.4-1.5-.2.2.5 2.2 1.7 4.3 1.2 2.1 2.2 4.1 2.2 4.5 0 .3-3.2.6-7.1.6h-7.2l.7 3.8c.5 3.5.4 3.9-2.6 5s-3.1 1.3-1.5 3c2.3 2.6 2.1 3.7-.8 5-3.6 1.6-3.5 1.7-3.5-3.3 0-3.1.5-4.7 1.7-5.4 1.4-.7 1.5-1.2.4-2.4-1-1.3-.9-1.8.9-2.7 1.7-.9 2-1.9 1.8-5.8l-.3-4.6 6.1-3.1c3.3-1.6 8-4.5 10.4-6.3 3.2-2.3 5.5-3.2 8.4-3.2 4.1 0 11.3-1.4 12.2-2.3.3-.3 0-1.4-.7-2.6-.7-1.1-1-2.3-.6-2.7.3-.4 4.8-1 9.8-1.5 11.8-1.1 12.9-1.5 12.9-4.5 0-2.8.7-3 3.8-.8 3.5 2.4 3.7 1.1.6-4.1l-2.7-4.7 2.2-2.1 2.2-2.2 2.4 2.8 2.4 2.7 2-4.4c2.5-5.7 6.1-8.3 9-6.4 1.7 1 2.9.9 7.2-.6 5-1.8 5.3-1.8 6.5-.1 1.3 1.7 1.4 1.7 3.4-.6 1.4-1.6 2.3-2 2.6-1.2.4.9 1.7.4 4.5-1.4 4.6-3.1 8.2-2.7 13.5 1.4 2.9 2.2 3.7 2.4 4.4 1.3.6-1 2.2-1.3 4.6-1.1 2.1.1 4-.2 4.4-.9.5-.8 1.6 0 3.4 2.6 2.5 3.7 2.7 3.8 3.2 1.6.7-2.6.8-2.6 3.4-1 1.5 1 2.2.9 3.9-.6 2.7-2.4 3.5-1.7 5.6 5C472.1 59.8 478 68 480 68c.5 0 1-1 1.2-2.3.4-2.1.5-2.1 1.8.6 1 2.1 2 2.7 3.9 2.5 2.2-.3 2.8.3 4.3 4.4 1 2.7 1.4 4.8 1 4.8-3.3.1-3.1 2 1.1 11.1 2.4 5.2 5.2 11.5 6.2 14.2 1 2.6 2 4.6 2.2 4.3.2-.2-.1-4.3-.7-9.1-.8-6-1.9-10.1-3.5-13-3-5.1-3.1-5.9-.5-9.5 1.6-2.3 1.9-3.8 1.4-7.2-.9-6-2.6-8.3-7.8-10.4-3.2-1.3-4.9-2.7-5.5-4.7-.6-1.5-2.1-3.1-3.3-3.6-1.3-.5-3-1.6-3.7-2.5-.7-.9-2-1.6-2.7-1.6-.7 0-6-1.5-11.6-3.4-7.2-2.4-12.9-3.6-19.1-4-8.5-.5-8.8-.4-8.2 1.5.6 1.7.3 2-1.2 1.6-1-.4-5.2-1.1-9.4-1.6-9.6-1.3-15.4-.4-28.9 4.6-8.8 3.2-10.5 4.2-11 6.3-.6 2.3-1 2.5-5.2 2.2-4.2-.3-4.7-.1-5 2-.2 1.6-1.7 3-5.3 4.7-2.7 1.3-8.6 4.5-13 7.1-4.4 2.6-12.3 6.9-17.5 9.6-6.2 3.2-11.4 6.8-15.1 10.4-5.2 5.1-5.8 6.3-9.2 16.7-2 6.2-3.9 12.9-4.3 14.8l-.6 3.5h11.3l-3.6 5.5c-1.9 3.1-3.5 6-3.5 6.5 0 .6 1.8-.1 4.1-1.6 2.2-1.4 4.2-2.4 4.4-2.2.2.2-1.3 2.5-3.3 5.3-3.3 4.4-3.7 4.7-4 2.6-.2-1.4-.9-2.1-1.7-1.8-.7.3-1.8 0-2.5-.6-1-1-1.1-.7-.7 1.3 1.6 6.6 2.6 16.9 3.2 31 .7 16.5 1.8 20.8 7.1 27.7 1.4 1.8 2.3 3.7 1.9 4.2-1.2 2-6.5 2.3-9.7.5-1.8-.9-4.9-2.5-6.9-3.6-8-4.1-15.6-4.4-34.1-1.1-2.7.5-2.8.4-2.1-2.8.3-1.9 1.6-5.8 2.9-8.7l2.3-5.3-3.6-4-3.6-4 1.3-5.7c1-4 1.3-11.9 1.2-27.1-.3-24.7-.6-25.6-9.6-29.6-5.9-2.6-34.3-17.5-46.6-24.5-4.7-2.6-14.8-8.3-22.5-12.5-7.7-4.3-31.8-18-53.5-30.5C65.8-1.1 66.6-.8 51.5 1.1zm216 150.4c-.9 7.1-2.1 14.5-2.7 16.3-.9 3.2-.8 3.6 2.3 6.2 4 3.3 3.4 4.7-1.2 3.1s-8.2-1.4-14.1.9c-2.9 1.1-5.6 2-5.9 2-1.1 0-3.1-8.5-2.7-11.6.3-2.6.7-2.9 4.5-3.2 2.7-.2 6 .4 8.9 1.8 2.6 1.1 4.8 1.9 4.9 1.8.4-.6 3.5-10.2 3.5-10.9 0-.5-1.7-1.1-3.7-1.4-8.1-1.4-8.6-2.4-6.1-11l1.1-4 1 3.5c1 3.4 1.1 3.3 2.3-4.3 1.6-10.1 2.2-11.4 2.3-5 .2 8.9 1.4 9.5 2.7 1.3.7-4.1 1.3-9.4 1.3-11.7.1-2.3.7-5.4 1.4-7 2-4.5 2.1 17.5.2 33.2zm-107-9.4c3.9 1 11.5 3.6 17 5.8l10 3.8.1 6.4c.2 4.8.5 6.3 1.5 6.1 8.2-2.1 25-5.4 25.4-5 .3.3-.1 7.7-1 16.4-2.2 23.6-2.5 22 3.7 23.4 2.9.6 6.2 1.3 7.4 1.6 2 .5 2.1.1 2.7-7.3.5-7.1.9-8 3.7-10.6 1.6-1.5 3.4-2.7 3.8-2.7.5 0 2.3 2 4.1 4.5 1.8 2.5 3.5 4.5 3.8 4.5.2 0 2.3-1.5 4.5-3.4 10.7-9.2 20-8.7 12.9.7-4.5 6-5.9 9.4-6.7 16.2-.5 5-.8 5.6-1.5 3.6-1.2-3.1-1.4-12.6-.4-17l.7-3.5-2.8 1.9c-7.9 5.1-6.8 5-12.6 1.1-2.9-2-5.6-3.6-6-3.6-.8 0-1.5 4-2.1 11.8l-.4 5.3 4.6 3.1c2.5 1.7 9 7.4 14.4 12.7l9.7 9.5-.6-7.5c-.4-4.5-.2-10.4.5-14.5 1.4-7.7 9.4-25.9 11.1-24.9 1.8 1.1 1.1 3.6-3.5 13.5-5.5 11.7-6.5 16.7-5.8 28.9l.6 9.6-9.9-9.5c-11.4-10.9-17.7-14.9-30.1-19.3-7.9-2.8-10-3.1-20.5-3.2-10.3 0-12 .2-14.5 2.1-3.5 2.6-6.9 8.7-7.7 13.9-.6 3.7-.5 3.9.9 2.1 1.4-1.8 1.5-1.4 1.5 5.2 0 6-.3 7.2-1.6 7.2-1.4 0-1.6.8-1 6.1 1.3 10.9 5.4 25 8.4 28.9 1.9 2.4 6.3 5.3 13.7 9l10.9 5.5-4.9.9c-9.1 1.7-26.1-2.8-39.2-10.4-9.7-5.6-11.6-13.5-11.1-47.5.3-21.6.3-22.1-2.1-26.9-2.5-5-8.2-11.3-15.6-17.4l-4-3.2 4 1.7c6.2 2.6 14.5 8.5 17.7 12.4 1.9 2.4 3.3 5.9 4.4 10.9.8 4 2.2 8.6 3.1 10 1.6 2.7 8.7 8 10.8 8 .5 0 1.8-2.6 2.7-5.9 1-3.2 3.3-8.2 5.3-11.1 2-2.9 3.4-5.4 3.3-5.5-.2-.2-3.5-1.4-7.5-2.8-14.2-5-13.4-5.9 2.3-2.6 8 1.6 11.8 1.9 19.7 1.4 5.3-.4 9.7-.8 9.7-.9 1.4-5.4 3-17.8 3-22.9v-6.9l-3.2.7c-6.7 1.4-15.8 6.3-15.8 8.5 0 .3 2.3 1.7 5 2.9 5.9 2.7 6.5 5.3 2.2 9.5-5.5 5.2-14 4.7-17.4-.9-2.3-4.1-4.7-4.4-9.6-1.5l-3.3 2-6.7-6.6c-6.4-6.4-12.7-10.3-16.4-10.4-1.4 0-1.8-.8-1.8-3.3v-3.4l-7.8.5c-6.3.3-8 .1-9.1-1.2-1.2-1.4-.8-1.6 3.7-1.6 2.7 0 5.4-.6 6-1.3.5-.6 1.9-4.4 3.1-8.4 1.4-4.7 2.7-7.3 3.9-7.6 2.5-.7 8.7.2 16.7 2.4zm322.6 12.5c-2.4 2.5-4.9 6.1-5.7 8-1.4 3.4-1.5 3.4-7.7 3.4-5.9 0-6.4-.2-8-3-1-1.6-3.9-4.6-6.4-6.7l-4.6-3.8 15.9-1.1c8.7-.6 17-1.2 18.3-1.2 2.2-.2 2 .1-1.8 4.4zm-92.8 44.8c.7 7.3 4.8 15.6 10.3 20.6 3.7 3.4 4.3 4.4 3.3 5.6-1.1 1.3-.9 1.4 1.4.3 2.1-1 3.7-.9 8.5.5 3.2.9 7.2 1.6 8.8 1.6 3.2 0 14.1-4.8 18.1-8 1.4-1.1 2.9-2 3.3-2 .9 0-.1 4.9-3.5 16.6-1.4 4.8-2.5 9.3-2.5 10.2 0 .9 2.6-2.6 5.8-7.8 5.4-9 5.9-9.5 8.8-9.2 2.2.2 4.1-.5 6.2-2.3 3.3-2.7 6.2-3.1 11.2-1.4l3.3 1.2-4.7 1.8c-4.5 1.7-15.1 9.4-22.9 16.8-7.8 7.3-11.3 18.2-10.4 32.5.3 5 .8 9.9 1.2 10.8 1.4 3.6-11.1 13.3-22.5 17.3-4 1.4-7 .5-24.1-6.9-9.7-4.2-14.6-7.8-18.8-14-5.1-7.3-6.3-13.8-6.6-34.5-.2-17.1-.5-19.6-3.4-30.8-1.7-6.7-3.4-14.2-3.7-16.7l-.6-4.4 7.3-1.2c7.4-1.3 23.9-2.8 25-2.3.3.1.9 2.7 1.2 5.7zm-165 11.1c3.1.8 7.7 2.4 10.3 3.6 6.4 3 15.4 11.6 18.9 18.1 2.8 5 2.9 6 2.9 16.8.1 12.5-.8 15.2-6.1 20.1-6.7 6.3-11.4 7.1-23.9 3.9-13.3-3.3-15.6-6.6-13.7-19.7.9-6 1.7-8.2 4.3-11.5 2.4-2.9 2.7-3.7 1.3-2.9-4.1 2.1-11.9 11.9-15.6 19.4-4.4 8.8-4.6 8.8-11.5 1.3-5.6-6-7.4-10.7-7.4-19.1-.1-7.6 1.9-13.6 6.7-19.9 7.9-10.4 19.4-13.9 33.8-10.1zm286.1 38.7c3.2 2.3 8.6 7.8 12.2 12.1 5.9 7.3 6.3 8 4.7 9.2-1.7 1.3-1.7 1.4.1 3.4 1.7 1.9 2 2 3.1.4 1.1-1.5 1.3-1.5 1.9.5 2.1 6.4-.9 24.5-4.4 27.7-1.4 1.2-2.7 1.5-5 1-3.3-.7-18.4-11.6-19.3-13.9-.7-1.8 1.2-3.6 3.9-3.6 3.5 0 3.7-1.7.6-4-1.6-1.2-4-4.4-5.3-7.2-2-4.2-3.2-5.4-7.9-7.8-9.7-4.8-9.7-4.8-10.5 1.2-1.1 8.5-2.2 11.9-5.1 15l-2.8 2.8h13.7l-.6 8.7c-.3 4.9-.9 9.6-1.2 10.5-.4 1-2.5 2.3-4.6 3-3.5 1-4.3.9-6.7-.9-1.5-1.1-4.3-4.3-6.3-7.1-4.3-6-3.7-6.4-10.4 6.6-3.4 6.6-5.5 9.6-7.3 10.3-1.4.5-2.7.7-3 .4-.5-.5 2.4-11.8 4.3-16.8.6-1.5.1-1.7-3.9-1.7-2.5 0-4.6-.3-4.6-.8 0-.4.7-2.9 1.5-5.6 2.1-7.1 2-10.7-.6-11.3-1.6-.5-1.9-1.1-1.4-3.4.4-1.6.3-2.9-.2-2.9-.4 0-1.4-.4-2.2-.9-1.1-.7-.4-2.5 3.4-8.7 10.2-16.9 12.4-18.4 26.9-18.4 9.8 0 13.3 1.3 6.8 2.5-6.6 1.2-16.4 6.6-21.8 12-4.7 4.6-9.1 11.1-8.2 12 .2.2 2.6-1.4 5.3-3.6 10.8-8.7 24.4-13.3 39-13.3 7.8 0 9.8.3 14.7 2.7 3.1 1.5 7.9 4.8 10.6 7.2 4.4 4 6.2 4.7 6.2 2.4 0-1.9-9.4-11.9-14.2-15.3-5-3.4-9.2-4.6-19.3-5.7-2.4-.2 5.4-2.8 8.6-2.9 2.8 0 5 1 9.3 4.2z"/><path d="M39.5 33.9c-3.4 2-6.1 5.6-7 9.4-.5 2-.2 2.7 1.4 3.2 2.8.9 7.4 6.3 11.2 13.6C49.2 67.7 54.9 74 57.8 74c3.6 0 7.2-2.2 9.4-5.9 1.8-2.9 2.3-5.5 2.6-13.2.5-12.4-1.2-16.4-9-20.3-6.6-3.3-16.6-3.6-21.3-.7zM216.2 79.9c3.2.5 5.7 1.6 7.7 3.5l2.8 2.7 1.9-2.5 1.9-2.6 8.5 1.1c4.6.5 8.5 1.1 8.6 1.2.6.7.7 12.4.1 13.4-.4.7.5 2.1 2.5 3.6 6 4.4 10.5 6.2 7.5 2.9-.9-1-2.5-5.5-3.6-10.1-1-4.6-2.6-9-3.4-9.9-1-.9-5-1.8-11.1-2.5-8.6-.9-9.8-.8-11.5.7-1.9 1.7-2 1.7-3.1-.3-.9-1.8-1.9-2.1-7.3-2l-6.2.2 4.7.6zM423.4 114c-7.4 1.1-11.9 2.7-21.1 7.5-14.4 7.6-27.2 19-37.8 33.9-5.9 8.3-5.3 10 .7 2 6.1-8.2 19.2-21.8 26.3-27.1 11.9-9.1 28.8-15.2 42.7-15.4 5-.1 5.7-.3 3.3-.9-3.8-1-7.6-1-14.1 0zM457.1 118c-.1 1.4.6 5 1.4 8 2.6 9.2 3.4 8.5-9.5 8.5h-11.5l-10.7 5.2c-6 2.8-10.8 5.4-10.8 5.6 0 .2 2.7 0 6-.5 3.5-.4 8.9-.4 12.8.2 3.7.5 12.8 1 20.2 1 11 0 15.8-.5 26.3-2.7 7-1.5 12.7-3.1 12.7-3.5 0-.5-2.2-.8-5-.8-2.7 0-5-.4-5-.9s2.9-1.9 6.5-3.1c3.6-1.2 6.5-2.6 6.5-3 0-1.2-6.6-3-10.7-3-2.9 0-12 1.5-15.2 2.6-1 .3-1.1.8-.2 1.8.9 1.1.7 1.5-1.1 2-5.7 1.5-6.5.9-8.7-5.7-1.1-3.4-2.5-8-3-10.2-.6-2.9-.9-3.3-1-1.5zM351.9 332.2c-2.1 5.9-4.7 10.9-7.3 14.1-7.4 9-11.7 15.1-12.2 17.3-.7 2.9 2.8 8.1 16.2 23.7l10.3 12 .3 7.9.3 8 7.5 2.7c9.6 3.4 15.4 6.8 22.4 13.2 7.5 6.8 14.1 15.7 18.7 25.4 4 8.2 6.1 11.3 5.4 7.9-.7-2.9-5.3-27.6-5.8-30.6-.2-1.5-.1-2.6.2-2.4.4.3 4.2 8.8 8.6 19 4.4 10.3 8.1 18.2 8.3 17.6.2-.5-1-7.8-2.8-16.1-1.7-8.3-2.9-15.3-2.8-15.5.6-.5 31 34.4 33.3 38.3 2.8 4.5 41.5 88.3 55.1 119 25.3 57.2 43.2 102.4 51 129 .3 1 16.1 1.3 74.9 1.3H708v-43.3c-.1-49.3.9-43-10.5-68.1l-6.8-14.9-.7-12.6c-.6-11.4-1.2-13.9-5.3-25.8-2.5-7.2-5.1-14.2-5.8-15.5-1.2-2.2-21.9-27.2-41.1-49.7-8.1-9.4-10.2-12.5-11.7-17.5-1-3.4-1.7-6.3-1.5-6.5.3-.3 8.7 7.7 18.7 17.7 26.3 26.1 26.1 25.4-2.2-10.8-10.9-14-19.7-25.7-19.6-25.9.2-.1 5.4 1.2 11.5 2.9 6.1 1.8 11.3 3 11.6 2.8.2-.3-.5-3-1.6-6.1-5.4-14.3-23.6-32.7-49-49.4-6.3-4.2-13.3-8.8-15.5-10.2-2.1-1.4-7.5-6-12-10.1-15.9-14.8-46.7-42.5-48.1-43.3-1.2-.7-1.4 2.2-1.4 18.3 0 12.5.3 18.9 1 18.5.6-.3 1-2.3 1-4.3 0-6.7 1.2-6.7 7.3-.5 17.3 17.7 29 42.2 31.8 66.4 1.3 12.3-.1 48-2.6 61.4-1.5 8.7-5.6 23.5-8 29.2l-1.5 3.6-5.8-8.4c-7.2-10.6-17-23.4-24.2-31.9-3.1-3.6-6.5-7.6-7.6-8.8-4.5-5.6-21.7-20-31.1-26.1-10.1-6.7-10.4-7-36.4-38.2-14.4-17.3-28.2-33.6-30.6-36.3-2.4-2.7-4.2-5.1-3.9-5.3.9-1 37.5 9.6 40 11.6.6.5 2.6 1.1 4.5 1.3 3 .4 3.2.3 1.6-.8-.9-.7-6-3.1-11.2-5.4-5.2-2.3-18.5-8.6-29.6-14-21.4-10.4-22-10.8-36.2-26-6.6-7.1-19.1-19-20-19-.2 0-1.8 4.1-3.6 9.2z"/><path d="M570.2 379.5c.4.5 20.5 6.4 45.5 13.5 3.5.9 7.6 2.8 9.3 4.1 7.2 5.7 43.4 56 58.7 81.4 12 20 21.2 40.7 22.8 51.8.7 4.3 1.1 4.8 6 7.6 10.4 5.9 14.8 12.2 14.9 21.6.1 5.7 0 6-2.1 5.7-2.2-.3-2.2-.1 1.2 7 3.5 7.5 9.2 27.1 14.1 49 2 8.8 2.8 15.1 2.8 22.4l.1 10.1-5.3 5.8c-4.4 4.8-5.2 6.2-4.7 8.3.3 1.4 2.6 13.9 5.1 27.6 2.5 13.8 4.7 25.9 5 26.8.4 1.3 1.6 1.8 4 1.8 1.9 0 3.4-.2 3.4-.3 0-.2-1.8-6.4-3.9-13.8-2.1-7.4-5.8-20.1-8.1-28.3l-4.1-14.9 2.2-2.3c1.2-1.3 3.9-3.5 6.1-5 2.2-1.5 4.6-4 5.4-5.6 2.2-4.2 2.8-14.2 1.5-24.3-1.2-8.9-2.5-14.3-9.5-39.9-2.8-10.2-3.8-15.9-4.6-27.6-1-15.6-1.8-19.1-5.3-22.9-2.9-3.1-9.4-6.1-13.5-6.1-4.2 0-5.2-2.5-5.2-13.3 0-4.5-.3-12.7-.7-18.1l-.6-10-6.6-8c-3.6-4.5-19.8-24.5-36-44.6-36-44.7-38.4-47.5-41.8-48.8-2.8-1.1-52.8-11.2-55.3-11.2-.7 0-1.1.2-.8.5zM491 382.5c0 1.4-.5 2.5-1 2.5-.7 0-.7.6 0 2 .9 1.7.4 2.7-3.5 6.9-5.3 5.7-9.8 8.1-14.9 8.1-2 0-3.6.4-3.6.9s2.6 3.3 5.8 6.3c6.9 6.3 14.7 9.7 24.1 10.5 6.3.6 6.3.6 5.6-1.8-.5-1.3-2-6.9-3.5-12.4-5.1-18.6-7.3-25.5-8.2-25.5-.4 0-.8 1.1-.8 2.5zM374.1 439.3c-.2 9.9 8.9 28 20.6 41 7.2 8 15.7 20.7 13.8 20.7-.4 0-2.8-2.3-5.4-5-2.6-2.8-5.2-5-5.9-5-2.6 0-1.1 6.6 3.4 14.9 5.4 9.9 10.8 18 22.4 33.6l8.2 11-.7-6.5c-.9-8.8-3.4-28.8-4.1-32.5-.4-2.2-2-4.1-6-6.9-5.9-4.3-5.1-2.4-11.5-24.9-2.2-7.8-4.6-11.9-12.1-21.4-4.5-5.4-5.5-6.2-9.6-6.8-5.2-.8-9.7-4.6-10.7-9.1-.4-1.6-1-3.8-1.5-4.9-.7-1.6-.9-1.2-.9 1.8z"/><path d="M682 533.7c.1.5 3.6 5.3 8 10.8 4.4 5.5 8 10.3 8 10.7 0 .5-1.4.8-3.1.8h-3.1l.7 6.2c.7 6.1 1.1 6.9 5.8 10.1 1.7 1.2 6.7 11.7 20.4 43.7 8.4 19.6 10.2 23.4 10.9 22.7.2-.2-1.4-5.5-3.7-11.8-3.7-10.3-17.9-52-17.9-52.6 0-.2 1.2-.3 2.7-.3 3.3 0 2.3-1.2-4.3-5.1l-4.7-2.7 5.9-.7c6.1-.8 7.9-1.6 9.5-4.6.7-1.5 0-2.3-4.5-4.8-7.2-4.2-9.5-6.6-14.1-15.5l-4-7.6h-6.2c-3.5 0-6.3.3-6.3.7zM361.5 551.5c-1.6.7-4.1 2.3-5.4 3.3l-2.5 2 4.6 5c4.7 5.3 10.2 15.1 13.4 23.7 3.5 9.7 9.9 15.4 22.3 19.5 6.2 2 7.1 2.1 25.5 1.1 10.5-.6 23-1.4 27.7-1.7 8.2-.6 8.7-.6 9.8 1.5 1.9 3.4 3.1 2.5 3.1-2.3 0-5.5-2.3-8.5-7.2-9.3-5.8-.9-10 .4-17.4 5.2-6.3 4.2-7.3 4.5-13.4 4.5-14.7 0-36-7.6-36-12.8 0-.8 2.2-5.6 4.9-10.6s5.2-10.5 5.6-12.3c1.5-7.3-4.7-12.1-19.7-15.4-5.1-1.1-10-2.2-10.8-2.4-.8-.2-2.8.2-4.5 1zM407.5 559.7c15.4 14.4 15.4 14.3 9.9 5.8l-1.6-2.5h5.5c14.6 0 37.1 6.4 49.9 14.2 4.4 2.7 8.2 4.7 8.4 4.5 2.4-2.4-18.5-14.7-29.8-17.6-12.6-3.2-44.6-6.6-42.3-4.4zM353 596.7c0 .5-.7 7.5-1.5 15.8-2.3 21.7-2.1 51.7.4 68 1.1 7.1 2.4 14.1 3 15.5l1 2.5v-3c0-1.7-.4-6.4-1-10.5-.6-4.2-1-25.6-1-48.3 0-22.4-.2-40.7-.4-40.7-.3 0-.5.3-.5.7zM486.1 615.8c-.1 1.3 1 9.7 2.4 18.5 1.4 8.9 3.8 25.4 5.5 36.6 1.6 11.2 3.2 20.6 3.5 20.9 1.1 1.1.4-17.8-1-30.3-2.3-18.9-10.2-53.7-10.4-45.7zM381.6 640.2c-.3 1.3-.6 3.8-.6 5.7 0 6.5-5.1 28.4-10 43.4-2.8 8.3-4.8 15.2-4.7 15.4.2.1 1.6-1 3.2-2.7l2.8-2.9 4.5 3.9c4.2 3.7 11.5 7.8 17.2 9.5l2.5.8-2.8-3.4c-10.7-13.1-11.2-14.1-11-18.8 0-2.5 1.2-7.5 2.6-11.1 7.9-20.9 8.7-23.3 8.7-28 0-5.4-2.9-9.8-8.1-12.5-3.6-1.9-3.6-1.9-4.3.7zM290.6 671.5c-9.7 17.7-23.4 31.6-36.7 37.4l-4.4 1.9 3 .7c7.7 1.8 12.8 3.9 18 7.6 3.2 2.2 5.9 3.9 6 3.7.8-.9 18.7-57 18.2-57.4-.2-.3-2.1 2.5-4.1 6.1zM349 716.4v7.6h20.7c11.3 0 20.4-.3 20.1-.6-.3-.3-4.9-1.4-10.1-2.5-12.6-2.5-23-6.1-27.2-9.4l-3.5-2.6v7.5zM734.8 739.9c-16.2 5.2-28.2 19.4-30.8 36.4-3.1 20.2 7.1 39.2 25.8 48 6.4 3 7.3 3.2 18.7 3.2 11.4 0 12.3-.1 18.8-3.2 9.1-4.3 17.7-13 22-22 2.7-5.9 3.2-8.1 3.5-17 .4-8.5.1-11.2-1.8-16.8-4.4-13.2-15.8-24.5-28.8-28.5-8.2-2.5-19.6-2.6-27.4-.1zm20.6 31c4.3 2.9 6.6 7 6.6 12.1 0 8.5-5.7 14-14.3 14-3.5 0-5.1-.6-8.2-3.3-3.4-2.9-3.9-3.9-4.3-8.8-.5-6.7 1.4-11.1 6.1-13.9 4.1-2.5 10.4-2.5 14.1-.1zM123.4 742.7c-12 28.5-31.6 81.5-30.5 82.6.4.4 4.1.7 8.1.5l7.2-.3 2.9-8c1.5-4.3 3.6-8.5 4.5-9.2 1.3-.9 6.2-1.3 17.1-1.3 17.9 0 17.8-.1 21.3 10.4 1.2 3.7 2.7 6.9 3.4 7.1 2.9.9 15.6 1.3 15.6.5 0-.5-6.1-16.6-13.6-35.7s-14.9-38.3-16.6-42.6l-3-7.7H125l-1.6 3.7zm12.9 26.5c2 5.1 4.8 12.5 6.1 16.5l2.5 7.2-3.4.7c-4.3.8-20.1.2-21.1-.9-.4-.4.1-3.3 1-6.5 2.8-8.8 9.8-26.2 10.6-26.2.3 0 2.3 4.2 4.3 9.2zM482.6 741.2c-.3 1.3-1 5.9-1.6 10.3-.6 4.4-1.4 9.5-1.7 11.2l-.5 3.3h7.8c4.4 0 9.6.3 11.6.6l3.8.7-3.2 5.6c-1.8 3.1-7.1 11.6-11.8 18.8l-8.7 13.3 1.3 6.2c.8 3.5 1.4 8 1.4 10 0 3.6.1 3.7 4.3 4.2 2.3.3 15.3.7 28.9 1 20.7.4 24.7.3 25.2-.9.3-.8.8-7.4 1.2-14.6l.7-13.2-6.4.7c-12.6 1.2-18.4 1-18.1-.5.2-.8 5.5-9.1 11.8-18.4l11.4-17.1-.1-7.4c-.1-4.1-.4-8.9-.8-10.5l-.6-3-21.2-.6c-11.6-.4-24.1-1-27.7-1.3-6.3-.7-6.5-.7-7 1.6zM3 740.7l-2.5.4V826l7.5-.3 7.5-.2-.2-24.3c-.1-13.3.2-24.2.6-24.2.9 0 5.1 9 14.6 31.5 3.7 8.8 7.2 16.6 7.8 17.3.6.8 2.7 1.2 5.6 1l4.6-.3 4.8-12c10.4-26 14-34.6 15.4-36.3 1.2-1.5 1.3 1.7 1.1 22.6l-.3 24.4 7.7.3 7.6.3v-84.6l-2.1-.6c-1.2-.3-4.5-.6-7.3-.6h-5.1l-6.8 17.7c-8.3 21.9-15 38.4-17.9 44.1l-2.2 4.3-7.9-18.8c-4.3-10.3-10.9-25.2-14.6-33.1L14.1 740l-4.3.1c-2.4.1-5.4.4-6.8.6zM183 740.7l-2.5.4v42.3l-.1 42.3h7.8l7.8.1V796h9.4c11 0 10-.9 16.5 15 6.4 15.7 5.6 14.9 15.1 14.7 4.4-.1 8-.5 8-1s-3.2-7.9-7.1-16.4l-7-15.5 5.4-5.7c4.7-4.9 5.7-6.6 6.7-11.6 3.2-15.3-2-26.9-14.5-32.7-4.6-2.1-6.4-2.3-24-2.4-10.4-.1-20.1 0-21.5.3zm39.6 14.8c3.7 2.4 5.8 7.3 5.8 13.6.1 6.1-1.7 9.7-6 12.6-2.9 1.9-17.6 3-23.9 1.9l-3.5-.7v-11.2c0-6.2.3-12.9.6-14.9.6-3.7.7-3.7 5.8-4 7.7-.5 18.5.9 21.2 2.7zM254.4 782.7v42.8l7.6-.2 7.5-.2v-35.6l4.6-.5c8.3-1 8.8-.6 16.1 13.2 3.7 7 8.3 15.2 10.2 18.3l3.6 5.6 8.3-.3c7.5-.3 8.2-.5 8.1-2.3 0-1.1-3.6-6.9-7.8-13-7.7-10.9-14.6-23.6-14.6-26.9 0-1 2.3-4.3 5.1-7.4 2.8-3.2 6.8-9.3 8.9-13.7 4.1-8.4 7.8-20.1 6.7-21.1-1-1-9.3-1.7-12-1-2 .5-3 2-5.2 8.3-6.4 18.2-10.7 24.4-18.8 26.8-7.6 2.2-12.4 2-13.3-.7-.3-1.2-.3-9.3.1-18l.7-15.8h-6.5c-3.6 0-7.2-.2-7.9-.5-1.2-.5-1.4 6.2-1.4 42.2zM359.2 783.1v42.5l7.7.1h7.8l-.1-42.4-.1-42.4-7.6-.2-7.7-.2v42.6zM384.7 741.2c-.3.8-.8 4.1-1.2 7.3l-.8 5.8 11.6-.8 11.5-.7.8 4.7c.3 2.6.3 19-.1 36.4l-.7 31.7h8.2l8.3-.1-.6-27.5c-.3-15.1-.3-31.5 0-36.4l.6-8.8 11.1.3c8.4.3 11.1.1 11-.9-.1-.6-.2-3.7-.2-6.8l-.2-5.6-8.7.7c-10.5.9-35.3.9-43.9 0-4.8-.6-6.2-.4-6.7.7zM548.4 783.1v42.6l25.5-.1c14.1 0 28.1.3 31.2.7l5.6.8 2.1-12.4c1.2-6.8 2.2-12.9 2.2-13.6 0-.9-2.7-1.1-11.7-.6-14.7.7-21.8-.2-21.8-2.9 0-3 5.2-3.9 16.4-2.8 5.3.6 9.9.8 10.2.6.3-.2.9-4.1 1.3-8.6.3-4.6.9-10 1.2-12l.7-3.8-12.9.2c-13.2.2-17.4-.7-17.4-3.7 0-2.2 8-2.9 20.4-1.8 6.1.6 11.3.9 11.5.7.7-.7-1.9-23.8-2.8-24.7-.4-.4-14.4-.9-31.2-1l-30.4-.2-.1 42.6zM621.5 782.7v42.8l17.3.1c15.4.1 17.2 0 16.8-1.5-.8-2.6-1.9-25.1-1.3-25.1.5 0 3.3 6.8 8.7 21.4l2 5.1 17.5.2c9.6.1 17.5-.1 17.5-.4 0-.3-3.5-7.8-7.7-16.5l-7.7-16 4.3-3.6c12.2-10.1 12.4-32.6.4-41.8-8.3-6.3-11.2-6.8-40.8-7.2l-27-.3v42.8z"/></svg>